<?xml version="1.0" encoding="UTF-8" standalone="no"?>
<svg
   xmlns:dc="http://purl.org/dc/elements/1.1/"
   xmlns:cc="http://creativecommons.org/ns#"
   xmlns:rdf="http://www.w3.org/1999/02/22-rdf-syntax-ns#"
   xmlns:svg="http://www.w3.org/2000/svg"
   xmlns="http://www.w3.org/2000/svg"
   version="1.1"
   id="svg5142"
   viewBox="0 0 103.69037 103.69036"
   height="29.263723mm"
   width="29.263727mm"
   style="enable-background:new">
  <defs
     id="defs5144" />
  <metadata
     id="metadata5147">
    <rdf:RDF>
      <cc:Work
         rdf:about="">
        <dc:format>image/svg+xml</dc:format>
        <dc:type
           rdf:resource="http://purl.org/dc/dcmitype/StillImage" />
        <dc:title></dc:title>
      </cc:Work>
    </rdf:RDF>
  </metadata>
  <g
     style="display:inline"
     id="layer2"
     transform="translate(-588.908,189.90526)">
    <g
       id="g4435"
       transform="translate(-1444.5817,-844.24872)">
      <g
         style="fill:#ffffff"
         id="g5402"
         transform="matrix(0.82658403,0.02038204,-0.02038204,0.82658403,609.88541,-133.67173)">
        <ellipse
           style="opacity:1;fill:#ffffff;fill-opacity:1;fill-rule:evenodd;stroke:#000000;stroke-width:10.52204704;stroke-linecap:butt;stroke-linejoin:bevel;stroke-miterlimit:4;stroke-dasharray:none;stroke-dashoffset:16.79999924;stroke-opacity:1"
           id="ellipse5404"
           cx="1808.9507"
           cy="971.4563"
           rx="57.44186"
           ry="57.441856" />
      </g>
      <g
         id="g5619"
         transform="translate(-240,-60)">
        <g
           transform="translate(120,0)"
           id="g5543">
          <g
             id="g5494"
             transform="translate(-120.54248,0)">
            <ellipse
               style="opacity:1;fill:#ffffff;fill-opacity:1;fill-rule:evenodd;stroke:none;stroke-width:0.80000001;stroke-linecap:round;stroke-linejoin:round;stroke-miterlimit:5;stroke-dasharray:none;stroke-dashoffset:16.79999924;stroke-opacity:1"
               id="ellipse5482"
               cx="2325.9612"
               cy="791.83112"
               rx="27.234818"
               ry="11.315875" />
            <ellipse
               ry="11.315875"
               rx="27.234818"
               cy="789.33807"
               cx="2325.9612"
               id="path5478"
               style="opacity:1;fill:none;fill-opacity:1;fill-rule:evenodd;stroke:#000000;stroke-width:0.80000001;stroke-linecap:round;stroke-linejoin:round;stroke-miterlimit:5;stroke-dasharray:none;stroke-dashoffset:16.79999924;stroke-opacity:1" />
            <path
               style="opacity:1;fill:none;fill-opacity:1;fill-rule:evenodd;stroke:#000000;stroke-width:0.80000001;stroke-linecap:round;stroke-linejoin:round;stroke-miterlimit:5;stroke-dasharray:none;stroke-dashoffset:16.79999924;stroke-opacity:1"
               d="m 2353.196,791.83112 a 27.234818,11.315875 0 0 1 -27.1994,11.31586 27.234818,11.315875 0 0 1 -27.2701,-11.28645 l 0,-2.53425"
               id="ellipse5480" />
            <ellipse
               style="opacity:1;fill:none;fill-opacity:1;fill-rule:evenodd;stroke:#000000;stroke-width:0.80000007;stroke-linecap:round;stroke-linejoin:round;stroke-miterlimit:5;stroke-dasharray:none;stroke-dashoffset:16.79999924;stroke-opacity:1"
               id="ellipse5492"
               cx="2325.9612"
               cy="762.57098"
               rx="25.912098"
               ry="10.766296" />
          </g>
          <g
             id="g5530">
            <path
               id="path5500"
               d="m 2179.3013,792.25879 0,-43.38939 c 0,-12.08305 13.0806,-22.24816 28.002,-22.24816 14.9214,0 24.3579,12.46664 24.3579,22.43995 l 0,44.70168"
               style="opacity:1;fill:none;fill-opacity:1;fill-rule:evenodd;stroke:#000000;stroke-width:0.80000001;stroke-linecap:round;stroke-linejoin:round;stroke-miterlimit:5;stroke-dasharray:none;stroke-dashoffset:16.79999924;stroke-opacity:1" />
            <path
               id="path5502"
               d="m 2182.0457,794.57659 0,-43.56805 c 0,-13.01944 16.5455,-24.07643 24.6827,-24.07643 4.8823,0 21.699,8.78575 21.699,21.80519 l 0,46.653"
               style="opacity:1;fill:none;fill-opacity:1;fill-rule:evenodd;stroke:#000000;stroke-width:0.80000001;stroke-linecap:round;stroke-linejoin:round;stroke-miterlimit:5;stroke-dasharray:none;stroke-dashoffset:16.79999924;stroke-opacity:1" />
            <path
               id="path5504"
               d="m 2187.2339,797.17378 0,-42.61241 c 0,-12.55443 9.2626,-26.57636 18.9887,-26.46454 9.2782,0.10667 18.9887,13.45655 18.9887,23.02565 l 0,45.90178"
               style="opacity:1;fill:none;fill-opacity:1;fill-rule:evenodd;stroke:#000000;stroke-width:0.80000001;stroke-linecap:round;stroke-linejoin:round;stroke-miterlimit:5;stroke-dasharray:none;stroke-dashoffset:16.79999924;stroke-opacity:1" />
            <path
               id="path5506"
               d="m 2194.1117,799.41654 0,-46.35034 c 0,-12.85848 6.2797,-25.41792 12.2604,-25.41792 4.0797,0 14.2637,9.77864 14.2637,24.1073 l 0,46.80564"
               style="opacity:1;fill:none;fill-opacity:1;fill-rule:evenodd;stroke:#000000;stroke-width:0.80000001;stroke-linecap:round;stroke-linejoin:round;stroke-miterlimit:5;stroke-dasharray:none;stroke-dashoffset:16.79999924;stroke-opacity:1" />
            <path
               id="path5508"
               d="m 2202.4847,800.40819 0,-41.06227 c 0,0 1.7942,-31.39861 4.4855,-31.39861 2.6913,0 6.1302,11.36331 6.1302,31.99668 l 0,40.22013"
               style="opacity:1;fill:none;fill-opacity:1;fill-rule:evenodd;stroke:#000000;stroke-width:0.80000001;stroke-linecap:round;stroke-linejoin:round;stroke-miterlimit:5;stroke-dasharray:none;stroke-dashoffset:16.79999924;stroke-opacity:1" />
          </g>
        </g>
        <g
           transform="translate(120,0)"
           id="g5525">
          <path
             style="opacity:1;fill:#000000;fill-opacity:1;fill-rule:evenodd;stroke:#000000;stroke-width:0.80000001;stroke-linecap:round;stroke-linejoin:round;stroke-miterlimit:5;stroke-dasharray:none;stroke-dashoffset:16.79999924;stroke-opacity:1"
             d="m 2215.2449,728.01278 c -2.5418,2.24276 -4.3872,3.97149 -8.8728,3.97149 -4.4855,0 -6.5195,-1.69599 -8.9117,-3.78923 3.6712,-1.26363 12.7945,-2.36528 17.7845,-0.18226 z"
             id="path5510" />
          <path
             style="opacity:1;fill:#000000;fill-opacity:1;fill-rule:evenodd;stroke:#000000;stroke-width:0.80000001;stroke-linecap:round;stroke-linejoin:round;stroke-miterlimit:5;stroke-dasharray:none;stroke-dashoffset:16.79999924;stroke-opacity:1"
             d="m 2204.2852,727.45452 2.1799,-3.58125 2.0242,0 1.8685,3.89266 z"
             id="path5514" />
          <ellipse
             style="opacity:1;fill:none;fill-opacity:1;fill-rule:evenodd;stroke:#000000;stroke-width:0.80000001;stroke-linecap:round;stroke-linejoin:round;stroke-miterlimit:5;stroke-dasharray:none;stroke-dashoffset:16.79999924;stroke-opacity:1"
             id="path5516"
             cx="2207.166"
             cy="722.54974"
             rx="2.2577443"
             ry="1.4792118" />
        </g>
      </g>
      <path
         id="path5416"
         d="m 2086.0466,720.60289 -23.8528,8.47963 22.7295,9.74451 25.9067,-10.28474 z m 0.3663,6.36391 c 2.3725,10e-5 4.1996,1.0282 4.0811,2.29641 -0.1186,1.26817 -2.1378,2.29625 -4.5102,2.29637 -2.3725,-7e-5 -4.1997,-1.02816 -4.0812,-2.29637 0.1185,-1.26821 2.1378,-2.29632 4.5103,-2.29641 z m -6.9401,4.37904 c 0.5017,-0.0467 0.9965,0.0613 1.372,0.43021 0.4998,0.49189 0.3696,0.91368 -0.195,1.19318 l -2.2213,1.10111 c -0.5631,0.27947 -1.3391,0.30764 -1.8392,-0.18426 -0.4997,-0.49195 -0.3682,-1.03162 0.1993,-1.31111 l 2.2196,-1.10305 c 0.1407,-0.0699 0.2998,-0.11064 0.4673,-0.12608 z"
         style="opacity:1;fill:#000000;fill-opacity:1;fill-rule:evenodd;stroke:none;stroke-width:1.5;stroke-linecap:round;stroke-linejoin:round;stroke-miterlimit:5;stroke-dasharray:none;stroke-dashoffset:16.79999924;stroke-opacity:1" />
      <g
         transform="matrix(0.82658403,0.02038204,-0.02038204,0.82658403,609.8854,-133.67173)"
         id="g5447">
        <path
           style="opacity:1;fill:none;fill-opacity:1;fill-rule:evenodd;stroke:#000000;stroke-width:10.52204704;stroke-linecap:butt;stroke-linejoin:bevel;stroke-miterlimit:4;stroke-dasharray:none;stroke-dashoffset:16.79999924;stroke-opacity:1"
           d="m 1769.2295,932.89572 83.3038,82.06028"
           id="path5449" />
        <ellipse
           ry="57.441856"
           rx="57.44186"
           cy="971.4563"
           cx="1808.9507"
           id="ellipse5451"
           style="opacity:1;fill:none;fill-opacity:1;fill-rule:evenodd;stroke:#000000;stroke-width:10.52204704;stroke-linecap:butt;stroke-linejoin:bevel;stroke-miterlimit:4;stroke-dasharray:none;stroke-dashoffset:16.79999924;stroke-opacity:1" />
      </g>
      <g
         id="g4420">
        <path
           id="path5518"
           d="m 2079.5204,672.47233 c -1.9458,0 -2.4091,0.92671 -3.1504,1.66797 -0.7412,0.74126 -2.6777,3.76758 -2.6777,3.76758 0,0 1.1153,-0.13051 1.705,-0.39258 0.5896,-0.26206 1.2439,-0.0664 2.0957,-0.0664 0.8517,0 1.703,0.58965 3.2754,1.4414 1.5725,0.85174 0.5912,6.61736 2.5567,8.64844 1.9656,2.03109 4.0622,5.70063 4.1933,6.81445 0.131,1.11382 1.1126,2.16212 1.6367,1.44141 0.5242,-0.7207 0.786,-1.76829 1.5723,-1.24414 0.7862,0.52415 0.4406,1.82648 1.2924,2.15408 0.8517,0.32759 2.7529,-1.50603 3.5391,-2.0957 0.7862,-0.58967 2.4414,0.20244 2.8345,0.85763 0.3931,0.65519 0.2617,1.96502 0.2617,2.55469 0,0.58967 -0.066,3.66975 0.7208,3.80078 0.7862,0.13104 0.4598,-1.57156 1.246,-1.375 0.7858,0.19656 0.065,2.02983 0.8516,2.35742 0.7862,0.32759 0.9824,-0.98171 1.7031,-0.78515 0.7208,0.19656 1.3097,2.22709 1.9649,1.83398 0.6552,-0.39312 -0.5228,-2.75122 -2.3575,-6.1582 -1.8344,-3.40698 -4.9178,-9.8407 -9.5507,-15.21484 -4.6329,-5.37414 -11.7671,-10.00782 -13.7129,-10.00782 z m -0.079,1.57102 c 0.4325,-1.6e-4 0.7831,0.29649 0.783,0.66241 -7e-4,0.36543 -0.3511,0.66131 -0.783,0.66114 -0.4318,1.4e-4 -0.7822,-0.29573 -0.7829,-0.66114 -1e-4,-0.3659 0.3505,-0.66254 0.7829,-0.66241 z"
           style="opacity:1;fill:#000000;fill-opacity:1;fill-rule:evenodd;stroke:#000000;stroke-width:0.80000001;stroke-linecap:round;stroke-linejoin:round;stroke-miterlimit:5;stroke-dasharray:none;stroke-dashoffset:16.79999924;stroke-opacity:1" />
        <g
           id="g4404">
          <path
             style="opacity:1;fill:none;fill-opacity:1;fill-rule:evenodd;stroke:#000000;stroke-width:1;stroke-linecap:round;stroke-linejoin:round;stroke-miterlimit:5;stroke-dasharray:none;stroke-dashoffset:16.79999924;stroke-opacity:1"
             d="m 2094.3608,699.5295 0,-31.47457"
             id="path5608" />
          <path
             style="opacity:1;fill:none;fill-opacity:1;fill-rule:evenodd;stroke:#000000;stroke-width:1;stroke-linecap:round;stroke-linejoin:round;stroke-miterlimit:5;stroke-dasharray:none;stroke-dashoffset:16.79999924;stroke-opacity:1"
             d="m 2085.7333,694.41688 0,-25.24357"
             id="path5610" />
          <g
             id="g4400">
            <path
               id="path5523"
               d="m 2086.0957,692.7793 a 1.850185,1.850185 0 0 0 -0.9766,3.46289 l 8.0059,4.63476 a 1.850185,1.850185 0 1 0 1.8535,-3.20117 l -8.0058,-4.63672 a 1.850185,1.850185 0 0 0 -0.877,-0.25976 z"
               style="color:#000000;font-style:normal;font-variant:normal;font-weight:normal;font-stretch:normal;font-size:medium;line-height:normal;font-family:sans-serif;text-indent:0;text-align:start;text-decoration:none;text-decoration-line:none;text-decoration-style:solid;text-decoration-color:#000000;letter-spacing:normal;word-spacing:normal;text-transform:none;direction:ltr;block-progression:tb;writing-mode:lr-tb;baseline-shift:baseline;text-anchor:start;white-space:normal;clip-rule:nonzero;display:inline;overflow:visible;visibility:visible;opacity:1;isolation:auto;mix-blend-mode:normal;color-interpolation:sRGB;color-interpolation-filters:linearRGB;solid-color:#000000;solid-opacity:1;fill:#ffffff;fill-opacity:1;fill-rule:evenodd;stroke:#000000;stroke-width:1;stroke-linecap:round;stroke-linejoin:round;stroke-miterlimit:5;stroke-dasharray:none;stroke-dashoffset:16.79999924;stroke-opacity:1;color-rendering:auto;image-rendering:auto;shape-rendering:auto;text-rendering:auto;enable-background:accumulate" />
            <circle
               r="1.8486668"
               cy="699.33075"
               cx="2094.1626"
               id="path4380"
               style="opacity:1;fill:#ffffff;fill-opacity:1;fill-rule:evenodd;stroke:#000000;stroke-width:0.99999994;stroke-linecap:round;stroke-linejoin:round;stroke-miterlimit:5;stroke-dasharray:none;stroke-dashoffset:16.79999924;stroke-opacity:1" />
          </g>
        </g>
        <g
           transform="translate(0.62872384,0.35208535)"
           id="g4388">
          <path
             style="color:#000000;font-style:normal;font-variant:normal;font-weight:normal;font-stretch:normal;font-size:medium;line-height:normal;font-family:sans-serif;text-indent:0;text-align:start;text-decoration:none;text-decoration-line:none;text-decoration-style:solid;text-decoration-color:#000000;letter-spacing:normal;word-spacing:normal;text-transform:none;direction:ltr;block-progression:tb;writing-mode:lr-tb;baseline-shift:baseline;text-anchor:start;white-space:normal;clip-rule:nonzero;display:inline;overflow:visible;visibility:visible;opacity:1;isolation:auto;mix-blend-mode:normal;color-interpolation:sRGB;color-interpolation-filters:linearRGB;solid-color:#000000;solid-opacity:1;fill:#000000;fill-opacity:1;fill-rule:evenodd;stroke:none;stroke-width:1;stroke-linecap:round;stroke-linejoin:round;stroke-miterlimit:5;stroke-dasharray:none;stroke-dashoffset:16.79999924;stroke-opacity:1;color-rendering:auto;image-rendering:auto;shape-rendering:auto;text-rendering:auto;enable-background:accumulate"
             d="m 2090.166,694.91406 c -0.3514,0.0698 -0.6863,0.2259 -0.9707,0.46094 -0.5688,0.47007 -0.644,1.50979 -0.5314,2.12794 0.041,0.37801 0.6083,0.31561 0.5662,-0.0624 -0.092,-0.45048 0.2916,-1.03968 0.6019,-1.29611 0.3103,-0.25643 0.7266,-0.33906 1.1114,-0.2207 0.6512,0.22448 0.9593,-0.77337 0.2949,-0.95508 -0.3527,-0.10848 -0.7208,-0.12451 -1.0723,-0.0547 z"
             id="circle4382" />
          <path
             id="path4386"
             d="m 2088.4087,694.92069 c -0.4754,0.21536 -0.6428,0.51389 -0.5901,1.01469 0.047,0.45307 0.6123,0.62491 0.5638,0.17172 -0.032,-0.27341 0.2987,-0.42849 0.558,-0.54596 0.2595,-0.11748 0.76,-0.0478 1.1138,0.19325 0.5982,0.42969 0.8813,-0.38164 0.2709,-0.77648 -0.3237,-0.22072 -0.6618,-0.16052 -0.9847,-0.21695 -0.323,-0.0564 -0.694,0.0518 -0.9317,0.15973 z"
             style="color:#000000;font-style:normal;font-variant:normal;font-weight:normal;font-stretch:normal;font-size:medium;line-height:normal;font-family:sans-serif;text-indent:0;text-align:start;text-decoration:none;text-decoration-line:none;text-decoration-style:solid;text-decoration-color:#000000;letter-spacing:normal;word-spacing:normal;text-transform:none;direction:ltr;block-progression:tb;writing-mode:lr-tb;baseline-shift:baseline;text-anchor:start;white-space:normal;clip-rule:nonzero;display:inline;overflow:visible;visibility:visible;opacity:1;isolation:auto;mix-blend-mode:normal;color-interpolation:sRGB;color-interpolation-filters:linearRGB;solid-color:#000000;solid-opacity:1;fill:#000000;fill-opacity:1;fill-rule:evenodd;stroke:none;stroke-width:1;stroke-linecap:round;stroke-linejoin:round;stroke-miterlimit:5;stroke-dasharray:none;stroke-dashoffset:16.79999924;stroke-opacity:1;color-rendering:auto;image-rendering:auto;shape-rendering:auto;text-rendering:auto;enable-background:accumulate" />
        </g>
        <g
           id="g4392"
           transform="translate(-2.3985567,-1.4390556)">
          <path
             id="path4394"
             d="m 2090.166,694.91406 c -0.3514,0.0698 -0.7195,0.19075 -0.9707,0.46094 -0.6102,0.65618 -0.5249,1.71276 -0.4011,2.3093 0.112,0.34672 0.4768,0.13453 0.4227,-0.19736 -0.089,-0.44353 0.3048,-1.08604 0.6151,-1.34247 0.3103,-0.25643 0.7266,-0.33906 1.1114,-0.2207 0.6512,0.22448 0.9593,-0.77337 0.2949,-0.95508 -0.3527,-0.10848 -0.7208,-0.12451 -1.0723,-0.0547 z"
             style="color:#000000;font-style:normal;font-variant:normal;font-weight:normal;font-stretch:normal;font-size:medium;line-height:normal;font-family:sans-serif;text-indent:0;text-align:start;text-decoration:none;text-decoration-line:none;text-decoration-style:solid;text-decoration-color:#000000;letter-spacing:normal;word-spacing:normal;text-transform:none;direction:ltr;block-progression:tb;writing-mode:lr-tb;baseline-shift:baseline;text-anchor:start;white-space:normal;clip-rule:nonzero;display:inline;overflow:visible;visibility:visible;opacity:1;isolation:auto;mix-blend-mode:normal;color-interpolation:sRGB;color-interpolation-filters:linearRGB;solid-color:#000000;solid-opacity:1;fill:#000000;fill-opacity:1;fill-rule:evenodd;stroke:none;stroke-width:1;stroke-linecap:round;stroke-linejoin:round;stroke-miterlimit:5;stroke-dasharray:none;stroke-dashoffset:16.79999924;stroke-opacity:1;color-rendering:auto;image-rendering:auto;shape-rendering:auto;text-rendering:auto;enable-background:accumulate" />
          <path
             style="color:#000000;font-style:normal;font-variant:normal;font-weight:normal;font-stretch:normal;font-size:medium;line-height:normal;font-family:sans-serif;text-indent:0;text-align:start;text-decoration:none;text-decoration-line:none;text-decoration-style:solid;text-decoration-color:#000000;letter-spacing:normal;word-spacing:normal;text-transform:none;direction:ltr;block-progression:tb;writing-mode:lr-tb;baseline-shift:baseline;text-anchor:start;white-space:normal;clip-rule:nonzero;display:inline;overflow:visible;visibility:visible;opacity:1;isolation:auto;mix-blend-mode:normal;color-interpolation:sRGB;color-interpolation-filters:linearRGB;solid-color:#000000;solid-opacity:1;fill:#000000;fill-opacity:1;fill-rule:evenodd;stroke:none;stroke-width:1;stroke-linecap:round;stroke-linejoin:round;stroke-miterlimit:5;stroke-dasharray:none;stroke-dashoffset:16.79999924;stroke-opacity:1;color-rendering:auto;image-rendering:auto;shape-rendering:auto;text-rendering:auto;enable-background:accumulate"
             d="m 2089.522,696.10308 c -0.2189,0.4015 -0.1788,0.69861 0.1222,1.02136 0.2723,0.29182 0.7583,0.11421 0.485,-0.17728 -0.1657,-0.17499 -0.018,-0.45737 0.1027,-0.67635 0.1198,-0.21912 0.5068,-0.43438 0.8815,-0.45223 0.6452,-0.0149 0.4154,-0.73196 -0.2202,-0.6862 -0.3432,0.0162 -0.548,0.23674 -0.8034,0.36759 -0.2557,0.13097 -0.4583,0.40227 -0.568,0.60312 z"
             id="path4396" />
        </g>
      </g>
    </g>
  </g>
</svg>
