<?xml version="1.0" encoding="UTF-8" standalone="no"?>
<svg
   xmlns:dc="http://purl.org/dc/elements/1.1/"
   xmlns:cc="http://creativecommons.org/ns#"
   xmlns:rdf="http://www.w3.org/1999/02/22-rdf-syntax-ns#"
   xmlns:svg="http://www.w3.org/2000/svg"
   xmlns="http://www.w3.org/2000/svg"
   style="enable-background:new"
   width="34.878071mm"
   height="34.878071mm"
   viewBox="0 0 123.58372 123.58372"
   id="svg5142"
   version="1.1">
  <defs
     id="defs5144" />
  <metadata
     id="metadata5147">
    <rdf:RDF>
      <cc:Work
         rdf:about="">
        <dc:format>image/svg+xml</dc:format>
        <dc:type
           rdf:resource="http://purl.org/dc/dcmitype/StillImage" />
        <dc:title></dc:title>
      </cc:Work>
    </rdf:RDF>
  </metadata>
  <g
     transform="translate(-302.57713,-11.415724)"
     id="layer2"
     style="display:inline">
    <g
       id="g4609">
      <ellipse
         style="opacity:1;fill:#ffffff;fill-opacity:1;fill-rule:evenodd;stroke:#000000;stroke-width:8.69999981;stroke-linecap:butt;stroke-linejoin:bevel;stroke-miterlimit:4;stroke-dasharray:none;stroke-dashoffset:16.79999924;stroke-opacity:1"
         id="ellipse4376"
         cx="364.36899"
         cy="73.207581"
         rx="57.44186"
         ry="57.441856" />
      <g
         id="g4554">
        <g
           transform="matrix(1.2913306,0,0,1.3790063,-791.43624,-1048.5482)"
           id="g4394">
          <path
             style="opacity:1;fill:#ffffff;fill-opacity:1;fill-rule:evenodd;stroke:#000000;stroke-width:1.49874651;stroke-linecap:butt;stroke-linejoin:miter;stroke-miterlimit:4;stroke-dasharray:none;stroke-dashoffset:16.79999924;stroke-opacity:1"
             d="m 882.66288,798.16415 36.52692,0 0,4.97914 -2.81288,0 0,4.10843 2.81288,0 0,24.02107 -36.52692,0 z"
             id="path4397" />
          <circle
             style="opacity:1;fill:#ffffff;fill-opacity:1;fill-rule:evenodd;stroke:#000000;stroke-width:1.49874651;stroke-linecap:butt;stroke-linejoin:miter;stroke-miterlimit:4;stroke-dasharray:none;stroke-dashoffset:16.79999924;stroke-opacity:1"
             id="circle4399"
             cx="900.91711"
             cy="813.76318"
             r="4.4960175" />
          <path
             style="opacity:1;fill:#ffffff;fill-opacity:1;fill-rule:evenodd;stroke:#000000;stroke-width:1.49874651;stroke-linecap:butt;stroke-linejoin:miter;stroke-miterlimit:4;stroke-dasharray:none;stroke-dashoffset:16.79999924;stroke-opacity:1"
             d="m 902.63361,823.13494 0,3.44653 c 0,1.40432 -1.05045,1.91003 -1.86716,1.91003 -0.81672,0 -1.86716,-0.49132 -1.86716,-1.91003 l 0,-3.44653 c 0,-1.44363 1.0384,-1.97669 1.86716,-1.97669 0.82876,0 1.86716,0.54744 1.86716,1.97669 z"
             id="path4401" />
        </g>
        <g
           id="g4465">
          <path
             id="path4451"
             d="m 378.80078,25.986328 0.48828,2.472656 c 0.0726,1.046547 -0.35879,1.931911 -0.99609,3.023438 -0.66348,1.136366 -1.51743,2.462306 -1.57227,4.216797 -0.0374,1.196107 0.52926,2.269835 1.33203,3.050781 0.80277,0.780946 1.87205,1.311108 3.03125,1.335938 1.37983,0.02955 2.57799,-0.633493 3.38282,-1.583985 0.80482,-0.950491 1.26868,-2.182464 1.33008,-3.460937 0.13374,-2.78524 -1.60043,-5.018161 -3.23829,-6.535157 -1.63786,-1.516995 -3.30273,-2.40039 -3.30273,-2.40039 -0.13931,-0.07723 -0.2958,-0.118203 -0.45508,-0.119141 z m 2.19336,3.714844 c 0.13453,0.115427 0.13819,0.07395 0.27344,0.199219 1.43787,1.331767 2.72326,3.124669 2.63086,5.048828 -0.0417,0.869138 -0.3771,1.731236 -0.88086,2.326172 -0.50376,0.594935 -1.12476,0.928595 -1.89453,0.912109 -0.57662,-0.01235 -1.25087,-0.318962 -1.74414,-0.798828 -0.49328,-0.479867 -0.77467,-1.091598 -0.75782,-1.63086 0.0362,-1.156888 0.62957,-2.148666 1.3125,-3.318359 0.45678,-0.782337 0.83955,-1.716018 1.06055,-2.738281 z"
             style="color:#000000;font-style:normal;font-variant:normal;font-weight:normal;font-stretch:normal;font-size:medium;line-height:normal;font-family:sans-serif;text-indent:0;text-align:start;text-decoration:none;text-decoration-line:none;text-decoration-style:solid;text-decoration-color:#000000;letter-spacing:normal;word-spacing:normal;text-transform:none;direction:ltr;block-progression:tb;writing-mode:lr-tb;baseline-shift:baseline;text-anchor:start;white-space:normal;clip-rule:nonzero;display:inline;overflow:visible;visibility:visible;opacity:1;isolation:auto;mix-blend-mode:normal;color-interpolation:sRGB;color-interpolation-filters:linearRGB;solid-color:#000000;solid-opacity:1;fill:#000000;fill-opacity:1;fill-rule:evenodd;stroke:none;stroke-width:1.89999998;stroke-linecap:round;stroke-linejoin:round;stroke-miterlimit:5;stroke-dasharray:none;stroke-dashoffset:16.79999924;stroke-opacity:1;color-rendering:auto;image-rendering:auto;shape-rendering:auto;text-rendering:auto;enable-background:accumulate" />
          <path
             style="color:#000000;font-style:normal;font-variant:normal;font-weight:normal;font-stretch:normal;font-size:medium;line-height:normal;font-family:sans-serif;text-indent:0;text-align:start;text-decoration:none;text-decoration-line:none;text-decoration-style:solid;text-decoration-color:#000000;letter-spacing:normal;word-spacing:normal;text-transform:none;direction:ltr;block-progression:tb;writing-mode:lr-tb;baseline-shift:baseline;text-anchor:start;white-space:normal;clip-rule:nonzero;display:inline;overflow:visible;visibility:visible;opacity:1;isolation:auto;mix-blend-mode:normal;color-interpolation:sRGB;color-interpolation-filters:linearRGB;solid-color:#000000;solid-opacity:1;fill:#000000;fill-opacity:1;fill-rule:evenodd;stroke:none;stroke-width:1.89999998;stroke-linecap:round;stroke-linejoin:round;stroke-miterlimit:5;stroke-dasharray:none;stroke-dashoffset:16.79999924;stroke-opacity:1;color-rendering:auto;image-rendering:auto;shape-rendering:auto;text-rendering:auto;enable-background:accumulate"
             d="m 360.25506,33.6949 0.53873,2.728176 c 0.0801,1.154697 -0.39584,2.131556 -1.09899,3.335878 -0.73208,1.253801 -1.67428,2.716761 -1.73477,4.652557 -0.0414,1.319712 0.58396,2.5044 1.46968,3.366051 0.88572,0.861646 2.0655,1.446593 3.3445,1.473993 1.52243,0.0326 2.84439,-0.698958 3.73242,-1.747675 0.88797,-1.048716 1.39978,-2.407999 1.46753,-3.818587 0.14754,-3.073065 -1.76583,-5.536736 -3.57294,-7.210497 -1.80711,-1.67376 -3.64403,-2.648445 -3.64403,-2.648445 -0.15371,-0.08523 -0.3264,-0.130418 -0.50213,-0.131451 z m 2.42001,4.098734 c 0.14843,0.127352 0.15249,0.0816 0.30169,0.219804 1.58647,1.469392 3.00471,3.447569 2.90276,5.570573 -0.0462,0.958953 -0.4161,1.910141 -0.97191,2.566557 -0.55581,0.656415 -1.24096,1.024555 -2.09028,1.006364 -0.63622,-0.01362 -1.38017,-0.351922 -1.92439,-0.881378 -0.54428,-0.529457 -0.85472,-1.204403 -0.83612,-1.799395 0.0397,-1.276438 0.69462,-2.370706 1.4481,-3.661274 0.50398,-0.863182 0.92635,-1.893348 1.17015,-3.021251 z"
             id="path4455" />
          <path
             style="color:#000000;font-style:normal;font-variant:normal;font-weight:normal;font-stretch:normal;font-size:medium;line-height:normal;font-family:sans-serif;text-indent:0;text-align:start;text-decoration:none;text-decoration-line:none;text-decoration-style:solid;text-decoration-color:#000000;letter-spacing:normal;word-spacing:normal;text-transform:none;direction:ltr;block-progression:tb;writing-mode:lr-tb;baseline-shift:baseline;text-anchor:start;white-space:normal;clip-rule:nonzero;display:inline;overflow:visible;visibility:visible;opacity:1;isolation:auto;mix-blend-mode:normal;color-interpolation:sRGB;color-interpolation-filters:linearRGB;solid-color:#000000;solid-opacity:1;fill:#ffffff;fill-opacity:1;fill-rule:evenodd;stroke:none;stroke-width:1.89999998;stroke-linecap:round;stroke-linejoin:round;stroke-miterlimit:5;stroke-dasharray:none;stroke-dashoffset:16.79999924;stroke-opacity:1;color-rendering:auto;image-rendering:auto;shape-rendering:auto;text-rendering:auto;enable-background:accumulate"
             d="m 369.54302,34.383474 0.67999,3.443632 c 0.1011,1.457517 -0.49958,2.690562 -1.38712,4.21071 -0.92414,1.582618 -2.11344,3.429235 -2.18976,5.872686 -0.0526,1.665806 0.73712,3.161181 1.8551,4.248805 1.11798,1.087607 2.60716,1.825953 4.2216,1.860547 1.92171,0.04114 3.59031,-0.88226 4.71129,-2.206006 1.1208,-1.323745 1.76686,-3.039497 1.85239,-4.820007 0.18619,-3.878975 -2.22894,-6.988746 -4.50996,-9.101449 -2.28101,-2.112702 -4.59967,-3.342999 -4.59967,-3.342999 -0.19402,-0.107605 -0.41206,-0.16462 -0.63386,-0.165919 z"
             id="path4473" />
          <path
             id="path4457"
             d="m 369.54302,34.383474 0.67999,3.443632 c 0.1011,1.457517 -0.49958,2.690562 -1.38712,4.21071 -0.92414,1.582618 -2.11344,3.429235 -2.18976,5.872686 -0.0526,1.665806 0.73712,3.161181 1.8551,4.248805 1.11798,1.087607 2.60716,1.825953 4.2216,1.860547 1.92171,0.04114 3.59031,-0.88226 4.71129,-2.206006 1.1208,-1.323745 1.76686,-3.039497 1.85239,-4.820007 0.18619,-3.878975 -2.22894,-6.988746 -4.50996,-9.101449 -2.28101,-2.112702 -4.59967,-3.342999 -4.59967,-3.342999 -0.19402,-0.107605 -0.41206,-0.16462 -0.63386,-0.165919 z m 3.02727,4.736482 c 0.20121,0.172634 0.20676,0.110637 0.40896,0.297967 2.15067,1.991945 4.07332,4.673602 3.93511,7.551603 -0.063,1.299977 -0.56415,2.589432 -1.31759,3.479284 -0.75346,0.889851 -1.68221,1.388909 -2.83356,1.364247 -0.86251,-0.01843 -1.87108,-0.477071 -2.60878,-1.194816 -0.7379,-0.717746 -1.15867,-1.632716 -1.13343,-2.439308 0.0533,-1.730365 0.94161,-3.213781 1.963,-4.963304 0.68319,-1.170146 1.25587,-2.566661 1.58629,-4.095673 z"
             style="color:#000000;font-style:normal;font-variant:normal;font-weight:normal;font-stretch:normal;font-size:medium;line-height:normal;font-family:sans-serif;text-indent:0;text-align:start;text-decoration:none;text-decoration-line:none;text-decoration-style:solid;text-decoration-color:#000000;letter-spacing:normal;word-spacing:normal;text-transform:none;direction:ltr;block-progression:tb;writing-mode:lr-tb;baseline-shift:baseline;text-anchor:start;white-space:normal;clip-rule:nonzero;display:inline;overflow:visible;visibility:visible;opacity:1;isolation:auto;mix-blend-mode:normal;color-interpolation:sRGB;color-interpolation-filters:linearRGB;solid-color:#000000;solid-opacity:1;fill:#000000;fill-opacity:1;fill-rule:evenodd;stroke:none;stroke-width:1.89999998;stroke-linecap:round;stroke-linejoin:round;stroke-miterlimit:5;stroke-dasharray:none;stroke-dashoffset:16.79999924;stroke-opacity:1;color-rendering:auto;image-rendering:auto;shape-rendering:auto;text-rendering:auto;enable-background:accumulate" />
          <path
             style="color:#000000;font-style:normal;font-variant:normal;font-weight:normal;font-stretch:normal;font-size:medium;line-height:normal;font-family:sans-serif;text-indent:0;text-align:start;text-decoration:none;text-decoration-line:none;text-decoration-style:solid;text-decoration-color:#000000;letter-spacing:normal;word-spacing:normal;text-transform:none;direction:ltr;block-progression:tb;writing-mode:lr-tb;baseline-shift:baseline;text-anchor:start;white-space:normal;clip-rule:nonzero;display:inline;overflow:visible;visibility:visible;opacity:1;isolation:auto;mix-blend-mode:normal;color-interpolation:sRGB;color-interpolation-filters:linearRGB;solid-color:#000000;solid-opacity:1;fill:#000000;fill-opacity:1;fill-rule:evenodd;stroke:none;stroke-width:1.89999998;stroke-linecap:round;stroke-linejoin:round;stroke-miterlimit:5;stroke-dasharray:none;stroke-dashoffset:16.79999924;stroke-opacity:1;color-rendering:auto;image-rendering:auto;shape-rendering:auto;text-rendering:auto;enable-background:accumulate"
             d="m 386.23695,37.869698 0.0618,2.362396 c -0.0977,0.978757 -0.63602,1.729134 -1.39702,2.637635 -0.79225,0.94582 -1.79043,2.036858 -2.11753,3.64989 -0.22292,1.099683 0.13158,2.181383 0.75058,3.029676 0.61897,0.848291 1.52378,1.506773 2.59133,1.712336 1.27071,0.244687 2.48264,-0.179407 3.37624,-0.931159 0.89364,-0.751747 1.51646,-1.817384 1.77462,-2.989404 0.56242,-2.553321 -0.68873,-4.890402 -1.96362,-6.550581 -1.27489,-1.660181 -2.67458,-2.73898 -2.67458,-2.73898 -0.11658,-0.09332 -0.25473,-0.155848 -0.40181,-0.181809 z m 1.44209,3.779158 c 0.10618,0.127886 0.11608,0.09011 0.22137,0.227218 1.11921,1.457463 2.02482,3.317136 1.63629,5.081073 -0.17531,0.796801 -0.62128,1.540772 -1.18061,2.011313 -0.55934,0.470538 -1.18592,0.681104 -1.8948,0.544604 -0.53101,-0.102239 -1.10591,-0.491874 -1.48627,-1.013123 -0.38033,-0.521245 -0.54406,-1.131001 -0.44356,-1.626788 0.21576,-1.063595 0.92043,-1.886823 1.73594,-2.860383 0.54547,-0.65115 1.04632,-1.453857 1.41164,-2.363914 z"
             id="path4459" />
          <path
             id="path4461"
             d="m 349.51343,37.401328 0.69206,2.369313 c 0.16216,1.014503 -0.18142,1.915766 -0.70782,3.036092 -0.54802,1.166344 -1.26529,2.53423 -1.1657,4.250412 0.0679,1.16999 0.71432,2.167901 1.56552,2.859615 0.8512,0.691716 1.94047,1.115553 3.07336,1.038624 1.34852,-0.09155 2.45939,-0.842882 3.16152,-1.840256 0.7021,-0.997369 1.04708,-2.239558 0.99541,-3.491985 -0.1126,-2.728498 -1.99899,-4.755251 -3.72899,-6.092069 -1.72999,-1.336817 -3.43105,-2.053241 -3.43105,-2.053241 -0.14263,-0.06318 -0.29885,-0.08949 -0.45431,-0.07651 z m 2.46364,3.432209 c 0.1413,0.100851 0.14124,0.06007 0.28411,0.170464 1.51876,1.173591 2.92901,2.810295 3.00678,4.695252 0.0355,0.851412 -0.21677,1.721616 -0.65624,2.345896 -0.43948,0.62428 -1.01611,1.003931 -1.7684,1.055017 -0.56355,0.03819 -1.24798,-0.201979 -1.77101,-0.627015 -0.52304,-0.425038 -0.85089,-0.997191 -0.88151,-1.524675 -0.0658,-1.131623 0.42662,-2.150825 0.9907,-3.351377 0.37731,-0.802978 0.66919,-1.747125 0.79557,-2.763562 z"
             style="color:#000000;font-style:normal;font-variant:normal;font-weight:normal;font-stretch:normal;font-size:medium;line-height:normal;font-family:sans-serif;text-indent:0;text-align:start;text-decoration:none;text-decoration-line:none;text-decoration-style:solid;text-decoration-color:#000000;letter-spacing:normal;word-spacing:normal;text-transform:none;direction:ltr;block-progression:tb;writing-mode:lr-tb;baseline-shift:baseline;text-anchor:start;white-space:normal;clip-rule:nonzero;display:inline;overflow:visible;visibility:visible;opacity:1;isolation:auto;mix-blend-mode:normal;color-interpolation:sRGB;color-interpolation-filters:linearRGB;solid-color:#000000;solid-opacity:1;fill:#000000;fill-opacity:1;fill-rule:evenodd;stroke:none;stroke-width:1.89999998;stroke-linecap:round;stroke-linejoin:round;stroke-miterlimit:5;stroke-dasharray:none;stroke-dashoffset:16.79999924;stroke-opacity:1;color-rendering:auto;image-rendering:auto;shape-rendering:auto;text-rendering:auto;enable-background:accumulate" />
          <path
             style="color:#000000;font-style:normal;font-variant:normal;font-weight:normal;font-stretch:normal;font-size:medium;line-height:normal;font-family:sans-serif;text-indent:0;text-align:start;text-decoration:none;text-decoration-line:none;text-decoration-style:solid;text-decoration-color:#000000;letter-spacing:normal;word-spacing:normal;text-transform:none;direction:ltr;block-progression:tb;writing-mode:lr-tb;baseline-shift:baseline;text-anchor:start;white-space:normal;clip-rule:nonzero;display:inline;overflow:visible;visibility:visible;opacity:1;isolation:auto;mix-blend-mode:normal;color-interpolation:sRGB;color-interpolation-filters:linearRGB;solid-color:#000000;solid-opacity:1;fill:#000000;fill-opacity:1;fill-rule:evenodd;stroke:none;stroke-width:1.89999998;stroke-linecap:round;stroke-linejoin:round;stroke-miterlimit:5;stroke-dasharray:none;stroke-dashoffset:16.79999924;stroke-opacity:1;color-rendering:auto;image-rendering:auto;shape-rendering:auto;text-rendering:auto;enable-background:accumulate"
             d="m 338.43025,58.451863 0.44653,2.268532 c 0.0659,0.960084 -0.33021,1.772005 -0.91547,2.772947 -0.60924,1.042052 -1.39335,2.257908 -1.44465,3.867333 -0.0347,1.097215 0.48422,2.082498 1.2202,2.799333 0.73599,0.71684 1.71658,1.20377 2.77991,1.227203 1.26578,0.0279 2.36527,-0.579687 3.1041,-1.451156 0.73881,-0.871468 1.16503,-2.001339 1.22207,-3.174093 0.12424,-2.554924 -1.46535,-4.604232 -2.96693,-5.996742 -1.50162,-1.392506 -3.02838,-2.203809 -3.02838,-2.203809 -0.12775,-0.07093 -0.27129,-0.108593 -0.41741,-0.109551 z m 2.00998,3.408983 c 0.12336,0.105958 0.12669,0.06795 0.25073,0.182899 1.31825,1.222485 2.49637,2.867897 2.41049,4.632941 -0.0381,0.797295 -0.34685,1.587913 -0.80929,2.133386 -0.46247,0.545473 -1.03235,0.851204 -1.73843,0.83565 -0.52894,-0.01173 -1.14728,-0.293299 -1.59952,-0.73377 -0.45224,-0.440478 -0.71001,-1.001794 -0.69429,-1.496467 0.0335,-1.061248 0.57876,-1.970695 1.20587,-3.043314 0.41949,-0.717406 0.77114,-1.573693 0.97444,-2.511325 z"
             id="path4463" />
        </g>
        <path
           style="opacity:1;fill:#ffffff;fill-opacity:1;fill-rule:evenodd;stroke:#000000;stroke-width:1.89999998;stroke-linecap:round;stroke-linejoin:round;stroke-miterlimit:5;stroke-dasharray:none;stroke-dashoffset:16.79999924;stroke-opacity:1"
           d="m 337.14592,73.951163 a 2.6491188,2.5417229 56.399094 0 0 -1.08789,1.790258 l -0.0442,-0.06676 -11.68175,7.7616 2.03631,3.064827 11.68177,-7.761604 -0.0453,-0.06801 a 2.6491188,2.5417229 56.399094 0 0 2.07276,-0.307894 2.6491188,2.5417229 56.399094 0 0 0.65056,-3.612376 2.6491188,2.5417229 56.399094 0 0 -3.58223,-0.800043 z"
           id="rect4475" />
        <path
           style="opacity:1;fill:#ffffff;fill-opacity:1;fill-rule:evenodd;stroke:#000000;stroke-width:1.89999998;stroke-linecap:round;stroke-linejoin:round;stroke-miterlimit:5;stroke-dasharray:none;stroke-dashoffset:16.79999924;stroke-opacity:1"
           d="m 310.21352,79.298828 c -1.45307,0 -2.62304,0.879266 -2.62304,1.972656 0,1.093389 1.16997,1.97461 2.62304,1.97461 l 13.07227,0 c 1.45306,0 2.62304,-0.881221 2.62304,-1.97461 0,-1.09339 -1.16998,-1.972656 -2.62304,-1.972656 l -13.07227,0 z m -1.98828,4.00586 c -1.59474,-10e-7 -2.90046,1.024746 -3.15234,2.373046 0.1394,0.677616 0.30534,1.346239 0.46679,2.015625 0.57067,0.778211 1.55598,1.294922 2.68555,1.294922 l 23.89648,0 c 1.77597,0 3.20704,-1.267646 3.20704,-2.841797 0,-1.574151 -1.43107,-2.841796 -3.20704,-2.841796 l -23.89648,0 z m 0.0332,5.738281 c -0.85072,0 -1.61671,0.263295 -2.18945,0.685547 0.39985,1.439041 0.84225,2.860827 1.3418,4.255859 0.0675,0.01452 0.12996,0.03774 0.19922,0.04883 -0.0597,0.0021 -0.117,0.01229 -0.17579,0.01758 0.79748,2.218999 1.71961,4.376914 2.75586,6.470695 l 14.51172,0 c 1.77597,0 3.20703,-1.450027 3.20703,-3.249992 0,-1.599394 -1.13135,-2.916567 -2.6289,-3.191406 -0.0134,1.28e-4 -0.0257,0.0039 -0.0391,0.0039 l -16.98243,0 c -0.22,0 -0.43526,-0.0179 -0.64257,-0.05078 0.0351,-0.0011 0.0681,-0.0098 0.10351,-0.0098 l 16.98242,0 c 0.1979,0 0.39033,0.02217 0.57813,0.05664 1.75732,-0.01678 3.16797,-1.131774 3.16797,-2.517578 0,-1.396337 -1.43107,-2.519531 -3.20703,-2.519531 l -16.98243,0 z m 1.97461,11.562501 c 0.85808,1.72712 1.79243,3.40977 2.80274,5.04101 l 11.1289,0 c 1.77596,0 3.20508,-1.1232 3.20508,-2.51953 0,-1.39634 -1.42912,-2.52148 -3.20508,-2.52148 l -13.93164,0 z"
           id="rect4497" />
      </g>
      <g
         id="g4570">
        <path
           id="path4423"
           d="m 324.6478,34.647 83.3038,82.06026"
           style="opacity:1;fill:none;fill-opacity:1;fill-rule:evenodd;stroke:#000000;stroke-width:8.69999981;stroke-linecap:butt;stroke-linejoin:bevel;stroke-miterlimit:4;stroke-dasharray:none;stroke-dashoffset:16.79999924;stroke-opacity:1" />
        <ellipse
           style="opacity:1;fill:none;fill-opacity:1;fill-rule:evenodd;stroke:#000000;stroke-width:8.69999981;stroke-linecap:butt;stroke-linejoin:bevel;stroke-miterlimit:4;stroke-dasharray:none;stroke-dashoffset:16.79999924;stroke-opacity:1"
           id="ellipse4425"
           cx="364.36899"
           cy="73.207581"
           rx="57.44186"
           ry="57.441856" />
      </g>
    </g>
  </g>
</svg>
