<?xml version="1.0" encoding="UTF-8" standalone="no"?>
<svg
   xmlns:dc="http://purl.org/dc/elements/1.1/"
   xmlns:cc="http://creativecommons.org/ns#"
   xmlns:rdf="http://www.w3.org/1999/02/22-rdf-syntax-ns#"
   xmlns:svg="http://www.w3.org/2000/svg"
   xmlns="http://www.w3.org/2000/svg"
   version="1.1"
   id="svg2"
   height="304"
   width="504">
  <defs
     id="defs4" />
  <metadata
     id="metadata7">
    <rdf:RDF>
      <cc:Work
         rdf:about="">
        <dc:format>image/svg+xml</dc:format>
        <dc:type
           rdf:resource="http://purl.org/dc/dcmitype/StillImage" />
        <dc:title></dc:title>
      </cc:Work>
    </rdf:RDF>
  </metadata>
  <g
     style="display:inline"
     transform="translate(2,5.0000019)"
     id="layer3">
    <rect
       y="-3.0000019"
       x="0"
       height="300"
       width="500"
       id="rect2985"
       style="color:#000000;display:inline;overflow:visible;visibility:visible;fill:#ffffff;fill-opacity:1;fill-rule:nonzero;stroke:#ffffff;stroke-width:4;stroke-linecap:round;stroke-linejoin:miter;stroke-miterlimit:4;stroke-dasharray:none;marker:none;enable-background:accumulate" />
    <rect
       style="color:#000000;display:inline;overflow:visible;visibility:visible;fill:#ffffff;fill-opacity:1;fill-rule:nonzero;stroke:none;stroke-width:2;marker:none;enable-background:accumulate"
       id="rect3794"
       width="500"
       height="300"
       x="0"
       y="-3" />
    <path
       id="path4180"
       transform="translate(-2,-5.0000019)"
       d="m 252.61133,144.73438 c -38.3096,-2e-5 -69.5,31.19038 -69.5,69.5 0,38.30959 31.1904,69.5 69.5,69.5 38.30959,-10e-6 69.49999,-31.19042 69.5,-69.5 0,-38.3096 -31.1904,-69.5 -69.5,-69.5 z m -6.26367,12.88476 0,54.01953 -4.42578,4.42578 c -0.22918,1.4562 -0.64139,2.87402 -1.25977,4.23047 -0.27369,0.60195 -0.67878,1.18328 -1.00391,1.77735 1.26618,0.33472 2.6565,0.79645 3.62891,0.84375 4.15012,-0.33256 6.45396,-1.49865 7.49219,-3.09375 0.4757,-0.73519 1.51416,-1.42579 2.52148,-1.42579 0.54288,0 1.31924,0.21598 1.8418,0.76758 0.48116,0.5079 0.59782,1.09218 0.64062,1.56446 0.0168,0.0219 0.0321,0.0293 0.0488,0.0508 l -0.002,-0.0195 c 10e-4,0.0118 0.004,0.0138 0.006,0.0254 1.02809,1.3179 1.9702,1.96297 2.80859,2.14843 l 1.4668,-0.0176 2.25586,-2.4375 c 0.008,-1.72842 -0.0213,-3.54564 -0.082,-5.42969 l -3.41016,-3.41016 0,-54.01953 c 28.57286,3.10694 50.70899,27.19552 50.70898,56.61524 0,13.50418 -4.68974,25.86703 -12.49804,35.61523 l -18.65821,-18.6582 c -3.10352,0.86936 -6.81448,1.33868 -11.29882,1.39453 -2.105,0.0348 -3.64718,0.0482 -4.98243,0.043 l 26.08204,26.08203 c -8.21822,6.58256 -18.29668,10.93442 -29.35352,12.13672 l 0,-31.08204 -1.92578,3.0625 c -0.36571,0.58517 -1.51622,1.12949 -2.23438,1.00977 -0.70897,-0.1182 -1.01399,-0.3963 -1.28125,-0.62305 0.14003,0.11669 -0.25131,-0.17519 -0.7539,-0.49414 -0.10952,-0.0695 -0.33535,-0.20601 -0.46485,-0.28711 l -1.03711,1.62891 c -0.36703,0.58444 -1.51701,1.12741 -2.23437,1.00781 -0.71815,-0.11973 -1.02322,-0.40454 -1.29297,-0.63281 0.19089,0.16152 -0.30907,-0.21282 -0.9375,-0.60742 -0.0857,-0.0538 -0.2692,-0.16483 -0.36523,-0.22461 l 0,27.24219 c -11.05717,-1.20233 -21.13322,-5.55578 -29.35157,-12.13868 l 26.2168,-26.21679 c -3.6814,0.2932 -7.88445,-0.98852 -12.65234,-3.39258 -0.86901,0.39503 -1.83172,0.79503 -2.875,1.20117 l -19.54883,19.54883 c -7.80831,-9.7482 -12.49805,-22.11105 -12.49805,-35.61523 0,-29.41973 22.13612,-53.50831 50.70899,-56.61524 z m 0,74.42774 0,2.60156 c 0.31633,-0.29482 0.72068,-0.54256 1.11328,-0.6211 0.59048,-0.11813 1.02157,0.003 1.34375,0.11914 0.72047,0.25308 1.33705,0.71652 2.0039,1.08204 l 2.85547,-4.24024 c -2.41097,-2.58105 -4.67549,0.40979 -7.3164,1.0586 z m 9.10351,-0.14258 0,1.38476 c 1.23725,0.53064 2.39717,1.20758 3.42383,2.08399 l 0,-2.85547 c -0.14959,-0.0136 -0.33908,-0.0206 -0.47266,-0.0371 -0.018,5e-4 -0.0287,0.0136 -0.0469,0.0137 -0.0404,3e-4 -0.0788,-0.0153 -0.11914,-0.0156 -0.0262,-0.004 -0.1288,0.002 -0.1543,-0.002 -0.0277,-0.004 -0.0355,-0.0233 -0.0625,-0.0273 -0.87738,-0.032 -1.73188,-0.23329 -2.56836,-0.54492 z"
       style="color:#000000;font-style:normal;font-variant:normal;font-weight:normal;font-stretch:normal;font-size:medium;line-height:normal;font-family:sans-serif;text-indent:0;text-align:start;text-decoration:none;text-decoration-line:none;text-decoration-style:solid;text-decoration-color:#000000;letter-spacing:normal;word-spacing:normal;text-transform:none;direction:ltr;block-progression:tb;writing-mode:lr-tb;baseline-shift:baseline;text-anchor:start;white-space:normal;clip-rule:nonzero;display:inline;overflow:visible;visibility:visible;opacity:1;isolation:auto;mix-blend-mode:normal;color-interpolation:sRGB;color-interpolation-filters:linearRGB;solid-color:#000000;solid-opacity:1;fill:#000000;fill-opacity:1;fill-rule:nonzero;stroke:none;stroke-width:12.52789783;stroke-linecap:butt;stroke-linejoin:miter;stroke-miterlimit:4;stroke-dasharray:none;stroke-dashoffset:0;stroke-opacity:1;color-rendering:auto;image-rendering:auto;shape-rendering:auto;text-rendering:auto;enable-background:accumulate" />
  </g>
  <g
     id="g4153"
     transform="translate(-78,-344.64789)"
     style="display:inline">
    <g
       id="text4161"
       style="font-style:normal;font-variant:normal;font-weight:normal;font-stretch:normal;font-size:53.77731705px;line-height:100%;font-family:'Arabic Typesetting';-inkscape-font-specification:'Arabic Typesetting';text-align:end;letter-spacing:0px;word-spacing:0px;text-anchor:end;fill:#000000;fill-opacity:1;stroke:none">
      <path
         id="path3397"
         d="m 524.2075,403.19787 q -0.0525,-1.18163 -0.34136,-3.22979 -0.26258,-2.07442 -0.76149,-4.85782 -0.26259,-1.44421 -0.57769,-3.15101 -0.3151,-1.7068 -0.60394,-3.43986 -0.28884,-1.73306 -0.52517,-3.4136 -0.21007,-1.68054 -0.28884,-3.0985 0,-0.15755 0.13129,-0.76149 0.15755,-0.60395 0.34136,-1.26041 0.21007,-0.65646 0.65646,-1.7068 0.26258,0.97157 0.39388,2.38952 0.34136,3.46612 0.78775,6.40707 0.44639,2.91468 0.81401,5.3042 0.15755,1.02408 0.3151,2.23197 0.18381,1.20789 0.31511,2.44204 0.13129,1.20789 0.21006,2.337 0.10504,1.12911 0.10504,2.0219 0,0.39388 -0.0788,0.94531 -0.0525,0.52517 -0.15755,1.05033 -0.0788,0.49892 -0.23633,0.86653 -0.13129,0.34136 -0.28884,0.34136 -0.15755,0 -0.18381,-0.34136 -0.0263,-0.36761 -0.0263,-0.70897 l 0,-0.36762 z" />
      <path
         id="path3399"
         d="m 515.9886,398.26128 q 0.13129,0 0.15755,0.23632 0.0263,0.23633 0.0263,0.60395 0,0.42013 -0.15755,0.9453 -0.1313,0.52517 -0.39388,1.0766 -0.23633,0.55143 -0.57769,1.0766 -0.34136,0.52516 -0.70898,0.91904 -0.44639,0.47265 -0.9453,0.7615 -0.47265,0.28884 -0.9453,0.44639 -0.4464,0.13129 -0.86653,0.18381 -0.39388,0.0263 -0.68272,0.0263 -0.60395,0 -0.91905,-0.4464 -0.34136,-0.47265 -0.34136,-1.05033 0,-0.55143 0.52517,-1.02408 0.52517,-0.47266 1.62802,-0.47266 0.18381,0 0.55143,-0.0263 0.36762,-0.0263 0.78775,-0.15755 0.42014,-0.15756 0.84028,-0.4464 0.42013,-0.28884 0.73523,-0.81401 0.15755,-0.26259 0.34136,-0.57769 0.18381,-0.34136 0.34136,-0.60394 0.18381,-0.28884 0.3151,-0.47265 0.15755,-0.18381 0.28885,-0.18381 z m -0.15755,7.53617 2.62584,1.8381 -1.31292,2.75713 -2.65211,-1.83809 1.33919,-2.75714 z m -4.35891,0.81402 2.65211,1.81183 -1.33918,2.75714 -2.62585,-1.81184 1.31292,-2.75713 z" />
      <path
         id="path3401"
         d="m 510.92076,404.53705 q -0.28885,0.0263 -0.65646,0.0263 -0.36762,0.0263 -0.70898,0.0788 -0.0263,1.05034 -0.0788,2.1532 -0.0263,1.10285 -0.18381,1.96938 -0.42013,2.23197 -1.47047,3.80748 -1.02408,1.60176 -2.4683,2.59958 -1.41795,1.02408 -3.15101,1.49673 -1.73306,0.47266 -3.54489,0.47266 -2.10068,0 -3.46612,-0.68272 -1.36544,-0.68272 -2.17945,-1.78558 -0.81401,-1.10285 -1.15537,-2.49455 -0.3151,-1.36544 -0.3151,-2.75714 0,-1.33918 0.26258,-2.46829 0.28884,-1.12912 0.6302,-1.94313 0.36762,-0.81401 1.10286,-1.7068 0.15755,0 0.15755,0.26259 -0.23633,0.70897 -0.39388,1.2604 -0.15755,0.55143 -0.28884,1.33918 -0.10503,0.81401 -0.10503,1.83809 0,1.31293 0.49891,2.36327 0.49891,1.07659 1.33918,1.83809 0.84027,0.76149 1.91687,1.18163 1.10285,0.42013 2.31074,0.42013 1.41796,0 2.96721,-0.47265 1.54924,-0.44639 2.86217,-1.15537 1.31292,-0.70898 2.20571,-1.54925 0.91904,-0.81401 1.07659,-1.57551 0.0788,-0.36762 0.10504,-0.73523 0.0263,-0.36762 0.0263,-0.73524 0,-1.91687 -0.4464,-3.22979 -0.42013,-1.31292 -0.99782,-2.41578 0,-0.44639 0.0788,-0.99782 0.10503,-0.55143 0.23632,-1.0766 0.15755,-0.52517 0.3151,-0.97156 0.18381,-0.44639 0.36762,-0.68272 0.52517,0.70898 0.7615,1.31292 0.26258,0.60395 0.47265,1.12912 0.15755,0.36762 0.39388,0.52517 0.18381,0.10503 0.49891,0.18381 0.3151,0.0788 0.65646,0.13129 0.36762,0.0263 0.68272,0.0525 0.34136,0 0.57768,0 l -0.89278,2.99347 z m -11.89508,-13.89072 2.6521,1.81183 -1.33918,2.75714 -2.62585,-1.81184 1.31293,-2.75713 z" />
      <path
         id="path3403"
         d="m 475.94447,393.61353 q 0.13129,0 0.49891,0.44639 0.36762,0.4464 0.73524,1.20789 0.39388,0.73524 0.68272,1.75932 0.28884,0.99782 0.28884,2.12693 0,0.65647 -0.10503,1.31293 -0.0788,0.65646 -0.23633,1.20789 -0.15755,0.55142 -0.34136,0.97156 -0.18381,0.42013 -0.34136,0.60394 -0.0788,0.10504 -0.42013,0.31511 -0.34136,0.1838 -0.86653,0.39387 -0.52517,0.18381 -1.20789,0.36762 -0.68272,0.15755 -1.44422,0.21007 -1.2604,-0.13129 -1.2604,-1.31292 0,-0.55143 0.52517,-1.0766 0.52517,-0.52517 1.62802,-0.60395 0.44639,-0.0263 0.91905,-0.13129 0.49891,-0.13129 0.89278,-0.28884 0.39388,-0.15755 0.65647,-0.3151 0.26258,-0.15755 0.26258,-0.28885 0,-0.68272 -0.26258,-1.28666 -0.23633,-0.6302 -0.52517,-1.10285 -0.28885,-0.47266 -0.78776,-1.18164 0,-0.15755 0.0788,-0.70897 0.0788,-0.55143 0.18381,-1.12912 0.10503,-0.57768 0.44639,-1.49673 z m -2.57333,-8.32393 2.65211,1.81183 -1.33918,2.75714 -2.62585,-1.81183 1.31292,-2.75714 z" />
      <path
         id="path3405"
         d="m 473.16106,404.53705 -1.0766,0.13129 q -0.13129,1.89061 -0.60394,3.57115 -0.47265,1.68054 -1.33918,3.17727 -0.47266,0.84027 -1.18163,1.65429 -0.70898,0.81401 -1.52299,1.47047 -0.78776,0.65646 -1.60177,1.05034 -0.81401,0.42013 -1.49673,0.42013 -1.3917,-0.23632 -2.28449,-0.42013 -0.89279,-0.18381 -1.91687,-0.42014 -1.02407,-0.21006 -1.8906,-0.44639 -0.86653,-0.21007 -1.99565,-0.68272 l 0.39388,-0.10503 1.47047,0 q 0.73524,0 1.62803,-0.0788 0.91904,-0.0525 1.91687,-0.26258 0.99782,-0.21007 2.04815,-0.57769 1.0766,-0.34136 2.12694,-0.9453 2.31074,-1.49674 3.57115,-3.4136 1.28666,-1.89061 1.7068,-3.93877 -0.86653,0.0788 -1.78558,0.10503 -0.91904,0.0263 -1.91686,0.0263 -0.84027,0 -1.41796,-0.23633 -0.55143,-0.21006 -0.89279,-0.57768 -0.34136,-0.36762 -0.49891,-0.86653 -0.15755,-0.49891 -0.15755,-1.05034 0,-0.52517 0.10504,-1.10285 0.10503,-0.57769 0.26258,-1.10286 0.15755,-0.52517 0.3151,-0.97156 0.18381,-0.47265 0.3151,-0.7615 0.15755,-0.3151 0.39388,-0.65646 0.26258,-0.36762 0.57769,-0.65646 0.34136,-0.28884 0.73523,-0.47265 0.39388,-0.18381 0.84027,-0.18381 0.68272,0 1.18163,0.23632 0.52517,0.23633 0.97157,0.63021 0.60394,0.57768 1.18163,1.78557 0.60394,1.18163 0.76149,2.83592 l 1.96939,-0.15756 -0.89279,2.99347 z m -3.43986,-2.80966 q -0.23632,-0.73523 -0.52517,-1.15537 -0.26258,-0.44639 -0.73523,-0.81401 -0.47266,-0.36762 -1.20789,-0.36762 -0.55143,0 -0.89279,0.28884 -0.34136,0.26259 -0.55143,0.60395 -0.18381,0.3151 -0.28884,0.86653 0.39388,0.28884 0.91904,0.44639 0.52517,0.13129 1.31293,0.13129 l 1.96938,0 z" />
      <path
         id="path3407"
         d="m 436.84561,403.64426 q -0.57769,0.0525 -1.12911,0.0788 -0.52517,0.0262 -0.94531,0.0262 -0.52517,0 -1.07659,-0.0262 -0.55143,-0.0263 -0.84027,-0.0788 -0.52517,-0.0525 -0.7615,-0.42013 -0.26258,-0.36762 -0.26258,-0.78776 0,-0.65646 0.52516,-1.20789 0.52517,-0.57768 1.3917,-0.57768 0.36762,0.0525 0.86653,0.0788 0.52517,0 1.0766,0 1.05034,0 2.04816,-0.0788 l -0.89279,2.99346 z" />
      <path
         id="path3409"
         d="m 453.91364,393.77108 q 0.42013,0.86653 0.57768,1.49673 0.15755,0.63021 0.28885,1.36544 0.13129,0.73524 0.13129,1.31293 0,0.89278 -0.18381,1.73305 -0.18381,0.84027 -0.52517,1.49674 -0.3151,0.65646 -0.78775,1.05033 -0.4464,0.39388 -0.97157,0.39388 -1.41795,0 -2.70462,-0.42013 -1.28666,-0.4464 -2.12693,-1.05034 -0.73524,1.05034 -1.86435,1.81183 -1.10286,0.73524 -2.80966,0.73524 -0.97156,0 -1.83809,-0.13129 -0.84027,-0.15756 -1.52299,-0.36762 -0.68272,-0.23633 -1.18163,-0.49891 -0.49891,-0.28885 -0.76149,-0.55143 -1.05034,0.76149 -2.36327,1.12911 -1.28666,0.36762 -2.41577,0.36762 -0.47266,0 -0.86653,-0.47265 -0.39388,-0.47265 -0.39388,-1.02408 0,-0.55143 0.49891,-1.02408 0.47265,-0.47265 1.65428,-0.47265 0.39388,0 0.91905,-0.0788 0.55143,-0.0788 1.12911,-0.23632 0.60395,-0.15756 1.18163,-0.39388 0.57769,-0.23633 1.05034,-0.55143 0.34136,-0.23633 0.68272,-0.57769 0.34136,-0.34135 0.6302,-0.6302 0.31511,-0.3151 0.55143,-0.52517 0.23633,-0.23632 0.39388,-0.23632 0.21007,0.26258 0.21007,0.44639 -0.0263,0.57769 -0.23633,1.10286 -0.18381,0.52516 -0.26258,0.76149 0.3151,0.36762 1.07659,0.6302 0.7615,0.23633 2.25823,0.23633 1.49673,0 2.38952,-0.57769 0.91905,-0.60394 1.41796,-1.52299 0.23632,-0.42013 0.47265,-1.02408 0.26258,-0.6302 0.49891,-1.20789 0.26258,-0.60394 0.49891,-1.02407 0.23633,-0.42014 0.44639,-0.42014 0.23633,0.47265 0.23633,0.76149 0,0.57769 -0.10503,1.23415 -0.10504,0.65646 -0.34136,1.49673 0.73523,0.68272 1.91686,1.0766 1.18163,0.36762 2.28449,0.36762 0.44639,0 0.57768,-0.10503 0.15756,-0.10504 0.15756,-0.55143 0,-0.39388 -0.10504,-0.7615 -0.10503,-0.39387 -0.26258,-0.70898 -0.1313,-0.3151 -0.23633,-0.55142 -0.10503,-0.23633 -0.10503,-0.36762 0,-0.18381 0.10503,-0.65646 0.10503,-0.49891 0.23633,-0.99782 0.13129,-0.49891 0.49891,-1.28667 z m -5.14666,-7.37862 2.62585,1.83809 -1.31293,2.75714 -2.6521,-1.8381 1.33918,-2.75713 z m -4.54271,0.70897 2.6521,1.81184 -1.33918,2.75714 -2.62585,-1.81184 1.31293,-2.75714 z m 1.41795,-4.62148 2.62585,1.81183 -1.31292,2.75714 -2.65211,-1.81184 1.33918,-2.75713 z" />
      <path
         id="path3411"
         d="m 432.85437,403.64426 q -1.33918,0 -2.20571,-0.34136 -0.86653,-0.36762 -1.41796,-0.76149 -0.52517,-0.42014 -0.81401,-0.7615 -0.28885,-0.36762 -0.47265,-0.36762 -0.52517,0.52517 -0.81402,0.89279 -0.26258,0.34136 -0.55142,0.70898 -0.28885,0.34136 -0.47266,0.52517 -0.68272,0.57768 -1.52299,0.78775 -0.84027,0.21007 -1.60176,0.21007 -0.36762,0 -0.70898,-0.34136 -0.36762,-0.34136 -0.36762,-1.10286 0,-0.55142 0.3151,-0.86653 0.3151,-0.3151 0.68272,-0.47265 0.36762,-0.15755 0.97156,-0.21007 0.63021,0 1.36544,-0.26258 0.73524,-0.28884 1.33919,-0.89279 0.36761,-0.42013 0.65646,-0.84027 0.3151,-0.42013 0.57768,-0.73523 0.26259,-0.34136 0.49891,-0.55143 0.26259,-0.21007 0.52517,-0.21007 0.23633,0 0.55143,0.42014 0.34136,0.39387 0.89279,0.89278 0.55143,0.47265 1.3917,0.89279 0.84027,0.39388 2.07441,0.39388 l -0.89278,2.99346 z m -4.1751,-14.52093 2.62585,1.8381 -1.31293,2.75713 -2.6521,-1.83809 1.33918,-2.75714 z m -4.3589,0.81402 2.6521,1.81183 -1.33918,2.75714 -2.62584,-1.81184 1.31292,-2.75713 z" />
      <path
         id="path3413"
         d="m 422.95491,404.53705 q -0.15755,0 -0.49891,-0.0263 -0.34136,-0.0525 -0.78776,-0.23633 -0.42013,-0.18381 -0.91904,-0.55142 -0.49891,-0.39388 -0.97157,-1.0766 -0.28884,-0.39388 -0.57768,-0.99782 -0.26259,-0.60395 -0.49891,-1.23415 -0.23633,-0.65646 -0.42014,-1.26041 -0.15755,-0.6302 -0.26258,-1.07659 -0.47266,0.78775 -0.84027,1.33918 -0.36762,0.52517 -0.81402,0.84027 -0.42013,0.3151 -1.02408,0.44639 -0.60394,0.1313 -1.54924,0.1313 -0.60395,0 -1.20789,-0.0788 -0.57769,-0.0788 -1.05034,-0.21007 -0.4464,-0.15755 -0.73524,-0.36762 -0.28884,-0.21006 -0.28884,-0.47265 0,-0.26258 0.0788,-0.78775 0.10504,-0.52517 0.26259,-1.10286 0.18381,-0.60394 0.44639,-1.20789 0.26259,-0.60394 0.60395,-1.05033 0.23632,-0.28885 0.86653,-0.84027 0.65646,-0.55143 1.41795,-1.15538 0.7615,-0.60394 1.52299,-1.12911 0.7615,-0.52517 1.20789,-0.76149 0.0263,-0.63021 0.0263,-1.31293 0.0263,-0.68272 0.0788,-1.23415 0.0525,-0.57768 0.13129,-0.9453 0.10503,-0.36762 0.3151,-0.36762 0.21007,0 0.3151,0.34136 0.13129,0.3151 0.21007,0.84027 0.10503,0.52517 0.18381,1.23415 0.0788,0.68272 0.21006,1.41796 0.15756,0.86653 0.34136,1.81183 0.21007,0.91905 0.4464,1.86435 0.23632,0.91905 0.49891,1.81183 0.28884,0.86653 0.6302,1.60177 0.39388,0.86653 0.84027,1.41796 0.47265,0.55142 0.94531,0.86653 0.47265,0.28884 0.91904,0.42013 0.47266,0.10503 0.84027,0.10503 l -0.89278,2.99347 z m -5.8819,-11.52746 q -0.23632,0.44639 -0.89279,0.99782 -0.6302,0.52517 -1.33918,1.12911 -0.70898,0.57769 -1.33918,1.15537 -0.6302,0.57769 -0.84027,1.10286 0.39388,0.42013 1.41796,0.42013 1.52299,0 3.64992,-0.91904 -0.0788,-0.3151 -0.18381,-0.78776 -0.10503,-0.47265 -0.21006,-0.99782 -0.0788,-0.55142 -0.15755,-1.10285 -0.0788,-0.55143 -0.10504,-0.99782 z" />
      <path
         id="path3415"
         d="m 385.27403,399.60046 q -0.42013,-0.28884 -0.57768,-0.52517 -0.15755,-0.23633 -0.28885,-0.6302 -0.13129,-0.39388 -0.13129,-1.05034 0,-1.02408 0.26259,-1.96939 0.28884,-0.9453 0.60394,-1.65428 0.34136,-0.73524 0.89279,-1.60176 -0.39388,-0.73524 -0.39388,-1.49674 0,-1.41795 0.26258,-2.10067 0.28885,-0.70898 0.99783,-0.70898 1.2604,0 2.91468,0.81401 1.68055,0.78775 3.49238,2.36326 0.73524,0.63021 1.44421,1.47048 0.70898,0.84027 1.26041,1.75931 0.57769,0.89279 0.91905,1.81184 0.34136,0.89278 0.34136,1.68054 0,1.33918 -0.23633,2.20571 -0.21007,0.86653 -0.57769,1.3917 -0.34136,0.52516 -0.76149,0.73523 -0.42014,0.21007 -0.81401,0.21007 -0.7615,0 -1.91687,-0.21007 -1.12911,-0.21007 -2.17945,-0.44639 -1.05034,-0.26259 -2.54707,-0.68272 -0.91905,0.68272 -1.91687,1.18163 -0.97156,0.49891 -1.91687,0.84027 -0.9453,0.34136 -1.81183,0.49891 -0.86653,0.15755 -1.52299,0.15755 -0.42014,-0.0525 -0.65646,-0.15755 -0.26259,-0.13129 -0.47265,-0.39388 -0.21007,-0.28884 -0.21007,-0.81401 0,-0.68272 0.65646,-1.15537 0.6302,-0.47265 1.57551,-0.47265 0.18381,0 0.60394,-0.0788 0.44639,-0.0788 0.91905,-0.21007 0.49891,-0.13129 0.97156,-0.3151 0.49891,-0.21007 0.81401,-0.44639 z m 0.10504,-3.80748 q 0,0.26259 0.23632,0.55143 0.26259,0.28884 0.68272,0.57769 0.42014,0.26258 0.91905,0.49891 0.52517,0.23632 1.05034,0.36762 0.1838,-0.10504 0.49891,-0.31511 0.3151,-0.23632 0.6302,-0.47265 0.3151,-0.26258 0.52517,-0.52517 0.23632,-0.26258 0.23632,-0.44639 0,-1.18163 -0.3151,-2.15319 -0.3151,-0.99783 -1.05034,-1.31293 -0.6302,0.0788 -1.23414,0.4464 -0.60395,0.34136 -1.10286,0.81401 -0.47265,0.47265 -0.78775,1.02408 -0.28884,0.52517 -0.28884,0.9453 z m 5.12039,2.59959 q 0.39388,0.15755 1.10286,0.36762 0.70898,0.18381 1.47047,0.34136 0.7615,0.15755 1.47048,0.28884 0.70897,0.10503 1.10285,0.10503 0.4464,0 0.4464,-0.1838 0,-0.23633 -0.23633,-0.70898 -0.23633,-0.47265 -0.6302,-1.05034 -0.39388,-0.57769 -0.89279,-1.18163 -0.47265,-0.6302 -0.99782,-1.15537 -0.52517,-0.55143 -1.02408,-0.94531 -0.47265,-0.39387 -0.84027,-0.49891 l 0.0263,0.49891 q 0,0.63021 -0.10504,1.26041 -0.0788,0.60394 -0.23632,1.15537 -0.15755,0.55143 -0.34136,0.99782 -0.15755,0.4464 -0.31511,0.70898 z" />
      <path
         id="path3417"
         d="m 381.07267,403.64426 q -1.33918,0 -2.20571,-0.34136 -0.86653,-0.36762 -1.41795,-0.76149 -0.52517,-0.42014 -0.81402,-0.7615 -0.28884,-0.36762 -0.47265,-0.36762 -0.52517,0.52517 -0.81401,0.89279 -0.26258,0.34136 -0.55143,0.70898 -0.28884,0.34136 -0.47265,0.52517 -0.68272,0.57768 -1.52299,0.78775 -0.84027,0.21007 -1.60177,0.21007 -0.36761,0 -0.70897,-0.34136 -0.36762,-0.34136 -0.36762,-1.10286 0,-0.55142 0.3151,-0.86653 0.3151,-0.3151 0.68272,-0.47265 0.36762,-0.15755 0.97156,-0.21007 0.63021,0 1.36544,-0.26258 0.73524,-0.28884 1.33918,-0.89279 0.36762,-0.42013 0.65646,-0.84027 0.31511,-0.42013 0.57769,-0.73523 0.26259,-0.34136 0.49891,-0.55143 0.26259,-0.21007 0.52517,-0.21007 0.23633,0 0.55143,0.42014 0.34136,0.39387 0.89279,0.89278 0.55142,0.47265 1.39169,0.89279 0.84027,0.39388 2.07442,0.39388 l -0.89279,2.99346 z m -2.57332,4.59523 2.62584,1.83809 -1.31292,2.75714 -2.65211,-1.83809 1.33919,-2.75714 z m -4.35891,0.81401 2.65211,1.81184 -1.33919,2.75713 -2.62584,-1.81183 1.31292,-2.75714 z" />
      <path
         id="path3419"
         d="m 365.6327,408.65963 2.62584,1.83809 -1.31292,2.75714 -2.6521,-1.8381 1.33918,-2.75713 z m -4.54271,0.70897 2.6521,1.81184 -1.33918,2.75714 -2.62585,-1.81184 1.31293,-2.75714 z m 3.12475,3.93877 2.62585,1.81184 -1.31293,2.75713 -2.6521,-1.81183 1.33918,-2.75714 z m 6.93223,-8.77032 q -1.33918,0 -2.52081,-0.0525 -1.18163,-0.0525 -2.07442,-0.36762 -0.86652,-0.3151 -1.36544,-0.97156 -0.49891,-0.65646 -0.49891,-1.86435 0,-0.6302 0.0788,-1.31292 0.10503,-0.68272 0.23633,-1.31293 -0.84027,0.36762 -1.99565,1.10286 -1.15537,0.73524 -2.41577,1.78557 -1.26041,1.02408 -2.49456,2.33701 -1.20789,1.31292 -2.17945,2.86217 -0.97156,1.54925 -1.57551,3.30856 -0.60394,1.75932 -0.60394,3.64993 0,2.0219 0.70898,3.49237 0.73523,1.47048 1.91686,2.49456 1.18163,1.02408 2.67837,1.65428 1.49673,0.65646 3.07224,0.99782 1.5755,0.36762 3.07223,0.47265 1.49674,0.1313 2.65211,0.1313 1.18163,0 2.6521,-0.1313 1.47048,-0.10503 2.86217,-0.26258 1.3917,-0.15755 2.49456,-0.28884 1.10285,-0.10504 1.54925,-0.10504 l 0.21006,0.0788 q -1.2604,0.73523 -2.23196,1.15537 -0.94531,0.44639 -2.10068,0.91905 -1.15537,0.49891 -2.23197,0.91904 -1.05034,0.42014 -1.86435,0.70898 -0.81401,0.28884 -1.10286,0.34136 -1.83809,0 -3.70244,-0.13129 -1.83809,-0.13129 -3.54489,-0.52517 -1.7068,-0.39388 -3.20353,-1.12912 -1.47047,-0.70897 -2.57333,-1.91686 -1.0766,-1.20789 -1.7068,-2.94095 -0.60394,-1.7068 -0.60394,-4.12258 0,-3.04598 0.70898,-5.61931 0.73523,-2.54707 1.8906,-4.64774 1.18163,-2.10068 2.62585,-3.78122 1.47047,-1.68054 2.94095,-2.99346 0.18381,-0.15756 0.44639,-0.36762 0.26258,-0.21007 0.55143,-0.42014 0.3151,-0.23632 0.60394,-0.44639 0.28885,-0.21007 0.52517,-0.34136 -0.9453,0.10503 -1.49673,0.10503 l -4.0438,0 q -0.21007,0 -0.73524,0.10504 -0.49891,0.10503 -1.15537,0.28884 -0.6302,0.15755 -1.36544,0.34136 -0.70898,0.18381 -1.31292,0.36762 -0.60395,0.15755 -1.52299,0.36762 -0.21007,0 -0.26259,-0.0788 -0.0525,-0.0788 -0.0525,-0.28884 0.15755,-0.65646 0.28885,-1.02408 0.13129,-0.36762 0.28884,-0.7615 0.15755,-0.42013 0.34136,-0.78775 0.21007,-0.34136 0.78775,-0.65646 0.60395,-0.3151 1.36544,-0.55143 0.7615,-0.26259 1.57551,-0.39388 0.81401,-0.15755 1.44422,-0.15755 0.34136,0 0.97156,0.0525 0.65646,0.0525 1.41796,0.13129 0.78775,0.0788 1.62802,0.13129 0.84027,0.0525 1.54925,0.0525 0.65646,0 1.47047,0 0.84027,-0.0263 1.68054,-0.0525 0.86653,-0.0263 1.7068,-0.0525 0.84027,-0.0263 1.52299,-0.0525 0.68272,-0.0263 1.7068,-0.0525 0.15755,0 0.23633,0.21007 -0.26259,0.84027 -0.44639,1.31292 -0.15756,0.47265 -0.52517,1.36544 -0.10504,0.10504 -1.18163,0.36762 -1.05034,0.26259 -3.07224,1.10286 -0.0263,0.15755 -0.0263,0.36761 l 0,0.42014 q 0,0.73524 0.36762,1.36544 0.36761,0.6302 1.31292,0.78775 0.47265,0.0788 1.15537,0.15755 0.70898,0.0525 1.3917,0.10504 0.70898,0.0263 1.2604,0.0525 0.55143,0 0.73524,0 l -0.89279,2.99347 z" />
      <path
         id="path3421"
         d="m 325.82489,400.49325 q -0.42014,-0.28885 -0.57769,-0.52517 -0.15755,-0.23633 -0.28884,-0.63021 -0.13129,-0.39387 -0.13129,-1.05033 0,-1.02408 0.26258,-1.96939 0.28885,-0.9453 0.60395,-1.65428 0.34136,-0.73524 0.89278,-1.60177 -0.39387,-0.73523 -0.39387,-1.49673 0,-1.41796 0.26258,-2.10068 0.28885,-0.70897 0.99782,-0.70897 1.26041,0 2.91469,0.81401 1.68054,0.78775 3.49238,2.36326 0.73523,0.6302 1.44421,1.47047 0.70898,0.84027 1.26041,1.75932 0.57768,0.89279 0.91904,1.81183 0.34136,0.89279 0.34136,1.68054 0,1.33919 -0.23632,2.20571 -0.21007,0.86653 -0.57769,1.3917 -0.34136,0.52517 -0.76149,0.73524 -0.42014,0.21007 -0.81402,0.21007 -0.76149,0 -1.91686,-0.21007 -1.12912,-0.21007 -2.17945,-0.44639 -1.05034,-0.26259 -2.54708,-0.68272 -0.91904,0.68272 -1.91686,1.18163 -0.97157,0.49891 -1.91687,0.84027 -0.9453,0.34136 -1.81183,0.49891 -0.86653,0.15755 -1.52299,0.15755 -0.42014,-0.0525 -0.65646,-0.15755 -0.26259,-0.13129 -0.47266,-0.39388 -0.21006,-0.28884 -0.21006,-0.81401 0,-0.68272 0.65646,-1.15537 0.6302,-0.47266 1.5755,-0.47266 0.18381,0 0.60395,-0.0788 0.44639,-0.0788 0.91904,-0.21007 0.49892,-0.13129 0.97157,-0.3151 0.49891,-0.21007 0.81401,-0.44639 z m 0.10503,-3.80748 q 0,0.26258 0.23633,0.55143 0.26258,0.28884 0.68272,0.57768 0.42013,0.26259 0.91905,0.49891 0.52516,0.23633 1.05033,0.36762 0.18381,-0.10503 0.49891,-0.3151 0.31511,-0.23632 0.63021,-0.47265 0.3151,-0.26259 0.52517,-0.52517 0.23632,-0.26258 0.23632,-0.44639 0,-1.18163 -0.3151,-2.1532 -0.3151,-0.99782 -1.05034,-1.31292 -0.6302,0.0788 -1.23415,0.44639 -0.60394,0.34136 -1.10285,0.81402 -0.47265,0.47265 -0.78775,1.02408 -0.28885,0.52516 -0.28885,0.9453 z m 5.1204,2.59959 q 0.39388,0.15755 1.10286,0.36762 0.70898,0.1838 1.47047,0.34136 0.7615,0.15755 1.47047,0.28884 0.70898,0.10503 1.10286,0.10503 0.44639,0 0.44639,-0.18381 0,-0.23632 -0.23632,-0.70898 -0.23633,-0.47265 -0.63021,-1.05033 -0.39387,-0.57769 -0.89278,-1.18163 -0.47266,-0.63021 -0.99782,-1.15538 -0.52517,-0.55142 -1.02408,-0.9453 -0.47266,-0.39388 -0.84028,-0.49891 l 0.0263,0.49891 q 0,0.6302 -0.10503,1.26041 -0.0788,0.60394 -0.23633,1.15537 -0.15755,0.55143 -0.34136,0.99782 -0.15755,0.44639 -0.3151,0.70898 z" />
      <path
         id="path3423"
         d="m 321.6498,404.53705 q -0.28884,0 -0.6302,-0.0525 -0.3151,-0.0525 -0.57769,-0.13129 -0.68272,-0.21007 -1.18163,-0.60395 -0.47265,-0.42013 -0.99782,-1.05033 -0.39388,-0.47266 -0.78775,-1.20789 -0.39388,-0.73524 -0.70898,-1.65429 -0.0788,0.68272 -0.23633,1.31293 -0.13129,0.6302 -0.34136,0.9453 -0.76149,0.73524 -1.7068,1.26041 -0.9453,0.52517 -1.94312,0.86653 -0.99782,0.34136 -1.96939,0.49891 -0.97156,0.15755 -1.75931,0.15755 -1.49674,0 -2.17946,-0.34136 -0.65646,-0.36762 -0.65646,-1.10286 0,-0.3151 0.0525,-0.9453 0.0788,-0.65646 0.15755,-1.28667 0.10503,-0.65646 0.23633,-1.12911 0.15755,-0.47265 0.3151,-0.47265 0.15755,0.10503 0.15755,0.3151 0,0.3151 0.0788,0.6302 0.0788,0.3151 0.31511,0.57769 0.23632,0.26258 0.65646,0.44639 0.44639,0.15755 1.18163,0.15755 1.52299,0 2.86217,-0.34136 1.33918,-0.34136 2.337,-0.76149 1.02408,-0.4464 1.60177,-0.84027 0.57768,-0.42014 0.57768,-0.57769 -0.55142,-1.94312 -0.91904,-3.25605 -0.34136,-1.31292 -0.70898,-2.83591 -0.34136,-1.52299 -0.49891,-2.7834 0.0788,-0.97156 0.13129,-1.44421 0.0788,-0.47265 0.36762,-1.20789 0.15755,0 0.26258,0.55143 0.1313,0.52517 0.42014,1.65428 0.18381,0.7615 0.52517,1.94313 0.34136,1.15537 0.70898,2.38952 0.36762,1.20788 0.70898,2.31074 0.36761,1.0766 0.60394,1.65428 0.42013,1.02408 0.97156,1.81184 0.57769,0.78775 1.31293,1.18163 0.15755,0.0788 0.42013,0.15755 0.26259,0.0525 0.55143,0.10503 0.3151,0.0525 0.6302,0.0788 0.3151,0.0263 0.55143,0.0263 l -0.89279,2.99347 z" />
      <path
         id="path3425"
         d="m 296.17908,387.52157 q 0.49891,0 1.10285,0.21007 0.60395,0.18381 1.02408,0.47265 0.55143,0.36762 1.12912,0.97156 0.60394,0.60395 1.07659,1.49673 0.47266,0.89279 0.7615,2.07442 0.3151,1.18163 0.3151,2.70462 0,1.23415 -0.28884,2.0219 -0.26259,0.78776 -0.65646,1.31293 -0.39388,0.52517 -0.84027,0.86653 -0.42014,0.34136 -0.73524,0.65646 0.47265,0.13129 1.12911,0.26258 0.65646,0.10504 1.10286,0.23633 1.15537,0.3151 1.5755,0.89279 0.4464,0.57768 0.49892,1.28666 -0.0525,0.52517 -0.1313,1.12911 -0.0788,0.60395 -0.23632,1.20789 -0.1313,0.60395 -0.34136,1.12912 -0.21007,0.52516 -0.52517,0.86652 -0.39388,0.4464 -1.23415,1.10286 -0.81401,0.65646 -1.94312,1.36544 -1.12912,0.73524 -2.49456,1.47047 -1.36544,0.73524 -2.83591,1.31293 -1.44422,0.57768 -2.94095,0.91904 -1.49673,0.36762 -2.88843,0.36762 -1.57551,0 -2.9672,-0.57769 -1.36544,-0.57768 -2.38952,-1.68054 -1.02408,-1.07659 -1.60177,-2.67836 -0.57769,-1.60177 -0.57769,-3.64992 0,-1.49674 0.4464,-2.91469 0.44639,-1.44422 0.99782,-2.54707 0.57769,-1.10286 1.10285,-1.75932 0.52517,-0.68272 0.65647,-0.68272 0.13129,0 0.13129,0.13129 0,0.13129 -0.3151,0.70898 -0.28885,0.55143 -0.65646,1.36544 -0.34136,0.78775 -0.65647,1.78558 -0.28884,0.99782 -0.28884,1.99564 0,1.91687 0.60395,3.2823 0.60394,1.36544 1.52299,2.23197 0.91904,0.89279 1.99564,1.28667 1.10285,0.42013 2.10068,0.42013 2.04815,0 4.07006,-0.60394 2.04816,-0.60395 3.80747,-1.44422 1.78558,-0.81401 3.12476,-1.7068 1.36544,-0.86653 2.07442,-1.44421 0.34136,-0.28884 0.55142,-0.68272 0.23633,-0.39388 0.26259,-0.55143 -0.15755,-0.15755 -0.34136,-0.28884 -0.15755,-0.13129 -0.4464,-0.23633 -0.26258,-0.13129 -0.70897,-0.23632 -0.42014,-0.10504 -1.10286,-0.23633 -0.65646,-0.13129 -1.3917,-0.23633 -0.73523,-0.10503 -1.3917,-0.18381 -0.65646,-0.10503 -1.15537,-0.15755 -0.49891,-0.0788 -0.65646,-0.10503 -0.3151,-0.0263 -0.3151,-0.18381 0.13129,-0.47265 0.21007,-0.73524 0.10503,-0.26258 0.21007,-0.55142 0.10503,-0.28885 0.21006,-0.52517 0.15755,-0.34136 0.23633,-0.49891 0.0788,-0.15755 0.21007,-0.21007 0.73523,-0.26259 1.05033,-0.39388 0.34136,-0.13129 0.63021,-0.23632 0.3151,-0.1313 0.42013,-0.18381 0.42014,-0.18381 0.91905,-0.42014 0.49891,-0.26258 0.9453,-0.55143 0.4464,-0.28884 0.7615,-0.65646 0.3151,-0.36762 0.36762,-0.78775 0,-1.10286 -0.52517,-2.12694 -0.49891,-1.02408 -1.31292,-1.7068 -0.0525,0.31511 -0.10504,0.63021 -0.0263,0.3151 -0.0788,0.60394 -0.1313,0.65646 -0.47266,1.0766 -0.34136,0.39388 -0.81401,0.6302 -0.44639,0.23633 -0.9453,0.3151 -0.49891,0.0788 -0.97157,0.0788 -0.39387,0 -0.78775,-0.21007 -0.39388,-0.21007 -0.73524,-0.55143 -0.34136,-0.36761 -0.55142,-0.84027 -0.21007,-0.47265 -0.21007,-0.99782 0,-0.49891 0.0788,-1.0766 0.0788,-0.57768 0.18381,-1.10285 0.1313,-0.55143 0.28885,-0.99782 0.15755,-0.47265 0.3151,-0.7615 0.15755,-0.3151 0.42013,-0.65646 0.26259,-0.36762 0.57769,-0.65646 0.3151,-0.28884 0.65646,-0.47265 0.36762,-0.18381 0.70898,-0.18381 z m 1.65428,4.17509 q -0.44639,-0.47265 -0.89279,-0.73523 -0.44639,-0.26259 -0.97156,-0.26259 -0.49891,0 -0.89279,0.28885 -0.36761,0.26258 -0.60394,0.60394 -0.23633,0.34136 -0.44639,0.89279 0.34136,0.3151 0.70897,0.47265 0.39388,0.15755 0.86653,0.15755 0.49891,0 0.89279,-0.18381 0.42014,-0.18381 0.70898,-0.42013 0.28884,-0.23633 0.6302,-0.81402 z m -3.51863,-11.65875 2.6521,1.81183 -1.33918,2.75714 -2.62584,-1.81183 1.31292,-2.75714 z" />
      <path
         id="path3427"
         d="m 247.36461,397.65733 q 0.15755,-0.70898 0.26258,-1.07659 0.1313,-0.39388 0.23633,-0.7615 0.13129,-0.36762 0.23633,-0.55143 0.18381,-0.36761 0.6302,-0.6302 0.44639,-0.28884 0.97156,-0.47265 0.52517,-0.18381 1.0766,-0.26259 0.55143,-0.10503 0.97156,-0.10503 0.47265,0 1.31292,0.28884 0.84027,0.26259 1.81184,0.65646 0.97156,0.36762 1.91687,0.7615 0.97156,0.39388 1.65428,0.6302 0.84027,0.28885 1.86435,0.52517 1.05034,0.21007 2.15319,0.36762 1.10286,0.15755 2.17945,0.26258 1.10286,0.0788 2.04816,0.0788 l 0.26259,0.0788 q -0.18381,0.49891 -0.3151,0.78775 -0.1313,0.28884 -0.28885,0.60394 -0.13129,0.3151 -0.23632,0.57769 -0.1313,0.28884 -0.21007,0.34136 -0.0525,0.0525 -0.21007,0.0525 -0.97156,-0.0525 -1.49673,-0.0788 -0.52517,-0.0525 -1.05034,-0.0788 -0.49891,-0.0263 -0.73524,-0.0263 -0.81401,0 -1.94312,0.26258 -1.10286,0.26259 -2.28449,0.97156 -3.17727,1.96939 -6.14448,2.83592 -2.9672,0.84027 -5.82937,0.84027 -0.57769,0 -0.91905,-0.34136 -0.36762,-0.36762 -0.36762,-0.94531 0,-0.76149 0.65646,-1.20788 0.65647,-0.47266 1.52299,-0.49892 1.96939,-0.0525 3.83374,-0.39387 1.89061,-0.34136 3.46612,-1.0766 0.6302,-0.28884 1.47047,-0.68272 0.84027,-0.42013 1.49673,-0.76149 -0.47265,-0.18381 -1.18163,-0.4464 -0.68272,-0.28884 -1.47047,-0.52517 -0.7615,-0.26258 -1.52299,-0.42013 -0.7615,-0.18381 -1.33918,-0.18381 -0.18381,0 -0.81402,0.13129 -0.60394,0.10503 -1.31292,0.26259 -0.70898,0.15755 -1.33918,0.28884 -0.60395,0.10503 -0.7615,0.10503 -0.15755,0 -0.21006,-0.0263 -0.0525,-0.0263 -0.0525,-0.15755 z m 7.32611,8.90162 2.6521,1.81183 -1.33918,2.75714 -2.62584,-1.81183 1.31292,-2.75714 z" />
      <path
         id="path3429"
         d="m 246.15673,404.53705 -1.54925,0.10503 q -0.13129,1.83809 -0.68272,3.36108 -0.52517,1.52299 -1.36544,3.01973 -0.47265,0.84027 -1.18163,1.65428 -0.70898,0.81401 -1.52299,1.47047 -0.78776,0.65646 -1.60177,1.05034 -0.81401,0.42014 -1.49673,0.42014 -1.3917,-0.23633 -2.28449,-0.42014 -0.89278,-0.18381 -1.91686,-0.42013 -1.02408,-0.21007 -1.89061,-0.4464 -0.86653,-0.21007 -1.99564,-0.68272 l 0.39387,-0.10503 q 0.26259,0 0.63021,0 0.39387,0.0263 0.91904,0.0263 0.73524,0 1.62803,-0.0525 0.91904,-0.0525 1.91686,-0.26258 0.99782,-0.18381 2.04816,-0.55143 1.05034,-0.36762 2.04816,-0.99782 2.44204,-1.52299 3.70244,-3.33483 1.26041,-1.78557 1.62803,-3.70244 -0.15755,-0.97156 -0.42014,-1.62802 -0.26258,-0.68272 -0.52517,-1.10286 -0.26258,-0.44639 -0.6302,-0.9453 0,-0.18381 0.10503,-0.73524 0.10504,-0.57769 0.23633,-1.15537 0.15755,-0.60395 0.57769,-1.52299 0.36762,0.36762 0.52517,0.65646 0.15755,0.26258 0.28884,0.6302 0.15755,0.34136 0.23633,0.65646 0.15755,0.60395 0.36761,0.91905 0.23633,0.3151 0.49891,0.55143 0.34136,0.3151 0.84027,0.44639 0.15756,0.0525 0.55143,0.0788 0.39388,0.0263 0.81401,0.0263 l -0.89278,2.99347 z m -5.96067,-14.33712 2.6521,1.81184 -1.33918,2.75713 -2.62585,-1.81183 1.31293,-2.75714 z" />
      <path
         id="path3431"
         d="m 215.06672,398.26128 q 0.13129,0 0.15755,0.23632 0.0263,0.23633 0.0263,0.60395 0,0.42013 -0.15755,0.9453 -0.13129,0.52517 -0.39388,1.0766 -0.23632,0.55143 -0.57768,1.0766 -0.34136,0.52516 -0.70898,0.91904 -0.44639,0.47265 -0.94531,0.7615 -0.47265,0.28884 -0.9453,0.44639 -0.44639,0.13129 -0.86653,0.18381 -0.39388,0.0263 -0.68272,0.0263 -0.60394,0 -0.91904,-0.4464 -0.34136,-0.47265 -0.34136,-1.05033 0,-0.55143 0.52516,-1.02408 0.52517,-0.47266 1.62803,-0.47266 0.18381,0 0.55143,-0.0263 0.36761,-0.0263 0.78775,-0.15755 0.42014,-0.15756 0.84027,-0.4464 0.42014,-0.28884 0.73524,-0.81401 0.15755,-0.26259 0.34136,-0.57769 0.18381,-0.34136 0.34136,-0.60394 0.18381,-0.28884 0.3151,-0.47265 0.15755,-0.18381 0.28884,-0.18381 z m -0.13129,-8.69155 2.62584,1.83809 -1.31292,2.75714 -2.6521,-1.83809 1.33918,-2.75714 z m -4.3589,0.81401 2.6521,1.81183 -1.33918,2.75714 -2.62585,-1.81183 1.31293,-2.75714 z" />
      <path
         id="path3433"
         d="m 209.92006,404.53705 -1.54925,0.10503 q -0.13129,1.83809 -0.68272,3.36108 -0.52516,1.52299 -1.36544,3.01973 -0.47265,0.84027 -1.18163,1.65428 -0.70897,0.81401 -1.52299,1.47047 -0.78775,0.65646 -1.60176,1.05034 -0.81401,0.42014 -1.49673,0.42014 -1.3917,-0.23633 -2.28449,-0.42014 -0.89279,-0.18381 -1.91687,-0.42013 -1.02408,-0.21007 -1.89061,-0.4464 -0.86652,-0.21007 -1.99564,-0.68272 l 0.39388,-0.10503 q 0.26258,0 0.6302,0 0.39388,0.0263 0.91905,0.0263 0.73523,0 1.62802,-0.0525 0.91905,-0.0525 1.91687,-0.26258 0.99782,-0.18381 2.04816,-0.55143 1.05034,-0.36762 2.04816,-0.99782 2.44203,-1.52299 3.70244,-3.33483 1.26041,-1.78557 1.62802,-3.70244 -0.15755,-0.97156 -0.42013,-1.62802 -0.26259,-0.68272 -0.52517,-1.10286 -0.26258,-0.44639 -0.6302,-0.9453 0,-0.18381 0.10503,-0.73524 0.10503,-0.57769 0.23633,-1.15537 0.15755,-0.60395 0.57768,-1.52299 0.36762,0.36762 0.52517,0.65646 0.15755,0.26258 0.28885,0.6302 0.15755,0.34136 0.23632,0.65646 0.15755,0.60395 0.36762,0.91905 0.23633,0.3151 0.49891,0.55143 0.34136,0.3151 0.84027,0.44639 0.15755,0.0525 0.55143,0.0788 0.39388,0.0263 0.81401,0.0263 l -0.89279,2.99347 z" />
      <path
         id="path3435"
         d="m 196.6858,394.66387 q 0.42013,0.86653 0.57768,1.49673 0.15755,0.6302 0.28885,1.36544 0.13129,0.73524 0.13129,1.31292 0,0.89279 -0.18381,1.73306 -0.18381,0.84027 -0.52517,1.49673 -0.3151,0.65646 -0.78775,1.05034 -0.4464,0.39388 -0.97157,0.39388 -1.41795,0 -2.70462,-0.42014 -1.28666,-0.44639 -2.12693,-1.05033 -0.73524,1.05033 -1.86435,1.81183 -1.10286,0.73524 -2.80966,0.73524 -0.97156,0 -1.83809,-0.1313 -0.84027,-0.15755 -1.52299,-0.36762 -0.68272,-0.23632 -1.18163,-0.49891 -0.49891,-0.28884 -0.7615,-0.55142 -1.05033,0.76149 -2.36326,1.12911 -1.28666,0.36762 -2.41577,0.36762 -0.47266,0 -0.86653,-0.47265 -0.39388,-0.47266 -0.39388,-1.02408 0,-0.55143 0.49891,-1.02408 0.47265,-0.47266 1.65428,-0.47266 0.39388,0 0.91905,-0.0788 0.55143,-0.0788 1.12911,-0.23633 0.60395,-0.15755 1.18163,-0.39387 0.57769,-0.23633 1.05034,-0.55143 0.34136,-0.23633 0.68272,-0.57769 0.34136,-0.34136 0.6302,-0.6302 0.31511,-0.3151 0.55143,-0.52517 0.23633,-0.23633 0.39388,-0.23633 0.21007,0.26259 0.21007,0.4464 -0.0263,0.57768 -0.23633,1.10285 -0.18381,0.52517 -0.26258,0.7615 0.3151,0.36762 1.07659,0.6302 0.7615,0.23633 2.25823,0.23633 1.49673,0 2.38952,-0.57769 0.91904,-0.60394 1.41796,-1.52299 0.23632,-0.42013 0.47265,-1.02408 0.26258,-0.6302 0.49891,-1.20789 0.26258,-0.60394 0.49891,-1.02408 0.23633,-0.42013 0.44639,-0.42013 0.23633,0.47265 0.23633,0.76149 0,0.57769 -0.10503,1.23415 -0.10504,0.65646 -0.34136,1.49673 0.73523,0.68272 1.91686,1.0766 1.18163,0.36762 2.28449,0.36762 0.44639,0 0.57768,-0.10504 0.15755,-0.10503 0.15755,-0.55142 0,-0.39388 -0.10503,-0.7615 -0.10503,-0.39388 -0.26258,-0.70898 -0.1313,-0.3151 -0.23633,-0.55143 -0.10503,-0.23632 -0.10503,-0.36761 0,-0.18381 0.10503,-0.65647 0.10503,-0.49891 0.23633,-0.99782 0.13129,-0.49891 0.49891,-1.28666 z" />
      <path
         id="path3437"
         d="m 175.60026,404.53705 q -0.21007,0 -0.57769,-0.0263 -0.34136,-0.0263 -0.73523,-0.13129 -0.39388,-0.10504 -0.78776,-0.26259 -0.39387,-0.18381 -0.68272,-0.47265 -0.52516,-0.52517 -0.84027,-1.28666 -0.3151,-0.78776 -0.49891,-1.62803 -0.13129,-0.60394 -0.21006,-1.47047 -0.0525,-0.86653 -0.10504,-1.54925 -0.0788,-1.41796 -0.21007,-3.04598 -0.13129,-1.65428 -0.28884,-3.38734 -0.15755,-1.75932 -0.34136,-3.57115 -0.18381,-1.81184 -0.36762,-3.57115 -0.10503,-0.84027 -0.21007,-1.62803 -0.10503,-0.81401 -0.23632,-1.62802 -0.0525,-0.3151 -0.18381,-0.81401 -0.10503,-0.49891 -0.23633,-0.91905 0.0525,-0.44639 0.15755,-0.9453 0.1313,-0.52517 0.26259,-0.97157 0.13129,-0.44639 0.44639,-1.05033 0.18381,0.3151 0.28885,0.60394 0.10503,0.28884 0.1838,0.65646 0.21007,1.10286 0.31511,2.17945 0.13129,1.0766 0.23632,2.33701 0.13129,1.75931 0.3151,3.88625 0.18381,2.10067 0.39388,4.22761 0.21007,2.12693 0.42014,4.12258 0.21006,1.96938 0.39387,3.46611 0.0525,0.36762 0.15755,0.81402 0.10504,0.44639 0.23633,0.89278 0.15755,0.42014 0.34136,0.78776 0.21007,0.36761 0.44639,0.60394 0.28885,0.28884 0.68272,0.44639 0.42014,0.15756 0.81402,0.23633 0.42013,0.0788 0.76149,0.10503 0.36762,0 0.55143,0 l -0.89279,2.99347 z" />
      <path
         id="path3439"
         d="m 164.41416,393.61353 q 0.13129,0 0.49891,0.44639 0.36762,0.4464 0.73524,1.20789 0.39387,0.73524 0.68272,1.75932 0.28884,0.99782 0.28884,2.12693 0,0.65647 -0.10503,1.31293 -0.0788,0.65646 -0.23633,1.20789 -0.15755,0.55142 -0.34136,0.97156 -0.18381,0.42013 -0.34136,0.60394 -0.0788,0.10504 -0.42014,0.31511 -0.34136,0.1838 -0.86652,0.39387 -0.52517,0.18381 -1.20789,0.36762 -0.68272,0.15755 -1.44422,0.21007 -1.2604,-0.13129 -1.2604,-1.31292 0,-0.55143 0.52517,-1.0766 0.52516,-0.52517 1.62802,-0.60395 0.44639,-0.0263 0.91905,-0.13129 0.49891,-0.13129 0.89278,-0.28884 0.39388,-0.15755 0.65646,-0.3151 0.26259,-0.15755 0.26259,-0.28885 0,-0.68272 -0.26259,-1.28666 -0.23632,-0.6302 -0.52516,-1.10285 -0.28885,-0.47266 -0.78776,-1.18164 0,-0.15755 0.0788,-0.70897 0.0788,-0.55143 0.18381,-1.12912 0.10503,-0.57768 0.44639,-1.49673 z m -2.57333,-8.32393 2.65211,1.81183 -1.33919,2.75714 -2.62584,-1.81183 1.31292,-2.75714 z" />
      <path
         id="path3441"
         d="m 161.68328,404.53705 q -0.28884,0 -0.6302,-0.0525 -0.3151,-0.0525 -0.57769,-0.13129 -0.68272,-0.21007 -1.18163,-0.60395 -0.47265,-0.42013 -0.99782,-1.05033 -0.39388,-0.47266 -0.78775,-1.20789 -0.39388,-0.73524 -0.70898,-1.65429 -0.0788,0.68272 -0.23633,1.31293 -0.13129,0.6302 -0.34136,0.9453 -0.76149,0.73524 -1.7068,1.26041 -0.9453,0.52517 -1.94312,0.86653 -0.99782,0.34136 -1.96939,0.49891 -0.97156,0.15755 -1.75931,0.15755 -1.49674,0 -2.17946,-0.34136 -0.65646,-0.36762 -0.65646,-1.10286 0,-0.3151 0.0525,-0.9453 0.0788,-0.65646 0.15755,-1.28667 0.10503,-0.65646 0.23633,-1.12911 0.15755,-0.47265 0.3151,-0.47265 0.15755,0.10503 0.15755,0.3151 0,0.3151 0.0788,0.6302 0.0788,0.3151 0.31511,0.57769 0.23632,0.26258 0.65646,0.44639 0.44639,0.15755 1.18163,0.15755 1.52299,0 2.86217,-0.34136 1.33918,-0.34136 2.337,-0.76149 1.02408,-0.4464 1.60177,-0.84027 0.57768,-0.42014 0.57768,-0.57769 -0.55142,-1.94312 -0.91904,-3.25605 -0.34136,-1.31292 -0.70898,-2.83591 -0.34136,-1.52299 -0.49891,-2.7834 0.0788,-0.97156 0.13129,-1.44421 0.0788,-0.47265 0.36762,-1.20789 0.15755,0 0.26258,0.55143 0.1313,0.52517 0.42014,1.65428 0.18381,0.7615 0.52517,1.94313 0.34136,1.15537 0.70898,2.38952 0.36761,1.20788 0.70897,2.31074 0.36762,1.0766 0.60395,1.65428 0.42013,1.02408 0.97156,1.81184 0.57769,0.78775 1.31292,1.18163 0.15756,0.0788 0.42014,0.15755 0.26258,0.0525 0.55143,0.10503 0.3151,0.0525 0.6302,0.0788 0.3151,0.0263 0.55143,0.0263 l -0.89279,2.99347 z" />
      <path
         id="path3443"
         d="m 133.03531,412.36207 q 1.49673,0 3.01972,-0.36762 1.52299,-0.34136 2.80965,-0.97156 1.28667,-0.63021 2.17945,-1.47048 0.89279,-0.84027 1.10286,-1.81183 -0.0263,-1.86435 -0.34136,-3.20353 -0.3151,-1.36544 -0.78775,-2.36326 -0.4464,-1.02408 -0.97157,-1.75932 -0.49891,-0.76149 -0.91904,-1.41796 0,-0.28884 0.10503,-0.73523 0.10504,-0.47265 0.26259,-0.91905 0.15755,-0.47265 0.34136,-0.84027 0.1838,-0.39388 0.34136,-0.55143 0.84027,0.84027 1.44421,1.99565 0.60395,1.15537 0.97156,2.46829 0.39388,1.31292 0.57769,2.70462 0.18381,1.3917 0.18381,2.73088 0,2.57333 -0.91905,4.41142 -0.91904,1.86435 -2.44203,3.07224 -1.52299,1.20789 -3.46612,1.78558 -1.91687,0.57768 -3.91251,0.57768 -1.96938,0 -3.28231,-0.70898 -1.28666,-0.68272 -2.07441,-1.78557 -0.7615,-1.10286 -1.10286,-2.44204 -0.3151,-1.33918 -0.3151,-2.6521 0,-1.26041 0.26258,-2.36326 0.26259,-1.0766 0.57769,-1.86435 0.34136,-0.81402 0.65646,-1.26041 0.34136,-0.44639 0.49891,-0.44639 0.18381,0 0.18381,0.13129 -0.23633,0.68272 -0.39388,1.23415 -0.15755,0.52517 -0.28884,1.31292 -0.10503,0.78775 -0.10503,1.89061 0,1.2604 0.47265,2.28448 0.47265,1.05034 1.26041,1.78558 0.81401,0.73524 1.86435,1.12911 1.05033,0.42014 2.20571,0.42014 z m 0.70897,-21.742 2.65211,1.81183 -1.33918,2.75714 -2.62585,-1.81184 1.31292,-2.75713 z" />
      <path
         id="path3445"
         d="m 512.33871,438.33168 q 0.52517,0.0788 1.3917,0.55143 0.84027,0.44639 1.78557,1.12911 0.94531,0.65646 1.86435,1.44422 0.91905,0.78775 1.57551,1.52299 1.15537,1.31292 1.89061,2.38952 0.76149,1.05033 1.18163,2.04816 0.44639,0.97156 0.60394,1.99564 0.18381,0.99782 0.18381,2.20571 0,0.81401 -0.28884,1.68054 -0.28884,0.86653 -0.73524,1.65428 -0.44639,0.7615 -0.99782,1.33918 -0.55143,0.57769 -1.0766,0.81402 -0.23632,0.0788 -0.57768,0.21006 -0.34136,0.10504 -0.57769,0.10504 -0.3151,0 -0.68272,-0.36762 -0.39387,-0.36762 -0.39387,-0.84027 0,-0.34136 0.18381,-0.6302 0.1838,-0.31511 0.47265,-0.55143 0.26258,-0.23633 0.60394,-0.39388 0.36762,-0.15755 0.70898,-0.21007 0.15755,0 0.52517,-0.13129 0.36762,-0.15755 0.73524,-0.39388 0.39387,-0.23632 0.68272,-0.52516 0.28884,-0.28885 0.28884,-0.57769 0,-0.89279 -0.28884,-1.75932 -0.28885,-0.89278 -0.78776,-1.73305 -0.49891,-0.86653 -1.18163,-1.7068 -0.68272,-0.84028 -1.44421,-1.68055 -0.55143,-0.57768 -1.10286,-1.07659 -0.55143,-0.49891 -0.99782,-0.84027 -0.47265,-0.36762 -1.02408,-0.73524 -0.13129,0.52517 -0.44639,0.52517 -0.15755,0 -0.63021,-0.15755 -0.47265,-0.15755 -1.02408,-0.42014 -0.55142,-0.28884 -1.05033,-0.6302 -0.52517,-0.34136 -0.7615,-0.73524 -0.52517,-0.89278 -0.52517,-1.83809 0,-0.42013 0.10504,-0.89279 0.10503,-0.47265 0.28884,-0.91904 0.15755,-0.47265 0.34136,-0.89279 0.18381,-0.42013 0.34136,-0.70898 0.42013,-0.73523 1.33918,-1.54925 0.91905,-0.81401 2.23197,-1.7068 1.28666,-0.89278 2.91469,-1.83809 1.62802,-0.9453 3.49237,-1.94312 1.23415,-0.65646 2.62585,-1.36544 1.39169,-0.73524 2.75713,-1.44422 1.36544,-0.70898 2.62585,-1.33918 1.28666,-0.65646 2.28449,-1.12911 0.99782,-0.49891 2.38952,-0.99782 0,0.15755 -0.10504,0.52516 -0.0788,0.34136 -0.21007,0.7615 -0.10503,0.39388 -0.26258,0.7615 -0.13129,0.34136 -0.23633,0.49891 -1.12911,0.6302 -2.0219,1.10285 -0.86653,0.44639 -2.0219,1.05034 -1.12911,0.57769 -2.38952,1.23415 -1.23415,0.65646 -2.52081,1.33918 -1.26041,0.65646 -2.38952,1.2604 -1.75932,0.94531 -3.43986,1.91687 -1.65428,0.97156 -2.99346,1.86435 -1.33918,0.86653 -2.20571,1.60177 -0.86653,0.70898 -1.02408,1.12911 z" />
      <path
         id="path3447"
         d="m 518.58819,457.42158 q -0.52517,0 -1.28666,-0.13129 -0.7615,-0.15756 -1.31292,-0.52517 -0.60395,-0.42014 -0.78776,-0.94531 -0.18381,-0.52517 -0.3151,-0.89279 -0.15755,0.39388 -0.44639,0.84028 -0.26259,0.44639 -0.65646,0.84027 -0.39388,0.36761 -0.89279,0.6302 -0.47265,0.26258 -1.05034,0.26258 -0.70898,0 -1.33918,-0.15755 -0.6302,-0.15755 -1.15537,-0.39387 -0.52517,-0.23633 -0.91905,-0.49891 -0.39388,-0.26259 -0.6302,-0.47266 -0.68272,1.10286 -1.86435,1.75932 -1.18163,0.6302 -2.70462,0.6302 -0.97157,0 -1.8381,-0.13129 -0.84027,-0.15755 -1.52299,-0.36762 -0.68272,-0.23632 -1.18163,-0.49891 -0.49891,-0.28884 -0.76149,-0.55143 -0.36762,0.28885 -0.94531,0.57769 -0.55142,0.26258 -1.20788,0.47265 -0.63021,0.21007 -1.31293,0.34136 -0.68272,0.10504 -1.31292,0.10504 -0.57769,0 -0.89279,-0.36762 -0.34136,-0.36762 -0.34136,-0.91905 0,-0.26258 0.18381,-0.55143 0.15755,-0.3151 0.4464,-0.57768 0.28884,-0.26259 0.65646,-0.42014 0.39387,-0.15755 0.84027,-0.15755 0.36762,0 0.89278,-0.0788 0.52517,-0.0788 1.10286,-0.23633 0.60394,-0.15755 1.18163,-0.39388 0.60394,-0.23632 1.10286,-0.55142 0.3151,-0.21007 0.6302,-0.52517 0.34136,-0.34136 0.6302,-0.65646 0.28884,-0.31511 0.55143,-0.55143 0.26258,-0.23633 0.44639,-0.23633 0.13129,0 0.15755,0.13129 0.0525,0.1313 0.0525,0.49891 0,0.26259 -0.18381,0.81402 -0.18381,0.52517 -0.3151,0.86653 0.3151,0.36761 1.02408,0.6302 0.70898,0.23632 2.20571,0.23632 1.49673,0 2.41578,-0.49891 0.9453,-0.52517 1.3917,-1.44421 0.1838,-0.36762 0.42013,-0.94531 0.23633,-0.57768 0.47265,-1.10285 0.23633,-0.55143 0.47266,-0.94531 0.26258,-0.39387 0.47265,-0.39387 0.13129,0 0.15755,0.39387 0.0525,0.36762 0.0525,0.73524 0,0.42014 -0.10504,0.97156 -0.0788,0.55143 -0.21007,0.94531 0.15755,0.18381 0.47266,0.44639 0.34136,0.26259 0.76149,0.49891 0.44639,0.23633 0.94531,0.42014 0.52516,0.15755 1.05033,0.15755 0.78776,0 1.20789,-0.68272 0.4464,-0.70898 0.81401,-1.68054 0.18381,-0.47265 0.31511,-0.91905 0.15755,-0.47265 0.28884,-0.81401 0.15755,-0.36762 0.3151,-0.57769 0.15755,-0.23632 0.36762,-0.23632 0.13129,0 0.18381,0.3151 0.0525,0.3151 0.0525,0.68272 0,0.28884 -0.0525,0.78775 -0.0525,0.49891 -0.10504,0.73524 0.34136,0.68272 0.84028,1.12911 0.52516,0.4464 1.07659,0.70898 0.55143,0.26259 1.05034,0.36762 0.52517,0.10503 0.84027,0.10503 l -0.89279,2.99347 z" />
      <path
         id="path3449"
         d="m 493.1175,458.31437 q -0.21007,0 -0.57768,-0.0263 -0.34136,-0.0263 -0.73524,-0.1313 -0.39388,-0.10503 -0.78775,-0.26258 -0.39388,-0.18381 -0.68272,-0.47265 -0.52517,-0.52517 -0.84027,-1.28667 -0.31511,-0.78775 -0.49892,-1.62802 -0.13129,-0.60395 -0.21006,-1.47047 -0.0525,-0.86653 -0.10504,-1.54925 -0.0788,-1.41796 -0.21006,-3.04598 -0.1313,-1.65429 -0.28885,-3.38734 -0.15755,-1.75932 -0.34136,-3.57115 -0.18381,-1.81184 -0.36762,-3.57115 -0.10503,-0.84028 -0.21006,-1.62803 -0.10504,-0.81401 -0.23633,-1.62802 -0.0525,-0.3151 -0.18381,-0.81402 -0.10503,-0.49891 -0.23632,-0.91904 0.0525,-0.44639 0.15755,-0.94531 0.13129,-0.52516 0.26258,-0.97156 0.13129,-0.44639 0.44639,-1.05034 0.18381,0.3151 0.28885,0.60395 0.10503,0.28884 0.18381,0.65646 0.21006,1.10285 0.3151,2.17945 0.13129,1.0766 0.23632,2.337 0.1313,1.75932 0.31511,3.88626 0.1838,2.10067 0.39387,4.22761 0.21007,2.12693 0.42014,4.12257 0.21007,1.96939 0.39387,3.46612 0.0525,0.36762 0.15755,0.81401 0.10504,0.4464 0.23633,0.89279 0.15755,0.42013 0.34136,0.78775 0.21007,0.36762 0.44639,0.60395 0.28885,0.28884 0.68272,0.44639 0.42014,0.15755 0.81402,0.23633 0.42013,0.0788 0.76149,0.10503 0.36762,0 0.55143,0 l -0.89279,2.99347 z" />
      <path
         id="path3451"
         d="m 468.61836,464.43259 q 2.04816,0 4.07006,-0.60395 2.04816,-0.60394 3.80747,-1.44421 1.78558,-0.81402 3.12476,-1.7068 1.36544,-0.86653 2.07442,-1.44422 0.34136,-0.28884 0.55143,-0.68272 0.23632,-0.39388 0.26258,-0.55143 -0.73524,-0.57768 -1.20789,-0.73523 -0.3151,-0.10504 -0.89279,-0.18381 -0.57768,-0.10504 -1.28666,-0.18381 -0.68272,-0.0788 -1.41796,-0.13129 -0.73523,-0.0788 -1.39169,-0.1313 -0.63021,-0.0788 -1.10286,-0.10503 -0.44639,-0.0525 -0.57769,-0.0788 -0.3151,-0.0263 -0.3151,-0.18381 0.0263,-0.1313 0.10504,-0.34136 0.10503,-0.23633 0.26258,-0.68272 0.18381,-0.47266 0.49891,-1.28667 0.0788,-0.15755 0.21007,-0.21007 0.49891,-0.13129 0.70898,-0.18381 0.23632,-0.0788 0.76149,-0.21006 0.3151,-0.10504 0.78776,-0.34136 0.49891,-0.23633 0.97156,-0.55143 0.47265,-0.3151 0.81401,-0.70898 0.36762,-0.39388 0.42014,-0.81401 0,-0.55143 -0.3151,-1.18163 -0.28885,-0.65646 -0.73524,-1.26041 -0.42014,-0.60394 -0.89279,-1.10285 -0.44639,-0.52517 -0.76149,-0.84027 -0.10504,-0.18381 -0.10504,-0.36762 0,-0.34136 0.0525,-0.84027 0.0788,-0.49891 0.18381,-0.97156 0.10503,-0.47266 0.23632,-0.84028 0.1313,-0.36761 0.26259,-0.47265 0.99782,0.99782 1.57551,1.91687 0.60394,0.89279 1.10285,2.15319 0.52517,1.23415 0.52517,2.73088 0,0.65646 -0.18381,1.28667 -0.15755,0.60394 -0.42013,1.15537 -0.23633,0.55143 -0.52517,1.02408 -0.28885,0.47265 -0.52517,0.84027 0.78775,0.13129 1.47047,0.28884 0.68272,0.13129 1.12911,0.26259 1.10286,0.28884 1.60177,0.86653 0.49891,0.55142 0.55143,1.2604 -0.0525,0.52517 -0.13129,1.12912 -0.0788,0.60394 -0.23633,1.20788 -0.13129,0.60395 -0.34136,1.12912 -0.21007,0.52517 -0.52517,0.86653 -0.39388,0.44639 -1.23415,1.10285 -0.81401,0.65646 -1.94312,1.36544 -1.12912,0.73524 -2.49456,1.47048 -1.36544,0.73523 -2.83591,1.31292 -1.44421,0.57768 -2.94095,0.91904 -1.49673,0.36762 -2.88843,0.36762 -1.5755,0 -2.9672,-0.57768 -1.36544,-0.57769 -2.38952,-1.68054 -1.02408,-1.0766 -1.60177,-2.67837 -0.57768,-1.60176 -0.57768,-3.64992 0,-1.57551 0.44639,-3.01972 0.47265,-1.44422 1.05034,-2.52082 0.57769,-1.07659 1.0766,-1.7068 0.52516,-0.65646 0.65646,-0.65646 l 0.10503,0.13129 q 0,0.15756 -0.3151,0.73524 -0.28884,0.55143 -0.65646,1.36544 -0.36762,0.81401 -0.65646,1.81183 -0.28885,0.97157 -0.28885,1.94313 0.0263,1.91687 0.63021,3.28231 0.60394,1.36544 1.52299,2.23197 0.91904,0.89278 1.99564,1.28666 1.0766,0.42014 2.07442,0.42014 z m 7.19481,-29.3307 2.65211,1.81183 -1.33918,2.75714 -2.62585,-1.81183 1.31292,-2.75714 z" />
      <path
         id="path3453"
         d="m 434.79746,439.22447 q 0.52516,0.0788 1.33918,0.57768 0.84027,0.47266 1.75931,1.15538 0.91905,0.68272 1.81184,1.47047 0.91904,0.78775 1.62802,1.47047 0.89279,0.86653 1.49673,1.68054 0.60395,0.81402 0.97157,1.7068 0.39387,0.86653 0.55142,1.86435 0.18381,0.99783 0.18381,2.20571 0,0.78776 -0.34136,1.7068 -0.34136,0.91905 -0.86653,1.75932 -0.49891,0.81401 -1.12911,1.47047 -0.60394,0.63021 -1.12911,0.86653 -0.70898,0.34136 -1.68055,0.57769 -0.97156,0.21007 -1.94312,0.34136 -0.97156,0.13129 -1.83809,0.18381 -0.86653,0.0525 -1.3917,0.0525 -0.65646,0 -0.94531,-0.39388 -0.3151,-0.39388 -0.3151,-0.94531 0,-0.55142 0.55143,-1.10285 0.52517,-0.55143 1.60177,-0.55143 0.26258,0 0.9453,-0.0525 0.68272,-0.0525 1.52299,-0.15755 0.84027,-0.10503 1.73306,-0.28884 0.89279,-0.18381 1.57551,-0.44639 0.34136,-0.1313 0.76149,-0.34136 0.4464,-0.23633 0.84027,-0.49891 0.39388,-0.26259 0.65646,-0.52517 0.26259,-0.26259 0.26259,-0.47265 0,-0.89279 -0.28884,-1.7068 -0.28885,-0.81402 -0.73524,-1.52299 -0.42014,-0.73524 -0.94531,-1.33919 -0.52516,-0.6302 -0.99782,-1.15537 -0.55142,-0.57768 -1.10285,-1.07659 -0.55143,-0.49892 -1.02408,-0.84028 -0.4464,-0.36761 -0.99782,-0.73523 -0.1313,0.52517 -0.4464,0.52517 -0.15755,0 -0.6302,-0.15755 -0.47265,-0.15755 -1.02408,-0.42014 -0.55143,-0.28884 -1.05034,-0.6302 -0.52517,-0.34136 -0.76149,-0.73524 -0.52517,-0.89279 -0.52517,-1.83809 0,-0.42014 0.10503,-0.89279 0.10504,-0.47265 0.28884,-0.91904 0.15756,-0.47266 0.34136,-0.89279 0.18381,-0.42014 0.34136,-0.70898 0.42014,-0.73524 1.33919,-1.54925 0.91904,-0.81401 2.20571,-1.7068 1.31292,-0.89279 2.94094,-1.83809 1.62803,-0.9453 3.49238,-1.94313 1.20789,-0.65646 2.59958,-1.39169 1.3917,-0.73524 2.75714,-1.44422 1.3917,-0.70898 2.65211,-1.33918 1.28666,-0.6302 2.28448,-1.10286 0.99782,-0.49891 2.38952,-0.99782 0,0.15755 -0.10503,0.52517 -0.0788,0.34136 -0.21007,0.7615 -0.10503,0.39387 -0.26258,0.76149 -0.1313,0.34136 -0.23633,0.49891 -1.12911,0.63021 -2.0219,1.10286 -0.86653,0.44639 -2.0219,1.05034 -1.12912,0.57768 -2.38952,1.23414 -1.23415,0.65647 -2.52081,1.33919 -1.26041,0.65646 -2.38952,1.2604 -1.75932,0.94531 -3.43986,1.91687 -1.65428,0.97156 -2.99346,1.86435 -1.33919,0.86653 -2.20572,1.60176 -0.86652,0.70898 -1.02407,1.12912 z" />
      <path
         id="path3455"
         d="m 434.19355,458.31437 q -0.15755,0 -0.49891,-0.0263 -0.34136,-0.0525 -0.78776,-0.23633 -0.42013,-0.18381 -0.91904,-0.55143 -0.49891,-0.39387 -0.97156,-1.07659 -0.28885,-0.39388 -0.57769,-0.99782 -0.26258,-0.60395 -0.49891,-1.23415 -0.23633,-0.65646 -0.42014,-1.26041 -0.15755,-0.6302 -0.26258,-1.07659 -0.47265,0.78775 -0.84027,1.33918 -0.36762,0.52517 -0.81401,0.84027 -0.42014,0.3151 -1.02408,0.44639 -0.60395,0.13129 -1.54925,0.13129 -0.60395,0 -1.20789,-0.0788 -0.57769,-0.0788 -1.05034,-0.21007 -0.44639,-0.15755 -0.73524,-0.36762 -0.28884,-0.21007 -0.28884,-0.47265 0,-0.26258 0.0788,-0.78775 0.10503,-0.52517 0.26258,-1.10286 0.18381,-0.60394 0.44639,-1.20789 0.26259,-0.60394 0.60395,-1.05034 0.23633,-0.28884 0.86653,-0.84027 0.65646,-0.55142 1.41795,-1.15537 0.7615,-0.60394 1.523,-1.12911 0.76149,-0.52517 1.20788,-0.7615 0.0263,-0.6302 0.0263,-1.31292 0.0263,-0.68272 0.0788,-1.23415 0.0525,-0.57768 0.13129,-0.9453 0.10503,-0.36762 0.3151,-0.36762 0.21007,0 0.3151,0.34136 0.1313,0.3151 0.21007,0.84027 0.10503,0.52517 0.18381,1.23415 0.0788,0.68272 0.21007,1.41795 0.15755,0.86653 0.34136,1.81184 0.21007,0.91904 0.44639,1.86435 0.23633,0.91904 0.49891,1.81183 0.28884,0.86653 0.6302,1.60177 0.39388,0.86653 0.84028,1.41795 0.47265,0.55143 0.9453,0.86653 0.47265,0.28885 0.91905,0.42014 0.47265,0.10503 0.84027,0.10503 l -0.89279,2.99347 z m -5.8819,-11.52747 q -0.23632,0.4464 -0.89278,0.99782 -0.63021,0.52517 -1.33918,1.12912 -0.70898,0.57768 -1.33919,1.15537 -0.6302,0.57769 -0.84027,1.10286 0.39388,0.42013 1.41796,0.42013 1.52299,0 3.64993,-0.91905 -0.0788,-0.3151 -0.18381,-0.78775 -0.10504,-0.47265 -0.21007,-0.99782 -0.0788,-0.55143 -0.15755,-1.10286 -0.0788,-0.55142 -0.10504,-0.99782 z" />
      <path
         id="path3457"
         d="m 408.51275,449.99043 q 0,2.07442 -0.23632,3.62367 -0.23633,1.52299 -0.70898,2.20571 -0.84027,0.68272 -2.20571,1.36544 -1.36544,0.68272 -3.25605,0.97156 -0.68272,0.10504 -1.52299,0.1313 -0.81401,0.0263 -1.65428,0.0263 -0.68272,0 -0.97157,-0.42014 -0.28884,-0.42014 -0.28884,-0.97156 0,-0.26259 0.18381,-0.55143 0.18381,-0.28884 0.47265,-0.52517 0.28885,-0.23633 0.68272,-0.36762 0.39388,-0.15755 0.81402,-0.15755 l 0.34136,0 q 0.26258,0 0.60394,-0.0263 0.34136,-0.0263 0.70898,-0.0263 0.39387,-0.0263 0.73523,-0.0788 1.20789,-0.15755 2.44204,-0.55143 1.26041,-0.42013 2.31075,-1.15537 0,-0.34136 -0.0788,-0.84027 -0.0525,-0.52517 -0.15755,-1.05034 -0.10503,-0.55143 -0.23633,-1.05034 -0.13129,-0.49891 -0.23632,-0.81401 l -0.0788,0.28884 q -0.13129,0.65646 -0.47265,1.0766 -0.34136,0.39388 -0.78775,0.6302 -0.4464,0.23633 -0.94531,0.3151 -0.49891,0.0788 -0.97156,0.0788 -0.39388,0 -0.81401,-0.21007 -0.39388,-0.21007 -0.73524,-0.55143 -0.3151,-0.36761 -0.55143,-0.84027 -0.21007,-0.47265 -0.21007,-0.99782 0,-0.52517 0.0788,-1.07659 0.10503,-0.57769 0.23633,-1.10286 0.13129,-0.52517 0.26258,-0.97156 0.15755,-0.47265 0.28884,-0.78776 0.15755,-0.3151 0.36762,-0.65646 0.23633,-0.36762 0.52517,-0.65646 0.28884,-0.28884 0.65646,-0.47265 0.36762,-0.18381 0.84027,-0.18381 0.68272,0 1.28667,0.26258 0.6302,0.23633 1.07659,0.60395 0.31511,0.26258 0.68272,0.78775 0.39388,0.52517 0.73524,1.26041 0.34136,0.73524 0.55143,1.62802 0.23632,0.86653 0.23632,1.83809 z m -2.99346,-2.20571 q -0.47265,-0.49891 -0.91905,-0.76149 -0.42013,-0.26259 -0.89278,-0.26259 -0.49891,0 -0.86653,0.28885 -0.36762,0.26258 -0.60395,0.60394 -0.23632,0.34136 -0.47265,0.89279 0.34136,0.3151 0.70898,0.47265 0.39388,0.15755 0.86653,0.15755 0.39388,0 0.76149,-0.10503 0.36762,-0.10503 0.65646,-0.28884 0.28885,-0.18381 0.49892,-0.4464 0.21006,-0.26258 0.26258,-0.55143 z m -3.78122,-11.36991 2.65211,1.81184 -1.33918,2.75713 -2.62585,-1.81183 1.31292,-2.75714 z" />
      <path
         id="path3459"
         d="m 398.90217,458.31437 q -0.21007,0 -0.57769,-0.0263 -0.34136,-0.0263 -0.73523,-0.1313 -0.39388,-0.10503 -0.78776,-0.26258 -0.39387,-0.18381 -0.68272,-0.47265 -0.52517,-0.52517 -0.84027,-1.28667 -0.3151,-0.78775 -0.49891,-1.62802 -0.13129,-0.60395 -0.21007,-1.47047 -0.0525,-0.86653 -0.10503,-1.54925 -0.0788,-1.41796 -0.21007,-3.04598 -0.13129,-1.65429 -0.28884,-3.38734 -0.15755,-1.75932 -0.34136,-3.57115 -0.18381,-1.81184 -0.36762,-3.57115 -0.10503,-0.84028 -0.21007,-1.62803 -0.10503,-0.81401 -0.23632,-1.62802 -0.0525,-0.3151 -0.18381,-0.81402 -0.10503,-0.49891 -0.23633,-0.91904 0.0525,-0.44639 0.15755,-0.94531 0.1313,-0.52516 0.26259,-0.97156 0.13129,-0.44639 0.44639,-1.05034 0.18381,0.3151 0.28885,0.60395 0.10503,0.28884 0.1838,0.65646 0.21007,1.10285 0.31511,2.17945 0.13129,1.0766 0.23632,2.337 0.13129,1.75932 0.3151,3.88626 0.18381,2.10067 0.39388,4.22761 0.21007,2.12693 0.42014,4.12257 0.21006,1.96939 0.39387,3.46612 0.0525,0.36762 0.15755,0.81401 0.10504,0.4464 0.23633,0.89279 0.15755,0.42013 0.34136,0.78775 0.21007,0.36762 0.44639,0.60395 0.28885,0.28884 0.68272,0.44639 0.42014,0.15755 0.81401,0.23633 0.42014,0.0788 0.7615,0.10503 0.36762,0 0.55143,0 l -0.89279,2.99347 z" />
      <path
         id="path3461"
         d="m 387.05961,449.59656 q 0.99783,1.12911 1.49674,2.04816 0.49891,0.89279 0.89278,2.04816 0.39388,1.12911 0.39388,2.25822 l 0,1.23415 q 0,0.3151 -0.0263,0.47265 -0.0525,2.07442 -0.55143,3.80748 -0.47265,1.73306 -1.39169,3.33482 -0.47266,0.84027 -1.20789,1.65429 -0.70898,0.81401 -1.52299,1.47047 -0.78776,0.65646 -1.62803,1.05034 -0.81401,0.42013 -1.49673,0.42013 -1.3917,-0.23632 -2.28449,-0.42013 -0.89278,-0.18381 -1.91686,-0.42014 -1.02408,-0.21006 -1.89061,-0.44639 -0.86653,-0.21007 -1.99564,-0.68272 l 0.39387,-0.10503 q 1.31293,0 2.52081,-0.0525 1.23415,-0.0525 2.36327,-0.26259 1.15537,-0.18381 2.23196,-0.55142 1.0766,-0.36762 2.07442,-0.99782 2.44204,-1.523 3.70244,-3.30857 1.26041,-1.78558 1.62803,-3.70244 -0.36762,-1.28667 -0.84027,-2.23197 -0.47265,-0.97156 -0.89279,-1.62803 -0.42013,-0.65646 -0.99782,-1.41795 0,-0.18381 0.10503,-0.7615 0.10504,-0.57768 0.26259,-1.20789 0.15755,-0.6302 0.57768,-1.60176 z" />
      <path
         id="path3463"
         d="m 356.15339,449.70159 q 0.68272,0 1.15537,0.26259 0.49891,0.26258 0.89279,0.65646 0.39388,0.39387 0.73524,0.86653 0.36762,0.47265 0.78775,0.86653 0.42014,0.39387 0.91905,0.65646 0.52517,0.26258 1.23414,0.26258 1.60177,0 2.65211,-0.6302 1.0766,-0.65646 1.57551,-1.57551 0.23632,-0.42013 0.47265,-1.02408 0.26258,-0.6302 0.49891,-1.20789 0.26258,-0.60394 0.49891,-1.02408 0.23633,-0.42013 0.44639,-0.42013 0.23633,0.47265 0.23633,0.76149 0,0.57769 -0.10503,1.23415 -0.10504,0.65646 -0.34136,1.49673 0.73523,0.68272 1.91686,1.0766 1.18163,0.36762 2.28449,0.36762 0.44639,0 0.57768,-0.10504 0.15756,-0.10503 0.15756,-0.55142 0,-0.39388 -0.10504,-0.7615 -0.10503,-0.39388 -0.26258,-0.70898 -0.1313,-0.3151 -0.23633,-0.55142 -0.10503,-0.23633 -0.10503,-0.36762 0,-0.18381 0.10503,-0.65646 0.10503,-0.49892 0.23633,-0.99783 0.13129,-0.49891 0.49891,-1.28666 0.42013,0.86653 0.57768,1.49673 0.15755,0.6302 0.28885,1.36544 0.13129,0.73524 0.13129,1.31292 0,0.89279 -0.18381,1.73306 -0.18381,0.84027 -0.52517,1.49673 -0.3151,0.65647 -0.78775,1.05034 -0.4464,0.39388 -0.97157,0.39388 -1.41795,0 -2.70462,-0.42014 -1.28666,-0.44639 -2.12693,-1.05033 -0.84027,1.2604 -2.17945,1.99564 -1.31293,0.73524 -3.49238,0.73524 -0.78775,0 -1.41795,-0.28885 -0.60395,-0.3151 -1.10286,-0.73523 -0.47265,-0.4464 -0.89279,-0.97157 -0.39387,-0.52517 -0.78775,-0.9453 -0.36762,-0.4464 -0.78775,-0.73524 -0.39388,-0.3151 -0.86653,-0.3151 -0.70898,0 -1.57551,0.44639 -0.84027,0.42014 -1.57551,1.05034 -0.73524,0.60395 -1.23415,1.28667 -0.49891,0.65646 -0.49891,1.10285 0,0.60395 0.89279,1.0766 0.89279,0.47265 2.31074,0.65646 0.7615,0.10503 1.33919,0.18381 0.57768,0.0788 1.10285,0.15755 2.70462,0.42013 2.70462,2.20571 0,0.60394 -0.15755,1.28666 -0.15755,0.68272 -0.42013,1.33919 -0.23633,0.68271 -0.52517,1.2604 -0.26259,0.57769 -0.49891,0.94531 -0.39388,0.44639 -1.18163,1.07659 -0.78776,0.6302 -1.86435,1.31292 -1.0766,0.68272 -2.36327,1.33919 -1.28666,0.68272 -2.70462,1.20788 -1.39169,0.55143 -2.86217,0.86653 -1.44421,0.34136 -2.83591,0.34136 -1.60177,0 -2.99347,-0.57768 -1.36543,-0.57769 -2.38951,-1.68054 -0.99783,-1.0766 -1.57551,-2.67837 -0.57769,-1.60176 -0.57769,-3.64992 0,-1.47047 0.4464,-2.88843 0.44639,-1.41796 0.99782,-2.52081 0.55142,-1.12912 1.07659,-1.81184 0.52517,-0.68272 0.68272,-0.68272 0.15755,0 0.15755,0.15755 0,0.15756 -0.3151,0.68272 -0.28884,0.49892 -0.65646,1.28667 -0.36762,0.76149 -0.68272,1.75932 -0.28884,0.99782 -0.28884,2.10067 0,1.91687 0.60394,3.28231 0.60395,1.36544 1.52299,2.23197 0.91905,0.89278 1.99565,1.28666 1.10285,0.42014 2.10067,0.42014 2.0219,0 4.07006,-0.60395 2.04816,-0.57768 3.80748,-1.41795 1.78557,-0.81402 3.12476,-1.7068 1.36544,-0.86653 2.04816,-1.47048 0.36761,-0.28884 0.55142,-0.73523 0.21007,-0.42014 0.23633,-0.57769 -0.6302,-0.47265 -1.18163,-0.52517 -0.4464,-0.0525 -1.05034,-0.10503 -0.60394,-0.0525 -1.23415,-0.1313 -0.6302,-0.0788 -1.23414,-0.1838 -0.57769,-0.0788 -1.02408,-0.21007 -0.47266,-0.10504 -0.94531,-0.34136 -0.44639,-0.23633 -0.81401,-0.55143 -0.36762,-0.3151 -0.60395,-0.68272 -0.21006,-0.34136 -0.21006,-0.70898 0,-0.9453 0.28884,-2.04816 0.3151,-1.12911 0.89279,-2.12693 0.39387,-0.68272 1.02408,-1.47048 0.6302,-0.78775 1.44421,-1.44421 0.81401,-0.68272 1.75932,-1.12911 0.97156,-0.4464 1.99564,-0.4464 z" />
      <path
         id="path3465"
         d="m 319.83794,443.66215 q 0.4464,0 0.86653,0.15755 0.4464,0.13129 0.78776,0.39387 0.34136,0.23633 0.55142,0.55143 0.21007,0.3151 0.21007,0.65646 0,0.34136 -0.13129,0.73524 -0.13129,0.36762 -0.3151,0.68272 -0.18381,0.3151 -0.39388,0.52517 -0.18381,0.21007 -0.34136,0.21007 -0.13129,0 -0.3151,-0.21007 -0.15755,-0.23633 -0.39388,-0.47265 -0.23632,-0.26259 -0.55142,-0.47265 -0.31511,-0.23633 -0.70898,-0.23633 -0.4464,0 -1.05034,0.21007 -0.60395,0.21006 -1.15537,0.6302 -0.52517,0.42013 -0.91905,1.02408 -0.36762,0.57769 -0.36762,1.31292 0,0.65646 0.34136,1.33918 0.34136,0.68272 0.81401,1.31293 0.47266,0.6302 0.99783,1.12911 0.55142,0.49891 0.9453,0.76149 0.65646,0.18381 1.31292,0.42014 0.68272,0.23633 1.23415,0.57769 0.55143,0.34136 0.73524,0.81401 0.18381,0.44639 0.18381,1.05034 0,0.28884 -0.1313,0.73523 -0.10503,0.4464 -0.28884,0.86653 -0.15755,0.4464 -0.34136,0.7615 -0.18381,0.3151 -0.28884,0.3151 -0.4464,0 -1.05034,-0.28884 -0.57769,-0.26259 -1.18163,-0.68272 -0.60394,-0.42014 -1.12911,-0.89279 -0.52517,-0.49891 -0.78776,-0.89279 -0.55143,0.0525 -1.36544,0.3151 -0.78775,0.26259 -1.65428,0.55143 -0.86653,0.28884 -1.65428,0.52517 -0.78776,0.23633 -1.28667,0.23633 -0.68272,0 -0.97156,-0.23633 -0.28884,-0.26259 -0.28884,-0.6302 0,-0.34136 0.21006,-0.70898 0.18381,-0.36762 0.49892,-0.68272 0.28884,-0.3151 0.65646,-0.52517 0.39387,-0.21007 0.78775,-0.21007 0.26258,0 0.70898,-0.13129 0.44639,-0.13129 0.9453,-0.28884 0.52517,-0.15755 1.05034,-0.28885 0.55143,-0.15755 0.97156,-0.21006 -0.13129,-0.18381 -0.34136,-0.52517 -0.1838,-0.36762 -0.39387,-0.81402 -0.18381,-0.47265 -0.34136,-0.97156 -0.13129,-0.52517 -0.13129,-1.02408 0,-1.3917 0.49891,-2.73088 0.49891,-1.33918 1.28666,-2.36326 0.78775,-1.05034 1.75932,-1.68054 0.97156,-0.6302 1.91686,-0.6302 z m -2.12693,-8.24516 2.6521,1.81184 -1.33918,2.75713 -2.62584,-1.81183 1.31292,-2.75714 z" />
      <path
         id="path3467"
         d="m 310.9626,458.31437 q -0.78776,0.0525 -1.23415,0.10503 -0.44639,0.0525 -0.84027,0.15755 -0.36762,0.10503 -0.39388,0.26258 0.15755,0.0263 0.60395,0.0788 0.44639,0.0788 0.91904,0.13129 0.47266,0.0525 1.44422,0.21007 1.05034,0.21007 1.83809,0.39388 0.78775,0.21006 1.31292,0.44639 0.52517,0.26258 0.78776,0.6302 0.26258,0.36762 0.26258,0.91905 0,0.18381 -0.13129,0.81401 -0.13129,0.6302 -0.34136,1.36544 -0.21007,0.73524 -0.47265,1.3917 -0.23633,0.68272 -0.47265,0.9453 -0.39388,0.4464 -1.20789,1.0766 -0.81402,0.65646 -1.91687,1.36544 -1.10286,0.73524 -2.44204,1.41796 -1.33918,0.70897 -2.78339,1.2604 -1.41796,0.57769 -2.91469,0.91905 -1.47048,0.36762 -2.86217,0.36762 -1.57551,0 -2.96721,-0.57769 -1.36544,-0.57769 -2.38952,-1.68054 -1.02408,-1.0766 -1.60176,-2.67836 -0.57769,-1.60177 -0.57769,-3.64993 0,-1.41795 0.36762,-2.73088 0.39387,-1.28666 0.89279,-2.337 0.52516,-1.02408 0.99782,-1.73306 0.49891,-0.73523 0.73523,-0.99782 l 0.21007,-0.10503 q 0.13129,0 0.13129,0.15755 0,0.21007 -0.15755,0.39387 -0.21007,0.36762 -0.52517,0.97157 -0.28884,0.60394 -0.57768,1.33918 -0.26259,0.73524 -0.47265,1.54925 -0.18381,0.81401 -0.18381,1.5755 0,1.91687 0.60394,3.28231 0.60394,1.36544 1.52299,2.23197 0.91905,0.89279 1.99564,1.28666 1.10286,0.42014 2.10068,0.42014 2.04816,0 4.07006,-0.60394 2.04816,-0.60395 3.80748,-1.44422 1.78557,-0.81401 3.12475,-1.7068 1.36544,-0.86653 2.07442,-1.44421 0.26259,-0.21007 0.44639,-0.52517 0.21007,-0.3151 0.31511,-0.52517 -0.31511,-0.34136 -0.94531,-0.57769 -0.60394,-0.21007 -2.15319,-0.52517 -1.7068,-0.21007 -2.44204,-0.3151 -0.73523,-0.10503 -1.28666,-0.23633 -0.55143,-0.10503 -0.7615,-0.28884 -0.23632,-0.21007 -0.23632,-0.47265 0.15755,-0.6302 0.28884,-0.99782 0.15755,-0.34136 0.34136,-0.7615 0.21007,-0.39387 0.44639,-0.78775 0.18381,-0.28884 0.3151,-0.47265 0.1313,-0.18381 0.26259,-0.34136 0.13129,-0.18381 0.3151,-0.36762 0.21007,-0.18381 0.49891,-0.44639 0.15755,-0.10504 0.49891,-0.28885 0.34136,-0.21007 0.7615,-0.39387 0.42013,-0.18381 0.91904,-0.31511 0.49891,-0.13129 0.97157,-0.13129 l -0.89279,2.99347 z" />
      <path
         id="path3469"
         d="m 272.52022,442.19167 q 0.47265,0 1.12912,0.36762 0.68272,0.36762 1.39169,1.0766 0.73524,0.68272 1.44422,1.65428 0.73524,0.94531 1.31292,2.12694 0.57769,1.15537 0.91905,2.52081 0.36762,1.36544 0.36762,2.83591 0,0.39388 -0.0788,0.86653 -0.0525,0.47265 -0.15755,0.91905 -0.10503,0.44639 -0.26258,0.84027 -0.1313,0.39387 -0.28885,0.65646 -0.76149,0.73523 -1.86435,1.20789 -1.10285,0.47265 -2.31074,0.76149 -1.18163,0.26259 -2.31075,0.36762 -1.12911,0.13129 -1.91686,0.13129 -1.49674,0 -2.07442,-0.26258 -0.57769,-0.28884 -0.57769,-0.99782 0,-0.3151 0.0525,-0.84027 0.0788,-0.52517 0.18381,-1.02408 0.13129,-0.49891 0.26258,-0.84027 0.15755,-0.36762 0.34136,-0.36762 0.15755,0.34136 0.34136,0.57768 0.21007,0.21007 0.65646,0.39388 0.4464,0.15755 1.31293,0.15755 1.52299,0 2.91469,-0.23632 1.39169,-0.23633 2.44203,-0.55143 1.05034,-0.3151 1.68054,-0.63021 0.63021,-0.3151 0.63021,-0.49891 0,-0.60394 -0.28885,-1.39169 -0.26258,-0.78776 -0.73523,-1.60177 -0.4464,-0.84027 -1.05034,-1.62802 -0.57769,-0.78776 -1.20789,-1.41796 -0.6302,-0.6302 -1.26041,-0.99782 -0.60394,-0.39388 -1.12911,-0.39388 -0.39388,0 -0.55143,0.0788 -0.15755,0.0525 -0.23632,0.13129 -0.0788,0.0525 -0.1313,0.13129 -0.0263,0.0525 -0.15755,0.0525 -0.3151,0 -0.3151,-0.70898 0,-0.23633 0.13129,-0.81401 0.1313,-0.57769 0.34136,-1.15537 0.21007,-0.60395 0.47266,-1.05034 0.28884,-0.4464 0.57768,-0.4464 z" />
      <path
         id="path3471"
         d="m 263.6186,456.97518 q -0.0525,-1.18163 -0.34136,-3.22979 -0.26258,-2.07441 -0.76149,-4.85781 -0.26259,-1.44422 -0.57769,-3.15101 -0.3151,-1.7068 -0.60394,-3.43986 -0.28885,-1.73306 -0.52517,-3.4136 -0.21007,-1.68054 -0.28885,-3.0985 0,-0.15755 0.1313,-0.76149 0.15755,-0.60395 0.34136,-1.26041 0.21006,-0.65646 0.65646,-1.7068 0.26258,0.97156 0.39387,2.38952 0.34136,3.46612 0.78776,6.40706 0.44639,2.91469 0.81401,5.30421 0.15755,1.02408 0.3151,2.23197 0.18381,1.20789 0.3151,2.44204 0.1313,1.20788 0.21007,2.337 0.10503,1.12911 0.10503,2.0219 0,0.39388 -0.0788,0.9453 -0.0525,0.52517 -0.15755,1.05034 -0.0788,0.49891 -0.23633,0.86653 -0.13129,0.34136 -0.28884,0.34136 -0.15755,0 -0.18381,-0.34136 -0.0263,-0.36762 -0.0263,-0.70898 l 0,-0.36762 z" />
      <path
         id="path3473"
         d="m 254.95331,446.49806 q 0.13129,0 0.49891,0.44639 0.36762,0.4464 0.73524,1.20789 0.39387,0.73524 0.68272,1.75932 0.28884,0.99782 0.28884,2.12693 0,0.65647 -0.10503,1.31293 -0.0788,0.65646 -0.23633,1.20789 -0.15755,0.55142 -0.34136,0.97156 -0.18381,0.42013 -0.34136,0.60394 -0.0788,0.10504 -0.42014,0.31511 -0.34136,0.1838 -0.86652,0.39387 -0.52517,0.18381 -1.20789,0.36762 -0.68272,0.15755 -1.44422,0.21007 -1.2604,-0.13129 -1.2604,-1.31292 0,-0.55143 0.52516,-1.0766 0.52517,-0.52517 1.62803,-0.60395 0.44639,-0.0263 0.91904,-0.13129 0.49892,-0.13129 0.89279,-0.28884 0.39388,-0.15755 0.65646,-0.3151 0.26259,-0.15755 0.26259,-0.28885 0,-0.68272 -0.26259,-1.28666 -0.23632,-0.6302 -0.52517,-1.10286 -0.28884,-0.47265 -0.78775,-1.18163 0,-0.15755 0.0788,-0.70897 0.0788,-0.55143 0.18381,-1.12912 0.10503,-0.57768 0.44639,-1.49673 z m -2.57333,-8.32393 2.6521,1.81183 -1.33918,2.75714 -2.62584,-1.81183 1.31292,-2.75714 z" />
      <path
         id="path3475"
         d="m 252.19617,457.42158 q -1.33918,0 -2.20571,-0.34136 -0.86653,-0.36762 -1.41795,-0.7615 -0.52517,-0.42013 -0.81401,-0.76149 -0.28885,-0.36762 -0.47266,-0.36762 -0.52517,0.52517 -0.81401,0.89279 -0.26258,0.34136 -0.55143,0.70897 -0.28884,0.34136 -0.47265,0.52517 -0.68272,0.57769 -1.52299,0.78776 -0.84027,0.21007 -1.60177,0.21007 -0.36761,0 -0.70897,-0.34136 -0.36762,-0.34136 -0.36762,-1.10286 0,-0.55143 0.3151,-0.86653 0.3151,-0.3151 0.68272,-0.47265 0.36762,-0.15755 0.97156,-0.21007 0.63021,0 1.36544,-0.26258 0.73524,-0.28885 1.33918,-0.89279 0.36762,-0.42014 0.65646,-0.84027 0.31511,-0.42014 0.57769,-0.73524 0.26259,-0.34136 0.49891,-0.55143 0.26259,-0.21006 0.52517,-0.21006 0.23633,0 0.55143,0.42013 0.34136,0.39388 0.89279,0.89279 0.55142,0.47265 1.39169,0.89279 0.84027,0.39387 2.07442,0.39387 l -0.89279,2.99347 z m -6.32828,-13.73317 2.6521,1.81183 -1.33918,2.75714 -2.62585,-1.81184 1.31293,-2.75713 z" />
      <path
         id="path3477"
         d="m 242.34925,458.31437 q -0.28884,0 -0.6302,-0.0525 -0.3151,-0.0525 -0.57769,-0.13129 -0.68272,-0.21007 -1.18163,-0.60395 -0.47265,-0.42013 -0.99782,-1.05034 -0.39388,-0.47265 -0.78775,-1.20789 -0.39388,-0.73523 -0.70898,-1.65428 -0.0788,0.68272 -0.23633,1.31292 -0.13129,0.63021 -0.34136,0.94531 -0.76149,0.73524 -1.7068,1.2604 -0.9453,0.52517 -1.94312,0.86653 -0.99782,0.34136 -1.96939,0.49891 -0.97156,0.15756 -1.75931,0.15756 -1.49674,0 -2.17945,-0.34136 -0.65647,-0.36762 -0.65647,-1.10286 0,-0.3151 0.0525,-0.9453 0.0788,-0.65647 0.15755,-1.28667 0.10504,-0.65646 0.23633,-1.12911 0.15755,-0.47265 0.3151,-0.47265 0.15755,0.10503 0.15755,0.3151 0,0.3151 0.0788,0.6302 0.0788,0.3151 0.3151,0.57769 0.23632,0.26258 0.65646,0.44639 0.44639,0.15755 1.18163,0.15755 1.52299,0 2.86217,-0.34136 1.33918,-0.34136 2.337,-0.76149 1.02408,-0.4464 1.60177,-0.84028 0.57768,-0.42013 0.57768,-0.57768 -0.55142,-1.94313 -0.91904,-3.25605 -0.34136,-1.31292 -0.70898,-2.83591 -0.34136,-1.52299 -0.49891,-2.7834 0.0788,-0.97156 0.13129,-1.44421 0.0788,-0.47266 0.36762,-1.20789 0.15755,0 0.26258,0.55142 0.1313,0.52517 0.42014,1.65429 0.18381,0.76149 0.52517,1.94312 0.34136,1.15537 0.70898,2.38952 0.36762,1.20789 0.70898,2.31075 0.36761,1.07659 0.60394,1.65428 0.42014,1.02408 0.97156,1.81183 0.57769,0.78776 1.31293,1.18163 0.15755,0.0788 0.42013,0.15755 0.26259,0.0525 0.55143,0.10504 0.3151,0.0525 0.6302,0.0788 0.3151,0.0263 0.55143,0.0263 l -0.89279,2.99347 z" />
      <path
         id="path3479"
         d="m 211.04918,447.39085 q 0.13129,0 0.49891,0.44639 0.36762,0.4464 0.73523,1.20789 0.39388,0.73524 0.68272,1.75932 0.28885,0.99782 0.28885,2.12693 0,0.65646 -0.10504,1.31292 -0.0788,0.65647 -0.23632,1.20789 -0.15755,0.55143 -0.34136,0.97157 -0.18381,0.42013 -0.34136,0.60394 -0.0788,0.10503 -0.42014,0.3151 -0.34136,0.18381 -0.86653,0.39388 -0.52517,0.18381 -1.20789,0.36762 -0.68272,0.15755 -1.44421,0.21007 -1.26041,-0.1313 -1.26041,-1.31293 0,-0.55142 0.52517,-1.07659 0.52517,-0.52517 1.62803,-0.60395 0.44639,-0.0263 0.91904,-0.13129 0.49891,-0.13129 0.89279,-0.28884 0.39388,-0.15755 0.65646,-0.31511 0.26259,-0.15755 0.26259,-0.28884 0,-0.68272 -0.26259,-1.28666 -0.23633,-0.63021 -0.52517,-1.10286 -0.28884,-0.47265 -0.78775,-1.18163 0,-0.15755 0.0788,-0.70898 0.0788,-0.55142 0.18381,-1.12911 0.10504,-0.57769 0.4464,-1.49673 z m -2.57333,-8.32393 2.6521,1.81183 -1.33918,2.75714 -2.62585,-1.81183 1.31293,-2.75714 z" />
      <path
         id="path3481"
         d="m 208.3183,458.31437 q -0.28885,0 -0.63021,-0.0525 -0.3151,-0.0525 -0.57768,-0.13129 -0.68272,-0.21007 -1.18163,-0.60395 -0.47266,-0.42013 -0.99783,-1.05034 -0.39387,-0.47265 -0.78775,-1.20789 -0.39388,-0.73523 -0.70898,-1.65428 -0.0788,0.68272 -0.23632,1.31292 -0.1313,0.63021 -0.34136,0.94531 -0.7615,0.73524 -1.7068,1.2604 -0.94531,0.52517 -1.94313,0.86653 -0.99782,0.34136 -1.96938,0.49891 -0.97157,0.15756 -1.75932,0.15756 -1.49673,0 -2.17945,-0.34136 -0.65646,-0.36762 -0.65646,-1.10286 0,-0.3151 0.0525,-0.9453 0.0788,-0.65647 0.15756,-1.28667 0.10503,-0.65646 0.23632,-1.12911 0.15755,-0.47265 0.3151,-0.47265 0.15755,0.10503 0.15755,0.3151 0,0.3151 0.0788,0.6302 0.0788,0.3151 0.3151,0.57769 0.23633,0.26258 0.65646,0.44639 0.4464,0.15755 1.18163,0.15755 1.52299,0 2.86217,-0.34136 1.33919,-0.34136 2.33701,-0.76149 1.02408,-0.4464 1.60176,-0.84028 0.57769,-0.42013 0.57769,-0.57768 -0.55143,-1.94313 -0.91905,-3.25605 -0.34136,-1.31292 -0.70898,-2.83591 -0.34136,-1.52299 -0.49891,-2.7834 0.0788,-0.97156 0.1313,-1.44421 0.0788,-0.47266 0.36761,-1.20789 0.15755,0 0.26259,0.55142 0.13129,0.52517 0.42013,1.65429 0.18381,0.76149 0.52517,1.94312 0.34136,1.15537 0.70898,2.38952 0.36762,1.20789 0.70898,2.31075 0.36762,1.07659 0.60394,1.65428 0.42014,1.02408 0.97157,1.81183 0.57768,0.78776 1.31292,1.18163 0.15755,0.0788 0.42013,0.15755 0.26259,0.0525 0.55143,0.10504 0.3151,0.0525 0.63021,0.0788 0.3151,0.0263 0.55142,0.0263 l -0.89278,2.99347 z" />
      <path
         id="path3483"
         d="m 189.04459,456.97518 q -0.0525,-1.18163 -0.34136,-3.22979 -0.26259,-2.07441 -0.7615,-4.85781 -0.26258,-1.44422 -0.57768,-3.15101 -0.3151,-1.7068 -0.60395,-3.43986 -0.28884,-1.73306 -0.52517,-3.4136 -0.21006,-1.68054 -0.28884,-3.0985 0,-0.15755 0.13129,-0.76149 0.15755,-0.60395 0.34136,-1.26041 0.21007,-0.65646 0.65646,-1.7068 0.26259,0.97156 0.39388,2.38952 0.34136,3.46612 0.78776,6.40706 0.44639,2.91469 0.81401,5.30421 0.15755,1.02408 0.3151,2.23197 0.18381,1.20789 0.3151,2.44204 0.13129,1.20788 0.21007,2.337 0.10503,1.12911 0.10503,2.0219 0,0.39388 -0.0788,0.9453 -0.0525,0.52517 -0.15755,1.05034 -0.0788,0.49891 -0.23633,0.86653 -0.13129,0.34136 -0.28884,0.34136 -0.15755,0 -0.18381,-0.34136 -0.0263,-0.36762 -0.0263,-0.70898 l 0,-0.36762 z" />
      <path
         id="path3485"
         d="m 179.72284,449.59656 q 0.99782,1.12911 1.49673,2.04816 0.49891,0.89279 0.89279,2.04816 0.39388,1.12911 0.39388,2.25822 l 0,1.23415 q 0,0.3151 -0.0263,0.47265 -0.0525,2.07442 -0.55143,3.80748 -0.47265,1.73306 -1.3917,3.33482 -0.47265,0.84027 -1.20789,1.65429 -0.70898,0.81401 -1.52299,1.47047 -0.78775,0.65646 -1.62802,1.05034 -0.81401,0.42013 -1.49673,0.42013 -1.3917,-0.23632 -2.28449,-0.42013 -0.89279,-0.18381 -1.91687,-0.42014 -1.02408,-0.21006 -1.89061,-0.44639 -0.86653,-0.21007 -1.99564,-0.68272 l 0.39388,-0.10503 q 1.31292,0 2.52081,-0.0525 1.23415,-0.0525 2.36326,-0.26259 1.15537,-0.18381 2.23197,-0.55142 1.0766,-0.36762 2.07442,-0.99782 2.44203,-1.523 3.70244,-3.30857 1.26041,-1.78558 1.62802,-3.70244 -0.36761,-1.28667 -0.84027,-2.23197 -0.47265,-0.97156 -0.89278,-1.62803 -0.42014,-0.65646 -0.99783,-1.41795 0,-0.18381 0.10504,-0.7615 0.10503,-0.57768 0.26258,-1.20789 0.15755,-0.6302 0.57769,-1.60176 z" />
      <path
         id="path3487"
         d="m 164.75552,442.19167 q 0.47265,0 1.12911,0.36762 0.68272,0.36762 1.3917,1.0766 0.73524,0.68272 1.44422,1.65428 0.73523,0.94531 1.31292,2.12694 0.57769,1.15537 0.91905,2.52081 0.36761,1.36544 0.36761,2.83591 0,0.39388 -0.0788,0.86653 -0.0525,0.47265 -0.15755,0.91905 -0.10504,0.44639 -0.26259,0.84027 -0.13129,0.39387 -0.28884,0.65646 -0.76149,0.73523 -1.86435,1.20789 -1.10286,0.47265 -2.31074,0.76149 -1.18163,0.26259 -2.31075,0.36762 -1.12911,0.13129 -1.91687,0.13129 -1.49673,0 -2.07441,-0.26258 -0.57769,-0.28884 -0.57769,-0.99782 0,-0.3151 0.0525,-0.84027 0.0788,-0.52517 0.18381,-1.02408 0.13129,-0.49891 0.26258,-0.84027 0.15755,-0.36762 0.34136,-0.36762 0.15755,0.34136 0.34136,0.57768 0.21007,0.21007 0.65646,0.39388 0.4464,0.15755 1.31293,0.15755 1.52299,0 2.91468,-0.23632 1.3917,-0.23633 2.44204,-0.55143 1.05034,-0.3151 1.68054,-0.63021 0.6302,-0.3151 0.6302,-0.49891 0,-0.60394 -0.28884,-1.39169 -0.26258,-0.78776 -0.73524,-1.60177 -0.44639,-0.84027 -1.05033,-1.62802 -0.57769,-0.78776 -1.20789,-1.41796 -0.63021,-0.6302 -1.26041,-0.99782 -0.60394,-0.39388 -1.12911,-0.39388 -0.39388,0 -0.55143,0.0788 -0.15755,0.0525 -0.23633,0.13129 -0.0788,0.0525 -0.13129,0.13129 -0.0263,0.0525 -0.15755,0.0525 -0.3151,0 -0.3151,-0.70898 0,-0.23633 0.13129,-0.81401 0.13129,-0.57769 0.34136,-1.15537 0.21007,-0.60395 0.47265,-1.05034 0.28885,-0.4464 0.57769,-0.4464 z" />
      <path
         id="path3489"
         d="m 150.15582,456.55505 q 0,-0.44639 0.15755,-0.84027 0.18381,-0.42014 0.47265,-0.70898 0.28884,-0.3151 0.65646,-0.47265 0.39388,-0.18381 0.84027,-0.18381 0.42014,0 0.81401,0.18381 0.39388,0.15755 0.68272,0.47265 0.28885,0.28884 0.4464,0.70898 0.18381,0.39388 0.18381,0.84027 0,0.44639 -0.18381,0.86653 -0.15755,0.39387 -0.4464,0.70898 -0.28884,0.28884 -0.68272,0.44639 -0.39387,0.18381 -0.81401,0.18381 -0.44639,0 -0.84027,-0.18381 -0.36762,-0.15755 -0.65646,-0.44639 -0.28884,-0.31511 -0.47265,-0.70898 -0.15755,-0.42014 -0.15755,-0.86653 z" />
    </g>
    <path
       d="m 290.4522,548.09113 q 0.84161,-1.14218 0.9919,0.54104 0.0902,1.17224 0.87167,7.27391 0.78149,6.07162 0.90172,7.18375 0.48092,4.92943 2.10403,5.95138 0.96184,0.60115 2.70517,0.54104 1.08207,-0.0301 1.23236,1.29247 0.18035,1.32253 -0.24046,2.76529 -0.4208,1.44276 -0.9919,1.50287 -3.51672,0.30058 -5.16989,-1.74333 -1.6231,-2.04391 -2.28437,-7.33403 -1.77339,3.33638 -3.57684,4.05776 -1.23236,0.48092 -3.75719,0.0601 -2.49477,-0.45087 -3.63695,-1.35259 -1.14219,-0.90173 -0.96184,-2.16414 0.18034,-1.29247 1.17224,-3.33638 0.9919,-2.07397 1.59305,-2.67512 3.27626,-3.09592 7.75483,-5.53058 -0.18034,-2.52483 -0.2104,-3.72713 0,-1.23236 0.57109,-2.01386 l 0.93178,-1.29247 z m -0.87166,10.79065 q -4.77915,1.35258 -6.88317,4.14793 -0.27052,0.39075 0.15029,0.63121 2.52483,1.23236 6.67276,0.33063 0.36069,-0.0902 0.69132,-0.4208 -0.2104,-1.95374 -0.6312,-4.68897 z m 25.81939,-7.06352 q 0.36069,0 0.60115,0.12023 1.47282,0.90173 1.89362,3.36644 0.81155,4.71903 -1.05201,8.80685 -0.90173,1.9838 -2.22426,3.93753 3.81731,1.41271 6.67277,1.53294 0.57109,0.03 0.69132,1.53293 0.36069,3.93753 -0.69132,4.0277 -5.04966,0.51098 -12.71433,-3.54678 -2.22425,1.08207 -5.86121,2.31443 -3.6069,1.2023 -4.71903,1.23235 -0.75143,0.0301 -1.08207,-1.32253 -0.33063,-1.38264 -0.0301,-2.73523 0.30057,-1.38264 1.11212,-1.50287 3.48667,-0.51098 6.52248,-1.56299 -0.45086,-2.73524 0.72138,-5.86122 1.89362,-5.10977 6.94328,-8.89702 1.92369,-1.44276 3.21616,-1.44276 z m -2.76529,6.49242 q -2.91558,-0.24046 -5.35024,3.15604 -0.69132,0.87167 0.66127,2.70518 1.35258,1.8335 3.15603,1.8335 1.80345,0 4.05777,-2.34448 0.15029,-4.74909 -2.52483,-5.35024 z m -1.05202,-22.8437 q 0.15029,-0.24046 0.51098,-0.12023 2.43466,0.84161 4.35834,2.55489 0.27052,0.24046 0.0902,0.54103 l -2.94563,4.65892 q -0.18035,0.27051 -0.63121,-0.0902 -0.42081,-0.36069 -4.29822,-2.70517 -0.24046,-0.15029 -0.0902,-0.36069 l 3.00575,-4.47857 z m 24.76739,34.11527 q 1.02195,0.24046 1.14218,0.72138 0.12023,0.48092 0,1.44276 -0.45086,3.39649 -1.14218,3.39649 -3.30633,0.0301 -6.67277,-3.72713 -2.73523,3.33639 -8.35598,3.72713 -0.5711,0.0301 -0.7815,-0.93178 l -0.54103,-2.55489 q -0.15029,-0.6312 0.27051,-1.32253 0.39075,-0.69132 1.05202,-0.75143 6.85311,-0.51098 9.13748,-4.02771 0.33063,-0.51098 0.84161,-0.51098 0.51097,0 0.54103,0.5711 0.0601,0.57109 0.15029,0.75143 2.01385,2.76529 4.35834,3.21616 z m -4.89938,9.94903 q 0.12023,-0.2104 0.45087,-0.12023 2.19419,0.75144 3.90747,2.31443 0.24046,0.2104 0.0902,0.48092 l -2.64506,4.20805 q -0.15028,0.24046 -0.54103,-0.0902 -0.36069,-0.30057 -3.12598,-1.98379 l -2.10403,3.30632 q -0.15028,0.24046 -0.54103,-0.0902 -0.39075,-0.33063 -3.87742,-2.43466 -0.2104,-0.12023 -0.0902,-0.33063 l 2.70517,-4.0277 q 0.12023,-0.21041 0.45087,-0.0902 1.80345,0.63121 3.33638,1.80345 l 1.98379,-2.94563 z m 25.45871,-5.86121 q -4.50862,1.47281 -11.8126,1.56299 -7.27391,0.12023 -8.74673,-0.0902 -0.45086,-0.0601 -0.90172,-1.44276 -1.26242,-3.96759 0.90172,-4.11787 l 2.64506,-0.0301 3.3965,-3.66702 q 0.12023,-11.81259 -1.9838,-28.46445 -0.30057,-2.43466 -0.45086,-2.97569 -0.24046,-0.90173 1.47282,-4.20805 0.18034,-0.36069 0.51098,-0.30058 0.36069,0.0301 0.51097,0.42081 1.26242,3.30632 2.58495,4.56874 0.72138,0.69132 0,1.6231 l -1.05201,1.35259 q -0.33064,0.4208 -0.21041,1.38264 1.56299,12.5941 1.29248,17.67382 -0.12023,2.07396 -1.14219,7.2138 7.51438,-6.25196 11.27156,-8.02536 3.75719,-1.77339 5.71093,-1.17224 2.94563,0.87167 4.62885,4.32828 0.33064,0.66127 0.12023,1.80345 -0.87166,4.71903 -4.20805,7.69472 4.71903,1.2023 8.86697,0.7815 0.87166,-0.0902 1.14218,1.11212 0.54104,2.43466 -0.12023,3.42656 -0.63121,0.9919 -1.02195,1.02195 -6.0115,0.48092 -13.40565,-1.47281 z m 2.04391,-11.27157 q -3.90747,-2.85546 -10.76058,1.86357 -3.48667,2.4046 -6.31208,5.26006 11.09122,-0.60115 19.35703,-4.77914 -0.66126,-1.17224 -2.28437,-2.34449 z m 12.38369,-27.89336 q 0.93178,-2.25431 1.11212,-2.76529 0.18035,-0.54103 0.63121,-0.54103 0.45086,0 0.66127,0.6312 0.93178,2.73524 2.67511,4.47857 0.60115,0.60115 -0.0902,1.4127 l -1.35259,1.89363 q 0.39075,3.45661 0.7815,6.4323 2.07397,15.2091 1.4127,18.57554 -1.92368,9.73863 -6.79299,10.52012 -1.08207,0.15029 -0.93179,-4.05776 0.0301,-1.4127 0.93179,-1.50287 3.33638,-0.39075 4.65891,-2.76529 -0.18035,-4.83926 -1.53293,-15.11893 -1.32253,-10.27966 -1.59305,-12.59409 l -0.60115,-3.45661 q -0.12023,-0.72138 0.0301,-1.14219 z"
       style="font-style:normal;font-variant:normal;font-weight:normal;font-stretch:normal;font-size:medium;line-height:125%;font-family:'Amiri Quran';-inkscape-font-specification:'Amiri Quran';text-align:end;letter-spacing:0px;word-spacing:0px;text-anchor:end;fill:#000000;fill-opacity:1;stroke:none"
       id="path3500" />
  </g>
</svg>
