<?xml version="1.0" encoding="UTF-8" standalone="no"?>
<svg
   xmlns:dc="http://purl.org/dc/elements/1.1/"
   xmlns:cc="http://creativecommons.org/ns#"
   xmlns:rdf="http://www.w3.org/1999/02/22-rdf-syntax-ns#"
   xmlns:svg="http://www.w3.org/2000/svg"
   xmlns="http://www.w3.org/2000/svg"
   xmlns:xlink="http://www.w3.org/1999/xlink"
   id="svg8"
   version="1.1"
   viewBox="0 0 142.875 144.46249"
   height="144.46249mm"
   width="142.875mm">
  <defs
     id="defs2" />
  <metadata
     id="metadata5">
    <rdf:RDF>
      <cc:Work
         rdf:about="">
        <dc:format>image/svg+xml</dc:format>
        <dc:type
           rdf:resource="http://purl.org/dc/dcmitype/StillImage" />
        <dc:title></dc:title>
      </cc:Work>
    </rdf:RDF>
  </metadata>
  <g
     style="display:inline"
     id="layer3">
    <rect
       y="0"
       x="0"
       height="144.46249"
       width="142.875"
       id="rect961"
       style="color:#000000;clip-rule:nonzero;display:inline;overflow:visible;visibility:visible;opacity:1;isolation:auto;mix-blend-mode:normal;color-interpolation:sRGB;color-interpolation-filters:linearRGB;solid-color:#000000;solid-opacity:1;vector-effect:none;fill:#ffffff;fill-opacity:1;fill-rule:nonzero;stroke:none;stroke-width:0.14592946px;stroke-linecap:butt;stroke-linejoin:miter;stroke-miterlimit:4;stroke-dasharray:none;stroke-dashoffset:0;stroke-opacity:1;marker:none;marker-start:none;marker-mid:none;marker-end:none;paint-order:markers fill stroke;color-rendering:auto;image-rendering:auto;shape-rendering:auto;text-rendering:auto;enable-background:accumulate" />
    <path
       id="path846"
       d="m 4.2647031,4.5533332 c 0.6664677,0.022216 1.9991476,0.066638 3.247014,-0.023011 1.2478663,-0.089649 2.3948404,-0.3102215 4.0381699,-0.3546247 1.643328,-0.044403 3.776178,0.0889 5.619641,0.1333135 1.843462,0.044414 3.398435,-1.42e-5 4.553338,0.022207 1.154903,0.022221 1.91022,0.1110818 3.287043,0.088868 1.376822,-0.022214 3.376451,-0.1555224 4.864068,-0.1523974 1.487617,0.00313 2.377096,0.1301934 4.042692,0.085768 1.665596,-0.044425 4.064991,-0.2665915 6.374816,-0.2887905 2.309824,-0.022199 4.531221,0.1555128 6.929911,0.2217477 2.39869,0.066235 4.886655,0.022586 6.996638,3.774e-4 2.109984,-0.022209 3.798224,-0.022209 5.352918,-0.088846 1.554693,-0.066637 2.97644,-0.1999257 4.197955,-0.2887591 1.221514,-0.088833 2.243441,-0.133265 3.464849,-0.066635 1.221407,0.06663 2.643315,0.2443686 3.99874,0.2257372 1.355425,-0.018631 2.731535,-0.247983 4.064031,-0.2923839 1.332497,-0.044401 2.665478,0.088897 3.953639,0.1555196 1.288161,0.066622 2.532216,0.066622 3.598035,0.019882 1.065819,-0.04674 1.866101,-0.1309806 2.932013,-0.1753881 1.065912,-0.044407 2.35461,-0.044407 3.464872,-0.091034 1.110263,-0.046627 1.954925,-0.131093 2.88761,-0.1088735 0.932686,0.022219 1.9103,0.1555306 3.442614,0.267531 1.532314,0.1120004 3.531897,0.1989387 5.26496,0.1982791 1.73306,-6.596e-4 3.15632,-0.090834 4.31174,-0.1581052 1.15543,-0.067271 2.04432,-0.1117153 2.73201,-0.1332609 0.68768,-0.021546 1.17518,-0.020242 1.81854,-0.019591 0.64337,6.513e-4 1.4432,6.513e-4 2.22044,0.067282 0.77725,0.066631 1.53269,0.1999431 2.33223,0.1110635 0.79954,-0.08888 1.64381,-0.3999267 2.42099,-0.4221015 0.77717,-0.022175 1.4882,0.2444614 2.68751,0.3110708 1.19931,0.066609 2.88772,-0.066686 4.19848,-0.069643 1.31077,-0.00296 2.33184,0.1362794 3.46449,0.1584757 1.13266,0.022196 2.42122,-0.06667 3.5092,-0.064346 1.08799,0.00232 1.88829,0.086566 2.68781,0.1087627 0.79952,0.022197 1.55492,-0.022239 2.08826,-0.024957 0.53333,-0.00272 0.93255,0.047185 1.31004,0.069383 0.37748,0.022197 0.77754,0.022197 1.26586,-0.00185 0.48831,-0.024046 0.97737,-0.0648 1.51044,-0.1092225 0,0.3109586 0,0.6216526 0,1.0661248 0,0.4444722 0,0.9326303 0.0444,1.8214003 0.0444,0.8887699 0.13324,2.1319903 0.13325,3.1315515 2e-5,0.9995612 -0.0888,1.7545982 -0.0222,2.5099882 0.0666,0.755391 0.28867,1.510283 0.42196,2.53211 0.13329,1.021826 0.17771,2.30979 0.13351,3.618175 -0.0442,1.308384 -0.17788,2.645199 -0.28711,3.822665 -0.10923,1.177466 -0.20173,2.287505 -0.15731,3.420475 0.0444,1.132971 0.22206,2.332062 0.3325,3.687092 0.11044,1.355029 0.15612,2.95393 0.17833,4.575493 0.0222,1.621563 0.0222,3.398192 -0.0423,4.953273 -0.0646,1.55508 -0.20194,3.020428 -0.2908,4.486538 -0.0889,1.46611 -0.13327,2.976173 -0.15549,4.819914 -0.0222,1.843741 -0.0222,4.020057 -0.0222,5.97476 0,1.954704 0,3.686976 0.0666,5.108603 0.0666,1.421628 0.19988,2.532023 0.31095,3.909285 0.11107,1.377262 0.1999,3.020562 0.2226,4.842044 0.0227,1.821482 -0.0227,3.909021 -0.13374,5.75266 -0.11105,1.84364 -0.28872,3.487062 -0.39979,5.15307 -0.11107,1.666007 -0.15549,3.353771 -0.1777,5.064186 -0.0222,1.710415 -0.0222,3.442619 -0.0222,5.086376 0,1.643757 0,3.198313 -0.13534,5.419487 -0.13534,2.221174 -0.39771,5.019699 -0.50878,7.751837 -0.11107,2.73213 -0.0667,5.3528 0.0239,7.55169 0.0905,2.19889 0.22039,3.88704 0.33146,6.28607 0.11107,2.39903 0.19991,5.46377 0.26653,7.79541 0.0666,2.33163 0.11107,3.93195 0.15549,5.42022 0.0444,1.48827 0.0888,2.86515 0.0469,4.04565 -0.0419,1.18049 -0.18013,2.24001 -0.28969,3.37308 -0.10955,1.13306 -0.20144,2.46546 -0.29029,3.75372 -1.59921,0.0888 -3.19815,0.17767 -5.26404,0.13325 -2.06589,-0.0444 -4.59754,-0.22208 -7.3963,-0.26651 -2.79876,-0.0444 -5.86363,0.0444 -8.95114,0.17768 -3.08752,0.13327 -6.19683,0.31094 -9.26214,0.24432 -3.06532,-0.0666 -6.08579,-0.37757 -8.2181,-0.48864 -2.13232,-0.11108 -3.376058,-0.0222 -4.503574,-0.10966 -1.127517,-0.0874 -2.15986,-0.35674 -3.403774,-0.42339 -1.243914,-0.0667 -2.709599,0.0666 -3.798051,0.0888 -1.088452,0.0222 -1.79908,-0.0666 -2.798762,-0.0222 -0.999683,0.0444 -2.287528,0.22205 -3.598178,0.24428 -1.310651,0.0222 -2.643025,-0.11101 -3.664772,-0.0888 -1.021746,0.0222 -1.732383,0.19983 -2.665552,0.22207 -0.933169,0.0222 -2.087652,-0.11098 -3.242736,-0.15541 -1.155084,-0.0444 -2.309841,-3e-5 -3.664921,0.0222 -1.35508,0.0222 -2.909504,0.0222 -4.553294,1e-5 -1.643789,-0.0222 -3.375978,-0.0666 -4.730923,-0.0222 -1.354945,0.0444 -2.332099,0.17765 -3.865029,0.11101 -1.532931,-0.0666 -3.620167,-0.33309 -5.374924,-0.48859 -1.754758,-0.15549 -3.176128,-0.19991 -4.420065,-0.26654 -1.243938,-0.0666 -2.309892,-0.15547 -3.287301,-0.26653 -0.977409,-0.11107 -1.865661,-0.24431 -3.087458,-0.33317 -1.221798,-0.0889 -2.776207,-0.13327 -4.244383,-0.0887 -1.468175,0.0446 -2.840791,0.17746 -4.10696,0.28852 -1.266168,0.11107 -2.420916,0.1999 -3.353905,0.19992 -0.932989,1e-5 -1.643581,-0.0888 -2.443343,-0.22211 -0.799763,-0.13329 -1.687932,-0.31092 -2.643249,-0.3572 -0.955316,-0.0463 -2.065342,0.0462 -2.842789,0.15726 -0.777448,0.11104 -1.265967,0.24427 -1.771836,0.2456 -0.505869,0.001 -1.04905,-0.13446 -1.62349,-0.15715 -0.57444,-0.0227 -1.202357,0.067 -1.95777,0.11147 -0.755413,0.0444 -1.643443,0.0444 -2.958687,0.0682 -1.315244,0.0238 -3.0558988,0.0714 -4.1802792,0.17462 -1.1243803,0.1032 -1.6308655,0.26193 -2.1574952,0.35406 -0.5266298,0.0921 -1.0719234,0.11733 -1.4567195,-0.0662 -0.384796,-0.18356 -0.600736,-0.56324 -0.6945912,-1.59888 -0.093855,-1.03565 -0.054232,-2.60188 -0.011576,-4.00973 0.042656,-1.40785 0.087088,-2.6075 0.1525779,-4.0511 0.06549,-1.4436 0.1566274,-3.22078 0.1566183,-4.66441 -9.2e-6,-1.44362 -0.088869,-2.5988 -0.1110713,-3.84251 -0.022202,-1.24371 0.02223,-2.57667 0.067264,-4.06464 0.045034,-1.48797 0.088233,-3.04314 0.066015,-4.3535 -0.022218,-1.31037 -0.111079,-2.33227 -0.1110691,-3.50933 9.9e-6,-1.17707 0.088876,-2.51006 0.1999266,-3.73157 0.1110508,-1.22151 0.2443467,-2.33231 0.2443327,-3.4427 -1.39e-5,-1.11038 -0.1333172,-2.22124 -0.1332994,-3.331726 1.77e-5,-1.110482 0.1333132,-2.221278 0.1999296,-3.331684 0.066617,-1.110407 0.066617,-2.310111 0.066617,-3.509381 0,-1.199269 0,-2.443388 -0.022254,-3.577015 -0.022254,-1.133626 -0.066602,-2.153638 -0.088808,-3.197445 -0.022206,-1.043806 -0.022206,-2.110214 0.066644,-3.154038 0.088849,-1.043824 0.2665842,-2.065799 0.2221474,-2.88744 C 3.8647956,78.539301 3.5981809,77.9172 3.4649403,77.117624 3.3316996,76.318048 3.3316996,75.340549 3.3739261,74.429767 3.4161526,73.518985 3.509419,72.58632 3.5080707,71.387255 3.5067225,70.188189 3.4205299,68.766012 3.3983306,67.655493 3.3761312,66.544974 3.4205613,65.789662 3.3358466,64.856236 3.2511318,63.92281 3.0207013,62.724571 3.0207238,61.414188 c 2.25e-5,-1.310383 0.2221756,-2.776593 0.2466243,-4.353626 0.024449,-1.577033 -0.1577859,-3.353819 -0.2466192,-5.130617 -0.088833,-1.776798 -0.088833,-3.598374 -0.020359,-5.330595 0.068474,-1.732222 0.1980856,-3.28756 0.2647078,-4.620135 0.066622,-1.332575 0.066622,-2.398908 0.1110419,-3.686985 0.04442,-1.288078 0.1332872,-2.798823 0.1332775,-4.064741 -9.6e-6,-1.265919 -0.088872,-2.287829 -0.1777054,-3.44267 -0.088833,-1.154841 -0.1776995,-2.443401 -0.133259,-3.598321 0.04444,-1.15492 0.2221648,-2.176835 0.2683136,-3.178253 0.046149,-1.001418 -0.046222,-2.063684 -0.04621,-3.085309 1.24e-5,-1.021624 0.088879,-2.043585 0.1110782,-3.065146 0.0222,-1.021562 -0.022235,-2.043569 -0.066654,-2.931927 -0.044419,-0.888358 -0.088853,-1.64373 -0.1110567,-2.421003 -0.022204,-0.777273 -0.022204,-1.488299 -0.022204,-2.332166 0,-0.8438668 0,-1.7770695 0.044423,-2.732029 0.044423,-0.9549594 0.1332675,-1.9322489 0.8885805,-2.8873318 z"
       style="display:inline;opacity:1;vector-effect:none;fill:#ffffff;fill-opacity:1;fill-rule:nonzero;stroke:#000000;stroke-width:1;stroke-linecap:round;stroke-linejoin:round;stroke-miterlimit:4;stroke-dasharray:none;stroke-dashoffset:0;stroke-opacity:1;marker:none;paint-order:markers fill stroke"
       transform="translate(-4.5361328e-6,-3.8564452e-6)" />
  </g>
  <g
     style="display:inline"
     transform="translate(-4.5361328e-6,-3.8564453e-6)"
     id="layer2">
    <path
       id="path850"
       d="m 69.565887,3.9980457 c 0.08883,1.421278 0.177675,2.8428031 0.244317,4.2644473 0.06664,1.4216442 0.111056,2.842923 0.133272,4.309002 0.02222,1.466079 0.02222,2.976178 -0.04242,4.442421 -0.06463,1.466244 -0.20188,2.976001 -0.333863,4.819839 -0.131984,1.843837 -0.267831,4.153228 -0.223426,5.708122 0.0444,1.554894 0.266489,2.39882 0.244324,3.242874 -0.02217,0.844054 -0.288645,1.687903 -0.421963,3.198708 -0.133318,1.510805 -0.133318,3.686698 -0.111107,5.596976 0.02221,1.910278 0.06663,3.553717 0.02222,4.775381 -0.0444,1.221664 -0.177652,2.021148 -0.155453,2.843175 0.0222,0.822028 0.199822,1.665741 0.197186,2.842753 -0.0026,1.177012 -0.174977,2.598823 -0.241634,3.620626 -0.06666,1.021803 -0.02224,1.599182 -0.06662,2.065657 -0.04438,0.466475 -0.177594,0.821707 -0.155388,1.288481 0.02221,0.466773 0.199737,1.043747 0.310819,1.754591 0.111082,0.710844 0.155492,1.55463 0.111086,2.321825 -0.04441,0.767196 -0.177635,1.457207 -0.155478,2.101405 0.02216,0.644197 0.199794,1.242061 0.244283,1.785502 0.04449,0.543441 -0.04433,1.031947 -0.02212,1.787487 0.02221,0.755539 0.155395,1.776626 0.176389,3.109394 0.02099,1.332767 -0.06537,2.887334 -0.176421,4.064589 -0.111049,1.177255 -0.244294,1.932309 -0.244317,2.576601 -2.3e-5,0.644293 0.133191,1.177152 0.155205,1.890219 0.02201,0.713067 -0.06636,1.596809 -0.110798,2.352107 -0.04444,0.755298 -0.04444,1.377014 -0.04444,2.087946 0,0.710933 0,1.510201 0.04442,2.265522 0.04442,0.755322 0.133239,1.465849 0.155466,2.176699 0.02223,0.71085 -0.02218,1.421386 -0.06778,2.221108 -0.0456,0.799723 -0.08767,1.599103 -0.154313,2.465486 -0.06664,0.866383 -0.155458,1.754543 -0.199895,2.776464 -0.04444,1.02192 -0.04444,2.176535 -0.04444,3.598253 0,1.421719 0,3.109394 0.02221,4.353294 0.02221,1.24391 0.06662,2.0434 0.06578,3.04304 -8.48e-4,0.99965 -0.04355,2.10991 -0.06577,3.13175 -0.02222,1.02183 -0.02222,1.91007 -0.02222,2.90975 0,0.99967 0,2.1099 -0.04442,3.35389 -0.04442,1.24399 -0.133249,2.62077 -0.08884,3.70925 0.04441,1.08848 0.222064,1.88792 0.266757,2.70748 0.04469,0.81957 -0.04462,1.66802 -0.08906,2.46777 -0.04444,0.79975 -0.04444,1.55467 -0.04444,2.30999 0,0.75532 0,1.59909 0.06731,2.38044 0.06731,0.78135 0.199189,1.52867 0.286887,2.30623 0.0877,0.77755 0.13444,1.66565 0.135751,2.44322 0.0013,0.77756 -0.0457,1.57681 -0.156756,2.26545 -0.111053,0.68865 -0.288679,1.31034 -0.24426,2.02138 0.04442,0.71105 0.310819,1.51025 0.577409,2.31002"
       style="opacity:1;vector-effect:none;fill:none;fill-opacity:1;fill-rule:nonzero;stroke:#000000;stroke-width:1;stroke-linecap:round;stroke-linejoin:round;stroke-miterlimit:4;stroke-dasharray:none;stroke-dashoffset:0;stroke-opacity:1;marker:none;paint-order:markers fill stroke" />
    <path
       id="path854"
       d="m 3.4649674,71.964716 c 0.7110272,0 1.4217899,0 1.9548099,-0.02222 0.5330199,-0.02222 0.8885335,-0.06666 1.3103442,-0.111711 0.4218106,-0.04505 0.9030763,-0.09008 1.4897617,-0.112635 0.5866855,-0.02255 1.2424072,-0.02127 2.0196688,0.0238 0.777263,0.04507 1.665957,0.133941 2.395509,0.222266 0.729551,0.08833 1.313873,0.178221 2.490763,0.200421 1.17689,0.0222 2.954469,-0.02224 4.242676,-0.08888 1.288206,-0.06664 2.087936,-0.155499 2.79854,-0.133274 0.710603,0.02222 1.332746,0.155541 2.087834,0.17773 0.755087,0.02219 1.643826,-0.06668 2.487782,-0.132138 0.843957,-0.06545 1.732548,-0.112222 2.420341,-0.112863 0.687794,-6.41e-4 1.220216,0.04253 1.885971,0.06471 0.665755,0.02218 1.467382,0.02348 2.467427,-0.0425 1.000045,-0.06599 2.199714,-0.199282 3.289928,-0.221949 1.090214,-0.02267 2.064027,0.06457 2.952234,0.108964 0.888208,0.0444 1.688049,0.0457 2.798441,0.04635 1.110393,6.5e-4 2.532267,6.5e-4 3.687173,6.5e-4 1.154906,0 2.043525,0 3.020665,0 0.977141,0 2.043603,0 2.976372,0.02221 0.932769,0.02221 1.732574,0.06665 2.887319,0.06597 1.154744,-6.77e-4 2.576782,-0.04377 3.909378,-0.0874 1.332597,-0.04363 2.621021,-0.08964 3.864715,-0.111849 1.243693,-0.02221 2.576645,-0.02221 3.687116,-0.02221 1.110471,0 2.04354,0 2.976221,0.02332 0.932682,0.02332 1.777088,0.06554 3.198393,0.04431 1.421306,-0.02123 3.465211,-0.112067 4.953298,-0.156483 1.488086,-0.04442 2.376674,-0.04442 3.264975,0.04442 0.888301,0.08884 1.73257,0.266582 2.754183,0.355407 1.021612,0.08882 2.221307,0.08882 3.442783,0.133246 1.221476,0.04442 2.465584,0.133286 3.576044,0.244336 1.110461,0.11105 2.087951,0.244344 3.087375,0.266538 0.999424,0.02219 2.02138,-0.06667 3.509213,-0.156529 1.487833,-0.08986 3.354229,-0.176667 4.797429,-0.151333 1.44319,0.02533 2.33267,0.152402 3.35003,0.108813 1.01736,-0.04359 2.13673,-0.267463 3.09163,-0.223024 0.9549,0.04444 1.75472,0.355479 2.59611,0.348218 0.84139,-0.0073 1.64645,-0.303866 2.60125,-0.259435 0.9548,0.04443 2.02135,0.444388 3.3762,0.599839 1.35484,0.155451 2.9987,0.06659 4.53116,0.02218 1.53245,-0.04442 2.86538,-0.04442 3.97584,0.02222 1.11046,0.06664 1.95465,0.199931 3.02063,0.355385 1.06598,0.155454 2.35457,0.333191 3.42065,0.444235 1.06609,0.111044 1.91027,0.155474 2.7542,0.06661 0.84394,-0.08886 1.68822,-0.311038 2.55427,-0.422054 0.86606,-0.111016 1.66599,-0.111016 2.50976,-0.111016"
       style="opacity:1;vector-effect:none;fill:none;fill-opacity:1;fill-rule:nonzero;stroke:#000000;stroke-width:1;stroke-linecap:round;stroke-linejoin:round;stroke-miterlimit:4;stroke-dasharray:none;stroke-dashoffset:0;stroke-opacity:1;marker:none;paint-order:markers fill stroke" />
    <g
       id="g929">
      <path
         style="opacity:1;vector-effect:none;fill:none;fill-opacity:1;fill-rule:nonzero;stroke:#000000;stroke-width:0.5;stroke-linecap:round;stroke-linejoin:round;stroke-miterlimit:4;stroke-dasharray:none;stroke-dashoffset:0;stroke-opacity:1;marker:none;paint-order:markers fill stroke"
         d="m 16.449538,62.508314 c -0.233301,-0.430676 -0.161157,-1.236288 -0.02379,-1.957629 0.137368,-0.721342 0.340669,-1.36712 0.400407,-2.455343 0.05974,-1.088223 -0.02398,-2.618957 0.05366,-4.411793 0.07764,-1.792836 0.315812,-3.841133 0.754603,-5.896701 0.438792,-2.055569 1.067009,-4.070603 2.171338,-5.83496 1.104329,-1.764358 2.665205,-3.241829 4.034477,-3.929324 1.369273,-0.687495 2.541241,-0.579865 3.47058,0.01627 0.929339,0.596131 1.605617,1.663938 1.940507,2.650502 0.334891,0.986563 0.322932,1.883426 0.215318,3.151055 -0.107614,1.267628 -0.310914,2.905988 -0.370735,4.687789 -0.05982,1.781802 0.0239,3.707356 0.31879,5.381068 0.294892,1.673711 0.794054,3.07612 1.17637,4.055733 0.382316,0.979613 0.645412,1.529721 0.782961,1.942231 0.137549,0.412511 0.149979,0.698372 0.102003,0.926136 -0.04798,0.227764 -0.156826,0.421274 -0.239979,0.64143 -0.08315,0.220157 -0.153104,0.513943 -0.327296,0.642235 -0.174193,0.128292 -0.527593,0.184838 -0.738061,0.09681 -0.210467,-0.08802 -0.464915,-0.399017 -0.691288,-0.509897 -0.226372,-0.110881 -0.538668,-0.05657 -0.807518,0.175063 -0.26885,0.231632 -0.580337,0.72482 -0.900526,0.947 -0.320189,0.22218 -0.87577,0.205842 -1.055229,0.03373 -0.17946,-0.172109 -0.227295,-0.506959 -0.436412,-0.650373 -0.209118,-0.143414 -0.579843,-0.09558 -0.837751,0.104185 -0.257908,0.199762 -0.447826,0.660993 -0.701777,0.840819 -0.25395,0.179825 -0.827983,0.100099 -1.106292,-0.123476 -0.278308,-0.223574 -0.45769,-0.618216 -0.744532,-0.797552 -0.286842,-0.179336 -0.681484,-0.14346 -0.938692,0.0597 -0.257208,0.203156 -0.376796,0.57388 -0.652788,0.769225 -0.275992,0.195346 -0.895803,0.223518 -1.254734,-0.0038 -0.35893,-0.227281 -0.589799,-0.804454 -0.815019,-0.976233 -0.225219,-0.17178 -0.524192,-0.135904 -0.78136,0.06128 -0.257168,0.197182 -0.472427,0.555948 -0.849108,0.705602 -0.376681,0.149654 -0.91483,0.08986 -1.148132,-0.340817 z"
         id="path862" />
      <path
         style="opacity:1;vector-effect:none;fill:none;fill-opacity:1;fill-rule:nonzero;stroke:#000000;stroke-width:0.5;stroke-linecap:round;stroke-linejoin:round;stroke-miterlimit:4;stroke-dasharray:none;stroke-dashoffset:0;stroke-opacity:1;marker:none;paint-order:markers fill stroke"
         d="m 20.449647,48.887308 c 0.143532,0.11961 0.287039,0.239198 0.496355,0.37076 0.209317,0.131562 0.477285,0.271371 0.869875,0.40017 0.39259,0.128798 0.870273,0.233656 1.115331,0.484638 0.245058,0.250982 0.245058,0.645341 0.08964,0.90869 -0.155417,0.263348 -0.465734,0.394636 -0.717221,0.454582 -0.251488,0.05995 -0.442589,0.048 -0.634178,0.03603"
         id="path866" />
      <path
         style="opacity:1;vector-effect:none;fill:none;fill-opacity:1;fill-rule:nonzero;stroke:#000000;stroke-width:0.5;stroke-linecap:round;stroke-linejoin:round;stroke-miterlimit:4;stroke-dasharray:none;stroke-dashoffset:0;stroke-opacity:1;marker:none;paint-order:markers fill stroke"
         d="m 29.167653,49.102565 c 0.179522,0.07181 0.358904,0.143562 0.580021,0.251135 0.221116,0.107573 0.484412,0.251189 0.603967,0.496119 0.119556,0.244931 0.09563,0.591857 -0.05382,0.79529 -0.149453,0.203432 -0.424281,0.263177 -0.633646,0.305054 -0.209364,0.04188 -0.35271,0.06577 -0.496518,0.08973"
         id="path870" />
      <path
         style="opacity:1;vector-effect:none;fill:#000000;fill-opacity:1;fill-rule:nonzero;stroke:none;stroke-width:0.5;stroke-linecap:round;stroke-linejoin:round;stroke-miterlimit:4;stroke-dasharray:none;stroke-dashoffset:0;stroke-opacity:1;marker:none;paint-order:markers fill stroke"
         d="m 16.481106,67.823927 c -0.0085,-0.177706 -0.02538,-0.532864 0.676147,-0.887812 0.701522,-0.354948 2.123167,-0.710359 3.586075,-0.955563 1.462908,-0.245203 2.968109,-0.380502 4.668836,-0.362323 1.700726,0.01818 3.563664,0.186771 4.823553,0.441406 1.25989,0.254635 1.900817,0.593949 2.230496,0.914114 0.32968,0.320165 0.348513,0.621465 -0.184696,0.899894 -0.533208,0.278428 -1.616465,0.532761 -3.580112,0.651708 -1.963648,0.118947 -4.803949,0.10204 -6.740463,0.09358 -1.936515,-0.0085 -2.968074,-0.0085 -3.72926,-0.10993 -0.761186,-0.101473 -1.251519,-0.304369 -1.496816,-0.405871 -0.245296,-0.101502 -0.245297,-0.101499 -0.25376,-0.279205 z"
         id="path874" />
      <path
         style="opacity:1;vector-effect:none;fill:#000000;fill-opacity:1;fill-rule:nonzero;stroke:none;stroke-width:0.5;stroke-linecap:round;stroke-linejoin:round;stroke-miterlimit:4;stroke-dasharray:none;stroke-dashoffset:0;stroke-opacity:1;marker:none;paint-order:markers fill stroke"
         d="m 23.636449,42.895321 c 0.1257,-0.137395 0.376836,-0.137395 0.508246,-0.006 0.13141,0.131422 0.14337,0.394516 0.01795,0.532164 -0.125424,0.137647 -0.388519,0.149607 -0.520205,0.01793 -0.131686,-0.131674 -0.131687,-0.406729 -0.006,-0.544124 z"
         id="path878" />
      <path
         style="opacity:1;vector-effect:none;fill:#000000;fill-opacity:1;fill-rule:nonzero;stroke:none;stroke-width:0.5;stroke-linecap:round;stroke-linejoin:round;stroke-miterlimit:4;stroke-dasharray:none;stroke-dashoffset:0;stroke-opacity:1;marker:none;paint-order:markers fill stroke"
         d="m 25.66946,45.615954 c 0.149623,-0.179256 0.448594,-0.191216 0.591967,-0.02392 0.143373,0.167292 0.131413,0.514099 -0.01794,0.693614 -0.149354,0.179515 -0.436365,0.191475 -0.580009,0.02392 -0.143643,-0.16755 -0.143642,-0.514357 0.006,-0.693614 z"
         id="path882" />
      <path
         style="opacity:1;vector-effect:none;fill:#000000;fill-opacity:1;fill-rule:nonzero;stroke:none;stroke-width:0.5;stroke-linecap:round;stroke-linejoin:round;stroke-miterlimit:4;stroke-dasharray:none;stroke-dashoffset:0;stroke-opacity:1;marker:none;paint-order:markers fill stroke"
         d="m 27.923697,43.3378 c 0.119708,-0.137382 0.346926,-0.125422 0.454444,0.0058 0.107517,0.131265 0.09554,0.382677 -0.01811,0.519717 -0.113656,0.137039 -0.352465,0.162176 -0.460225,0.03032 -0.10776,-0.131853 -0.09582,-0.4185 0.02389,-0.555883 z"
         id="path886" />
    </g>
    <g
       id="g940">
      <path
         style="opacity:1;vector-effect:none;fill:none;fill-opacity:1;fill-rule:nonzero;stroke:#000000;stroke-width:0.5;stroke-linecap:round;stroke-linejoin:round;stroke-miterlimit:4;stroke-dasharray:none;stroke-dashoffset:0;stroke-opacity:1;marker:none;paint-order:markers fill stroke"
         d="m 10.756247,24.443855 c 0.0103,0.803366 0.0206,1.606993 0.07728,2.477756 0.05667,0.870763 0.159693,1.808258 0.262722,2.745823 0.278179,0.03091 0.556589,0.06185 0.999642,0.04636 0.443054,-0.01548 1.050927,-0.0773 1.380489,-0.381364 0.329562,-0.304066 0.381076,-0.850119 0.252263,-1.313623 -0.128813,-0.463504 -0.437888,-0.844696 -0.752003,-1.045588 -0.314116,-0.200892 -0.627802,-0.22113 -0.935005,-0.151722 -0.307204,0.06941 -0.586538,0.223826 -0.782318,0.409157 -0.195781,0.185331 -0.302729,0.398584 -0.41034,0.61316"
         id="path894" />
      <path
         style="opacity:1;vector-effect:none;fill:none;fill-opacity:1;fill-rule:nonzero;stroke:#000000;stroke-width:0.5;stroke-linecap:round;stroke-linejoin:round;stroke-miterlimit:4;stroke-dasharray:none;stroke-dashoffset:0;stroke-opacity:1;marker:none;paint-order:markers fill stroke"
         d="m 14.602289,27.79573 c -0.120796,0.333421 -0.135519,0.680847 -0.07889,1.010611 0.05663,0.329764 0.18469,0.641724 0.624933,0.802924 0.440242,0.1612 1.192355,0.171503 1.614666,-0.148037 0.42231,-0.319541 0.515036,-0.968625 0.411976,-1.468179 -0.10306,-0.499554 -0.401844,-0.849853 -0.767452,-1.019842 -0.365609,-0.16999 -0.798332,-0.159687 -1.128054,0.005 -0.329723,0.164699 -0.556389,0.484089 -0.677184,0.81751 z"
         id="path915" />
      <use
         x="0"
         y="0"
         xlink:href="#path915"
         id="use919"
         transform="translate(3.7708666)"
         width="100%"
         height="100%" />
    </g>
    <use
       height="100%"
       width="100%"
       transform="translate(67.999234)"
       id="use931"
       xlink:href="#g929"
       y="0"
       x="0" />
    <use
       height="100%"
       width="100%"
       transform="translate(-0.52916663,67.999234)"
       id="use933"
       xlink:href="#g929"
       y="0"
       x="0" />
    <use
       height="100%"
       width="100%"
       transform="translate(58.321079,68.493774)"
       id="use935"
       xlink:href="#g929"
       y="0"
       x="0" />
    <use
       height="100%"
       width="100%"
       transform="translate(68.246504)"
       id="use942"
       xlink:href="#g940"
       y="0"
       x="0" />
    <use
       height="100%"
       width="100%"
       transform="translate(0.52916667,68.79167)"
       id="use944"
       xlink:href="#g940"
       y="0"
       x="0" />
    <path
       style="opacity:1;vector-effect:none;fill:none;fill-opacity:1;fill-rule:nonzero;stroke:#000000;stroke-width:0.5;stroke-linecap:round;stroke-linejoin:round;stroke-miterlimit:4;stroke-dasharray:none;stroke-dashoffset:0;stroke-opacity:1;marker:none;paint-order:markers fill stroke"
       d="m 16.324609,32.251319 c 0.07972,0.237342 0.16912,0.503525 0.334739,0.876123 0.165619,0.372598 0.412271,0.865901 0.656857,1.226897 0.244587,0.360996 0.494639,0.596728 0.740888,0.828875"
       id="path858-8" />
    <use
       height="100%"
       width="100%"
       transform="translate(67.700136)"
       id="use982"
       xlink:href="#path858-8"
       y="0"
       x="0" />
    <use
       height="100%"
       width="100%"
       transform="translate(0,69.032815)"
       id="use984"
       xlink:href="#path858-8"
       y="0"
       x="0" />
    <use
       height="100%"
       width="100%"
       transform="translate(60.370396,71.298371)"
       id="use986"
       xlink:href="#path858-8"
       y="0"
       x="0" />
    <use
       height="100%"
       width="100%"
       transform="translate(80.227326,70.365495)"
       id="use988"
       xlink:href="#g940"
       y="0"
       x="0" />
    <path
       id="path990"
       d="m 74.333588,97.555563 c -0.06711,-0.190149 -0.131806,-0.373453 -0.351487,-0.483285 -0.219682,-0.109833 -0.564723,-0.131398 -0.802715,-0.06743 -0.237991,0.06397 -0.361337,0.220953 -0.407699,0.4695 -0.04636,0.248547 -0.014,0.561354 0.271303,0.751602 0.285308,0.190248 0.82106,0.246057 1.100901,0.447321 0.279841,0.201265 0.302885,0.547256 0.219108,0.810205 -0.08378,0.26295 -0.274494,0.441584 -0.570708,0.525366 -0.296214,0.0838 -0.69883,0.0726 -1.00086,-0.03922 -0.302031,-0.111817 -0.503111,-0.324068 -0.614898,-0.463847 -0.111787,-0.13978 -0.134141,-0.206839 -0.156441,-0.273739"
       style="opacity:1;vector-effect:none;fill:none;fill-opacity:1;fill-rule:nonzero;stroke:#000000;stroke-width:0.5;stroke-linecap:round;stroke-linejoin:round;stroke-miterlimit:4;stroke-dasharray:none;stroke-dashoffset:0;stroke-opacity:1;marker:none;paint-order:markers fill stroke" />
    <path
       id="path994"
       d="m 75.339454,97.287331 c -0.01116,0.245604 -0.02234,0.491482 -0.02234,0.815831 -4e-6,0.324349 0.01116,0.726243 0.09783,1.014032 0.08667,0.287789 0.259792,0.472448 0.516997,0.55627 0.257205,0.08382 0.603652,0.07265 0.89414,-0.05033 0.290487,-0.122975 0.525373,-0.357861 0.670553,-0.558965 0.145181,-0.201104 0.201126,-0.36894 0.234595,-0.686996 0.03347,-0.318057 0.04466,-0.788081 0.05584,-1.257486 0.06706,0.93881 0.134099,1.877375 0.201174,2.81643"
       style="opacity:1;vector-effect:none;fill:none;fill-opacity:1;fill-rule:nonzero;stroke:#000000;stroke-width:0.5;stroke-linecap:round;stroke-linejoin:round;stroke-miterlimit:4;stroke-dasharray:none;stroke-dashoffset:0;stroke-opacity:1;marker:none;paint-order:markers fill stroke" />
    <path
       id="path998"
       d="m 81.743477,94.772665 c 0.01117,1.027956 0.02235,2.055892 0.0447,2.849636 0.02235,0.793745 0.05589,1.352652 0.08942,1.911467 -0.223526,0.04471 -0.446394,0.08928 -0.748641,0.128475 -0.302246,0.0392 -0.68164,0.07267 -1.009145,0.01253 -0.327505,-0.06015 -0.611502,-0.219185 -0.77362,-0.543519 -0.162119,-0.324334 -0.20681,-0.815936 -0.145222,-1.179197 0.06159,-0.363261 0.229233,-0.597965 0.536627,-0.759902 0.307393,-0.161938 0.754445,-0.251349 1.089602,-0.212185 0.335157,0.03916 0.558683,0.206808 0.692755,0.413434 0.134073,0.206625 0.178784,0.452534 0.223528,0.698623"
       style="opacity:1;vector-effect:none;fill:none;fill-opacity:1;fill-rule:nonzero;stroke:#000000;stroke-width:0.5;stroke-linecap:round;stroke-linejoin:round;stroke-miterlimit:4;stroke-dasharray:none;stroke-dashoffset:0;stroke-opacity:1;marker:none;paint-order:markers fill stroke" />
    <path
       id="path1002"
       d="m 83.213289,98.142058 c 0.128656,-0.41912 0.385711,-0.687352 0.702019,-0.811175 0.316309,-0.123823 0.767785,-0.09942 1.063854,-0.02117 0.296069,0.07824 0.47489,0.212359 0.60337,0.396673 0.12848,0.184313 0.206713,0.419015 0.251441,0.73749 0.04473,0.318476 0.0559,0.720823 -0.06129,1.005843 -0.117196,0.28502 -0.363074,0.452664 -0.748678,0.531009 -0.385604,0.07835 -0.910891,0.06718 -1.257455,0.0057 -0.346564,-0.06145 -0.534106,-0.186474 -0.608011,-0.520875 -0.0739,-0.334402 -0.07391,-0.904404 0.05475,-1.323523 z"
       style="opacity:1;vector-effect:none;fill:none;fill-opacity:1;fill-rule:nonzero;stroke:#000000;stroke-width:0.5;stroke-linecap:round;stroke-linejoin:round;stroke-miterlimit:4;stroke-dasharray:none;stroke-dashoffset:0;stroke-opacity:1;marker:none;paint-order:markers fill stroke" />
    <g
       id="g1051">
      <path
         style="opacity:1;vector-effect:none;fill:none;fill-opacity:1;fill-rule:nonzero;stroke:#000000;stroke-width:0.5;stroke-linecap:round;stroke-linejoin:round;stroke-miterlimit:4;stroke-dasharray:none;stroke-dashoffset:0;stroke-opacity:1;marker:none;paint-order:markers fill stroke"
         d="m 55.038484,42.054875 c 1.020234,-0.262156 2.564639,-0.267917 3.590529,0.171804 1.02589,0.43972 2.042021,1.584397 2.420877,2.729954 0.378856,1.145557 0.311744,2.87217 -0.178563,3.916638 -0.490308,1.044469 -1.477077,1.83054 -2.66751,2.148388 -1.190432,0.317848 -2.780381,0.257122 -3.907989,-0.108542 -1.127608,-0.365663 -2.018175,-1.097403 -2.438419,-2.001074 -0.420243,-0.90367 -0.509608,-2.165953 -0.31818,-3.075979 0.191428,-0.910027 0.722158,-1.728705 1.279564,-2.361211 0.557405,-0.632505 1.199456,-1.157822 2.219691,-1.419978 z"
         id="path1006" />
      <path
         style="opacity:1;vector-effect:none;fill:none;fill-opacity:1;fill-rule:nonzero;stroke:#000000;stroke-width:0.5;stroke-linecap:round;stroke-linejoin:round;stroke-miterlimit:4;stroke-dasharray:none;stroke-dashoffset:0;stroke-opacity:1;marker:none;paint-order:markers fill stroke"
         d="m 53.094756,50.327113 c 0.04192,0.209617 0.08389,0.419437 0.02617,0.860329 -0.05772,0.440892 -0.214932,1.111664 -0.471322,1.902158 -0.256389,0.790494 -0.614308,1.706345 -0.782225,2.755678 -0.167917,1.049333 -0.146945,2.234397 -0.05778,3.079022 0.08917,0.844624 0.246496,1.348079 0.671604,1.704914 0.425108,0.356836 1.117284,0.566586 2.082348,0.68196 0.965063,0.115374 2.203297,0.136359 3.120173,-0.0022 0.916877,-0.138532 1.496102,-0.428145 1.910359,-0.790045 0.414257,-0.3619 0.655679,-0.792261 0.74478,-1.489524 0.0891,-0.697264 0.02611,-1.663136 -0.05781,-2.518042 -0.08392,-0.854905 -0.188858,-1.599953 -0.293757,-2.239814 -0.104899,-0.639861 -0.20984,-1.17506 -0.351442,-1.668015 -0.141601,-0.492956 -0.320015,-0.94424 -0.440651,-1.237955 -0.120636,-0.293715 -0.183601,-0.43014 -0.246493,-0.566405"
         id="path1010" />
      <path
         style="opacity:1;vector-effect:none;fill:none;fill-opacity:1;fill-rule:nonzero;stroke:#000000;stroke-width:0.5;stroke-linecap:round;stroke-linejoin:round;stroke-miterlimit:4;stroke-dasharray:none;stroke-dashoffset:0;stroke-opacity:1;marker:none;paint-order:markers fill stroke"
         d="m 54.13336,52.530217 c -0.09361,0.343224 -0.188751,0.692088 -0.236003,1.043721 -0.04725,0.351633 -0.04725,0.728984 -0.01578,1.08583 0.03148,0.356847 0.09438,0.702797 0.152687,1.11201 0.05831,0.409212 0.109557,0.860172 0.104362,1.185396 -0.0052,0.325223 -0.06811,0.513967 -0.204574,0.687247 -0.136464,0.173281 -0.345929,0.33038 -0.556045,0.487967"
         id="path1014" />
      <path
         style="opacity:1;vector-effect:none;fill:none;fill-opacity:1;fill-rule:nonzero;stroke:#000000;stroke-width:0.5;stroke-linecap:round;stroke-linejoin:round;stroke-miterlimit:4;stroke-dasharray:none;stroke-dashoffset:0;stroke-opacity:1;marker:none;paint-order:markers fill stroke"
         d="m 54.13336,57.408512 c 0.06998,0.189944 0.14682,0.39851 0.158161,0.559216 0.01134,0.160706 -0.04263,0.290232 -0.163429,0.421594 -0.120803,0.131362 -0.309161,0.267399 -0.498298,0.403998"
         id="path1018" />
      <path
         style="opacity:1;vector-effect:none;fill:none;fill-opacity:1;fill-rule:nonzero;stroke:#000000;stroke-width:0.5;stroke-linecap:round;stroke-linejoin:round;stroke-miterlimit:4;stroke-dasharray:none;stroke-dashoffset:0;stroke-opacity:1;marker:none;paint-order:markers fill stroke"
         d="m 54.35367,58.069443 c 0.06289,0.157227 0.125837,0.314591 0.125931,0.445687 9.3e-5,0.131097 -0.0628,0.235914 -0.125931,0.341134"
         id="path1022" />
      <path
         style="opacity:1;vector-effect:none;fill:none;fill-opacity:1;fill-rule:nonzero;stroke:#000000;stroke-width:0.5;stroke-linecap:round;stroke-linejoin:round;stroke-miterlimit:4;stroke-dasharray:none;stroke-dashoffset:0;stroke-opacity:1;marker:none;paint-order:markers fill stroke"
         d="m 53.322237,61.096441 c 0.04448,0.311343 0.08899,0.622911 0.08157,1.379972 -0.0074,0.75706 -0.06672,1.957954 -0.08898,2.781687 -0.02226,0.823734 -0.0074,1.268229 -0.089,1.654042 -0.08156,0.385812 -0.259669,0.712341 -0.437707,1.038743 0.163201,0.118692 0.32645,0.237419 0.497153,0.296747 0.170703,0.05933 0.348791,0.05933 0.474727,0.08897 0.125937,0.02964 0.200233,0.08908 0.274384,0.148398"
         id="path1026" />
      <path
         style="opacity:1;vector-effect:none;fill:none;fill-opacity:1;fill-rule:nonzero;stroke:#000000;stroke-width:0.5;stroke-linecap:round;stroke-linejoin:round;stroke-miterlimit:4;stroke-dasharray:none;stroke-dashoffset:0;stroke-opacity:1;marker:none;paint-order:markers fill stroke"
         d="m 58.440813,61.274479 c 0.05929,0.192706 0.118641,0.385582 0.155761,0.771535 0.03712,0.385953 0.05194,0.964072 0.05195,1.587346 3e-6,0.623274 -0.01483,1.290617 -0.08082,1.800297 -0.066,0.50968 -0.186123,0.870064 -0.25343,1.166884 -0.06731,0.296821 -0.08116,0.504667 -0.096,0.727213 0.192874,-0.01484 0.386033,-0.0297 0.575977,0.03314 0.189945,0.06283 0.358763,0.189443 0.536757,0.322939"
         id="path1030" />
      <path
         style="opacity:1;vector-effect:none;fill:#000000;fill-opacity:1;fill-rule:nonzero;stroke:none;stroke-width:0.5;stroke-linecap:round;stroke-linejoin:round;stroke-miterlimit:4;stroke-dasharray:none;stroke-dashoffset:0;stroke-opacity:1;marker:none;paint-order:markers fill stroke"
         d="m 54.924671,45.310287 c 0.148246,-0.0147 0.29661,0.163336 0.278213,0.337243 -0.0184,0.173907 -0.189015,0.330308 -0.340896,0.341469 -0.151881,0.01116 -0.263831,-0.114781 -0.248889,-0.285529 0.01494,-0.170748 0.163325,-0.378483 0.311572,-0.393183 z"
         id="path1034" />
      <path
         style="opacity:1;vector-effect:none;fill:#000000;fill-opacity:1;fill-rule:nonzero;stroke:none;stroke-width:0.5;stroke-linecap:round;stroke-linejoin:round;stroke-miterlimit:4;stroke-dasharray:none;stroke-dashoffset:0;stroke-opacity:1;marker:none;paint-order:markers fill stroke"
         d="m 58.955193,45.475514 c 0.06644,-0.129852 0.163968,-0.152209 0.261652,-0.156834 0.09768,-0.0046 0.194738,0.0084 0.244217,0.177172 0.04948,0.168793 0.05087,0.468546 -0.07631,0.627808 -0.127181,0.159261 -0.348759,0.133955 -0.44717,-0.02355 -0.09841,-0.1575 -0.04882,-0.494748 0.01761,-0.6246 z"
         id="path1038" />
    </g>
    <use
       height="100%"
       width="100%"
       transform="translate(67.726097)"
       id="use1053"
       xlink:href="#g1051"
       y="0"
       x="0" />
    <use
       height="100%"
       width="100%"
       transform="translate(-0.37417734,68.100275)"
       id="use1055"
       xlink:href="#g1051"
       y="0"
       x="0" />
    <path
       id="path1057"
       d="m 119.89536,115.42618 c -0.005,-0.273 -0.0161,-0.81873 0.19261,-1.43923 0.20866,-0.6205 0.63688,-1.31637 1.12379,-1.65863 0.48691,-0.34227 1.03265,-0.33156 1.65853,-0.0908 0.62588,0.24078 1.31891,0.7028 1.7331,1.16052 0.41419,0.45773 0.51919,0.87774 0.49785,1.45552 -0.0213,0.57778 -0.17107,1.30495 -0.40117,1.69055 -0.23009,0.38561 -0.5402,0.42838 -1.01153,0.27305 -0.47132,-0.15533 -1.10188,-0.50802 -1.6583,-0.74344 -0.55642,-0.23543 -1.03788,-0.35312 -1.38029,-0.39596 -0.3424,-0.0428 -0.54562,-0.0108 -0.64743,0.005 -0.10181,0.0161 -0.10181,0.0161 -0.10716,-0.25691 z"
       style="opacity:1;vector-effect:none;fill:#000000;fill-opacity:1;fill-rule:nonzero;stroke:none;stroke-width:0.5;stroke-linecap:round;stroke-linejoin:round;stroke-miterlimit:4;stroke-dasharray:none;stroke-dashoffset:0;stroke-opacity:1;marker:none;paint-order:markers fill stroke" />
    <path
       id="path1061"
       d="m 125.20303,110.88375 c 0.17651,-0.0426 0.39052,0.0751 0.41199,0.24612 0.0215,0.17104 -0.14975,0.39576 -0.31562,0.49223 -0.16588,0.0965 -0.32639,0.0644 -0.41746,-0.005 -0.0911,-0.0697 -0.11247,-0.17668 -0.0535,-0.3319 0.059,-0.15521 0.19808,-0.35853 0.37458,-0.40116 z"
       style="opacity:1;vector-effect:none;fill:#000000;fill-opacity:1;fill-rule:nonzero;stroke:none;stroke-width:0.5;stroke-linecap:round;stroke-linejoin:round;stroke-miterlimit:4;stroke-dasharray:none;stroke-dashoffset:0;stroke-opacity:1;marker:none;paint-order:markers fill stroke" />
    <path
       id="path1065"
       d="m 121.95009,110.80886 c 0.13373,-0.0426 0.29424,1.6e-4 0.35306,0.12293 0.0588,0.12277 0.016,0.3263 -0.0911,0.42811 -0.10704,0.10182 -0.27799,0.10182 -0.39055,0.0428 -0.11256,-0.059 -0.16598,-0.17653 -0.13914,-0.29961 0.0268,-0.12308 0.13396,-0.25161 0.26769,-0.29425 z"
       style="opacity:1;vector-effect:none;fill:#000000;fill-opacity:1;fill-rule:nonzero;stroke:none;stroke-width:0.5;stroke-linecap:round;stroke-linejoin:round;stroke-miterlimit:4;stroke-dasharray:none;stroke-dashoffset:0;stroke-opacity:1;marker:none;paint-order:markers fill stroke" />
    <path
       id="path1069"
       d="m 122.88092,109.24686 c 0.82393,-0.14005 1.93957,-0.0572 2.82131,0.28938 0.88174,0.34659 1.62139,1.04318 2.09969,1.71167 0.4783,0.66849 0.78061,1.4215 0.88699,2.25991 0.10639,0.83841 0.0351,1.86039 -0.38316,2.68212 -0.41825,0.82173 -1.20277,1.48018 -1.77585,1.85045 -0.57308,0.37027 -0.97854,0.48405 -1.47081,0.51086 -0.49228,0.0268 -1.07566,-0.0322 -1.79355,-0.18961 -0.71788,-0.15736 -1.57765,-0.41529 -2.23583,-0.78985 -0.65818,-0.37455 -1.11831,-0.86678 -1.434,-1.2895 -0.31569,-0.42273 -0.4869,-0.77585 -0.57248,-1.30561 -0.0856,-0.52976 -0.0856,-1.236 0.0215,-1.81921 0.10708,-0.58322 0.32346,-1.04842 0.66475,-1.53274 0.34129,-0.48432 0.81498,-1.00107 1.31512,-1.43787 0.50014,-0.43679 1.0324,-0.79995 1.85632,-0.94 z"
       style="opacity:1;vector-effect:none;fill:none;fill-opacity:1;fill-rule:nonzero;stroke:#000000;stroke-width:0.5;stroke-linecap:round;stroke-linejoin:round;stroke-miterlimit:4;stroke-dasharray:none;stroke-dashoffset:0;stroke-opacity:1;marker:none;paint-order:markers fill stroke" />
    <path
       id="path1090"
       d="m 120.79148,117.48748 c -0.30414,0.24331 -0.62068,0.49654 -1.01836,0.8942 -0.39767,0.39765 -0.88157,0.94359 -1.31637,1.51502 -0.43481,0.57144 -0.81961,1.16727 -1.09912,1.67036 -0.27952,0.50309 -0.4533,0.91271 -0.59,1.46566 -0.1367,0.55295 -0.23598,1.2479 -0.22843,1.84388 0.008,0.59597 0.11656,1.06832 0.32154,1.51558 0.20499,0.44725 0.50294,0.85693 0.8756,1.21095 0.37266,0.35401 0.8197,0.65204 1.2587,0.87494 0.43901,0.22289 0.87755,0.37325 1.41154,0.43532 0.53398,0.0621 1.1676,0.0372 1.75122,-0.0994 0.58361,-0.13663 1.11788,-0.38512 1.58346,-0.72659 0.46558,-0.34147 0.86324,-0.77641 1.13012,-1.32267 0.26688,-0.54626 0.40358,-1.20491 0.4346,-1.83812 0.031,-0.63321 -0.0435,-1.24205 -0.1051,-1.83812 -0.0616,-0.59607 -0.11229,-1.20476 -0.1309,-1.95605 -0.0186,-0.75129 -0.006,-1.65811 0.006,-2.56446"
       style="opacity:1;vector-effect:none;fill:none;fill-opacity:1;fill-rule:nonzero;stroke:#000000;stroke-width:0.5;stroke-linecap:round;stroke-linejoin:round;stroke-miterlimit:4;stroke-dasharray:none;stroke-dashoffset:0;stroke-opacity:1;marker:none;paint-order:markers fill stroke" />
    <path
       id="path1094"
       d="m 119.86002,120.02105 c 0.0869,0.26065 0.17382,0.52146 0.28288,0.75922 0.10905,0.23776 0.25111,0.47022 0.49336,0.79943 0.24225,0.32922 0.58987,0.76374 0.89426,1.01217 0.3044,0.24844 0.56519,0.31053 0.83838,0.28565 0.27319,-0.0249 0.55904,-0.13674 0.86312,-0.34156 0.30407,-0.20482 0.62733,-0.50322 0.9594,-0.82898 0.33208,-0.32576 0.68632,-0.69265 1.02776,-0.93471 0.34143,-0.24205 0.67701,-0.36634 0.93771,-0.44081 0.26071,-0.0745 0.44718,-0.0993 0.63318,-0.12411"
       style="opacity:1;vector-effect:none;fill:none;fill-opacity:1;fill-rule:nonzero;stroke:#000000;stroke-width:0.5;stroke-linecap:round;stroke-linejoin:round;stroke-miterlimit:4;stroke-dasharray:none;stroke-dashoffset:0;stroke-opacity:1;marker:none;paint-order:markers fill stroke" />
    <path
       id="path1098"
       d="m 125.11344,120.98976 c 0.33564,-0.087 0.67097,-0.17395 0.91928,-0.23603 0.24831,-0.0621 0.40992,-0.0994 0.57106,-0.13655"
       style="opacity:1;vector-effect:none;fill:none;fill-opacity:1;fill-rule:nonzero;stroke:#000000;stroke-width:0.5;stroke-linecap:round;stroke-linejoin:round;stroke-miterlimit:4;stroke-dasharray:none;stroke-dashoffset:0;stroke-opacity:1;marker:none;paint-order:markers fill stroke" />
    <path
       id="path1102"
       d="m 124.7036,121.25057 c 0.33564,-0.0622 0.67096,-0.12425 0.93786,-0.15527 0.26691,-0.031 0.44097,-0.031 0.62699,-0.031"
       style="opacity:1;vector-effect:none;fill:none;fill-opacity:1;fill-rule:nonzero;stroke:#000000;stroke-width:0.5;stroke-linecap:round;stroke-linejoin:round;stroke-miterlimit:4;stroke-dasharray:none;stroke-dashoffset:0;stroke-opacity:1;marker:none;paint-order:markers fill stroke" />
    <path
       id="path1106"
       d="m 125.33699,122.2938 c 0.0804,0.10727 0.149,0.19867 0.28503,0.26071 0.13602,0.062 0.33617,0.0871 0.55962,0.0436 0.22346,-0.0435 0.47213,-0.15539 0.742,-0.33167 0.26986,-0.17629 0.54978,-0.40753 0.7964,-0.55596 0.24662,-0.14844 0.46132,-0.21159 0.74667,-0.42254 0.28536,-0.21094 0.64606,-0.57164 0.87572,-0.85723 0.22966,-0.28559 0.3291,-0.49689 0.47806,-0.67681 0.14895,-0.17992 0.34796,-0.32918 0.53407,-0.38496 0.18611,-0.0558 0.36023,-0.0185 0.53392,0.0187"
       style="opacity:1;vector-effect:none;fill:none;fill-opacity:1;fill-rule:nonzero;stroke:#000000;stroke-width:0.5;stroke-linecap:round;stroke-linejoin:round;stroke-miterlimit:4;stroke-dasharray:none;stroke-dashoffset:0;stroke-opacity:1;marker:none;paint-order:markers fill stroke" />
    <path
       id="path1110"
       d="m 129.65896,120.28185 c 0.21143,-0.14924 0.42256,-0.29828 0.60253,-0.37891 0.17997,-0.0806 0.32921,-0.0931 0.47796,-0.10549"
       style="opacity:1;vector-effect:none;fill:none;fill-opacity:1;fill-rule:nonzero;stroke:#000000;stroke-width:0.5;stroke-linecap:round;stroke-linejoin:round;stroke-miterlimit:4;stroke-dasharray:none;stroke-dashoffset:0;stroke-opacity:1;marker:none;paint-order:markers fill stroke" />
    <path
       id="path1114"
       d="m 129.32363,120.5054 c 0.25978,-0.0909 0.4971,-0.17399 0.71509,-0.20487 0.21799,-0.0309 0.40289,-0.006 0.58895,0.0186"
       style="opacity:1;vector-effect:none;fill:none;fill-opacity:1;fill-rule:nonzero;stroke:#000000;stroke-width:0.5;stroke-linecap:round;stroke-linejoin:round;stroke-miterlimit:4;stroke-dasharray:none;stroke-dashoffset:0;stroke-opacity:1;marker:none;paint-order:markers fill stroke" />
    <path
       id="path1118"
       d="m 118.85405,128.40417 c 0.0372,0.47169 0.0745,0.94363 0.10557,1.3912 0.0311,0.44757 0.0558,0.86888 0.11211,1.25549 0.0563,0.3866 0.14241,0.73121 0.21171,1.06645 0.0693,0.33524 0.117,0.63344 0.0742,0.99184 -0.0428,0.35839 -0.18058,0.77168 -0.3421,1.20653 -0.16151,0.43486 -0.34766,0.89402 -0.52423,1.27142 -0.17656,0.37739 -0.33258,0.65342 -0.40718,0.88331 -0.0746,0.22989 -0.0622,0.40357 0.0499,0.50308 0.11206,0.0995 0.3229,0.1243 0.61456,0.15533 0.29166,0.031 0.66463,0.0683 1.03698,0.10556"
       style="opacity:1;vector-effect:none;fill:none;fill-opacity:1;fill-rule:nonzero;stroke:#000000;stroke-width:0.5;stroke-linecap:round;stroke-linejoin:round;stroke-miterlimit:4;stroke-dasharray:none;stroke-dashoffset:0;stroke-opacity:1;marker:none;paint-order:markers fill stroke" />
    <path
       id="path1122"
       d="m 123.95843,127.99432 c 0.2422,0.23009 0.49679,0.47195 0.78863,0.77621 0.29184,0.30426 0.62718,0.67685 0.88798,1.00595 0.2608,0.3291 0.44708,0.61473 0.57009,0.90679 0.123,0.29206 0.18747,0.61442 0.1937,0.9871 0.006,0.37268 -0.0434,0.80708 -0.11328,1.19176 -0.0699,0.38468 -0.15363,0.69579 -0.29651,1.04372 -0.14287,0.34792 -0.34139,0.72014 -0.52398,1.00893 -0.18259,0.28878 -0.33896,0.48124 -0.41365,0.64219 -0.0747,0.16095 -0.0622,0.28621 0.0803,0.32985 0.14242,0.0436 0.41679,0.006 0.62679,-1.3e-4 0.21,-0.006 0.36121,0.0188 0.51003,0.0436"
       style="opacity:1;vector-effect:none;fill:none;fill-opacity:1;fill-rule:nonzero;stroke:#000000;stroke-width:0.5;stroke-linecap:round;stroke-linejoin:round;stroke-miterlimit:4;stroke-dasharray:none;stroke-dashoffset:0;stroke-opacity:1;marker:none;paint-order:markers fill stroke" />
    <path
       id="path1126"
       d="m 112.87809,92.386152 c 0.12547,-0.178689 0.37618,-0.535764 0.69528,-0.698947 0.31911,-0.163184 0.70658,-0.132793 1.32956,-0.102409 0.62298,0.03039 1.48149,0.06078 2.37816,0.04556 0.89668,-0.01522 1.83083,-0.07598 2.67792,-0.09116 0.84709,-0.01518 1.60682,0.01521 2.34757,0.0342 0.74075,0.01899 1.46251,0.02659 2.14244,0.08358 0.67994,0.057 1.31812,0.163358 1.9029,0.197536 0.58479,0.03418 1.1171,-0.0038 1.62231,-2.1e-5 0.5052,0.0038 0.98383,0.04941 1.45098,0.019 0.46715,-0.03041 0.92325,-0.13683 1.43964,-0.174784 0.5164,-0.03795 1.09419,-0.0075 1.62966,-0.02322 0.53547,-0.01567 1.01444,-0.07554 1.51187,-0.06034 0.49744,0.01521 1.00677,0.106428 1.38816,0.225107 0.38139,0.118679 0.62893,0.261199 0.83776,0.629461 0.20883,0.368261 0.37603,0.961055 0.47859,1.504018 0.10256,0.542963 0.14058,1.037219 0.14059,1.553955 1e-5,0.516736 -0.038,1.055884 -0.0831,1.538477 -0.0451,0.482594 -0.0992,0.922911 -0.25112,1.272491 -0.15193,0.34958 -0.40247,0.615307 -0.64487,0.774797 -0.24239,0.15949 -0.4793,0.212983 -0.82532,0.205393 -0.34602,-0.0076 -0.80108,-0.07585 -1.4471,-0.110066 -0.64602,-0.03422 -1.48111,-0.03421 -2.1575,-0.02661 -0.67639,0.0076 -1.19284,0.02279 -1.69425,0.08354 -0.50141,0.06075 -0.98764,0.167113 -1.46264,0.220328 -0.475,0.05322 -0.93815,0.05322 -1.32194,0.01903 -0.38379,-0.03419 -0.68751,-0.102523 -1.1782,-0.136734 -0.49069,-0.03421 -1.14997,-0.03421 -1.64022,-0.03042 -0.49025,0.0038 -0.8016,0.01139 -1.07479,0.05429 -0.27318,0.0429 -0.4941,0.116541 -0.6994,0.272357 -0.2053,0.155815 -0.38739,0.39101 -0.51181,0.61937 -0.12442,0.22837 -0.1948,0.46298 -0.22523,0.77858 -0.0304,0.3156 -0.0228,0.7177 -0.004,1.08249 0.019,0.36479 0.0494,0.69126 0.10526,0.98045 0.0559,0.28919 0.14168,0.55436 0.22525,0.81267 -0.20513,-0.15195 -0.41021,-0.30386 -0.65718,-0.53563 -0.24697,-0.23178 -0.53561,-0.54321 -0.77495,-0.88893 -0.23934,-0.34572 -0.42928,-0.7256 -0.56222,-1.01809 -0.13295,-0.2925 -0.20894,-0.49768 -0.24301,-0.77112 -0.0341,-0.27345 -0.0266,-0.60039 -0.095,-0.854703 -0.0683,-0.254317 -0.2128,-0.429201 -0.357,-0.512764 -0.1442,-0.08356 -0.28856,-0.07596 -0.97708,-0.06074 -0.68853,0.01522 -1.91739,0.03798 -2.78362,-0.06838 -0.86623,-0.10636 -1.36755,-0.341828 -1.77032,-0.695216 -0.40277,-0.353389 -0.7066,-0.824321 -0.85122,-1.15113 -0.14461,-0.32681 -0.12881,-0.524312 -0.11746,-0.972024 0.0113,-0.447711 0.019,-1.170516 0.0152,-1.732491 -0.004,-0.561975 -0.019,-0.972682 -0.0266,-1.299379 -0.008,-0.326697 -0.008,-0.569822 -0.008,-0.691252 -1e-5,-0.121431 -1e-5,-0.121433 0.12545,-0.300123 z"
       style="opacity:1;vector-effect:none;fill:none;fill-opacity:1;fill-rule:nonzero;stroke:#000000;stroke-width:0.5;stroke-linecap:round;stroke-linejoin:round;stroke-miterlimit:4;stroke-dasharray:none;stroke-dashoffset:0;stroke-opacity:1;marker:none;paint-order:markers fill stroke" />
    <path
       id="path1130"
       d="m 114.576,97.624694 c 0.16728,-0.402982 0.33442,-0.805642 0.5685,-1.37948 0.23407,-0.573837 0.54072,-1.332784 0.84461,-2.084924 0.18234,0.349479 0.36462,0.698862 0.53178,1.059772 0.16717,0.36091 0.31907,0.733075 0.45205,1.090201 0.13297,0.357126 0.24689,0.698883 0.33429,0.911691 0.0874,0.212808 0.14814,0.296329 0.20895,0.379946"
       style="opacity:1;vector-effect:none;fill:none;fill-opacity:1;fill-rule:nonzero;stroke:#000000;stroke-width:0.5;stroke-linecap:round;stroke-linejoin:round;stroke-miterlimit:4;stroke-dasharray:none;stroke-dashoffset:0;stroke-opacity:1;marker:none;paint-order:markers fill stroke" />
    <path
       id="path1134"
       d="m 115.30535,96.188789 c 0.25097,0 0.50169,0 0.75984,-0.01173 0.25815,-0.01173 0.5092,-0.03388 0.76723,-0.05665"
       style="opacity:1;vector-effect:none;fill:none;fill-opacity:1;fill-rule:nonzero;stroke:#000000;stroke-width:0.5;stroke-linecap:round;stroke-linejoin:round;stroke-miterlimit:4;stroke-dasharray:none;stroke-dashoffset:0;stroke-opacity:1;marker:none;paint-order:markers fill stroke" />
    <path
       id="path1138"
       d="m 118.24553,94.046331 c 0,0.577136 0,1.154536 0.0114,1.614265 0.0114,0.459729 0.0342,0.801455 0.0722,1.067467 0.038,0.266012 0.0911,0.455805 0.14436,0.645917"
       style="opacity:1;vector-effect:none;fill:none;fill-opacity:1;fill-rule:nonzero;stroke:#000000;stroke-width:0.5;stroke-linecap:round;stroke-linejoin:round;stroke-miterlimit:4;stroke-dasharray:none;stroke-dashoffset:0;stroke-opacity:1;marker:none;paint-order:markers fill stroke" />
    <path
       id="path1142"
       d="m 120.00052,94.000746 c -0.008,0.584724 -0.0152,1.169727 -0.004,1.697864 0.0114,0.528137 0.0418,0.998953 0.0722,1.470241"
       style="opacity:1;vector-effect:none;fill:none;fill-opacity:1;fill-rule:nonzero;stroke:#000000;stroke-width:0.5;stroke-linecap:round;stroke-linejoin:round;stroke-miterlimit:4;stroke-dasharray:none;stroke-dashoffset:0;stroke-opacity:1;marker:none;paint-order:markers fill stroke" />
    <path
       id="path1146"
       d="m 118.45066,95.732947 c 0.27377,0 0.54727,0 0.79409,-0.0076 0.24682,-0.0076 0.46736,-0.02281 0.6874,-0.03799"
       style="opacity:1;vector-effect:none;fill:none;fill-opacity:1;fill-rule:nonzero;stroke:#000000;stroke-width:0.5;stroke-linecap:round;stroke-linejoin:round;stroke-miterlimit:4;stroke-dasharray:none;stroke-dashoffset:0;stroke-opacity:1;marker:none;paint-order:markers fill stroke" />
    <path
       id="path1150"
       d="m 121.2085,93.863993 c -0.0152,0.508751 -0.0304,1.017775 -0.038,1.602955 -0.008,0.585179 -0.008,1.260991 -0.008,1.929823"
       style="opacity:1;vector-effect:none;fill:none;fill-opacity:1;fill-rule:nonzero;stroke:#000000;stroke-width:0.5;stroke-linecap:round;stroke-linejoin:round;stroke-miterlimit:4;stroke-dasharray:none;stroke-dashoffset:0;stroke-opacity:1;marker:none;paint-order:markers fill stroke" />
    <path
       id="path1154"
       d="m 121.25409,95.573403 c 0.31176,0.01484 0.63843,0.0304 0.94223,0.03039 0.30379,-7e-6 0.59271,-0.01521 0.88114,-0.03039"
       style="opacity:1;vector-effect:none;fill:none;fill-opacity:1;fill-rule:nonzero;stroke:#000000;stroke-width:0.5;stroke-linecap:round;stroke-linejoin:round;stroke-miterlimit:4;stroke-dasharray:none;stroke-dashoffset:0;stroke-opacity:1;marker:none;paint-order:markers fill stroke" />
    <path
       id="path1158"
       d="m 123.07746,93.955161 c 0.008,0.675907 0.0152,1.352071 0.0266,1.967569 0.0114,0.615497 0.0266,1.169889 0.0418,1.724755"
       style="opacity:1;vector-effect:none;fill:none;fill-opacity:1;fill-rule:nonzero;stroke:#000000;stroke-width:0.5;stroke-linecap:round;stroke-linejoin:round;stroke-miterlimit:4;stroke-dasharray:none;stroke-dashoffset:0;stroke-opacity:1;marker:none;paint-order:markers fill stroke" />
    <path
       id="path1162"
       d="m 124.23986,94.023537 c 0.0152,0.577144 0.0304,1.154544 0.0342,1.758669 0.004,0.604125 -0.004,1.234429 -0.0114,1.865279"
       style="opacity:1;vector-effect:none;fill:none;fill-opacity:1;fill-rule:nonzero;stroke:#000000;stroke-width:0.5;stroke-linecap:round;stroke-linejoin:round;stroke-miterlimit:4;stroke-dasharray:none;stroke-dashoffset:0;stroke-opacity:1;marker:none;paint-order:markers fill stroke" />
    <path
       id="path1166"
       d="m 124.35382,96.074828 c 0.16938,-0.04619 0.3346,-0.09125 0.55467,-0.159554 0.22006,-0.0683 0.49408,-0.159641 0.73326,-0.205173 0.23917,-0.04553 0.44453,-0.04553 0.6494,-0.04553"
       style="opacity:1;vector-effect:none;fill:none;fill-opacity:1;fill-rule:nonzero;stroke:#000000;stroke-width:0.5;stroke-linecap:round;stroke-linejoin:round;stroke-miterlimit:4;stroke-dasharray:none;stroke-dashoffset:0;stroke-opacity:1;marker:none;paint-order:markers fill stroke" />
    <path
       id="path1170"
       d="m 126.38232,93.909576 c -0.0152,0.425181 -0.0304,0.850633 -0.038,1.420671 -0.008,0.570038 -0.008,1.28373 -0.008,1.998148"
       style="opacity:1;vector-effect:none;fill:none;fill-opacity:1;fill-rule:nonzero;stroke:#000000;stroke-width:0.5;stroke-linecap:round;stroke-linejoin:round;stroke-miterlimit:4;stroke-dasharray:none;stroke-dashoffset:0;stroke-opacity:1;marker:none;paint-order:markers fill stroke" />
    <path
       id="path1174"
       d="m 127.70426,94.411004 c -0.008,0.523945 -0.0152,1.048169 -0.034,1.59533 -0.0188,0.547162 -0.0496,1.131847 -0.08,1.709527"
       style="opacity:1;vector-effect:none;fill:none;fill-opacity:1;fill-rule:nonzero;stroke:#000000;stroke-width:0.5;stroke-linecap:round;stroke-linejoin:round;stroke-miterlimit:4;stroke-dasharray:none;stroke-dashoffset:0;stroke-opacity:1;marker:none;paint-order:markers fill stroke" />
    <path
       id="path1178"
       d="m 127.38517,95.98366 c 0.34979,-0.02233 0.71444,-0.0456 1.07127,-0.08803 0.35683,-0.04242 0.69922,-0.101965 1.0484,-0.162692"
       style="opacity:1;vector-effect:none;fill:none;fill-opacity:1;fill-rule:nonzero;stroke:#000000;stroke-width:0.5;stroke-linecap:round;stroke-linejoin:round;stroke-miterlimit:4;stroke-dasharray:none;stroke-dashoffset:0;stroke-opacity:1;marker:none;paint-order:markers fill stroke" />
    <path
       id="path1182"
       d="m 129.57321,94.205875 c -0.0155,0.432767 -0.0304,0.850631 -0.0418,1.280021 -0.0114,0.42939 -0.019,0.862167 0.0266,1.223191 0.0456,0.361024 0.14429,0.649539 0.24311,0.938398"
       style="opacity:1;vector-effect:none;fill:none;fill-opacity:1;fill-rule:nonzero;stroke:#000000;stroke-width:0.5;stroke-linecap:round;stroke-linejoin:round;stroke-miterlimit:4;stroke-dasharray:none;stroke-dashoffset:0;stroke-opacity:1;marker:none;paint-order:markers fill stroke" />
    <path
       id="path1186"
       d="m 130.94074,93.727241 c -0.0379,0.326393 -0.0759,0.65308 -0.0836,0.972334 -0.008,0.319254 0.0152,0.630462 0.038,0.942204"
       style="opacity:1;vector-effect:none;fill:none;fill-opacity:1;fill-rule:nonzero;stroke:#000000;stroke-width:0.5;stroke-linecap:round;stroke-linejoin:round;stroke-miterlimit:4;stroke-dasharray:none;stroke-dashoffset:0;stroke-opacity:1;marker:none;paint-order:markers fill stroke" />
    <path
       id="path1190"
       d="m 132.46781,93.909576 c -0.0152,0.447705 -0.0304,0.896216 -0.0228,1.2762 0.008,0.379984 0.038,0.691279 0.0684,1.003013"
       style="opacity:1;vector-effect:none;fill:none;fill-opacity:1;fill-rule:nonzero;stroke:#000000;stroke-width:0.5;stroke-linecap:round;stroke-linejoin:round;stroke-miterlimit:4;stroke-dasharray:none;stroke-dashoffset:0;stroke-opacity:1;marker:none;paint-order:markers fill stroke" />
    <path
       id="path1194"
       d="m 134.04047,93.704447 c 0.0152,0.425195 0.0304,0.850654 0.0684,1.27245 0.038,0.421797 0.0987,0.8394 0.15955,1.257477"
       style="opacity:1;vector-effect:none;fill:none;fill-opacity:1;fill-rule:nonzero;stroke:#000000;stroke-width:0.5;stroke-linecap:round;stroke-linejoin:round;stroke-miterlimit:4;stroke-dasharray:none;stroke-dashoffset:0;stroke-opacity:1;marker:none;paint-order:markers fill stroke" />
    <path
       id="path1198"
       d="m 134.42794,96.804176 c 0.0607,0.182166 0.1215,0.364517 0.18233,0.547013"
       style="opacity:1;vector-effect:none;fill:none;fill-opacity:1;fill-rule:nonzero;stroke:#000000;stroke-width:0.5;stroke-linecap:round;stroke-linejoin:round;stroke-miterlimit:4;stroke-dasharray:none;stroke-dashoffset:0;stroke-opacity:1;marker:none;paint-order:markers fill stroke" />
    <path
       id="path1202"
       d="m 132.71853,97.146057 c -0.008,0.09846 -0.0152,0.197247 0.002,0.267731 0.0171,0.07048 0.0664,0.119719 0.11198,0.165321"
       style="opacity:1;vector-effect:none;fill:none;fill-opacity:1;fill-rule:nonzero;stroke:#000000;stroke-width:0.5;stroke-linecap:round;stroke-linejoin:round;stroke-miterlimit:4;stroke-dasharray:none;stroke-dashoffset:0;stroke-opacity:1;marker:none;paint-order:markers fill stroke" />
    <path
       id="path1206"
       d="m 131.03191,96.872552 c 0.0228,0.091 0.0456,0.182159 0.0114,0.254389 -0.0341,0.07223 -0.12508,0.1253 -0.21656,0.178662"
       style="opacity:1;vector-effect:none;fill:none;fill-opacity:1;fill-rule:nonzero;stroke:#000000;stroke-width:0.5;stroke-linecap:round;stroke-linejoin:round;stroke-miterlimit:4;stroke-dasharray:none;stroke-dashoffset:0;stroke-opacity:1;marker:none;paint-order:markers fill stroke" />
  </g>
</svg>
