P3 
21 1
255
  0   0   0   53   0  94  80   0 162  74   0 211   40   2 233  14  58 248
  1 141 230    0 206 160   0 210  74   0 188  13    0 183   0   0 188  13
101 210   0  186 214   0 249 183   0 255 122   0  255  68   0 255  37   1
208  14   0  123   2   0   0   0   0