P3
3 3
255
  0   0   0     0 255 255  255   0   0
255 255   0   127 127 127    0   0 255
0   255   0   255   0 255  255 255 255
