<?xml version="1.0" encoding="UTF-8" standalone="no"?>
<svg
   xmlns:dc="http://purl.org/dc/elements/1.1/"
   xmlns:cc="http://creativecommons.org/ns#"
   xmlns:rdf="http://www.w3.org/1999/02/22-rdf-syntax-ns#"
   xmlns:svg="http://www.w3.org/2000/svg"
   xmlns="http://www.w3.org/2000/svg"
   style="enable-background:new"
   version="1.1"
   id="svg5142"
   viewBox="0 0 123.58372 123.5837"
   height="34.878067mm"
   width="34.878071mm">
  <defs
     id="defs5144" />
  <metadata
     id="metadata5147">
    <rdf:RDF>
      <cc:Work
         rdf:about="">
        <dc:format>image/svg+xml</dc:format>
        <dc:type
           rdf:resource="http://purl.org/dc/dcmitype/StillImage" />
        <dc:title></dc:title>
      </cc:Work>
    </rdf:RDF>
  </metadata>
  <g
     transform="translate(-174.57712,-137.41574)"
     style="display:inline"
     id="layer2">
    <g
       id="g3431"
       transform="translate(-1444.5817,-644.24872)">
      <ellipse
         style="opacity:1;fill:#ffffff;fill-opacity:1;fill-rule:evenodd;stroke:#000000;stroke-width:8.69999981;stroke-linecap:butt;stroke-linejoin:bevel;stroke-miterlimit:4;stroke-dasharray:none;stroke-dashoffset:16.79999924;stroke-opacity:1"
         id="path5266"
         cx="1680.9507"
         cy="843.4563"
         rx="57.44186"
         ry="57.441856" />
      <g
         id="g5391"
         transform="matrix(0.9538347,0.30033216,-0.30033216,0.9538347,954.98128,-310.19551)">
        <path
           id="path5393"
           style="opacity:1;fill:#ffffff;fill-opacity:1;fill-rule:evenodd;stroke:#000000;stroke-width:2;stroke-linecap:butt;stroke-linejoin:miter;stroke-miterlimit:4;stroke-dasharray:none;stroke-dashoffset:16.79999924;stroke-opacity:1"
           d="m 1059.2055,900.26904 4.1627,7.53241 3.4059,-7.53241 m -14.6858,0 4.1627,7.53241 3.4059,-7.53241 m -15.0642,0 4.1627,7.53241 3.4059,-7.53241 m -15.5686,0 4.1627,7.53241 3.4059,-7.53241 m -15.5686,0 4.1627,7.53241 3.4059,-7.53241 m -14.146,0 4.1627,7.53241 3.4059,-7.53241 m -14.9935,0 4.1627,7.53241 3.4059,-7.53241 m -13.7677,0 4.1627,7.53241 3.4059,-7.53241 m -14.4514,0 4.1627,7.53241 3.4059,-7.53241 m -14.43369,0 4.16274,7.53241 3.40585,-7.53241" />
        <path
           style="opacity:1;fill:#ffffff;fill-opacity:1;fill-rule:evenodd;stroke:#000000;stroke-width:2;stroke-linecap:round;stroke-linejoin:round;stroke-miterlimit:4;stroke-dasharray:none;stroke-dashoffset:16.79999924;stroke-opacity:1"
           d="m 1068.6898,900.10668 -76.19079,0 -0.1262,-17.07919 c -0.1261,-3.40229 2.5556,-5.91549 5.8636,-5.91549 3.30799,0 5.98969,2.51321 6.05689,5.6134 0.067,-2.16836 1.3999,-4.14281 3.4904,-5.07196 2.0906,-0.92914 4.5652,-0.64675 6.3568,0.72539 1.7916,1.37212 2.5797,3.58859 2.0245,5.69361 l 46.482,1.11838 c 0.2744,-3.80475 1.8819,-8.10274 4.7327,-8.08024 3.5537,0.0281 5.7299,2.66811 6.5222,6.13166 1.4101,-3.1455 3.7425,-5.38828 6.6869,-4.64765 3.3612,1.08485 4.855,4.7108 3.7817,8.93267 l 9.548,2.86636 -5.9287,18.41698 z"
           id="path5395" />
        <circle
           style="opacity:1;fill:#ffffff;fill-opacity:1;fill-rule:evenodd;stroke:#000000;stroke-width:2;stroke-linecap:butt;stroke-linejoin:miter;stroke-miterlimit:4;stroke-dasharray:none;stroke-dashoffset:16.79999924;stroke-opacity:1"
           id="circle5397"
           cx="1010.2852"
           cy="882.82501"
           r="2.6328506" />
        <circle
           r="2.6328506"
           cy="882.89905"
           cx="998.32611"
           id="circle5399"
           style="opacity:1;fill:#ffffff;fill-opacity:1;fill-rule:evenodd;stroke:#000000;stroke-width:2;stroke-linecap:butt;stroke-linejoin:miter;stroke-miterlimit:4;stroke-dasharray:none;stroke-dashoffset:16.79999924;stroke-opacity:1" />
        <path
           id="path5403"
           d="m 1067.6782,879.62057 a 2.5,2.5 0 0 0 -2.5,2.5 2.5,2.5 0 0 0 2.5,2.5 2.5,2.5 0 0 0 1.8691,-0.84179 c 0.03,0.6555 -0.2193,1.29793 -0.7578,1.78711 a 1.0001,1.0001 0 1 0 1.3457,1.47851 c 1.1632,-1.05682 1.6769,-2.64486 1.3125,-4.15625 -0.3643,-1.51139 -1.5339,-2.70898 -3.0449,-3.19336 a 1.0001,1.0001 0 0 0 -0.2949,-0.0508 1.0001,1.0001 0 0 0 -0.08,0.004 2.5,2.5 0 0 0 -0.3496,-0.0274 z"
           style="color:#000000;font-style:normal;font-variant:normal;font-weight:normal;font-stretch:normal;font-size:medium;line-height:normal;font-family:sans-serif;text-indent:0;text-align:start;text-decoration:none;text-decoration-line:none;text-decoration-style:solid;text-decoration-color:#000000;letter-spacing:normal;word-spacing:normal;text-transform:none;direction:ltr;block-progression:tb;writing-mode:lr-tb;baseline-shift:baseline;text-anchor:start;white-space:normal;clip-rule:nonzero;display:inline;overflow:visible;visibility:visible;opacity:1;isolation:auto;mix-blend-mode:normal;color-interpolation:sRGB;color-interpolation-filters:linearRGB;solid-color:#000000;solid-opacity:1;fill:#000000;fill-opacity:1;fill-rule:evenodd;stroke:none;stroke-width:2;stroke-linecap:round;stroke-linejoin:round;stroke-miterlimit:4;stroke-dasharray:none;stroke-dashoffset:16.79999924;stroke-opacity:1;color-rendering:auto;image-rendering:auto;shape-rendering:auto;text-rendering:auto;enable-background:accumulate" />
        <path
           style="color:#000000;font-style:normal;font-variant:normal;font-weight:normal;font-stretch:normal;font-size:medium;line-height:normal;font-family:sans-serif;text-indent:0;text-align:start;text-decoration:none;text-decoration-line:none;text-decoration-style:solid;text-decoration-color:#000000;letter-spacing:normal;word-spacing:normal;text-transform:none;direction:ltr;block-progression:tb;writing-mode:lr-tb;baseline-shift:baseline;text-anchor:start;white-space:normal;clip-rule:nonzero;display:inline;overflow:visible;visibility:visible;opacity:1;isolation:auto;mix-blend-mode:normal;color-interpolation:sRGB;color-interpolation-filters:linearRGB;solid-color:#000000;solid-opacity:1;fill:#000000;fill-opacity:1;fill-rule:evenodd;stroke:none;stroke-width:2;stroke-linecap:round;stroke-linejoin:round;stroke-miterlimit:4;stroke-dasharray:none;stroke-dashoffset:16.79999924;stroke-opacity:1;color-rendering:auto;image-rendering:auto;shape-rendering:auto;text-rendering:auto;enable-background:accumulate"
           d="m 1078.9263,880.80417 a 2.5,2.5 0 0 0 -2.5,2.5 2.5,2.5 0 0 0 2.5,2.5 2.5,2.5 0 0 0 1.8691,-0.84179 c 0.03,0.6555 -0.2193,1.29793 -0.7578,1.78711 a 1.0001,1.0001 0 1 0 1.3457,1.47851 c 1.1632,-1.05682 1.6769,-2.64486 1.3125,-4.15625 -0.3643,-1.51139 -1.5339,-2.70898 -3.0449,-3.19336 a 1.0001,1.0001 0 0 0 -0.2949,-0.0508 1.0001,1.0001 0 0 0 -0.08,0.004 2.5,2.5 0 0 0 -0.3496,-0.0274 z"
           id="path5401" />
      </g>
      <g
         id="g5596"
         transform="translate(784,0)">
        <path
           id="rect5270"
           d="m 882.66288,798.16415 36.52692,0 0,4.97914 -2.81288,0 0,4.10843 2.81288,0 0,24.02107 -36.52692,0 z"
           style="opacity:1;fill:#ffffff;fill-opacity:1;fill-rule:evenodd;stroke:#000000;stroke-width:2;stroke-linecap:butt;stroke-linejoin:miter;stroke-miterlimit:4;stroke-dasharray:none;stroke-dashoffset:16.79999924;stroke-opacity:1" />
        <circle
           r="4.4960175"
           cy="813.76318"
           cx="900.91711"
           id="path5273"
           style="opacity:1;fill:#ffffff;fill-opacity:1;fill-rule:evenodd;stroke:#000000;stroke-width:2;stroke-linecap:butt;stroke-linejoin:miter;stroke-miterlimit:4;stroke-dasharray:none;stroke-dashoffset:16.79999924;stroke-opacity:1" />
        <path
           id="path5275"
           d="m 902.63361,823.13494 0,3.44653 c 0,1.40432 -1.05045,1.91003 -1.86716,1.91003 -0.81672,0 -1.86716,-0.49132 -1.86716,-1.91003 l 0,-3.44653 c 0,-1.44363 1.0384,-1.97669 1.86716,-1.97669 0.82876,0 1.86716,0.54744 1.86716,1.97669 z"
           style="opacity:1;fill:#ffffff;fill-opacity:1;fill-rule:evenodd;stroke:#000000;stroke-width:2;stroke-linecap:butt;stroke-linejoin:miter;stroke-miterlimit:4;stroke-dasharray:none;stroke-dashoffset:16.79999924;stroke-opacity:1" />
      </g>
      <g
         id="g5601"
         transform="translate(784.65211,0)">
        <rect
           rx="3.0137954"
           ry="3.0137954"
           y="786.96155"
           x="892.0238"
           height="16.787361"
           width="5.0078959"
           id="rect5405"
           style="opacity:1;fill:#ffffff;fill-opacity:1;fill-rule:evenodd;stroke:#000000;stroke-width:1.99999988;stroke-linecap:round;stroke-linejoin:round;stroke-miterlimit:4;stroke-dasharray:none;stroke-dashoffset:16.79999924;stroke-opacity:1" />
        <rect
           rx="3.0137954"
           style="opacity:1;fill:#ffffff;fill-opacity:1;fill-rule:evenodd;stroke:#000000;stroke-width:2;stroke-linecap:round;stroke-linejoin:round;stroke-miterlimit:4;stroke-dasharray:none;stroke-dashoffset:16.79999924;stroke-opacity:1"
           id="rect5407"
           width="4.4405842"
           height="19.307901"
           x="897.09741"
           y="786.96155"
           ry="3.0137954" />
        <rect
           ry="3.0137954"
           y="787.72284"
           x="901.60327"
           height="15.667121"
           width="4.4405842"
           id="rect5409"
           style="opacity:1;fill:#ffffff;fill-opacity:1;fill-rule:evenodd;stroke:#000000;stroke-width:2;stroke-linecap:round;stroke-linejoin:round;stroke-miterlimit:4;stroke-dasharray:none;stroke-dashoffset:16.79999924;stroke-opacity:1"
           rx="3.0137954" />
        <rect
           rx="3.0137954"
           style="opacity:1;fill:#ffffff;fill-opacity:1;fill-rule:evenodd;stroke:#000000;stroke-width:2;stroke-linecap:round;stroke-linejoin:round;stroke-miterlimit:4;stroke-dasharray:none;stroke-dashoffset:16.79999924;stroke-opacity:1"
           id="rect5411"
           width="4.6272907"
           height="15.667121"
           x="906.25702"
           y="785.85553"
           ry="3.0137954" />
      </g>
      <g
         id="g5607"
         transform="translate(784,0)">
        <path
           id="path5419"
           d="m 859.38929,870.3142 c -1.62802,3.08945 -4.29039,4.82022 -7.30537,4.826 l -0.035,2.49978 c 3.06694,0.039 5.8746,-1.04259 7.48934,-2.84822 1.62845,1.85531 4.45645,3.00146 7.54625,3.04132 3.0682,0.0391 5.8749,-1.04325 7.4894,-2.85018 1.6284,1.85603 4.456,3.00536 7.54649,3.04522 3.0681,0.0392 5.8749,-1.04324 7.4894,-2.85018 1.6284,1.85583 4.456,3.00344 7.5464,3.04328 3.0682,0.0391 5.875,-1.04316 7.4893,-2.85017 1.6286,1.85591 4.4539,3.00536 7.5444,3.04521 3.0671,0.039 5.8746,-1.04258 7.4894,-2.84823 1.6285,1.85533 4.4564,3.00147 7.5465,3.04132 l 0.035,-2.49979 c -4.5221,-0.25223 -5.5698,-2.31294 -7.7305,-5.01908 -1.6282,3.0891 -4.2886,4.82026 -7.3031,4.82602 -4.5216,-0.2519 -5.5691,-2.31393 -7.7327,-5.01716 -1.6291,3.08777 -4.2895,4.8164 -7.3032,4.82209 -4.5223,-0.25224 -5.5701,-2.31295 -7.7304,-5.01907 -1.6309,3.08795 -4.2902,4.82023 -7.3054,4.82598 -4.52309,-0.2525 -5.57089,-2.31315 -7.73049,-5.02103 -1.6265,3.09093 -4.2897,4.82028 -7.3054,4.82598 -4.5221,-0.25224 -5.5699,-2.31297 -7.73021,-5.01909 z"
           style="color:#000000;font-style:normal;font-variant:normal;font-weight:normal;font-stretch:normal;font-size:medium;line-height:normal;font-family:sans-serif;text-indent:0;text-align:start;text-decoration:none;text-decoration-line:none;text-decoration-style:solid;text-decoration-color:#000000;letter-spacing:normal;word-spacing:normal;text-transform:none;direction:ltr;block-progression:tb;writing-mode:lr-tb;baseline-shift:baseline;text-anchor:start;white-space:normal;clip-rule:nonzero;display:inline;overflow:visible;visibility:visible;opacity:1;isolation:auto;mix-blend-mode:normal;color-interpolation:sRGB;color-interpolation-filters:linearRGB;solid-color:#000000;solid-opacity:1;fill:#000000;fill-opacity:1;fill-rule:evenodd;stroke:none;stroke-width:2.5;stroke-linecap:round;stroke-linejoin:miter;stroke-miterlimit:7;stroke-dasharray:none;stroke-dashoffset:16.79999924;stroke-opacity:1;color-rendering:auto;image-rendering:auto;shape-rendering:auto;text-rendering:auto;enable-background:accumulate" />
        <path
           style="color:#000000;font-style:normal;font-variant:normal;font-weight:normal;font-stretch:normal;font-size:medium;line-height:normal;font-family:sans-serif;text-indent:0;text-align:start;text-decoration:none;text-decoration-line:none;text-decoration-style:solid;text-decoration-color:#000000;letter-spacing:normal;word-spacing:normal;text-transform:none;direction:ltr;block-progression:tb;writing-mode:lr-tb;baseline-shift:baseline;text-anchor:start;white-space:normal;clip-rule:nonzero;display:inline;overflow:visible;visibility:visible;opacity:1;isolation:auto;mix-blend-mode:normal;color-interpolation:sRGB;color-interpolation-filters:linearRGB;solid-color:#000000;solid-opacity:1;fill:#000000;fill-opacity:1;fill-rule:evenodd;stroke:none;stroke-width:2.5;stroke-linecap:round;stroke-linejoin:miter;stroke-miterlimit:7;stroke-dasharray:none;stroke-dashoffset:16.79999924;stroke-opacity:1;color-rendering:auto;image-rendering:auto;shape-rendering:auto;text-rendering:auto;enable-background:accumulate"
           d="m 859.38929,878.69504 c -1.62802,3.08945 -4.29039,4.82022 -7.30537,4.826 l -0.035,2.49978 c 3.06694,0.039 5.8746,-1.04259 7.48934,-2.84822 1.62845,1.85531 4.45645,3.00146 7.54625,3.04132 3.0682,0.0391 5.8749,-1.04325 7.4894,-2.85018 1.6284,1.85603 4.456,3.00536 7.54649,3.04522 3.0681,0.0392 5.8749,-1.04324 7.4894,-2.85018 1.6284,1.85583 4.456,3.00344 7.5464,3.04328 3.0682,0.0391 5.875,-1.04316 7.4893,-2.85017 1.6286,1.85591 4.4539,3.00536 7.5444,3.04521 3.0671,0.039 5.8746,-1.04258 7.4894,-2.84823 1.6285,1.85533 4.4564,3.00147 7.5465,3.04132 4.3441,0.0563 8.2948,-2.05099 8.8403,-5.43661 0.3047,-1.67516 -2.4674,-2.05102 -2.7031,-0.36649 -0.273,1.69416 -2.7526,3.34655 -6.1023,3.30331 -4.5221,-0.25223 -5.5698,-2.31294 -7.7305,-5.01908 -1.6282,3.0891 -4.2886,4.82026 -7.3031,4.82602 -4.5216,-0.2519 -5.5691,-2.31393 -7.7327,-5.01716 -1.6291,3.08777 -4.2895,4.8164 -7.3032,4.82209 -4.5223,-0.25224 -5.5701,-2.31295 -7.7304,-5.01907 -1.6309,3.08795 -4.2902,4.82023 -7.3054,4.82598 -4.52309,-0.2525 -5.57089,-2.31315 -7.73049,-5.02103 -1.6265,3.09093 -4.2897,4.82028 -7.3054,4.82598 -4.5221,-0.25224 -5.5699,-2.31297 -7.73021,-5.01909 z"
           id="path5432" />
        <path
           id="path5434"
           d="m 867.0845,894.53238 c 3.0682,0.0391 5.8749,-1.04325 7.4894,-2.85018 1.6284,1.85603 4.456,3.00536 7.5465,3.04522 3.0681,0.0392 5.8749,-1.04324 7.4894,-2.85018 1.6284,1.85583 4.456,3.00344 7.5464,3.04328 3.0682,0.0391 5.875,-1.04316 7.4893,-2.85017 1.6286,1.85591 4.4539,3.00536 7.5444,3.04521 3.0671,0.039 5.8746,-1.04258 7.4894,-2.84823 1.6285,1.85533 4.4564,3.00147 7.5465,3.04132 l 0.035,-2.49979 c -4.5221,-0.25223 -5.5698,-2.31294 -7.7305,-5.01908 -1.6282,3.0891 -4.2886,4.82026 -7.3031,4.82602 -4.5216,-0.2519 -5.5691,-2.31393 -7.7327,-5.01716 -1.6291,3.08777 -4.2895,4.8164 -7.3032,4.82209 -4.5223,-0.25224 -5.5701,-2.31295 -7.7304,-5.01907 -1.6309,3.08795 -4.2902,4.82023 -7.3054,4.82598 -4.5231,-0.2525 -5.5709,-2.31315 -7.7305,-5.02103 -1.6265,3.09093 -4.2897,4.82028 -7.3054,4.82598 z"
           style="color:#000000;font-style:normal;font-variant:normal;font-weight:normal;font-stretch:normal;font-size:medium;line-height:normal;font-family:sans-serif;text-indent:0;text-align:start;text-decoration:none;text-decoration-line:none;text-decoration-style:solid;text-decoration-color:#000000;letter-spacing:normal;word-spacing:normal;text-transform:none;direction:ltr;block-progression:tb;writing-mode:lr-tb;baseline-shift:baseline;text-anchor:start;white-space:normal;clip-rule:nonzero;display:inline;overflow:visible;visibility:visible;opacity:1;isolation:auto;mix-blend-mode:normal;color-interpolation:sRGB;color-interpolation-filters:linearRGB;solid-color:#000000;solid-opacity:1;fill:#000000;fill-opacity:1;fill-rule:evenodd;stroke:none;stroke-width:2.5;stroke-linecap:round;stroke-linejoin:miter;stroke-miterlimit:7;stroke-dasharray:none;stroke-dashoffset:16.79999924;stroke-opacity:1;color-rendering:auto;image-rendering:auto;shape-rendering:auto;text-rendering:auto;enable-background:accumulate" />
      </g>
      <g
         id="g5752"
         transform="translate(804,0)">
        <path
           id="path5268"
           d="m 837.2295,804.89572 83.3038,82.06026"
           style="opacity:1;fill:none;fill-opacity:1;fill-rule:evenodd;stroke:#000000;stroke-width:8.69999981;stroke-linecap:butt;stroke-linejoin:bevel;stroke-miterlimit:4;stroke-dasharray:none;stroke-dashoffset:16.79999924;stroke-opacity:1" />
        <ellipse
           style="opacity:1;fill:none;fill-opacity:1;fill-rule:evenodd;stroke:#000000;stroke-width:8.69999981;stroke-linecap:butt;stroke-linejoin:bevel;stroke-miterlimit:4;stroke-dasharray:none;stroke-dashoffset:16.79999924;stroke-opacity:1"
           id="ellipse5413"
           cx="876.95068"
           cy="843.4563"
           rx="57.44186"
           ry="57.441856" />
      </g>
    </g>
  </g>
</svg>
