<?xml version="1.0" encoding="UTF-8" standalone="no"?>
<svg
   xmlns:dc="http://purl.org/dc/elements/1.1/"
   xmlns:cc="http://creativecommons.org/ns#"
   xmlns:rdf="http://www.w3.org/1999/02/22-rdf-syntax-ns#"
   xmlns:svg="http://www.w3.org/2000/svg"
   xmlns="http://www.w3.org/2000/svg"
   style="enable-background:new"
   version="1.1"
   id="svg5142"
   viewBox="0 0 123.58372 123.58372"
   height="34.878071mm"
   width="34.878071mm">
  <defs
     id="defs5144" />
  <metadata
     id="metadata5147">
    <rdf:RDF>
      <cc:Work
         rdf:about="">
        <dc:format>image/svg+xml</dc:format>
        <dc:type
           rdf:resource="http://purl.org/dc/dcmitype/StillImage" />
        <dc:title></dc:title>
      </cc:Work>
    </rdf:RDF>
  </metadata>
  <g
     transform="translate(-302.57712,-265.41572)"
     style="display:inline"
     id="layer2">
    <g
       transform="translate(-1304.5817,-644.24872)"
       id="g5894">
      <ellipse
         style="opacity:1;fill:#ffffff;fill-opacity:1;fill-rule:evenodd;stroke:#000000;stroke-width:8.69999981;stroke-linecap:butt;stroke-linejoin:bevel;stroke-miterlimit:4;stroke-dasharray:none;stroke-dashoffset:16.79999924;stroke-opacity:1"
         id="ellipse5782"
         cx="1668.9507"
         cy="971.4563"
         rx="57.44186"
         ry="57.441856" />
      <g
         id="g5855"
         transform="matrix(1.2143095,0,0,1.2711483,-158.18848,44.728846)"
         style="fill:#ffffff">
        <path
           id="path5857"
           d="m 1502.6816,706.36523 0,29.88868 29.1192,0 0,-21.6836 -2.2422,0 0,-3.70898 2.2422,0 0,-4.4961 -29.1192,0 z m 14.8047,9.05079 a 4.9385533,4.9385533 0 0 1 4.9395,4.93945 4.9385533,4.9385533 0 0 1 -4.9395,4.9375 4.9385533,4.9385533 0 0 1 -4.9375,-4.9375 4.9385533,4.9385533 0 0 1 4.9375,-4.93945 z"
           style="opacity:1;fill:#ffffff;fill-opacity:1;fill-rule:evenodd;stroke:#000000;stroke-width:1.33800352;stroke-linecap:butt;stroke-linejoin:miter;stroke-miterlimit:4;stroke-dasharray:none;stroke-dashoffset:16.79999924;stroke-opacity:1" />
        <path
           style="opacity:1;fill:#ffffff;fill-opacity:1;fill-rule:evenodd;stroke:#000000;stroke-width:1.08727491;stroke-linecap:butt;stroke-linejoin:miter;stroke-miterlimit:4;stroke-dasharray:none;stroke-dashoffset:16.79999924;stroke-opacity:1"
           d="m 1518.8549,729.73441 0,2.32781 c 0,0.94854 -0.8545,1.29009 -1.5186,1.29009 -0.6641,0 -1.5186,-0.33186 -1.5186,-1.29009 l 0,-2.32781 c 0,-0.97505 0.8444,-1.33507 1.5186,-1.33507 0.6742,0 1.5186,0.36976 1.5186,1.33507 z"
           id="path5859" />
      </g>
      <g
         id="g5890">
        <path
           style="opacity:1;fill:#ffffff;fill-opacity:1;fill-rule:evenodd;stroke:#000000;stroke-width:1.5;stroke-linecap:round;stroke-linejoin:miter;stroke-miterlimit:7;stroke-dasharray:none;stroke-dashoffset:16.79999924;stroke-opacity:1"
           d="m 1659.9334,989.10645 c -9.4558,8.10977 -7.5126,16.36385 0,24.68835 l 23.9748,-9.5585 c -7.5126,-8.32456 -9.4558,-16.57861 0,-24.68838"
           id="path5888" />
        <path
           id="path5878"
           d="m 1679.334,946.3457 c -2.0881,0.003 -4.1585,0.38345 -6.1113,1.12305 l -34.4922,10.74023 c -7.2123,4.5735 -13.0596,35.06372 13.1816,34.27149 l 33.8438,-12.72852 c 6.581,-2.62661 10.8991,-8.9962 10.9023,-16.08203 10e-5,-9.56793 -7.7563,-17.32429 -17.3242,-17.32422 z"
           style="opacity:1;fill:#ffffff;fill-opacity:1;fill-rule:evenodd;stroke:#000000;stroke-width:1.5;stroke-linecap:round;stroke-linejoin:miter;stroke-miterlimit:7;stroke-dasharray:none;stroke-dashoffset:16.79999924;stroke-opacity:1" />
      </g>
      <g
         transform="matrix(1.3792845,0,0,1.3600229,-446.95452,-8.0494803)"
         id="g5804"
         style="fill:#ffffff">
        <path
           style="opacity:1;fill:#ffffff;fill-opacity:1;fill-rule:evenodd;stroke:#000000;stroke-width:1.21372426;stroke-linecap:butt;stroke-linejoin:miter;stroke-miterlimit:4;stroke-dasharray:none;stroke-dashoffset:16.79999924;stroke-opacity:1"
           d="m 1502.6816,706.36523 0,29.88868 29.1192,0 0,-21.6836 -2.2422,0 0,-3.70898 2.2422,0 0,-4.4961 -29.1192,0 z m 14.8047,9.05079 a 4.9385533,4.9385533 0 0 1 4.9395,4.93945 4.9385533,4.9385533 0 0 1 -4.9395,4.9375 4.9385533,4.9385533 0 0 1 -4.9375,-4.9375 4.9385533,4.9385533 0 0 1 4.9375,-4.93945 z"
           id="path5806" />
        <path
           id="path5808"
           d="m 1518.8549,729.73441 0,2.32781 c 0,0.94854 -0.8545,1.29009 -1.5186,1.29009 -0.6641,0 -1.5186,-0.33186 -1.5186,-1.29009 l 0,-2.32781 c 0,-0.97505 0.8444,-1.33507 1.5186,-1.33507 0.6742,0 1.5186,0.36976 1.5186,1.33507 z"
           style="opacity:1;fill:#ffffff;fill-opacity:1;fill-rule:evenodd;stroke:#000000;stroke-width:0.98628438;stroke-linecap:butt;stroke-linejoin:miter;stroke-miterlimit:4;stroke-dasharray:none;stroke-dashoffset:16.79999924;stroke-opacity:1" />
      </g>
      <g
         id="g5851"
         transform="translate(-140,0)">
        <path
           id="path5826"
           d="m 1769.2295,932.89572 83.3038,82.06028"
           style="opacity:1;fill:none;fill-opacity:1;fill-rule:evenodd;stroke:#000000;stroke-width:8.69999981;stroke-linecap:butt;stroke-linejoin:bevel;stroke-miterlimit:4;stroke-dasharray:none;stroke-dashoffset:16.79999924;stroke-opacity:1" />
        <ellipse
           style="opacity:1;fill:none;fill-opacity:1;fill-rule:evenodd;stroke:#000000;stroke-width:8.69999981;stroke-linecap:butt;stroke-linejoin:bevel;stroke-miterlimit:4;stroke-dasharray:none;stroke-dashoffset:16.79999924;stroke-opacity:1"
           id="ellipse5828"
           cx="1808.9507"
           cy="971.4563"
           rx="57.44186"
           ry="57.441856" />
      </g>
      <g
         id="g5873"
         transform="translate(-124,-0.63042648)">
        <g
           id="g5869">
          <path
             style="opacity:1;fill:#ffffff;fill-opacity:1;fill-rule:evenodd;stroke:#000000;stroke-width:1.5;stroke-linecap:round;stroke-linejoin:miter;stroke-miterlimit:7;stroke-dasharray:none;stroke-dashoffset:16.79999924;stroke-opacity:1"
             d="m 1760.5159,978.74587 9.7461,-3.15834 c 1.2565,-0.44894 2.0958,-1.63839 2.0977,-2.97266 4e-4,-1.7458 -1.4144,-3.16144 -3.1602,-3.16211 l 0,3.6e-4 c -0.1907,10e-4 -0.3809,0.0194 -0.5683,0.0547 l -9.8963,3.17751"
             id="circle5863" />
          <circle
             style="opacity:1;fill:#ffffff;fill-opacity:1;fill-rule:evenodd;stroke:#000000;stroke-width:1.5;stroke-linecap:round;stroke-linejoin:miter;stroke-miterlimit:7;stroke-dasharray:none;stroke-dashoffset:16.79999924;stroke-opacity:1"
             id="path5861"
             cx="1759.1948"
             cy="975.85608"
             r="3.1614096" />
        </g>
      </g>
    </g>
  </g>
</svg>
