<?xml version="1.0" encoding="UTF-8" standalone="no"?>
<svg xmlns:rdf="http://www.w3.org/1999/02/22-rdf-syntax-ns#" xmlns="http://www.w3.org/2000/svg" height="89.83mm" width="137.04mm" version="1.1" xmlns:cc="http://creativecommons.org/ns#" xmlns:dc="http://purl.org/dc/elements/1.1/" viewBox="0 0 485.56526 318.29374">
 <g transform="translate(191.77 -842.87)" stroke="#000" stroke-linecap="square" stroke-miterlimit="10" fill="#fff">
  <path style="color-rendering:auto;color:#000000;isolation:auto;mix-blend-mode:normal;shape-rendering:auto;solid-color:#000000;image-rendering:auto" d="m123.43 6.6876c-15.3 0.4962-31.849 5.4084-46.326 17.529-7.986 6.687-13.695 17.538-14.452 24.9-1.2534 12.19-6.8729 7.0412-8.996 5.1267-3.3222-2.9958-5.6414-5.2343-7.7969-7.8711-2.678-3.276-4.8585-6.0174-6.4316-9.2031-2.1511-4.356-4.2601-1.5572-3.0352 1.1992 3.2393 7.2889 8.2946 13.536 13.189 18.305 2.949 2.8728 0.12099 5.7029-1.0684 8.2578-1.6737 3.5954-2.7961 8.1451 1.5469 13.102 2.2475 2.565 6.6352 4.4287 10.951 3.6953 2.5856-0.43937 2.5313 1.1122 3.5961 2.2523 0.9176 0.98249 1.9062 1.5534 3.9056 1.3398 3.5352-0.37762 3.142-2.8504 5.9123 0.85124 3.3575 4.4862 7.7723 12.307 9.9141 10.82 3.3818-2.348-2.7905-9.2133-6.1362-14.065-1.9007-2.7562-3.5529-5.7585-4.4098-8.1048-2.7019-7.3984 0.46293-8.8579 6.4041-9.2118 8.7621-0.52195 26.295-1.3462 40.045-6.2527 14.566-5.1976 34.734-17.187 34.734-33.528 0-15.32-18.634-19.561-31.546-19.142zm1.8683 4.5397c8.9131-0.39553 24.578 4.5014 24.578 15.373 0 11.597-10.087 17.785-16.514 21.368-7.0542 3.9326-14.012 7.3535-23.988 9.4067-7.3613 1.5151-17.57 2.1909-24.508 2.1909-9.4883 0-15.799-0.1395-15.799-6.9922s6.1093-21.766 18.117-29.033c11.526-6.976 24.604-11.714 38.114-12.314zm-58.579 60.198c0.15425 3.2056-3.6274 6.9778-7.5773 7.0546-4.333 0.0842-8.0831-4.4443-8.1356-7.8979-0.05537-3.6414 2.8545-7.4698 5.6367-7.707 5.85-0.49872 9.8759 4.3885 10.076 8.5504zm1.1895 6.1684c1.5416 0 2.4548 1.2284 2.3086 2.4707-0.14615 1.2423-0.97903 1.9863-2.5137 1.9863-1.5346 0-2.0078-0.94646-2.0078-1.8965 0-0.95001 1.0345-2.5605 2.2129-2.5605z" transform="translate(-197.59 836.81)" stroke-width="1.1978"/>
  <path style="color-rendering:auto;color:#000000;isolation:auto;mix-blend-mode:normal;shape-rendering:auto;solid-color:#000000;image-rendering:auto" d="m210.82 51.6c-22.211-0.20449-48.227 12.18-75.35 24.307-14.727 6.5845-28.991 13.819-39.576 21.557-1.8685 1.3658-5.0855 3.2656-6.6113 1.6777-0.86743-0.90269-3.763 0.63189-3.2776 2.205 0.86396 2.7997 0.15818 2.5398-2.4883 4.7266-8.4503 6.9823-16.052 12.758-21.092 17.588-12.651 12.124-29.515 29.569-39.531 41.693-10.015 12.124-16.163 28.299-16.404 37.701-0.36542 14.228 0.36084 19.394 8.7949 8.3242s7.3353-10.102 10.498-15.373c3.1628-5.2713 2.4239-0.6231 13.805-10.283 3.0842-2.6178 5.4024-5.5628 9.6176-8.423 3.6072-2.4477 17.992-11.013 25.899-11.013s13.612 5.6066 23.641 5.7168c6.1315 0.067 10.878 0.67538 12.447 2.3926 1.1169 1.2223 0.52093 2.8044 0.14154 5.4866-0.64776 4.5796 1.0445 6.2021 3.6583 7.5571 1.2607 0.65352 3.6286 1.4178 6.7909 1.4117 5.6021-0.0108 10.4-0.94918 18.215-2.9062 2.0368-0.5258 3.8591 0.39788 5.2246 2.6719 3.9344 6.552 6.0804 8.6991 12.145 8.709 2.0271 0 3.1892 0.56383 3.1348 1.5195-0.47983 8.4204-7.5033 20.36-27.281 37.139-19.969 16.941-25.983 18.525-38.961 23.41-6.2009 2.3342-10.801 5.8028-12.055 8.1582-1.8225 3.4252 1.2858 5.5158 5.4179 5.0571 5.76-0.63938 6.6041-1.0265 13.966-3.6662 20.094-7.205 42.175-26.865 51.663-35.299 8.616-7.6586 9.857-9.2182 10.436-4.7637 0.22472 1.7303 0.58712 1.2148 1.8008 0.72266 5.5854-2.2649 18.601-4.2331 26.121-4.7031 4.4466-0.27795 8.5713-0.61019 12.656 0.48438 5.9011 1.5812 1.1211 4.3156 1.4141 6.1699 0.19383 1.2278 1.4313 2.1926 2.3125 2.1348 1.3291-0.0872 1.9094 0.0709 1.9394 2.3926 0.0265 2.0464-0.72872 4.3765-1.6406 6.5879-4.3234 10.484-14.457 21.361-25.455 29.666-7.7394 5.8445-12.364 8.4918-23.312 14.314-4.3105 2.2923-7.5165 0.3229-9.625 1.9043-2.1085 1.5813 0.71169 3.0867-3.8848 5.0566-13.874 5.9461-46.719 13.798-68.218 15.298-21.198 1.479-31.785-7.5491-31.785-15.456 0-7.9068 2.6715-12.985 6.0299-18.153 1.5188-2.3372 3.3582-4.9248 4.2497-6.8075 1.6449-3.4735-0.49654-5.7056-4.0232-5.0499-3.7511 0.6975-9.4605 4.2691-13.732 8.541-6.338 6.32-11.425 13.47-11.425 17.16s1.3757 3.9332 3.4492 7.8965c1.9674 3.7604 0.20498 6.7188 4.4141 11.199 4.6118 4.909 11.816 14.237 39.338 13.826 22.421-0.3347 44.646-6.0398 59.564-11.096 9.0169-3.056 12.278-3.8426 17.43-5.9297 3.7039-1.5003 6.4949-2.1674 11.235-0.57356 4.6619 1.5676 7.4456 2.3889 12.979 2.6356 6.7479 0.30081 11.513-0.0862 17.601-2.3647 9.4833-3.5496 2.4198-5.7782-2.8516-3.1426-5.2713 2.6356-13.399 1.8687-19.492 0.9668-5.4122-0.80105-8.4781-1.9478-7.406-3.3354 0.60435-0.78218 2.7743-1.1617 5.7644-2.7667 10.334-5.547 12.384-5.8488 23.319-13.356 5.0081-3.4383 20.035-15.814 27.872-28.432 2.9958-4.8232 4.8264-8.4764 6.4943-11.106 2.0528-3.2358 4.4229-5.8747 9.367-7.038 8.9612-2.1085 7.5156-4.4506 7.5156-7.6133 0-3.1628-0.52125-3.755 4.291-6.5488 7.208-4.1846-1.7581-5.467-8.1641-3.6172-7.6976 2.2228-9.0387-0.66697-15.355-4.9727-7.0233-4.7873-17.633-5.617-22.377-5.0898-7.2751 0.80838-11.742 3.0854-6.4863-4.4805 4.0864-5.8822 17.718-22.561 24.127-31.293 6.3156-8.6045 11.066-10.948 11.066-2.5137 0 8.434 7.0705 17.002 17.086 17.002 10.015 0 20.822-2.2474 34.756-10.85 6.8362-4.2205 15.428-10.948 21.781-16.965 7.8677-7.4514 15.54-15.42 18.562-25.238 1.9313-6.2735 2.2441-12.609 2.2441-14.701 0-3.1628 0.97714-6.3954 4.6523-6.7246 5.1367-0.46008 12.159-0.50189 16.048-0.0163 5.1368 0.64139 8.8557 1.4486 6.4836 5.0478-1.4355 2.1781-4.7877 4.8017-7.3483 7.0114-7.7416 6.6808-11.719 11.092-19.043 17.85-6.3017 5.8148-12.273 13.08-16.984 19.415-4.5358 6.0976-7.8439 17.376-7.8455 24.931-0.002 9.2446 5.8347 19.144 11.377 14.719 2.6154-2.0882 0.00086-4.7434 2.1094-7.9062s3.6308 1.2741 3.6308-11.904c0-7.8795 5.7868-17.111 11.939-24.479 4.1375-4.9551 8.1931-8.9505 11.449-11.833 11.873-10.51 26.106-16.906 38.045-17.537 4.2112-0.2227 10.314-0.13786 10.314 6.7148s-2.54 12.007-8.9609 21.086c-6.2411 8.8244-13.314 16.405-21.613 22.666-8.3276 6.2825-16.432 11.262-21.871 13.236-3.5732 1.2968-18.718 13.12-7.1211 14.174 11.597 1.0542 20.193-3.1071 31.805-12.474 12.651-10.206 20.382-17.575 29.344-28.641 8.9631-11.068 6.6584-3.1758 6.8516 5.7988 0.20602 9.5742 5.6781 18.292 8.6054 22.36 5.5902 7.7687 16.795 10.099 24.586 9.6993 11.43-0.58586 24.391-7.9306 28.482-10.975 3.4093-2.5373 5.458-0.77821 5.6719 2.6934 0.22268 3.6146-1.9607 10.387-6.6133 21.205-2.387 5.55-5.3868 11.386-8.2188 16.676-7.3507 13.731-16.039 26.571-22.906 26.283-6.2203-0.2606-13.678-7.1558-24.996-13.758-7.7416-4.5159-18.359-9.8038-27.627-13.666-20.037-8.3504-52.474-16.987-80.783-16.525-7.3959 0.12056-13.166-0.035-17.328 0.0645-9.7128 0.23212-9.1919 4.7958-0.006 4.3047 2.5054-0.13394 6.4077 0.0485 10.375 0.13282 29.231 0.62132 41.414 4.5134 60.186 8.9707 24.456 5.8071 46.599 17.917 64.252 29.16 4.8092 3.063 12.208 9.2213 6.2363 15.924-8.3863 9.4132-22.318 18.917-37.881 25.088-21.294 8.4434-45.098 13.383-59.896 13.537-35.878 0.37276-63.892-13.259-62.838-24.855 1.0543-11.597 19.402-33.802 63.211-34.088 24.253-0.1582 27.887 6.1958 32.23 6.0137 4.5292-0.18999 4.4297-1.6077 4.4297-3.3555 0-1.1159 0.0867-4.8566-9.4082-8.9473-5.3765-2.3164-12.241-3.7989-26.725-3.7246-27.216 0.13954-45.723 6.2796-57.499 14.213-15.367 10.352-19.354 25.628-19.354 31.157 0 7.5854 8.039 30.517 76.007 33.14 57.478 2.2183 94.367-27.419 102.79-34.789 2.8609-2.5028 10.956-11.988 19.148-3.2871 5.3472 5.6786 13.353 15.706 19.562 24.459 2.8344 3.9958 5.9084 8.5521 7.1367 11.014 4.1571 8.3311 7.4407 5.3024 2.8008-4.3828-2.2746-4.748-3.785-7.7408-8.3203-14.566-4.1148-6.1927-8.0751-10.98-11.99-15.553-8.1583-9.5286-9.7002-13.526-4.2733-20.095 10.015-12.124 22.531-30.797 29.561-47.02 8.9391-20.631 14.125-54.658 13.639-78.663-0.3632-17.919-1.448-28.964-10.953-40.548-9.5491-11.637-13.08-4.7971-13.208 1.5608-0.0947 4.703 1.2271 11.179 2.1257 16.193 0.66535 3.7126 1.2687 8.5021 1.4764 21.74 0.57127 36.414-27.411 49.551-37.953 50.078-10.543 0.5272-15.516-7.7937-15.812-15.814-0.35147-9.5202 10.254-31.292 16.867-41.643 6.6192-10.361 12.672-20.599 5.7988-20.559-6.1703 0.0365-16.688 6.2039-27.752 18.52-2.5402 2.8275-2.704 4.0649-2.8301-0.0449-0.59055-19.252-11.6-19.543-27.768-18.01-0.73458 0.0697-0.97896-0.25714-1.4258-0.70312-5.9574-5.9463-19.632-10.373-29.734-10.836-4.2448-0.19461-7.8256-0.32317-12.481-0.1582-4.2042 0.14898-6.2572-0.5099-3.1649-3.4764 3.4534-3.3129-0.32442-5.0839-5.1682 0.4165-2.9772 3.3808-7.6871 3.9767-11.482 4.3143-11.084 0.98604-13.128 4.1516-19.974 2.4895-5.9469-1.4439-13.526-0.0446-19.147 2.6527-9.4991 4.5585-10.699 8.2553-18.553 8.6893-7.4434 0.41124-11.317 4.8292-7.627 7.4648 3.5844 2.5603 1.5809 5.0532-3.3711 9.543-1.8502 1.6775-2.0352-0.20177-2.0352-2.1777 0-6.3943-3.8083-8.5055-10.961-3.3965-7.3798 5.2713-11.577 11.038-17.902 14.201-6.3256 3.1628-20.469 3.5332-24.686 3.5332s-9.4876 4.6033-3.1621 4.0762c6.3256-0.52715 8.2791-0.36328 12.496-0.36328 5.666 0 6.6554 1.2081 4.5469 3.8438s-6.6528 6.1111-19.831 16.127-10.583 4.9126-17.395 3.1641c-2.868-0.73618-5.3946-3.9252-3.4951-7.9566 1.5871-3.3683 4.3857-6.9259 8.2188-12.689 1.1881-1.7865 3.1712-2.485 4.6875-2.5449 2.481-0.098 3.0131-0.65679 2.6367-3.2988-0.24176-1.6971 0.2585-3.1395 1.1133-3.998 1.1336-1.1386 2.8843-2.6395 4.5766-4.1796 11.275-10.261 26.896-18.36 34.82-19.371 7.9128-1.0095 3.0364 6.426 10.375 4.9922 5.8279-1.1386 10.559-8.3205 11.97-11.332 1.8882-4.0306 2.4084-13.432-8.6613-13.432s-25.197 5.1998-35.699 12.345c-3.7244 2.5342-5.9971 4.1258-8.6406 5.9311-5.2122 3.5595-4.5121 0.62289-1.3838-3.0135 1.3199-1.5343 3.0402-3.3863 4.8484-5.3227 8.5111-9.1152 21.062-24.99 25.806-32.37 4.7441-7.3798 14.76-20.559-7.9062-21.613-0.70833-0.033-1.4222-0.05199-2.1387-0.05859zm-21.73 18.369c17.015 0.66695 8.0556 11.208 0.67578 19.115-7.3799 7.907-26.884 30.048-35.318 38.482-1.9848 1.9848-4.0891 4.3972-6.625 6.4902-2.6639 2.1987-6.1983 0.84785-8.7539 0.0234-1.0443-0.3369-4.5584-1.8496-7.8633-3.2168-5.167-2.1375-15.459-8.81-17.623-10.355-3.3446-2.3887-5.2199-0.39996-2.0762 3.4824 1.0514 1.2984 3.5066 2.8404 6.0332 4.7383 5.0738 3.8113 14.752 9.106 17.184 9.8105 3.4726 1.0063 4.7834 3.4291 2.3066 5.9902-3.6454 3.5932-6.6149 6.6448-7.8848 8.3379-1.4847 1.9795-4.0013 1.1447-7.459-0.72266-6.1627-3.3282-15.143-3.7085-21.979-3.4648-14.157 0.5047-39.176 9.5846-47.102 12.977-4.1611 1.7807-6.766 2.639-4.2598-1.5938 7.3-12.329 19.806-24.22 32.65-35.088 3.7598-3.181 7.2104-6.6126 10.988-9.5215 1.811-1.3944 4.2717-1.9729 5.7793-1.2109 2.3083 1.1666 4.404-0.37289 4.4844-2.6562 0.0772-2.1942 2.0887-4.416 3.6016-5.3359 22.727-13.82 67.806-36.886 83.24-36.281zm108.6 39.016c0.62047-0.0542 1.382 0.38347 2.5 1.4141 4.1709 3.8446 6.5176 11.566 6.5176 17.244 0 5.7984-5.9702 19.101-20.203 30.697-14.233 11.597-24.276 17.293-33.214 16.642-7.4457-0.54293-7.8989-6.1796-7.734-8.9694 0.34876-5.9006 6.6798-15.691 16.695-25.707 2.0792-2.0792 6.211-5.7749 11.244-7.7604 2.4702-0.97446 1.5857-4.5578 4.6856-6.8887 8.2561-6.2081 15.046-9.7992 17.365-14.227 0.78153-1.4922 1.3448-2.3757 2.1426-2.4453zm-38.639 7.6152c1.8723 0.10865 2.1052 2.0578 1.3574 2.9551-0.79759 0.95711-3.1103 0.71819-3.8281-0.39844-0.71784-1.1166 0.47903-2.473 2.0742-2.5527 0.13957-0.01 0.27166-0.0109 0.39648-0.004zm-72.41 71.689c0.46109-0.007 0.91897 0.0892 1.5117 0.24805 0.68849 0.18448-0.71686 2.1026-1.7793 3.3496-0.82522 0.96859-0.0465 0.14014-3.7266 4.4258-1.6193 1.8858-3.0703 3.6391-3.6484 2.9609-0.47638-0.55878-0.39738-2.0702 0.0605-3.3809 0.71495-2.0464 2.4022-5.6185 6.0566-7.2207 0.60096-0.26347 1.0643-0.37546 1.5254-0.38282zm50.822 36.736c2.4254 0.11492 3.4582 1.5178 3.4356 3.0547-0.0424 2.8856-4.2549 7.1037-7.5 6.9688-2.4182-0.10059-2.4805-1.4899-2.4805-2.5508s2.768-7.6516 6.5449-7.4727zm187.75 36.166c0.75091-0.0655 2.0813 1.3742 2.9414 2.3418 1.3762 1.5482 0.51514 2.9237-1.2051 3.0957-1.7202 0.17202-2.2363-2.2354-2.2363-3.2676-0.19353-1.5482 0.0494-2.1306 0.5-2.1699z" transform="translate(-197.59 836.81)" stroke-width="1.1978"/>
  <g>
   <path style="color-rendering:auto;color:#000000;isolation:auto;mix-blend-mode:normal;shape-rendering:auto;solid-color:#000000;image-rendering:auto" d="m165.13 891.47c-0.17201-6.6419-1.664-7.0045-3.1863-7.1429-1.5223-0.13839-1.5426 2.3719-2.0758 5.2588-0.95358 5.1631-2.1401 9.8748-4.0975 13.566-1.8632 3.5139-3.3755 6.0945-7.5271 10.652-2.4062 2.6412-3.5828 4.9613-1.1028 4.728 3.36-0.31613 6.6058-3.3337 8.256-5.1946 1.5645-1.7642 5.1413-6.2081 7.0024-9.8246 2.1589-4.1951 2.8322-8.1416 2.7312-12.043z"/>
   <path style="color-rendering:auto;color:#000000;isolation:auto;mix-blend-mode:normal;shape-rendering:auto;solid-color:#000000;image-rendering:auto" d="m86.52 961.55c3.7365-2.2142 6.5043-3.1829 9.1336-4.7052 2.6294-1.5223 5.8123-0.69194 1.5223 2.6294s-4.8436 3.8749-8.3033 5.5355c-3.4597 1.6607-7.6114-1.2455-2.3526-3.4597z"/>
   <path style="color-rendering:auto;color:#000000;isolation:auto;mix-blend-mode:normal;shape-rendering:auto;solid-color:#000000;image-rendering:auto" d="m-45.577 988.12c1.0767-1.4586 2.0897-2.7638 3.1551-3.2916 2.3812-1.1797 4.1046 0.37618 0.86956 4.6427-3.9671 5.232-5.462 9.2566-7.618 12.275-1.0167 1.4234-2.2043 2.4908-3.7106 2.6855-1.688 0.2181-3.5333-0.704-1.1765-4.3241 2.7334-4.1984 6.3348-9.0811 8.4804-11.988z"/>
   <path style="color-rendering:auto;color:#000000;isolation:auto;mix-blend-mode:normal;shape-rendering:auto;solid-color:#000000;image-rendering:auto" d="m48.51 1071.8c3.9458-2.7767 7.1609-1.6076 5.6995 2.1921s-11.837 5.9918-5.6995-2.1921z"/>
   <path style="color-rendering:auto;color:#000000;isolation:auto;mix-blend-mode:normal;shape-rendering:auto;solid-color:#000000;image-rendering:auto" d="m-125.51 1056.8c2.6548-1.7178 4.1868-2.9171 6.3551-4.1888 3.297-1.9337 0.34559-3.5643-2.8221-3.378-3.1676 0.1864-6.8564 2.5708-7.6017 5.7384-0.74533 3.1677 0.28813 4.2747 4.0687 1.8284z"/>
   <path style="color-rendering:auto;color:#000000;isolation:auto;mix-blend-mode:normal;shape-rendering:auto;solid-color:#000000;image-rendering:auto" d="m-41.662 1109.9c3.3331-5.7731 10.131-13.218 13.139-15.276 3.0078-2.0579 6.4114-5.4615 9.1025-7.282 2.6912-1.8205 4.9074-4.8283 3.8785-6.0947-1.029-1.2665-2.8495-0.6332-5.7781 1.4247-2.9287 2.058-8.0736 5.9365-11.002 8.7859-2.9287 2.8495-8.7469 8.9222-10.606 12.348-1.5039 2.7704-2.2664 4.6991-2.2163 6.9654 0.05353 2.4211 1.0816 3.2881 3.4827-0.8707z"/>
   <path style="color-rendering:auto;color:#000000;isolation:auto;mix-blend-mode:normal;shape-rendering:auto;solid-color:#000000;image-rendering:auto" d="m-1.9275 1071.1c2.5065-0.9829 5.3376-0.2737 3.8785 2.612-1.1873 2.348-4.5117 3.8162-6.728 5.1449-2.068 1.2399-3.7202-0.7915-3.0869-2.2954 0.63322-1.5039 4.3978-4.8581 5.9364-5.4615z"/>
  </g>
 </g>
 <g transform="translate(-5.8201 -6.0608)" stroke="#000" stroke-linecap="square" stroke-miterlimit="10">
  <g fill="#af162b">
   <path style="color-rendering:auto;color:#000000;isolation:auto;mix-blend-mode:normal;shape-rendering:auto;solid-color:#000000;image-rendering:auto" d="m273.58 1054.7c-6.514 14.217-18.599 35.802-33.43 49.548-0.87875 0.8144-1.5576 3.146-1.3485 4.7009 0.44352 3.2984-0.95018 2.1998-3.1338 2.3241-1.5482 0.088-3.6042 1.163-4.3856 1.9009-8.0446 7.596-16.979 14.718-26.725 20.786-9.2742 5.7745-19.998 9.9092-28.854 12.876-22.804 7.6405-41.391 7.5412-51.528 7.7665-14.075 0.3128-34.309 0.2866-53.506-8.8909-18.318-8.7576-21.271-17.321-19.949-23.773 1.9954-9.7415 9.1827-18.996 20.681-26.137 17.034-10.579 37.31-12.945 54.772-12.945 5.3778 0 14.013 0.827 20.091 2.3123 5.2344 1.279 8.4693 3.0981 7.3115 4.69-2.5022 3.4405-9.6976-2.1894-15.73-2.5742-2.8265-0.1803-7.1027-0.5535-13.984-0.5535-6.881 0-32.844 1.5665-46.29 10.322-15.997 10.416-21.061 21.899-21.061 27.296 0 8.7577 17.933 28.065 67.038 27.126 49.105-0.9383 79.131-21.268 91.955-30.652 12.824-9.3832 42.224-37.846 53.171-75.065 10.947-37.22 1.2511-29.088 0.62555-28.15-0.62555 0.9383-15.434 17.187-35.452 17.5-13.708 0.2142-20.101-5.6481-24.95-14.814-2.2318-4.2183-3.1564-10.387-3.1564-16.499 0-19.392 10.387-33.729 17.581-41.548 2.5739-2.7978 6.4176-6.5686 9.5923-8.8112 5.6057-3.9598 10.469-4.9456 3.2081 6.0002-1.5014 2.2632-3.4314 4.9295-5.6646 8.9428-5.0636 9.0997-8.6381 16.636-11.111 22.725-5.4425 13.399-4.9709 18.954-4.0989 23.513 0.76389 3.9936 4.008 15.19 19.021 14.877 8.4006-0.175 21.004-6.8307 30.372-18.075 7.3738-8.8508 12.765-19.411 12.478-34.158-0.38467-19.811-2.0436-25.188-2.882-30.426-0.50728-3.1689-2.4486-8.1139-0.28247-10.124 5.3021-4.921 16.028 16.055 15.502 35.739-0.3559 13.315-1.266 25.007-3.0183 37.029-2.3127 15.866-6.2446 30.784-12.86 45.222z" transform="translate(197.59 -836.81)"/>
   <path style="color-rendering:auto;color:#000000;isolation:auto;mix-blend-mode:normal;shape-rendering:auto;solid-color:#000000;image-rendering:auto" d="m212.8 55.514c-18.812-0.04819-40.603 7.3062-62.139 17.113-19.26 8.7708-38.6 18.668-56.236 30.365-18.554 12.306-36.801 30.099-44.904 38.555-5.5035 5.7434-19.866 21.058-21.801 23.586-2.2722 2.9688-4.4413 4.6453-9.2695 13.57-3.5496 6.5614-5.5133 11.829-7.2715 22.557-1.49 9.0912 1.9654 8.106 3.7266 4.334 4.031-8.6336 12.455-20.723 18.477-30.559 15.566-25.423 32.321-44.808 58.977-64.596 20.665-15.34 44.236-26.663 67.949-36.664 9.9188-4.1834 19.018-7.014 29.648-8.7129 4.3288-0.69181 9.1166-1.8985 13.148-0.17773 1.9456 0.8304 3.2431 1.7409 3.6621 3.8145 1.6567 8.1994-11.854 20.989-17.887 27.521-20.817 22.54-50.881 53.601-62.537 67.564-5.3035 6.3535-11.037 10.812-10.832 17.35 0.0872 2.7851 4.2002 3.248 7.1484 3.2188 4.6476-0.0461 9.6593-1.5161 12.738-2.5898 3.5559-1.2401 8.5797-1.7138 13.943-1.8926-0.11928 1.0283-0.16584 1.8368-0.17968 2.4004-0.0687 2.7963-0.99648 10.56 11.758 10.76 2.2194 0.0347 4.4997-0.30405 6.7988-0.91211-1.9146 13.462-13.194 27.487-22.357 37.508-7.0055 7.6612-15.002 14.31-23.592 20.139-5.1016 3.4611-9.2441 6.3704-13.54 8.5105-7.9024 3.9363-13.189 4.9877-14.779 5.7552-6.294 2.8333-6.3426 5.004 0.92842 2.9695 14.638-4.0957 30.415-15.095 43.15-25.2 11.546-9.161 19.857-17.606 27.766-29.414 4.7726-7.1252 10.391-16.367 11.803-24.043 7.71-4.004 15.007-9.6884 20.293-13.447 8.9679-6.3771 9.1675-2.9884 4.7832 2.9902s-26.995 34.778-30.377 38.16-7.7423 9.4582-0.75586 8.3926c5.0459-0.7696 17.324-4.1133 28.033-4.1133 10.71 0 17.186 1.4713 17.682 12.135 0.56081 12.076-10.283 26.35-24.257 37.998-9.4214 7.8527-19.616 14.83-29.856 19.496-2.4299 1.1073-6.0883 1.9038-8.6816 3.1488-2.478 1.1896-3.7569 3.0695-6.444 4.1626-22.82 9.2834-52.262 14.984-72.703 15.384-23.498 0.46002-33.821-10.103-33.969-18.557-0.1861-10.669 12.007-24.977 10.191-26.121-1.6137-1.0167-7.9634 4.9442-10.725 7.9863-5.9767 6.7763-9.0496 11.213-7.5078 16.17 1.6473 5.0884 3.304 10.507 8.2754 15.389 4.0261 3.8454 11.629 10.068 33.152 10.467 19.354 0.35843 59.426-10.332 77.057-17.361 1.9755-0.78761 4.5116-0.89745 5.8629-1.5724 1.6594-0.82889 2.5154-2.314 4.2405-3.193 13.601-6.9304 28.856-15.457 39.674-26.201 11.349-11.27 23.067-26.242 25.648-38.021 0.14509-0.66206 0.1085-4.835 1.3357-4.6566 3.1488 0.45778 1.8744-2.4473 1.3616-2.9957-1.178-1.2597-2.5834-1.998-4.2424-4.1913-4.5394-6.0015-15.395-7.0752-18.81-7.2305-4.3843-0.1993-14.711 1.7022-18.732 2.3496-2.4924 0.4012-3.9576-1.6273-1.5957-4.9414 2.5367-3.5593 24.22-32.742 32.191-43.305 7.9714-10.562 10.601-14.289 18.428-27.242 8.1477-13.485 4.9827-15.145-1.5938-8.3691-6.5764 6.7757-24.071 21.828-29.725 26.727-3.7699 3.2662-15.969 14.994-28.992 22.115-0.13619-0.26743-0.28528-0.52756-0.44922-0.78125-3.73-5.7717-10.756-7.1067-17.654-7.3652 3.1611-9.9378 10.233-22.169 21.451-35.012 15.146-17.338 39.426-27.008 44.408-27.207 4.9821-0.19929 8.1708 5.1816 11.359 5.1816 3.1886 0 6.4508-8.0055 6.7754-9.5664 0.33154-1.5943 1.794-6.377-7.1738-6.1777-8.9679 0.19929-34.987 8.2922-56.467 30.473-17.523 18.095-24.61 32.887-27.482 42.359-3.1749 0.21319-7.6758 0.71319-10.367 1.1328-4.8897 0.76237-6.172-3.372-2.8223-9.2363 7.4075-12.968 28.066-32.005 41.9-47.402 12.476-13.886 25.238-27.39 36.215-42.205 7.2412-9.7729 11.508-18.538-3.2305-18.576zm-56.31 124.18c3.1779 0.0671 6.2757 0.58611 8.9023 2.6699 0.67359 0.53438 1.1729 1.0972 1.5566 1.6894-2.319 0.74308-4.6062 1.2399-6.8184 1.4141-2.3914 0-3.5878-1.5948-3.7871-4.1855 0.028-0.51426 0.0875-1.0508 0.14649-1.5879z"/>
   <path style="color-rendering:auto;color:#000000;isolation:auto;mix-blend-mode:normal;shape-rendering:auto;solid-color:#000000;image-rendering:auto" d="m-162.94 1016.3c5.328-5.2478 12.251-9.8255 24.516-15.52 6.7306-3.1249 24.412-9.2549 30.566-10.189 6.4214-0.9741 11.949-1.3324 15.459-1.054 7.0083 0.5561 17.567 1.5538 17.918 7.378 0.23366 3.8734-10.189 7.7292-18.269 7.7292-8.0806 0-10.497 0.218-17.918-2.108-5.1489-1.6138-6.5893-3.3364-9.1975-3.296-9.0907 0.1409-22.064 7.2501-27.666 10.534-5.6022 3.284-10.112 6.88-15.118 11.811-5.3911 5.3102-3.2988-2.3216-0.28975-5.2854z" transform="translate(197.59 -836.81)" stroke-width="1.1978"/>
   <path style="color-rendering:auto;color:#000000;isolation:auto;mix-blend-mode:normal;shape-rendering:auto;solid-color:#000000;image-rendering:auto" d="m85.318 954.09c-17.009 12.147-19.731 14.194-23.745 18.341-4.204 4.343-19.151 19.495-18.939 32.456 0.13308 8.118 4.3495 11.073 12.629 11.496 7.7166 0.3942 23.53-5.6379 40.245-20.843 10.486-9.5381 19.708-19.891 19.917-32.325 0.13644-8.118-2.346-10.98-4.0731-13.225-1.7271-2.2452-3.633-3.6015-3.7097-5.0236-0.15762-2.9216 11.527-5.3842 34.324-5.3842 22.798 0 36.442 6.3902 36.269 8.29-0.17271 1.8998-4.4904 3.9723-2.7633 5.8721s5.5267-3.1088 15.026-2.936c9.499 0.17271 15.889 6.3902 15.889 13.644s-9.1536 28.497-21.761 41.968c-12.608 13.471-37.995 31.909-46.631 31.778-2.763-0.042-4.145-1.5544 1.8998-5.1813s8.6354-3.1087 13.299-6.0448c4.6631-2.936 18.998-13.817 24.007-19.862 5.0086-6.0448 20.802-22.968 20.552-37.823-0.0958-5.6986-2.4179-8.6354-11.053-8.4627-8.6354 0.17271-26.943 1.5544-44.732 18.307s-26.187 32.135-25.734 39.723c0.23874 3.9988 0.17269 5.1813-1.209 6.9083-1.3817 1.7271-2.2452 1.3817-2.0725 5.354 0.17271 3.9723-4.8358 6.3902-5.0086-5.5267-0.17271-11.917 3.4631-20.062 6.7941-24.776 2.9116-4.1206 6.9499-8.7635 12.027-13.892 6.8352-6.9055 11.071-10.942 15.392-14.587 7.4602-6.2936 22.329-17.185 22.436-21.01 0.12057-4.3298-16.419-6.214-19.918-6.1958-2.7364 0.0143-22.728-1.6101-21.877 7.4047 0.86919 9.2095 0.81419 17.417-6.9084 27.633-8.3705 11.073-19.073 21.295-29.188 27.806-10.271 6.6114-22.775 12.783-34.002 12.947-11.857 0.1727-15.544-11.475-15.393-17.951 0.24947-10.714 11.614-25.172 19.862-34.542 4.5216-5.1366 11.13-12.369 17.065-17.615 6.0331-5.3333 11.693-7.5266 19.895-7.6051 5.6067-0.0536 0.57953 4.1765-8.8081 10.881z" transform="translate(197.59 -836.81)"/>
  </g>
  <path style="color-rendering:auto;color:#000000;isolation:auto;mix-blend-mode:normal;shape-rendering:auto;solid-color:#000000;image-rendering:auto" d="m65.433 230.51c3.9204 2.2404 7.2086 3.3122 10.941 3.1211 4.3666-0.22361 10.343-1.9244 16.462-4.6673 5.1993-2.3308 11.438-5.8916 15.133-10.052 3.4895-3.9295 5.3744-6.3822 5.4164-0.29392 0.042 6.0882-12.11 13.537-15.931 15.595-3.8209 2.0574-8.0361 3.723-13.982 5.1225-6.0968 1.435-10.344 1.4866-12.857 1.2862-6.9009-0.55024-10.15-3.208-11.021-5.0567-0.54918-1.1657-0.92492-4.4397 0.54212-5.6304 1.5583-1.2648 3.9571-0.18983 5.2973 0.5761z" fill="#fff"/>
 </g>
</svg>
