<?xml version="1.0" encoding="UTF-8" standalone="no"?>
<svg xmlns:rdf="http://www.w3.org/1999/02/22-rdf-syntax-ns#" xmlns="http://www.w3.org/2000/svg" height="851.89" width="966.34" version="1.1" xmlns:cc="http://creativecommons.org/ns#" xmlns:xlink="http://www.w3.org/1999/xlink" xmlns:dc="http://purl.org/dc/elements/1.1/">
 <defs>
  <linearGradient id="c">
   <stop offset="0"/>
   <stop offset=".35641"/>
   <stop stop-color="#5d5d5d" offset=".45280"/>
   <stop stop-color="#e3e3e3" offset=".61975"/>
   <stop stop-color="#d4d4d4" offset="1"/>
  </linearGradient>
  <linearGradient id="b" y2="578.03" gradientUnits="userSpaceOnUse" x2="1188.7" gradientTransform="translate(-500)" y1="909.59" x1="1003.9">
   <stop stop-color="#d3dbaa" offset="0"/>
   <stop stop-color="#f3f3c0" offset=".24201"/>
   <stop stop-color="#f5f8da" offset=".42007"/>
   <stop stop-color="#dee3c5" offset=".69864"/>
   <stop stop-color="#a4a593" offset="1"/>
  </linearGradient>
  <radialGradient id="a" xlink:href="#c" gradientUnits="userSpaceOnUse" cy="650.45" cx="562.67" gradientTransform="matrix(.91092 -.013148 .010913 .75612 43.026 166.03)" r="37.432"/>
  <filter id="d" style="color-interpolation-filters:sRGB" height="1.19" width="1.15" y="-.11" x="-.08">
   <feGaussianBlur stdDeviation="2.8999999999999999"/>
  </filter>
 </defs>
 <g transform="translate(107.7 -112.1)">
  <g>
   <rect style="color:#000000" ry="51.695" height="306.09" width="922.34" y="134.1" x="-85.705" fill="#fffecd"/>
   <rect style="color:#000000" ry="51.695" height="306.09" width="922.34" stroke="#000" y="134.1" x="-85.705" stroke-width="4" fill="none"/>
   <path stroke-linejoin="round" style="color:#000000" d="m361.36 437.68 46.753 70.53v-70.482" stroke="#000" stroke-width="4" fill="#fffecd"/>
  </g>
  <g stroke="#000">
   <g stroke-linejoin="round" stroke-linecap="round">
    <path style="color:#000000" d="m559.77 620.04c42.934-15.168 100.66-22.449 148.45-23.897 47.794-1.4483 27.518 1.4483 79.657 1.4483-8.6899 15.931-35.636 76.002-37.656 104.28-2.0198 28.276-11.587 86.899-23.173 108.62-11.586 21.725-21.725 62.278-101.38 133.25-78.209-18.828-240.42-52.139-304.15-65.174 53.588-17.38 86.899-34.76 99.934-55.036s37.656-60.829 55.036-95.589 40.344-92.731 83.278-107.9z" stroke-opacity=".38298" stroke-width=".5" fill="url(#b)"/>
    <path style="color:#000000" d="m774.58 618.82c-44.183-6.9036-78.701-9.665-104.24-7.5939-25.543 2.0711-64.894 4.8325-89.056 2.0711" stroke-width="2" fill="none"/>
    <path style="color:#000000" d="m370.84 866.94c58.139 9.428 249.84 43.997 279.7 51.854" stroke-width="2" fill="#dee3c5"/>
   </g>
   <g stroke-width="2" fill="none">
    <g stroke-linejoin="round" stroke-linecap="round">
     <path style="color:#000000" d="m391.26 849.66c58.139 18.856 155.56 15.713 180.7 21.999 25.141 6.2853 100.57 17.285 106.85 18.856"/>
     <path style="color:#000000" d="m686.67 871.66c-50.28-9.43-116.27-25.14-136.7-23.57s-117.85-11-139.85-14.14"/>
     <path style="color:#000000" d="m703.96 842.59c-36.93-4.72-105.28-11-129.64-13.36-24.35-2.35-122.56-3.93-146.92-10.21"/>
     <path style="color:#000000" d="m442.81 793.19c30.36 6.6644 83.675 12.588 119.96 7.4048 36.284-5.1834 127.36 11.848 157.72 14.81"/>
     <path style="color:#000000" d="m729.38 792.45c-51.84-10.36-111.08-16.29-134.03-14.07-22.955 2.2214-68.124 2.9619-82.934 1.481-14.81-1.481-43.688 0-55.536-3.7024"/>
     <path style="color:#000000" d="m462.8 755.43c44.429 7.4048 116.26-4.4429 153.28 0 37.024 4.4429 77.01 1.481 118.48 12.588"/>
     <path style="color:#000000" d="m743.44 744.32c-50.353-9.6263-99.965-14.81-125.14-13.329-25.176 1.481-62.201 3.7024-80.713 3.7024-19.253 0.74049-42.208 1.481-55.536-0.74048"/>
    </g>
    <path style="color:#000000" d="m361.41 885.8c53.425-20.427 84.852-31.427 103.71-76.996 18.856-45.569 42.426-87.995 56.568-114.71 14.142-26.713 43.998-58.139 67.568-80.138"/>
    <g stroke-linejoin="round" stroke-linecap="round">
     <path style="color:#000000" d="m487.11 713.74c48.711 0 110.78-4.714 150.06-5.4997 39.283-0.78567 76.21 2.357 111.56 8.6424"/>
     <path style="color:#000000" d="m493.4 694.1c48.711 1.5713 102.14-7.8567 144.56-7.8567 42.426 0 73.853 3.1427 113.14 10.999"/>
     <path style="color:#000000" d="m753.87 678.88c-29.685-4.8325-95.96-13.117-127.72-11.046-31.756 2.0711-103.55 12.426-113.91 9.665"/>
     <path style="color:#000000" d="m759.39 663c-46.944-10.355-89.746-14.498-118.74-11.736-28.995 2.7614-91.818 6.2132-116.67 3.4518"/>
     <path style="color:#000000" d="m760.77 645.74c-37.97-7.5939-71.107-13.117-102.17-10.355-31.066 2.7614-93.889 8.2843-124.26 3.4518"/>
     <path style="color:#000000" d="m769.06 632.62c-40.041-6.9036-69.036-14.498-112.53-9.665-43.493 4.8325-84.224 6.9036-100.1 3.4518"/>
    </g>
   </g>
  </g>
  <path opacity=".4" stroke-linejoin="round" style="color:#000000" d="m682.2 814.85c-27.565 14.568-34.822 19.424-44.103 34.599-9.2816 15.175 2.1647 2.428-10.014 17.603-12.178 15.175-44.804 27.315-78.847 29.743s-47.592-6.677-39.214-22.459c8.3784-15.782 29.651-44.311 42.017-61.307 12.365-16.996 27.44-32.171 47.763-46.739s39.182-24.28 78.645-23.066 24.746 17.603 10.777 26.708-42.64 29.743-52.638 42.49-17.613 16.389-22.908 30.35c-5.2949 13.961-21.429 20.638-39.899 21.852s-36.753 0.60701-30.742-10.926c6.0113-11.533 19.264-23.066 32.891-38.241" filter="url(#d)" stroke="#000" stroke-linecap="round" stroke-width="12" fill="none"/>
  <g>
   <path style="color:#000000;text-indent:0;block-progression:tb;text-decoration-line:none;text-transform:none" d="m531.44 520.41c-17.409 0.2274-30.106 5.8641-38.656 15.688-9.7714 11.227-14.132 26.677-17.812 44.344-7.3787 35.418-8.8311 72.208-5.9062 113.16 2.893 40.502 7.2038 108.5 13.094 146.78 3.0417 19.771 10.299 35.929 21.75 46.562s27.159 15.176 44.625 12c34.854-6.3371 58.612-38.364 57.062-77.094-0.36342-9.0855-0.63853-14.004-0.9375-17.094-0.29897-3.0893-0.95904-5.2618-1.5-6.3438-0.54096-1.0819-0.42147-0.48259-0.96875-2.9062-0.54728-2.4237-1.3318-7.1717-2.4062-16.125-4.2893-35.744-1.8166-44.946 12.594-79.531a6.0006 6.0006 0 1 0 -11.062 -4.625c-14.556 34.934-17.869 48.891-13.469 85.562 1.0981 9.1506 1.9362 14.186 2.6562 17.375 0.72 3.1886 1.7543 5.2274 1.9375 5.5938 0.18319 0.36639 0.0371-0.36665 0.28125 2.1562 0.24415 2.5229 0.51426 7.3878 0.875 16.406 1.3474 33.686-18.347 59.594-47.219 64.844-14.397 2.6176-25.456-0.80517-34.281-9-8.83-8.22-15.35-21.73-18.1-39.62-5.7-37.03-10.07-105.21-12.97-145.81-2.8684-40.158-1.417-75.774 5.6875-109.88 3.5611-17.093 7.8787-30.581 15.125-38.906 7.2463-8.3255 17.393-12.74 36.5-11.375 18.363 1.3116 25.744 9.6394 29.5 20.75 3.7557 11.111 2.572 25.472-0.0937 35.469-5.9258 22.222-16.214 71.168-14.688 103.22 1.4186 29.791-2.9247 39.396 4.4688 73.406 3.4551 15.894 2.507 26.95-0.53125 33.75-3.0383 6.8-7.758 10.001-14.875 11.188-8.1834 1.3639-16.068 1.4335-21.656-1.1562-5.5884-2.5898-10.002-7.4813-11.969-19.938-4.1848-26.504-1.375-53.785-1.375-90.312a6.0006 6.0006 0 1 0 -12 0c0 35.888-3.0051 63.655 1.5 92.188 2.3782 15.062 9.5557 24.648 18.812 28.938 9.2568 4.2897 19.46 3.6577 28.656 2.125 10.263-1.7105 19.31-7.9385 23.875-18.156 4.5654-10.218 5.0677-23.77 1.2812-41.188-7.0897-32.613-2.7407-40.399-4.2188-71.438-1.3704-28.778 8.6518-78.304 14.312-99.531 3.1276-11.728 4.8092-27.809-0.125-42.406s-17.841-27.29-40.031-28.875c-2.6808-0.19148-5.263-0.25124-7.75-0.21875z" stroke="#999" stroke-width="4" fill="#e6e6e6"/>
   <path style="color:#000000" d="m450.97 591.17c16.106-14.928 39.283-21.999 55.39-12.178-4.3212 5.4997-1.9642 3.5355-8.6424 9.0352-8.6424-5.4997-32.212-6.2854-46.747 3.1427z"/>
   <ellipse stroke-linejoin="round" stroke="#000" style="color:#000000" stroke-linecap="round" rx="36.932" transform="matrix(.92874 .19094 -.19094 .92874 165.26 -57.23)" ry="31.139" cy="650.45" cx="562.67" fill="url(#a)"/>
   <ellipse stroke-linejoin="round" stroke="#000" style="color:#000000" stroke-linecap="round" rx="36.932" transform="matrix(.92874 .19094 -.19094 .92874 77.261 -81.23)" ry="31.139" cy="650.45" cx="562.67" fill="url(#a)"/>
   <path style="color:#000000" d="m610.86 637.14c-7.8567-20.427-29.07-41.64-45.962-37.319 0 10.999 0 7.4638 1.9642 15.713 12.964-2.7498 22.784-3.1427 43.997 21.606z"/>
  </g>
  <text style="word-spacing:0px;letter-spacing:0px" xml:space="preserve" font-size="58.364px" line-height="150%" y="258.11765" x="-56.678379" font-family="Arial" fill="#000000"><tspan x="-56.678379" y="258.11765">It looks like you have no idea</tspan><tspan x="-56.678379" y="345.66397">what you&apos;re doing...</tspan></text>
 </g>
</svg>
