<?xml version="1.0" encoding="UTF-8" standalone="no"?>
<svg xmlns:rdf="http://www.w3.org/1999/02/22-rdf-syntax-ns#" xmlns="http://www.w3.org/2000/svg" xmlns:osb="http://www.openswatchbook.org/uri/2009/osb" height="138.29mm" width="409.93mm" version="1.1" xmlns:cc="http://creativecommons.org/ns#" xmlns:xlink="http://www.w3.org/1999/xlink" viewBox="0 0 1452.5 490.00002" xmlns:dc="http://purl.org/dc/elements/1.1/">
 <defs>
  <linearGradient id="b" osb:paint="solid">
   <stop offset="0"/>
  </linearGradient>
  <linearGradient id="a" gradientTransform="translate(0 10.755)" osb:paint="solid">
   <stop stop-color="#fff" offset="0"/>
  </linearGradient>
  <linearGradient id="d" y2="177.2" xlink:href="#a" gradientUnits="userSpaceOnUse" x2="1360.9" y1="177.2" x1="1133.1"/>
  <linearGradient id="c" y2="261.96" xlink:href="#b" gradientUnits="userSpaceOnUse" x2="1292.4" y1="261.96" x1="1079.4"/>
 </defs>
 <rect style="color-rendering:auto;color:#000000;isolation:auto;mix-blend-mode:normal;shape-rendering:auto;solid-color:#000000;image-rendering:auto" height="490" width="1452.5" y="0" x="0" fill="url(#b)"/>
 <g>
  <text style="letter-spacing:0px;color-rendering:auto;text-decoration-color:#000000;color:#000000;shape-rendering:auto;solid-color:#000000;text-decoration-line:none;text-rendering:auto;mix-blend-mode:normal;block-progression:tb;text-indent:0;image-rendering:auto;white-space:normal;text-decoration-style:solid;word-spacing:0px;isolation:auto;text-transform:none" font-family="Arial" xml:space="preserve" font-size="90px" line-height="110.00000238%" y="168.74171" x="77.571037" font-weight="bold" fill="url(#a)"><tspan x="77.571037" y="168.74171">Employees must</tspan><tspan x="77.571037" y="267.74173">wash hands before</tspan><tspan x="77.571037" y="366.74173">returning to work</tspan></text>
  <g transform="translate(0 .0000025832)">
   <rect stroke-linejoin="round" style="color-rendering:auto;color:#000000;isolation:auto;mix-blend-mode:normal;shape-rendering:auto;solid-color:#000000;image-rendering:auto" ry="32.304" height="315.24" width="315.93" stroke="url(#a)" stroke-linecap="round" y="87.38" x="1063.7" stroke-width="9" fill="none"/>
   <g transform="translate(-.65277 9.3716)">
    <g>
     <path style="color-rendering:auto;color:#000000;isolation:auto;mix-blend-mode:normal;shape-rendering:auto;solid-color:#000000;image-rendering:auto" d="m1230.9 102.7c-3.8083-0.16894-7.6242 1.5023-10.074 4.8086-3.92 5.29-2.8153 12.705 2.4746 16.625l25.492 20.045h-94.657c-5.6442 0-10.189 4.5433-10.189 10.188 0 5.6442 4.5452 10.189 10.189 10.189h60.449c2.4258 0 8-0.3076 8 4.1182s-5.5742 4.1182-8 4.1182h-71.289c-5.6442 0-10.188 4.5452-10.188 10.189 0 5.6442 4.5433 10.188 10.188 10.188h73.289c2.5104 0 8-0.35762 8 4.5518s-5.4896 4.5518-8 4.5518h-69.387c-5.6442 0-10.188 4.5452-10.188 10.189 0 5.6442 4.5433 10.188 10.188 10.188h69.387c3.033 0 8-0.69804 8 4.335s-4.967 4.335-8 4.335h-47.709c-5.6443 0-10.19 4.5452-10.19 10.189 0 5.6442 4.5452 10.188 10.19 10.188h111.85c5.9593 0 18.215-4.0302 21.26-6.9795l10.252-9.9287h48.642v-75.436h-50.391l-73.041-54.316c-1.9813-1.4734-4.2659-2.2346-6.5508-2.3359z" fill="url(#d)"/>
     <path stroke-linejoin="round" style="color-rendering:auto;color:#000000;isolation:auto;mix-blend-mode:normal;shape-rendering:auto;solid-color:#000000;image-rendering:auto" d="m1239.9 224.66c5.8532 0.00051 10.598-5.9224 10.598-13.229 0-4.0363-1.4857-7.849-4.0215-10.354 0.3285 0.0325 0.6583 0.0494 0.9883 0.0508 5.8524-0.00065 10.596-4.7943 10.596-10.707-0.0006-5.912-4.7441-10.704-10.596-10.705-0.4383 0.004-0.876 0.0351-1.3105 0.0937 0.728-1.3917 1.1101-2.9415 1.1133-4.5156 0.0005-5.3611-4.3011-9.7073-9.6075-9.707-3.8576 0.00012-7.3409 2.3314-8.8457 5.9199-3.9494-3.9439-11.001-6.354-18.607-6.3594-1.4865 0.005-2.9681 0.10281-4.4219 0.29102-0.3189-5.1126-4.5155-9.0946-9.5859-9.0957v0.00003c-4.5371 0.003-8.4536 3.2126-9.3926 7.6973-2.4783-1.7389-5.5955-2.6915-8.8144-2.6934-7.049 0.002-12.968 4.4922-13.74 10.424m102.54 27.391c-2.573-0.00006-4.6587 2.1075-4.6582 4.707 0.0006 2.5988 2.086 4.7051 4.6582 4.7051 2.5722 0.00006 4.6576-2.1063 4.6582-4.7051 0.0005-2.5995-2.0852-4.7071-4.6582-4.707z" stroke="url(#b)" stroke-linecap="round" stroke-width="9" fill="url(#a)"/>
     <path style="color-rendering:auto;color:#000000;isolation:auto;mix-blend-mode:normal;shape-rendering:auto;solid-color:#000000;image-rendering:auto" d="m1215.1 221.63c1.8963 1.9534 22.278 3.0229 24.736 3.0254 5.8532 0.00051 10.598-5.9224 10.598-13.229 0-4.0363-1.4857-7.849-4.0215-10.354 0.3285 0.0325 0.6583 0.0494 0.9883 0.0508 5.8524-0.00065 10.596-4.7943 10.596-10.707-0.0006-5.912-4.7441-10.704-10.596-10.705-0.4383 0.004-0.876 0.0351-1.3105 0.0937 0.728-1.3917 1.1101-2.9415 1.1133-4.5156 0.0005-5.3611-4.3011-9.7073-9.6075-9.707-3.8576 0.00012-7.3409 2.3314-8.8457 5.9199-3.9494-3.9439-11.001-6.354-18.607-6.3594-1.4865 0.005-2.9681 0.10281-4.4219 0.29102-0.3189-5.1126-4.5155-9.0946-9.5859-9.0957v0.00003c-4.5371 0.003-8.4536 3.2126-9.3926 7.6973-2.4783-1.7389-5.5955-2.6915-8.8144-2.6934-7.049 0.002-12.968 4.4922-13.74 10.424m102.54 27.391c-2.573-0.00006-4.6587 2.1075-4.6582 4.707 0.0006 2.5988 2.086 4.7051 4.6582 4.7051 2.5722 0.00006 4.6576-2.1063 4.6582-4.7051 0.0005-2.5995-2.0852-4.7071-4.6582-4.707z" fill="url(#a)"/>
    </g>
    <path stroke-linejoin="round" style="color-rendering:auto;color:#000000;isolation:auto;mix-blend-mode:normal;shape-rendering:auto;solid-color:#000000;image-rendering:auto" d="m1138 172.71 42.744 42.744c1.7153 1.7153 5.8744 5.4393 2.7449 8.5688-3.1294 3.1295-6.8536-1.0296-8.5688-2.7448l-34.609-34.609-8.4882-8.4882m8.0852 36.902 22.018 22.018c1.775 1.7751 5.9096 5.4039 2.4382 8.8754s-7.1003-0.66314-8.8754-2.4383l-16.217-16.217m109.57 29.154-9.8416-66.94c-0.3593-2.4429-1.4364-4.5965-2.9804-6.2839v0.00049c-2.5735-2.8124-6.4535-4.3288-10.524-3.7234-6.5124 0.96874-10.974 6.993-10.006 13.505l3.8519 32.2-66.932-66.932c-3.3222-3.3222-8.332-3.8799-12.22-1.6713" stroke="url(#c)" stroke-linecap="round" stroke-width="9" fill="none"/>
    <path style="color-rendering:auto;color:#000000;isolation:auto;mix-blend-mode:normal;shape-rendering:auto;solid-color:#000000;image-rendering:auto" d="m1236 183.25c-2.5735-2.8124-6.4535-4.3288-10.524-3.7234-6.5124 0.96874-10.974 6.993-10.006 13.505l3.8519 32.2-66.932-66.932c-3.9911-3.9911-10.418-3.9924-14.409-0.001-3.9911 3.991-3.9911 10.419-0.0002 14.41l42.744 42.744c1.7153 1.7153 5.8744 5.4393 2.7449 8.5688-3.1294 3.1295-6.8536-1.0296-8.5688-2.7448l-50.409-50.409c-3.9912-3.9911-10.418-3.9897-14.409 0.001-3.991 3.9911-3.991 10.416 0.0001 14.407l51.823 51.823c1.775 1.7751 5.9096 5.4039 2.4382 8.8754s-7.1003-0.66314-8.8754-2.4383l-49.064-49.064c-3.991-3.991-10.418-3.9897-14.409 0.001-3.9911 3.9911-3.9911 10.416 0 14.407l49.064 49.064c2.1446 2.1446 6.1504 5.1632 2.5915 8.7221-3.5588 3.5589-6.5774-0.44689-8.7221-2.5916l-33.735-33.735c-3.9911-3.9911-10.419-3.9911-14.41-0.00006-3.991 3.9911-3.9897 10.418 0 14.409l79.091 79.091c4.2139 4.2138 15.73 10.03 19.968 10.098l14.27 0.22869 34.395 34.395 53.341-53.341-35.632-35.632-13.24-90.055c-0.3593-2.4429-1.4364-4.5965-2.9804-6.2839z" fill="url(#a)"/>
   </g>
  </g>
 </g>
</svg>
