<?xml version="1.0" encoding="UTF-8" standalone="no"?>
<svg xmlns:rdf="http://www.w3.org/1999/02/22-rdf-syntax-ns#" xmlns="http://www.w3.org/2000/svg" height="89.464mm" width="108.04mm" version="1.1" xmlns:cc="http://creativecommons.org/ns#" xmlns:xlink="http://www.w3.org/1999/xlink" viewBox="0 0 382.83237 316.99806" xmlns:dc="http://purl.org/dc/elements/1.1/">
 <g transform="translate(474.43 -299.38)">
  <path style="color-rendering:auto;color:#000000;isolation:auto;mix-blend-mode:normal;shape-rendering:auto;solid-color:#000000;image-rendering:auto" d="m-212.45 299.5c-4.4263 0.33236-8.6629 2.0178-12.852 3.4861-3.7398 1.3109-7.2263 3.2618-10.906 4.7324-5.8996 2.3576-11.557 6.9523-17.898 6.5526-6.7776-0.4273-11.993-6.3814-18.1-9.3514-2.4568-1.1948-4.7235-3.3616-7.4551-3.4047-6.2193-0.098-11.088 6.1136-17.21 7.2133-5.0153 0.90095-10.185-0.90099-15.274-0.63284-3.9804 0.20975-7.8744 2.2445-11.829 1.748-3.6065-0.45275-6.6048-3.0782-10.059-4.2109-4.06-1.3315-8.192-3.2363-12.459-3.0137-5.2208 0.27243-9.5503 5.1619-14.777 5.2539-6.9597 0.12245-13.151-7.9627-19.91-6.299-5.9298 1.4595-7.5664 10.04-12.907 13.002-13.947 7.7362-36.797-1.9206-46.652 10.619-6.4239 8.174 0.65429 20.791 0.4624 31.185-0.20967 11.358-2.5376 22.7-1.7626 34.033 0.8817 12.892 6.4792 25.183 7.2572 38.081 0.23239 3.8528 1.4887 8.4337-0.78478 11.553-8.1561 11.19-34.727 2.0714-38.594 15.367-2.6431 9.0878 14.431 13.807 16.631 23.013 3.5398 14.815-9.8493 30.149-7.133 45.137 2.1328 11.769 13.138 20.158 17.682 31.222 4.9135 11.964 2.7684 26.821 10.128 37.456 2.6267 3.7962 6.8097 6.7872 11.237 8.0951 6.1718 1.8232 12.849-1.1103 19.282-0.96124 8.7787 0.20335 17.782 0.10341 26.222 2.5284 7.3193 2.1031 13.009 8.5311 20.436 10.214 5.8319 1.3212 12.068 0.82647 17.936-0.3212 5.4883-1.0733 10.091-5.4413 15.651-6.0409 6.6346-0.71557 13.116 2.8086 19.784 3.0604 5.4933 0.20738 10.962-0.84963 16.441-1.2852 6.8829-0.54702 13.784-2.4265 20.646-1.668 8.7542 0.96763 16.587 6.1687 25.236 7.8282 9.9875 1.9162 20.289 3.3196 30.416 2.387 11.136-1.0256 21.254-7.8411 32.405-8.6893 7.0671-0.53758 14.347 4.3801 21.134 2.3372 15.392-4.6333 24.15-21.274 37.039-30.878 8.9016-6.6332 21.594-9.1765 27.75-18.414 3.4411-5.1634 3.8889-12.083 3.5293-18.277-0.35727-6.1543-4.9649-11.497-5.584-17.631-0.78037-7.7312 3.6834-15.509 2.4554-23.182-0.54273-3.3909-3.2005-6.1179-4.2285-9.3945-2.2347-7.123-1.5843-14.992-4.1212-22.014-2.7649-7.652-11.347-13.203-11.882-21.321-0.25233-3.8308 2.556-7.2581 4.2383-10.709 2.2698-4.6561 7.1928-8.2685 7.86-13.405 0.40179-3.0933-1.2718-6.1525-2.5138-9.0138-1.7766-4.0926-4.7265-7.5704-6.9632-11.431-2.8471-4.9138-7.2518-9.3289-8.215-14.926-1.2301-7.1476 2.9667-14.24 3.5155-21.472 0.59353-7.8215 2.1792-16.074-0.25427-23.531-3.1531-9.6622-9.7159-18.549-17.718-24.815-6.7525-5.2875-15.768-6.8104-23.914-9.4932-9.1342-3.0083-18.443-5.5874-27.893-7.3724-8.4164-1.5898-16.985-3.5896-25.526-2.9482z" fill="#bc0000"/>
  <path style="color-rendering:auto;color:#000000;isolation:auto;mix-blend-mode:normal;shape-rendering:auto;solid-color:#000000;image-rendering:auto" d="m-390.49 331.03 6.7012 7.363 5.0466-4.7156 7.2803 5.4602 6.7012-5.543 6.9494 4.302 5.6257-4.6329 1.4892 5.7911 4.9638-2.8128 0.57911 6.2048h4.3847l-0.74457 3.6401 2.8956 0.33092 1.0755 4.2193 1.4064-6.2875 3.5574-0.49638v-5.4602l4.7156 1.5719 2.5646-7.2803 5.1293 3.5574 3.1438-3.4747 3.2265 3.061 5.0466-5.1293 1.0755 6.5357 4.7984-3.8056v6.0393l2.9783-3.2265 1.4892 6.1221 5.1293-1.4892-0.66184 6.0393 2.3992-1.0755 1.7373 3.5574 1.4064-6.6184 2.6474 1.3237 0.66184-8.8522 7.5285 3.7229 1.6546-6.7012 4.302 4.3847 2.9783-2.8128 3.392 2.4819 3.9711-3.9711 3.061 4.7984 2.6474-2.3992 1.6546 5.6257 3.9711-2.8956 0.41365 5.8739s2.6474-1.1582 2.6474-0.74458c0 0.41365 1.4892 7.5285 1.4892 7.5285l1.1582-10.176 4.7156 1.4892-1.5719-7.363 4.4674 3.2265 2.2337-6.7839 5.0466 4.2193 4.302-4.7156 4.3847 4.6329 3.6401-4.302 2.9783 4.4674 3.8883-3.061 0.66185 6.0393 3.4747-1.241 2.8956 5.7911 1.8201-5.3775 2.8956 3.1438 1.0755-7.6939 6.0393 4.7156 2.151-6.3702 3.8056 4.302 3.4747-2.6474 2.5646 4.1365 5.1293-5.2948 2.9783 4.2193 3.7229-3.6402 2.0683 5.4602 6.2875-5.212 0.74458 5.1293 5.7911-3.392-1.4892 7.7767 7.9421-1.9028-1.0755 6.1221 4.4674 0.74458-1.7373 6.3702 3.6402 2.8128-2.7301 6.2048 6.0393 0.91004-4.5502 6.2875 3.6401 3.2265-2.9783 2.9783 5.212 3.1438-8.4385 2.151 1.1582 2.0683-3.8056 3.9711 5.6257 2.9783-4.0538 4.2192 3.392 3.6402-3.8056 3.6401 3.6402 4.6329-3.8056 1.3237 2.5646 5.212-7.4458 2.9783 9.8449 1.5719-1.0755 4.302 7.1148 3.9711-5.0466 5.4602 4.4674 3.3092-4.1365 4.0538 4.6329 4.7156-6.1221 2.8956-0.99276 4.2192-6.5357 3.3092 6.453-0.57911 3.8056 5.212 4.6329 0.74458-1.4064 6.5357 5.1293 2.5646-2.7301 4.7984 5.7084 3.7229-5.4602 5.1293 4.5502 4.1365-8.0249 6.5357 3.8056 4.4674-1.3237 4.0538 4.8811 3.5574-4.7984 5.543 5.9566 5.8739-7.7767 2.151 1.241 6.2875-7.6939-0.82731-3.3092 2.151 6.2875 3.5574 3.9711 0.49638 1.3237 5.212 5.9566 3.7229-3.8056 4.3847 2.9783 4.2192-4.6329 4.0538 3.4747 5.5429-6.2048 3.6401 1.4892 7.1976-7.6112 0.74457-0.57912 7.7767-6.2048-2.8128-5.543 5.4602-5.2948-4.7984-2.3992 7.0321-8.1076-5.212-5.2948 4.4674-4.3847-5.6257-5.1293 4.2193-5.4602-7.8594-3.7229 9.1831-7.6112-4.302-4.3847 5.1293-6.0393-3.061-5.3775 4.302-4.5502-5.1293-5.6257 2.7301-2.7301-4.6329-3.8883 6.0393-4.9638-3.4747-4.1365 6.0393-6.453-7.1148-4.1365 5.5429-4.9638-3.392-3.3092 5.6257-5.7911-5.0466-4.0538 4.3847-4.7156-5.6257-4.8811 5.3775-4.0538-3.8056-5.212 4.8811-3.2265-4.7984-2.9783 0.33092-2.2337 1.9855-4.3847-4.3847-4.5502 6.7012-6.7012-4.4674-6.7839 6.9494-3.8056-8.0249-6.7839 5.3775-3.2265-6.0393-6.453 4.6329-0.91003-7.2803-3.392-0.74457-3.5574 4.5502-8.8522-1.8201-4.302 7.7767-5.7911-6.2048-5.2948 3.8056-4.302-3.061-5.2948 5.7911-4.2193-7.1976-5.3775 3.8056-3.4747-4.9638-7.6112 3.392-1.9855-6.6184-4.7984 1.6546-3.061-6.7839-7.4458 4.3847 0.24819-6.6184-4.8811-3.9711 0.57912-5.2948-5.0466-2.2337 4.7156-7.6112-6.0393-3.4747 4.9638-6.0393-6.6184-3.5574 4.0538-5.1293-2.8956-4.8811 4.9638-5.212-6.0393-2.7301 5.8739-4.7984-3.6401-4.3847 3.7229-4.0538-3.4747-2.6474 2.7301-3.6401-5.2948-4.7156 5.1293-3.4747-1.9855-3.9711 3.9711-3.061-4.0538-6.2875 6.8666-2.151-3.3092-4.9638 5.7911-0.66185 0.91004-5.1293 7.1148 0.57912-0.33092-5.0466 7.4458-1.9028-8.8522-2.0683 3.3092-5.6257-8.7694-1.0755 2.8128-5.2948-5.212-1.9028 2.7301-4.3847-6.7012-2.6474 5.6257-5.0466-5.212-2.8956 5.7084-3.6402-6.7012-2.9783 4.3847-5.4602-3.9711-4.2192 5.212-3.5574-6.1221-3.3092 4.7984-3.4747-3.392-4.4674 5.1293-3.2265-6.5357-6.0393 7.2803-3.8056-4.7156-6.3702 5.1293-0.99277-3.8883-7.2803 8.0249-2.4819-3.8056-7.363 6.5357-1.241-3.8883-7.363 6.7012-0.24819 2.3165-6.3702 13.071 0.57911z" fill="#faee04"/>
  <g fill="#66cc20">
   <path style="color-rendering:auto;color:#000000;isolation:auto;mix-blend-mode:normal;shape-rendering:auto;solid-color:#000000;image-rendering:auto" d="m-224.92 340.56-3.6562 5.0566-7.002-2.1777-0.31054 7.2344-4.5918 0.4668-1.0117 6.3809-3.6562 3.7344 2.2559 4.668-2.9551 4.5898-0.38867 3.8125-1.5566-3.0352 1.4785-4.7461-2.5684-2.4102 0.62305-4.5918-2.957-2.8789 1.6348-7.3906-4.123 1.0117-0.23438-4.2012-4.3574 1.6348-0.93359-5.4473-5.4453 5.0566-3.9688-4.5898-3.2676 3.6562-4.2774-3.6562-1.6348 5.3691-4.9785-1.4785-0.46679 5.2129-3.1914 0.85547 1.3242 6.3027-3.0352 2.4883 2.0234 4.3574-1.7129 4.0449 2.2578 4.7461-2.1797 4.123 2.4902 3.8906-1.4004 3.0352 0.93359 3.8106-0.70117 6.5352-0.93359-1.4766 0.39062-4.668-1.791-2.8008 1.4004-4.5918-2.334-3.1895 1.3242-3.8906-3.3457-3.0332 1.4785-3.8906-3.0352-3.2676 1.8672-4.5898-3.7344-1.6328 0.38867-5.4473-4.8223 0.15625-0.0781-6.8477-3.7344 1.5566-4.125-3.8125-3.5 3.1894-4.4355-5.9121-3.8106 5.8359-4.4356-3.8906-2.1777 4.8242-3.6582-1.9453-0.77735 7.2344-3.9668-0.38867 0.46679 5.3691-3.5801 2.0215 1.5566 5.1348-4.2793 5.7578 1.9453 3.502-1.1992 2.0371 0.24805 4.1035-1.6934 2.416-0.0781-3.1895-1.8672-1.9453 1.4629-3.3457-1.6328-2.8457 2.5234-3.4238-1.8027-4.1445 1.8027-2.3438-1.6211-2.5234 0.53906-2.3418-6.3066-2.5234 1.0801-4.6855-3.4238-0.36133-2.1621-5.2266-4.5059 2.3438-5.4062-3.9648-2.8828 3.6035-4.5059-3.2441-2.5234 1.9824-3.4238-2.3418-3.7852 1.8027-4.1445-2.5234-4.5059 5.2266-5.0469-2.3438-1.2617 7.5703-4.5039-1.4434-2.7031 5.0469-3.4258 0.90039-0.53906 4.6875-3.9648 2.7031 1.2598 5.0449-5.9473 2.7031 3.2363 4.7852-3.6543 5.4512 3.9863 4.7266-4.5566 3.6445 2.3359 4.0449-5.0117 3.9297 6.207 3.6445-2.4492 2.7344 2.7344 2.6191-5.9238 4.043 5.6953 3.418-2.1641 3.2461 3.873 3.873-4.2148 3.2461 3.8164 4.3848-3.5312 4.3301 2.3359 2.3906 0.62695 4.7285 3.8145 1.0254-0.62696 5.0117 5.1836-1.1406 0.51367 3.7031 4.7266-1.1973 0.68359 5.582 4.498-2.5625 1.5391 3.418 3.873-1.1406 2.5625 2.4492 7.9727-2.791 8.8848 3.5312-7.8027 2.1641-3.1328-2.9609-5.3535 2.3926-5.6953-2.1641-3.0176 3.1328-5.4102-3.0195-0.57031 4.1582-3.2461-0.34179-1.709 2.9609-5.9238-0.96874 1.5391 5.9238-4.9551 0.57032-0.22852 4.8398-4.6133 2.3926 2.3359 4.3848-4.2715 2.2793 1.5938 3.1328-3.4727 3.1895 2.9043 3.7578-3.6465 4.043 3.5312 3.8164-2.8477 3.3047 3.7031 3.8144-5.127 3.9297 5.5254 2.7344-2.791 3.418 3.3027 2.4473-4.6699 4.0449 4.2148 4.2148-5.1836 5.2969 5.5254 2.6758-2.791 4.6699 3.0762 4.5566-3.9863 4.3281 5.8652 1.082-0.39844 7.4609 3.6445-2.0488 0.28516 6.0371 6.3223-2.7344-0.11328 5.6953 5.6367-2.6211 1.0254 3.9316 3.2461-0.91211 1.0254 5.6953 4.2148-4.2715 3.2461 3.8164 3.8164-4.1016 2.7344 4.2148 1.7656-4.7266 4.7832 5.0117 3.7012-4.2715 5.7539 4.1562 0.3418-6.377 4.5547 1.1953-0.68164-4.043 4.2129 1.5938-0.91016-7.3476 3.3594 1.3672-0.11328-4.4414 2.7344-0.45703 0.85351-3.9863 1.3672 3.873-1.1387 3.7598 3.2461 2.6191 0.0566 5.4668 5.9238-0.3418 1.3652 7.6328 6.4375-4.6133 3.4726 4.7832 4.3301-4.7266 4.7832 4.7266 3.4746-5.125 3.8145 5.5254 3.8164-3.8164 5.8672 2.2207 3.416-8.0879-1.3086-2.6758 2.0488-1.3106v6.209l3.7031 5.5801 4.0996-3.0742 2.8477 5.5234 2.791-4.2715 2.6211 3.5312 3.0742-3.8164 5.8672 5.7539 3.3027-6.7207 3.4746 3.3594 2.5059-8.2012-1.7656-3.7012 1.0254-7.1191 1.082 5.2949 2.2773 2.791-0.22656 5.6953 6.207 5.3535 4.6699-4.0996 5.9805 6.1504 3.3594-6.6055 5.2402 4.6133 1.5391-6.0371 2.1641 0.22656 2.7891-4.2148 4.3867 8.4297 4.8398-2.6758 4.8418 4.0996 4.3848-3.1328 5.5254 3.8164 2.7344-7.1191 6.7188 1.1953-0.625-6.1504 1.9922-3.4746-2.791-3.0176 2.6211-4.7852-0.17187-3.4727 2.8476 2.3906-2.7891 5.2969 1.8223 1.1387-0.3418 8.373 7.0625 6.3789 8.1426-3.1894 5.127 5.125 5.8652-5.6953 5.2402 2.3926 4.7852-2.9609 5.3535 4.7832 4.3281-7.0625 5.6953 0.11524-0.62695-7.3477 3.0762-3.0195-1.4805-3.6445 4.0996-4.9551-4.043-5.8086 0.39844-5.6953-4.7266 0.96875-3.7598-2.3359-5.1836 1.5371-3.8711-2.1641-4.0449 1.709-1.8223-2.5059 4.1582-3.0176-2.4492-3.3047 8.998 2.1074 3.3613-5.582 7.8027-1.1387-0.96875-4.498 2.1074-4.2715-3.0195-3.3613 3.2461-4.7266-5.9785-4.1582-2.3359-4.3281-4.2148 1.7656-4.6699-1.8789-2.4492 1.8223-5.0684-0.17187 3.3027-2.9043-1.1953-2.8476 10.422 1.709 2.7344-2.5625 6.3223 2.2207 5.0684-7.916-3.2461-6.0938 2.6758-5.127-2.9043-2.3926-0.74023-6.207-4.1582 0.16992-2.3906-5.125-3.3613 0.85351-3.8164-3.6445-3.5879 3.7598-3.6445-2.7344-7.0625 3.9297-9.8535-3.7578 9.3984-2.1074 2.334 2.2207 13.215-3.418-0.45703-1.5371 6.0371-2.8476-2.7031-3.7461 6.3809-2.0996-3.2676-4.9023 3.8125-2.334-5.4473-5.3672 2.7227-4.9024-4.5898-1.166-0.23242-3.5801-4.9023 1.5566-3.7344-2.6445-2.8789 2.334-3.8887-3.0352-3.2676 1.9453 1.3223-4.2012-1.8672-4.0449 5.2129 0.62109 2.8008-2.9551 6.7676 1.3223 0.54492-3.4238 3.5-0.23242-1.7109-4.2012 5.2129-3.5801-5.3691-6.7676 2.4121-3.7344-4.0449-3.502-2.0234-4.0449-5.4453 2.6445-3.4238-2.5664-8.0137 1.4785 3.7344-4.0469 1.7129 1.7129 6.0684-3.502 4.2012 3.0352 4.123-3.4238 4.123 0.62109 4.5898-4.3555-2.6445-3.0352 3.0352-3.2676-4.4356-6.0684 2.5684-6.3789-6.6914-0.62304 0.9336-6.3008-3.8125 1.4004-3.502-5.5254-4.9785 3.6582-3.9668-5.2129-3.7363 4.0449-4.4336-4.3574-5.291 4.5918-5.0566-5.2129-2.5664 5.3672-3.8906-2.2559-2.8008 5.0566-4.8242-0.31054-0.46679 5.4453-1.4785 3.0352-0.62109-12.604-5.2129 1.4785-2.6465-3.8125-6.1465 2.1777-4.0449-4.123zm-148.98 42.424 2.2227 1.5938 1.1953-0.74023-0.11328 1.7656 0.96679 1.6524-2.2207-1.0254-1.5371 1.8789-0.51367-5.125zm60.906 65.271 5.541 7.668 1.0859-0.84179 1.5254 1.4453 2.207-1.7676 2.5703 1.6465 3.5742-1.6465 3.5742 1.8477 3.291-2.4102 3.8555 2.0488 3.6934-2.6504 2.25 1.1641 1.7266-3.252 2.0078 3.4121 1.9668-0.68164 2.168 3.0117 2.0488-1.8066 2.8906 2.248 3.0508-3.1328 5.4609 1.4062 4.377-3.6133 2.6504 3.4121 3.0117-1.125 2.8106 1.8066 2.248-1.8457 3.0918 1.5664 1.0039-3.6543 1.3652 2.8496 3.1328-0.64257 1.7266 2.6504 2.0879-1.2852 3.8144 1.5273 3.9746-2.8926 3.0918 2.0078 3.373-2.3281 1.7656 2.8516 4.9394-3.334 4.457 1.166 2.5703-2.5703 2.5293 2.4492 2.0078-0.28125-0.041 1.7266 3.8965 0.16015-1.166 1.4863-2.207 0.16016-0.041 4.0156-4.5781-7.2285-2.127 2.8926-3.293-1.7676-1.4863 2.0078-1.6055-1.084-2.8906 4.8574-3.6543-5.4199-3.252 1.9668-2.4902-1.9668-3.5332 2.9707-3.8555-1.4043-2.4082 2.7695-2.8906-3.7344-3.2539 1.8476-4.1758-1.8867-3.0918 1.5254-2.0879-2.1289-2.8906 3.0527-2.3691-3.8144-4.6973 2.5293-4.1758-2.0469-1.3652 5.9824-1.4453-2.9726-2.4492 2.7715-1.4453-3.252-2.8926 5.1387-3.1309-6.625-3.6953 1.5664-3.1719-2.9707-3.1309 2.6484-3.4941-2.2871-3.332 2.8496-3.252-1.9277-2.4902 5.3008-0.36133-3.252-3.7344 1.043-0.76367-2.0879-4.375 0.84375-2.9316-2.9707-3.1328 2.127-2.0469-1.7266-2.7305 2.6504-5.9434-3.332-3.7344 2.9707-3.4531-1.4453-4.416 2.0488-4.0566-2.4102-2.3281 4.0957-3.4531-2.4492-0.72265 4.416-1.8066-2.6894-1.5664 6.7051-1.3242-2.5703-3.1328 0.32226 2.4102-3.5332-5.9434-3.0117 2.4082-1.0039-0.24023-2.209 4.3359 1.6074 0.28125-3.7344 2.9316 3.252 1.4453-2.0488 3.4141 2.8516 2.5684-2.8906 4.3379 2.6094 3.4531-2.4082 3.9336 2.4492 3.8965-3.334 6.2227 3.6152 2.4102-5.541 2.7695 2.6484 0.52148-5.7402zm-3.01 42.34l5.8184 1.832 8.291-1.832-3.2676 3.1094 1.6738 3.0293-8.6094-2.791-5.6602 2.0723 1.4356-1.9121 0.31836-3.5078zm-64.412 3.666 2.2715 1.873 3.1504-1.375-0.73829 2.7305 1.793 2.7715s-4.4828-1.6343-4.4629-1.7539c0.0199-0.11958-2.2715 1.832-2.2715 1.832l0.25781-6.0781zm67.361 27.424 2.8691 3.3477 5.502-1.9922-1.7539 3.8262 3.5879 0.95508-1.9141 3.0293 1.4356 2.4727-6.457-2.0723-3.1094 2.4707-0.47852-3.0293-3.1094-0.31836 2.2324-3.748-2.791-3.5859 3.9863-1.3555z"/>
   <path style="color-rendering:auto;color:#000000;isolation:auto;mix-blend-mode:normal;shape-rendering:auto;solid-color:#000000;image-rendering:auto" d="m-214.93 343.49c-0.80043-0.64035-1.382-1.5748-1.6033-2.5869-0.14543-0.63454-0.1631-1.3089-0.19282-2.209-0.0236-0.50559-0.0483-0.92743-0.0476-1.3544 0.0107-0.60196 0.1445-1.8279-0.0738-2.8888-0.21675-1.0484-0.752-1.962-1.0992-2.586-0.50437-0.91892-1.0619-2.0028-1.7422-2.9945-0.47701-0.68759-1.1673-1.557-2.1951-2.0761-0.69349-0.34538-1.4589-0.47256-1.9074-0.56323-0.52991-0.10688-0.82168-0.19661-1.025-0.32553-0.2208-0.13384-0.32226-0.29409-0.77383-0.729-0.15937-0.14891-0.57684-0.49829-0.6274-0.54325-0.15989-0.14188-0.22983-0.2271-0.27415-0.28541-0.0433-0.059-0.0841-0.17807-0.0919-0.36814-0.007-0.19478 0.0196-0.4156 0.07-0.71391 0.21185-1.018 0.47197-1.8392 0.96899-2.4155 0.25267-0.30431 0.58077-0.54702 0.94363-0.69383 0.36286-0.14688 0.76611-0.19837 1.1506-0.14339 0.41712 0.0485 0.37368 0.0967 0.98461 0.19397 0.41485 0.0664 0.99177 0.0946 1.5393-0.16789 0.30464-0.15324 0.52811-0.36849 0.67624-0.52479 0.22514-0.23778 0.19019-0.22117 0.34301-0.37406 0.27833-0.23187 0.69624-0.35419 1.2537-0.41982 0.48926-0.0574 1.2265-0.0786 1.8662-0.25472 1.2802-0.33858 2.2867-1.2728 2.9112-2.3214 0.25755-0.44769 0.49356-1.0064 0.68434-1.3857 0.21337-0.42426 0.44269-0.78642 0.73813-1.049 0.25493-0.22955 0.58152-0.4015 0.96654-0.56642 0.3588-0.15367 0.82002-0.32043 1.2234-0.52705 0.99078-0.48387 1.8219-1.2902 2.5826-1.8931 1.3924-1.0884 3.0056-1.9038 4.7229-2.2841 1.7173-0.38029 3.5425-0.31592 5.1947 0.27298 1.1171 0.39257 2.1228 1.0022 3.2302 1.5653 1.341 0.68576 2.7521 1.2531 4.2236 1.6025 1.8732 0.44886 3.7427 0.53972 5.3826 1.3825 0.90715 0.4583 1.6856 1.1196 2.5272 1.75 1.2044 0.9107 2.4789 1.7093 3.4422 2.8362 1.1354 1.3333 1.8498 3.2108 3.1054 4.4835 0.75772 0.75885 1.7132 1.3121 2.7399 1.5915-1.0183-0.30923-1.9491-0.88763-2.6731-1.6563-1.2812-1.3436-1.8267-3.0762-3.0294-4.5382-0.95885-1.1699-2.2484-2.0176-3.4143-2.9377-0.79886-0.63651-1.5965-1.3542-2.525-1.8587-1.6788-0.89817-3.6793-1.0507-5.4435-1.5045-1.4188-0.36822-2.7799-0.94792-4.0764-1.6454-1.0386-0.56199-2.1072-1.2418-3.2654-1.6825-1.769-0.66475-3.7265-0.76574-5.5735-0.38964-1.847 0.37608-3.5806 1.2178-5.0785 2.3481-0.88561 0.6596-1.5832 1.3155-2.4695 1.7156-0.37948 0.16087-0.7446 0.25799-1.1937 0.4132-0.42225 0.14595-0.8939 0.33902-1.3076 0.65855-0.48321 0.37641-0.82381 0.87305-1.0922 1.3335-0.29382 0.50385-0.46195 0.87419-0.7331 1.2841-0.52347 0.8243-1.2909 1.45-2.141 1.6482-0.50777 0.11031-0.96668 0.0809-1.6561 0.12508-0.62119 0.04-1.417 0.1584-2.0806 0.64388-0.1842 0.12424-0.43106 0.33359-0.51969 0.4007-0.13477 0.10186-0.21888 0.14261-0.26542 0.14393-0.0682 0.013-0.20932 0.0205-0.45683-0.0453-0.0465-0.0122-0.74703-0.23618-0.98883-0.28953-0.72948-0.15017-1.4936-0.0977-2.1969 0.13833-0.70321 0.23598-1.339 0.65162-1.8437 1.1897-0.92267 1.003-1.3052 2.3038-1.5571 3.3584-0.0823 0.29838-0.18079 0.68101-0.21486 1.0971-0.0343 0.42113-0.006 0.92639 0.19303 1.4295 0.17911 0.45549 0.45788 0.81354 0.68855 1.0744 0.3293 0.37264 0.35139 0.35748 0.57512 0.62302 0.13819 0.15565 0.57281 0.72061 1.0305 1.0754 0.67462 0.51753 1.4607 0.73442 1.9937 0.87407 0.60997 0.16003 0.93866 0.241 1.2086 0.40239 0.34249 0.19688 0.67203 0.57227 1.0527 1.1718 0.54578 0.84615 0.97565 1.7461 1.5056 2.7795 0.38612 0.76347 0.62756 1.2506 0.7051 1.7444 0.0958 0.60066-0.0135 1.0746-0.0738 2.1634-0.0361 0.53505-0.0394 1.0755-0.0476 1.5326-0.003 0.79045-0.024 1.8208 0.16806 2.8432 0.34752 1.7913 1.3213 3.4501 2.7272 4.6305z"/>
   <path style="color-rendering:auto;color:#000000;isolation:auto;mix-blend-mode:normal;shape-rendering:auto;solid-color:#000000;image-rendering:auto" d="m-226.62 319.44c-0.5765-0.48771-1.0933-1.048-1.5339-1.664 1.0129 1.3853-1.7247-2.407-0.7452-1.0687-0.22532-0.30394-0.37979-0.48749-0.48431-0.71225-0.0516-0.0999-0.083-0.19298-0.0957-0.27589-0.0129-0.0826-0.006-0.15609 0.0119-0.21097 0.0201-0.0605 0.0715-0.13423 0.16476-0.21367 0.0953-0.081 0.21221-0.15105 0.36697-0.23801 0.14385-0.0808 0.32941-0.18089 0.50001-0.30667 0.17473-0.12874 0.35567-0.30059 0.48076-0.52767 0.1595-0.28464 0.19472-0.59627 0.18551-0.85781-0.009-0.25455-0.0619-0.50849-0.0962-0.70494-0.0369-0.21101-0.0592-0.38918-0.043-0.55448 0.0156-0.16261 0.0727-0.3008 0.15713-0.38736 0.0505-0.0568 0.12356-0.10442 0.21255-0.13512 0.0889-0.0306 0.19074-0.0433 0.30036-0.0386 0.22208 0.0188 0.44311 0.10455 0.68999 0.2159 0.23623 0.10656 0.50585 0.24084 0.79453 0.31221 0.29358 0.0727 0.63507 0.0821 0.93353-0.0651 0.23131-0.11629 0.40651-0.31548 0.50675-0.53782 0.10032-0.2226 0.12788-0.46802 0.10028-0.69839-0.0462-0.46085-0.3061-0.86375-0.60667-1.1757-0.24336-0.25007-0.52656-0.46196-0.78482-0.67508-0.26126-0.21559-0.51117-0.44454-0.69214-0.72297-0.24173-0.37774-0.34897-0.84417-0.29361-1.2958 0.0553-0.45141 0.27298-0.88496 0.60811-1.202-0.34718 0.30345-0.58684 0.7327-0.66193 1.1943-0.0751 0.46136 0.0151 0.95126 0.25469 1.3602 0.17538 0.30403 0.42416 0.55626 0.67775 0.7892 0.25648 0.23559 0.51224 0.44817 0.73227 0.69971 0.27195 0.30768 0.47393 0.66976 0.49542 1.0499 0.006 0.19008-0.0344 0.37635-0.12155 0.53164-0.0873 0.15548-0.22144 0.27713-0.37351 0.33701-0.19348 0.079-0.42966 0.0652-0.65761-0.008-0.23304-0.0747-0.44556-0.19883-0.69518-0.33219-0.23951-0.12793-0.52212-0.26734-0.83796-0.31636-0.15931-0.0293-0.33259-0.0361-0.50736-0.004-0.17467 0.0324-0.353 0.10501-0.50573 0.22785-0.24486 0.20418-0.37284 0.49681-0.42374 0.76856-0.0506 0.26937-0.0336 0.53567-0.0132 0.76079 0.0217 0.2398 0.0448 0.42216 0.0354 0.60757-0.009 0.17891-0.0501 0.31711-0.11686 0.41069-0.0534 0.0717-0.13711 0.14188-0.2511 0.20767-0.1189 0.0688-0.2473 0.12227-0.41653 0.19542-0.1573 0.068-0.35414 0.15515-0.5404 0.27954-0.18866 0.1261-0.38983 0.30635-0.5273 0.55743-0.13192 0.24007-0.18467 0.50472-0.18283 0.75258 0.002 0.24773 0.0564 0.48073 0.13231 0.68625 0.15176 0.38644 0.40815 0.73287 0.56502 0.97076 1.4106 2.1073-0.74339-1.0595 0.69828 1.0965 0.48747 0.71481 1.0644 1.3697 1.7139 1.9447z"/>
   <path style="color-rendering:auto;color:#000000;isolation:auto;mix-blend-mode:normal;shape-rendering:auto;solid-color:#000000;image-rendering:auto" d="m-160.45 348.52c0.0121 0.0718-0.0261 0.10978-0.0588 0.14543-0.0464 0.0257-0.0117-0.0893 0.0921-0.25035 0.0371-0.0573 0.37694-0.52205 0.51439-0.7563 0.35183-0.56595 0.50086-1.1795 0.59715-1.5983 0.1322-0.55413 0.22581-1.0011 0.3531-1.5094 0.11007-0.44159 0.27609-1.0146 0.37744-1.5629 0.0923-0.51285 0.14977-1.1039 0.0523-1.712-0.10111-0.63786-0.36539-1.2228-0.72175-1.711-0.5253-0.71851-0.52584-0.5306-0.84096-1.0281-0.1846-0.29603-0.26811-0.67262-0.36553-1.2046-0.0892-0.48825-0.19717-1.13-0.51915-1.699-0.32995-0.59136-1.0137-1.1864-1.2708-1.4893-0.16965-0.17928-0.30714-0.36331-0.39671-0.55511-0.0895-0.19078-0.13028-0.39538-0.10868-0.58074 0.0231-0.19574 0.12175-0.3993 0.27595-0.63173 0.13666-0.20576 0.35458-0.48239 0.50425-0.74504 0.44074-0.69591 0.54767-1.5385 0.45868-2.3049-0.0891-0.76645-0.36399-1.4903-0.666-2.1662-0.78986-1.874-1.8752-3.6179-2.8154-5.3992-0.55509-1.029-1.0678-2.0821-1.5362-3.1557 0.42219 1.0926 0.89027 2.1685 1.4028 3.224 0.90689 1.8259 1.933 3.5645 2.6711 5.444 0.25453 0.69187 0.46168 1.3854 0.49546 2.0906 0.0337 0.70529-0.12008 1.4039-0.50718 1.9313-0.17939 0.2165-0.3593 0.36598-0.59097 0.61031-0.20969 0.22131-0.44482 0.51138-0.56427 0.88022-0.12146 0.37515-0.10853 0.77346-0.0163 1.132 0.0918 0.3579 0.25923 0.67852 0.44283 0.95787 0.48077 0.67263 0.79936 0.87657 1.023 1.378 0.14871 0.34384 0.18679 0.74586 0.23126 1.2765 0.041 0.487 0.0958 1.1541 0.3894 1.7695 0.16548 0.34968 0.76427 1.1893 0.80774 1.2657 0.1738 0.30533 0.27023 0.63135 0.28181 0.94128 0.0103 0.29985-0.05 0.63354-0.16279 1.0119-0.12987 0.44689-0.29205 0.84115-0.48274 1.3761-0.17456 0.49132-0.35295 1.0513-0.5071 1.5013-0.15041 0.42606-0.26311 0.67594-0.40641 0.83894 0.0415-0.0395-0.363 0.33857-0.46579 0.44294-0.20954 0.21317-0.52424 0.56635-0.71977 1.0593-0.26157 0.68414-0.23784 1.4708 0.0846 2.1526z"/>
   <path style="color-rendering:auto;color:#000000;isolation:auto;mix-blend-mode:normal;shape-rendering:auto;solid-color:#000000;image-rendering:auto" d="m-136.77 387.9c0.39552-0.45628 0.95035-0.78287 1.5462-0.90725 0.28731-0.0658 0.46015-0.0707 0.88519-0.14408 0.35227-0.0608 0.80067-0.1649 1.2237-0.41215 0.4605-0.26827 0.79122-0.65387 1.0102-0.91277 0.25134-0.29724 0.38854-0.46246 0.55339-0.58416 0.26833-0.19115 0.65887-0.27499 1.2596-0.33598 0.52962-0.0537 1.3302-0.0998 2.0424-0.44241 0.81031-0.38908 1.3658-1.0779 1.7306-1.7326 0.35464-0.63666 0.59316-1.3498 0.80595-1.9019 0.39641-1.0127 0.99425-2.2318 1.2392-3.498 0.28678-1.4779 0.10485-2.9934-0.34954-4.3637-0.37304-1.0981-0.2251-0.51496-0.56551-1.5284-0.1603-0.47714-0.25911-0.91868-0.24993-1.3351 0.0116-0.47577 0.16909-0.96922 0.43249-1.438 0.2639-0.46954 0.62331-0.90301 1.0389-1.3302 0.26387-0.27431 0.62395-0.61603 0.91895-0.97491 0.30754-0.37407 0.60486-0.83685 0.74432-1.3839 0.12639-0.49846 0.10483-1.0062-0.001-1.4648-0.10585-0.4584-0.29584-0.87705-0.51145-1.2492-0.37525-0.66041-1.0131-1.4322-1.3491-1.9449-0.63938-0.98416-1.0441-2.128-1.2516-3.3173-0.23835-1.3728-0.20987-2.7883 0.16655-4.1036 0.1976-0.70093 0.60021-1.6459 0.60907-2.5821 0.008-0.93147-0.35114-1.8056-0.8368-2.5171-0.48435-0.70955-1.106-1.2935-1.7051-1.8183-0.9378-0.82679-1.9355-1.6098-3.0234-2.2653-0.42869-0.25291-0.7973-0.4466-1.123-0.71347-0.31682-0.25942-0.54949-0.56831-0.62737-0.89616-0.0482-0.18974-0.0489-0.40472-0.0122-0.63492 0.037-0.23164 0.10808-0.46407 0.19323-0.71812 0.16916-0.48257 0.40816-1.085 0.37134-1.7157-0.0286-0.45851-0.20602-0.89874-0.32079-1.2433-0.12331-0.36999-0.19734-0.70053-0.13612-0.99746 0.0502-0.25015 0.19591-0.48217 0.38336-0.76268 0.17645-0.26398 0.39703-0.58641 0.48537-0.96498 0.0739-0.32181 0.0449-0.65654-0.0613-0.95535-0.10627-0.29895-0.28836-0.56219-0.51065-0.7721-0.43949-0.42491-1.0332-0.63529-1.6061-0.69763-1.0918-0.12566-2.2865 0.26716-3.278 0.33615-1.6241 0.10904-3.2356-0.50823-4.6617-1.3724-0.90033-0.54241-1.7465-1.1922-2.2931-2.0607-0.36474-0.57501-0.5889-1.2445-0.59511-1.9221-0.006-0.67753 0.21365-1.3633 0.64955-1.8807 0.47805-0.56629 1.185-0.90856 1.9207-1.1107 0.7393-0.20311 1.4984-0.27562 2.2659-0.41659 1.4913-0.26685 2.9256-0.78112 4.361-1.2392 1.442-0.46023 2.9553-0.87121 4.4439-0.62826 1.2646 0.20529 2.4472 0.89724 3.2476 1.9047-0.78893-1.0162-1.9674-1.7261-3.2404-1.9475-1.4998-0.25952-3.0278 0.14088-4.4771 0.58822-1.4457 0.44622-2.8736 0.94292-4.3573 1.1938-0.75126 0.12345-1.537 0.18577-2.288 0.37701-0.75468 0.19218-1.5129 0.53495-2.0408 1.1369-0.4847 0.55183-0.73723 1.2886-0.74557 2.022-0.008 0.7333 0.21896 1.4582 0.59726 2.0825 0.57222 0.93741 1.4583 1.6306 2.3702 2.197 1.4461 0.89333 3.1308 1.5677 4.8675 1.4661 1.1808-0.0664 2.1324-0.43263 3.2012-0.29513 0.50751 0.069 0.98842 0.2652 1.3224 0.60601 0.16439 0.17296 0.28762 0.37813 0.35186 0.59595 0.0643 0.21796 0.0683 0.44794 0.009 0.65372-0.0722 0.25515-0.23671 0.48315-0.4359 0.75436-0.18761 0.25551-0.42313 0.57721-0.52011 0.96469-0.11825 0.47891-0.007 0.96128 0.10748 1.3515 0.12202 0.41624 0.23835 0.73339 0.24661 1.071 0.0136 0.44692-0.16586 0.88179-0.36798 1.4123-0.10011 0.25278-0.20492 0.53286-0.26947 0.83124-0.0649 0.2999-0.0919 0.63493-0.0267 0.97291 0.11872 0.58673 0.48968 1.0626 0.88609 1.4087 0.38778 0.33863 0.84533 0.59965 1.2157 0.83392 1.0148 0.62786 1.9557 1.3822 2.8563 2.1952 0.58016 0.52726 1.1087 1.0501 1.5043 1.6533 0.39428 0.60124 0.63515 1.2698 0.61699 1.9185-0.0202 0.74172-0.33378 1.374-0.60741 2.2839-0.44572 1.5011-0.48748 3.0941-0.23895 4.6146 0.21411 1.316 0.6526 2.6241 1.3841 3.7789 0.49999 0.79518 0.89407 1.2051 1.2727 1.9018 0.16217 0.30605 0.28071 0.60927 0.33786 0.90992 0.057 0.30048 0.0497 0.59064-0.0254 0.84204-0.0825 0.27899-0.25894 0.55638-0.50449 0.83484-0.25878 0.29355-0.53254 0.53017-0.87348 0.86134-0.46965 0.46087-0.93618 0.98604-1.3013 1.6013-0.36562 0.61611-0.63595 1.3412-0.67396 2.1185-0.0338 0.67145 0.10806 1.3116 0.27961 1.8715 0.007 0.0215 0.54711 1.6153 0.52693 1.5502 0.37409 1.1708 0.49369 2.4001 0.25872 3.5435-0.21972 1.0651-0.70907 1.9975-1.1938 3.1928-0.2689 0.65388-0.4534 1.178-0.74217 1.6695-0.27857 0.47394-0.61355 0.81738-0.97903 0.98119-0.36591 0.16336-0.7885 0.18634-1.4456 0.2368-0.58603 0.0451-1.4279 0.12886-2.146 0.60681-0.41131 0.27035-0.73144 0.6405-0.94 0.86729-0.2414 0.26242-0.39176 0.40119-0.53765 0.47426-0.12279 0.0606-0.29597 0.10558-0.56349 0.13872-0.19157 0.0238-0.65236 0.0584-0.97708 0.11603-1.0368 0.19613-2.0022 0.738-2.7115 1.5258z"/>
   <path style="color-rendering:auto;color:#000000;isolation:auto;mix-blend-mode:normal;shape-rendering:auto;solid-color:#000000;image-rendering:auto" d="m-156.77 391.21c0.25563 0.3031 0.51467 0.60377 0.77708 0.90197 0.56265-0.34964 1.1074-0.72722 1.6316-1.1308 2.4141-1.8226 3.8419-3.614 6.1296-4.7959 1.7905-0.92667 3.8981-1.2512 5.904-0.92375 1.0649 0.16939 2.0811 0.51621 2.9524 1.0641 0.87142 0.54787 1.5941 1.3028 2.0314 2.1824 0.85319 1.6908-0.10004 0.0845 0.84979 2.0108 0.19198 0.3789 0.43671 0.77628 0.76496 1.1326 0.32871 0.35696 0.75028 0.67917 1.2571 0.87201 0.46938 0.17789 0.94449 0.21811 1.3557 0.20799 0.4028-0.01 0.79798-0.0703 1.1136-0.11448 0.33656-0.0471 0.61062-0.0804 0.87115-0.0758 0.25505 0.004 0.4666 0.0478 0.62901 0.12466 0.18267 0.0878 0.36134 0.2515 0.50771 0.47951 0.14644 0.22841 0.25395 0.50712 0.33525 0.83125 0.0544 0.23085 0.28023 1.8463 0.40056 2.2956 0.15994 0.59239 0.53724 1.4394 0.67632 1.8575 0.18484 0.55516 0.24304 1.0521 0.11274 1.449-0.0687 0.22273-0.2082 0.44787-0.40727 0.6709-0.20133 0.22546-0.44197 0.42815-0.7231 0.65649-0.26967 0.21901-0.58444 0.4677-0.86743 0.75362-0.28723 0.29015-0.56475 0.64212-0.74532 1.064-0.30899 0.70573-0.28377 1.4701-0.18528 2.1092 0.11887 0.77063 0.25475 1.1056 0.33524 1.7719 0.0704 0.6007 0.0229 1.5889 0.26746 2.3656 0.13898 0.42605 0.37835 0.85774 0.75595 1.1769 0.1919 0.15612 0.41561 0.28091 0.66047 0.35436 0.24485 0.0735 0.50958 0.0943 0.76798 0.0481 0.39133-0.0651 0.72533-0.27673 0.97062-0.53035 0.24517-0.25364 0.413-0.55489 0.53521-0.84539 0.30613-0.69889 0.30077-1.0364 0.59421-1.6042 0.29389-0.56379 0.81005-1.0158 1.416-1.2517 0.60563-0.23581 1.2976-0.25817 1.9344-0.0738 0.87101 0.25564 1.5999 0.8624 2.3544 1.5001 0.65474 0.55185 1.2872 1.0882 1.6898 1.783 0.50764 0.88098 0.60624 1.9714 0.43218 3.0099-0.11252 0.69116-0.33013 1.3386-0.50252 2.0483-0.16919 0.69652-0.28472 1.4378-0.15958 2.1653 0.16806 0.99846 0.78101 1.881 1.1831 2.7481 0.56533 1.2276 0.80297 2.6183 0.59262 3.9545-0.21223 1.3478-0.86566 2.5984-1.6824 3.7076-0.6789 0.92463-1.487 1.7815-2.1288 2.7417-0.39085 0.59135-0.71986 1.2224-0.98042 1.8795 0.27781-0.65003 0.6226-1.2704 1.0267-1.848 0.65979-0.95358 1.4662-1.7765 2.1722-2.7062 0.83674-1.1049 1.5221-2.3683 1.7584-3.7474 0.23482-1.3701 0.0104-2.8025-0.55431-4.074-0.41272-0.93586-0.96838-1.7442-1.1107-2.6998-0.0973-0.67133 0.0254-1.3624 0.20847-2.0379 0.17949-0.66236 0.42935-1.3598 0.56307-2.0636 0.20271-1.0934 0.12802-2.2934-0.42799-3.2981-0.43257-0.78579-1.1179-1.3868-1.751-1.9446-0.7231-0.63531-1.5253-1.341-2.52-1.6539-0.74222-0.23596-1.5676-0.23559-2.3128 0.0324-0.74485 0.26782-1.4006 0.80468-1.7918 1.5094-0.25207 0.45095-0.49602 1.267-0.66538 1.6217-0.1176 0.23531-0.25456 0.43672-0.42196 0.58783-0.16751 0.151-0.35899 0.24214-0.5401 0.25841-0.1194 0.008-0.24478-0.0152-0.3612-0.0648-0.11644-0.0495-0.22618-0.12576-0.32101-0.22152-0.19583-0.18439-0.33722-0.45019-0.41971-0.75453-0.19689-0.68499-0.0889-1.2638-0.17372-2.1825-0.0484-0.54162-0.23135-1.3852-0.28437-1.8173-0.0692-0.56419-0.0443-1.0686 0.14759-1.4699 0.11593-0.2336 0.2991-0.45296 0.52959-0.66237 0.23504-0.21361 0.49631-0.39973 0.79726-0.61928 0.28901-0.21085 0.61675-0.45459 0.91126-0.75083 0.29696-0.29876 0.58234-0.67442 0.75339-1.1306 0.29935-0.81928 0.15908-1.6768-0.0439-2.3521-0.24438-0.8134-0.44375-1.1382-0.60067-1.7963-0.25227-1.0452-0.0664-0.98237-0.33406-2.2581-0.0849-0.4271-0.22324-0.88784-0.46946-1.3212-0.24651-0.43368-0.61209-0.85218-1.107-1.1296-0.43589-0.24555-0.90753-0.3468-1.3312-0.37916-0.41859-0.032-0.82482-0.0004-1.1642 0.0283-0.36023 0.0304-0.64215 0.0566-0.91935 0.0475-0.26922-0.009-0.48192-0.0525-0.64426-0.1277-0.17051-0.0784-0.34308-0.21527-0.49817-0.40458-0.15575-0.1899-0.29068-0.4253-0.41416-0.70457 0.29311 0.63612-0.9939-2.4471-0.80348-2.0436-0.60888-1.2761-1.6006-2.3227-2.7461-3.0686-1.1456-0.746-2.441-1.1991-3.7393-1.4266-2.4553-0.42188-5.0488-0.0506-7.2856 1.0834-2.4532 1.2454-4.6399 3.5791-6.4865 4.953-0.47308 0.34417-0.96309 0.66441-1.4675 0.95916 0.1489 0.36676 0.29406 0.73538 0.43545 1.1058z"/>
   <path style="color-rendering:auto;color:#000000;isolation:auto;mix-blend-mode:normal;shape-rendering:auto;solid-color:#000000;image-rendering:auto" d="m-123.14 501.66c0.0948-0.49634 0.30147-0.97512 0.60056-1.3876 0.28771-0.3978 0.66827-0.75058 1.142-1.1709 0.507-0.44836 1.1024-0.9604 1.6171-1.5575 0.52211-0.60561 1.0055-1.353 1.2344-2.2309 0.21204-0.81413 0.17373-1.6774 0.17767-2.2776 0.004-0.66702 0.0576-1.1694 0.25412-1.5581 0.26643-0.52227 0.72929-0.82492 1.4606-1.4897 0.32424-0.30095 0.68094-0.67175 0.9523-1.1343 0.27277-0.46465 0.46899-1.0504 0.42037-1.6779-0.0379-0.4568-0.20095-0.85722-0.3715-1.1757-0.16366-0.30544-0.37193-0.60122-0.5134-0.81573-0.15639-0.23711-0.26924-0.42872-0.33963-0.61601-0.0691-0.1832-0.0843-0.33967-0.0651-0.45387 0.0128-0.0895 0.0568-0.19366 0.13693-0.29704 0.0802-0.10321 0.19292-0.20094 0.33624-0.28889 0.3047-0.17523 0.66307-0.26916 1.1326-0.39004 0.4378-0.11267 0.98627-0.25458 1.4757-0.55658 0.24745-0.15815 0.4859-0.36212 0.67716-0.61928 0.19134-0.25717 0.33447-0.5693 0.38076-0.91117 0.0869-0.59094-0.13385-1.1467-0.4351-1.5484-0.30062-0.40052-0.69454-0.68618-1.0488-0.90916-0.38724-0.24372-0.67685-0.38994-0.9895-0.61355-0.28902-0.20662-0.51771-0.4346-0.64755-0.69218-0.0994-0.19189-0.15254-0.4217-0.16143-0.67002-0.009-0.24852 0.0258-0.50775 0.0878-0.77803 0.0831-0.33577 0.42076-1.2938 0.518-1.7259 0.20065-0.86816 0.18171-2.2653 0.3071-2.9985 0.0438-0.29034 0.13433-0.67931 0.15689-1.0344 0.024-0.37593-0.0213-0.8072-0.25159-1.1716-0.21199-0.33394-0.54761-0.55433-0.89066-0.66595-0.34324-0.1116-0.70093-0.12247-1.0315-0.0875-0.419 0.0384-1.5001 0.32043-1.8323 0.35898-0.58045 0.0673-1.182-0.0223-1.7034-0.28121-0.76428-0.38447-1.3315-1.1233-1.6342-1.9548-0.30259-0.83134-0.35794-1.7429-0.29721-2.6473 0.0578-0.86494 0.22472-1.806-0.0319-2.6829-0.17729-0.59509-0.53718-1.1124-0.91703-1.5782-0.38308-0.46969-0.79246-0.89992-1.1253-1.3938-0.67165-1.0142-0.9778-2.2287-1.175-3.4407-0.0771-0.43655-0.14145-0.87563-0.19289-1.3165 0.0328 0.44264 0.0786 0.88459 0.13731 1.3251 0.17861 1.2142 0.46822 2.4503 1.1364 3.4935 0.32108 0.51017 0.72737 0.96656 1.0872 1.437 0.36292 0.47455 0.68542 0.97619 0.83288 1.5346 0.22349 0.82848 0.0475 1.6987-0.0319 2.6002-0.0809 0.92239-0.0466 1.8841 0.25927 2.7811 0.30579 0.89681 0.9082 1.7357 1.7717 2.1925 0.58708 0.31399 1.2676 0.43573 1.9288 0.37919 0.90201-0.077 1.0091-0.25212 1.8267-0.30204 0.28795-0.0128 0.56313 0.0175 0.80469 0.11304 0.24171 0.0957 0.44031 0.25717 0.54835 0.45491 0.11865 0.21522 0.14527 0.49494 0.10932 0.793-0.0384 0.31925-0.12571 0.58759-0.20402 0.96339-0.2342 1.2294-0.0843 1.8739-0.35328 2.945-0.18862 0.72981-0.33745 0.87415-0.56778 1.6934-0.0914 0.30794-0.16218 0.64269-0.17233 0.99243-0.0101 0.34999 0.0415 0.72346 0.19392 1.0744 0.20562 0.46554 0.55726 0.82334 0.90429 1.0974 0.32455 0.25635 0.73185 0.50294 1.0111 0.69771 0.31123 0.21707 0.55956 0.42943 0.72579 0.676 0.16534 0.24589 0.2232 0.50265 0.18142 0.69982-0.0279 0.11276-0.0915 0.23006-0.18596 0.33425-0.0944 0.10436-0.21938 0.19737-0.36796 0.27482-0.30288 0.16899-0.6646 0.25589-1.1242 0.35443-0.42769 0.0917-0.98191 0.20308-1.4889 0.46568-0.26268 0.13084-0.52779 0.30861-0.75619 0.54819-0.22831 0.23956-0.42239 0.54531-0.5226 0.90321-0.1268 0.46297-0.0756 0.92492 0.0381 1.3085 0.11251 0.38002 0.29241 0.71413 0.44762 0.98529 0.16835 0.29415 0.29446 0.49569 0.39745 0.72293 0.0971 0.21459 0.13957 0.38726 0.13854 0.52598 0.002 0.18129-0.0667 0.40467-0.2166 0.63166-0.15125 0.22955-0.36821 0.4474-0.64998 0.6854-0.47875 0.41522-1.4177 1.0652-1.9135 1.9755-0.44503 0.81407-0.51155 1.721-0.53523 2.4171-0.0261 0.76304-0.0165 1.2863-0.16346 1.7881-0.1388 0.47471-0.43529 0.93981-0.84088 1.385-0.41328 0.45376-0.89486 0.84869-1.4509 1.3145-0.47177 0.39393-1.0366 0.87163-1.4996 1.4707-0.50781 0.65817-0.86928 1.429-1.0504 2.2446z"/>
   <path style="color-rendering:auto;color:#000000;isolation:auto;mix-blend-mode:normal;shape-rendering:auto;solid-color:#000000;image-rendering:auto" d="m-146.67 503.83c0.9145-0.62897 1.9636-1.0684 3.0572-1.2791 1.1981-0.22993 2.4582-0.18659 3.6598 0.11612 0.4589 0.11167 1.4983 0.46205 2.5046 0.34105 0.78015-0.096 1.4517-0.4493 1.8573-0.65624 0.48098-0.24558 0.71933-0.35278 0.93824-0.38721 0.20205-0.0315 0.48681 0.007 0.90686 0.15307 0.23484 0.0817 1.0642 0.42715 1.5184 0.56471 1.3877 0.43184 2.8126 0.35978 4.0355 0.18896 0.79458-0.11494 1.3391-0.23534 1.981-0.28497 0.59455-0.0461 1.1028-0.003 1.5151 0.15284 0.46158 0.17539 0.87026 0.50478 1.486 0.99494 0.55674 0.44333 1.3244 1.0415 2.2829 1.3066 0.72741 0.19913 1.4684 0.17344 1.9811 0.16422 0.57315-0.0104 0.95714-0.002 1.2841 0.0982 0.25436 0.0766 0.49947 0.22701 0.69828 0.43337 0.19865 0.20627 0.35315 0.47073 0.44312 0.76366 0.1517 0.51592 0.11724 1.1102 0.0331 1.9008-0.0773 0.72611-0.20205 1.6915 0.003 2.6432 0.2012 0.93164 0.73321 1.8556 1.5968 2.4321 0.41707 0.27325 0.87655 0.4382 1.1944 0.55755 0.35501 0.13327 0.58987 0.22985 0.77741 0.36009 0.21616 0.15268 0.40101 0.39054 0.51947 0.68063 0.11822 0.28984 0.1702 0.62778 0.15484 0.98606-0.0345 0.63844-0.27828 1.2918-0.66332 1.9054-0.001 0.002-0.61861 0.94279-0.67688 1.04-0.2378 0.39649-0.47639 0.88818-0.5532 1.4511-0.0872 0.63093 0.0473 1.2303 0.2161 1.72 0.15091 0.43758 0.40545 0.97708 0.53632 1.3062 0.3174 0.81058 0.24535 0.80835 0.59356 1.7226 0.23289 0.61161 0.56233 1.278 1.1015 1.8086 0.60291 0.59663 1.6451 1.0751 2.092 1.3792 0.74011 0.50676 1.3121 1.2633 1.5849 2.1162 0.20922 0.64672 0.25657 1.3518 0.28811 2.1326 0.0305 0.75566 0.0481 1.607 0.24733 2.4326 0.42949 1.8097 0.89058 1.8773 1.1759 3.4316 0.14141 0.75409 0.0746 1.5044 0.0693 2.4019-0.005 0.85627 0.0621 1.8391 0.53213 2.6954 0.29519 0.53182 0.76001 1.0067 1.0589 1.3765 0.16624 0.19848 0.3095 0.39217 0.41759 0.59484 0.10771 0.20186 0.17736 0.40948 0.19473 0.61154 0.0218 0.30867-0.0776 0.64197-0.26189 0.95851-0.18528 0.31811-0.44019 0.60281-0.72938 0.90305-0.63801 0.64682-1.3085 1.2421-2.0657 1.687-0.75637 0.44447-1.603 0.73178-2.4542 0.7338-1.2378 0.003-1.3171-0.27831-2.683-0.30973-0.48132-0.007-0.98768 0.0612-1.446 0.27847-0.45862 0.21733-0.86613 0.59563-1.0516 1.0906-0.13436 0.36517-0.13573 0.75857-0.0591 1.1152 0.0767 0.35656 0.22996 0.68526 0.4054 0.98268 0.3627 0.63342 0.77034 1.0759 1.0521 1.6884 0.32803 0.71824 0.39297 1.5467 0.28041 2.3485-0.11259 0.80195-0.39363 1.5755-0.72614 2.3296-0.47834 1.0752-1.055 2.1035-1.6235 3.1421-0.65501 1.1937-1.2967 2.3958-2.1184 3.4735-0.68139 0.89614-1.4967 1.7159-2.126 2.6594-0.24271 0.3737-0.45621 0.76554-0.63816 1.1708 0.19815-0.39758 0.42666-0.77924 0.68264-1.1406 0.64526-0.93506 1.4596-1.7239 2.1666-2.6238 0.8425-1.0753 1.5045-2.2774 2.1742-3.4607 0.58223-1.0263 1.1795-2.0544 1.6785-3.1317 0.35147-0.75249 0.66054-1.5442 0.7961-2.3781 0.13558-0.83406 0.091-1.725-0.25125-2.5195-0.26051-0.60895-0.7308-1.2061-1.018-1.7405-0.14902-0.28679-0.26407-0.57999-0.3118-0.88003-0.0477-0.30002-0.0242-0.60101 0.0866-0.85762 0.14621-0.34643 0.45772-0.62278 0.82318-0.77826 0.36568-0.15567 0.78252-0.19984 1.2052-0.17718 0.4419 0.019 2.126 0.35387 2.6968 0.36378 0.9945 0.0171 1.9629-0.29837 2.8074-0.77276 0.84371-0.47392 1.5773-1.1049 2.2484-1.7594 0.3047-0.29039 0.63156-0.61875 0.8854-1.014 0.25486-0.39692 0.4477-0.88859 0.43471-1.4171-0.005-0.3484-0.0991-0.68001-0.2315-0.97404-0.13203-0.2933-0.30445-0.55586-0.4772-0.79184-0.37791-0.50008-0.69681-0.82468-0.92206-1.2646-0.32238-0.61934-0.37935-1.3761-0.35694-2.1947 0.0212-0.77771 0.11574-1.7177-0.0323-2.6139-0.14275-0.84859-1.0097-2.9351-1.1355-3.5025-0.14927-0.68865-0.15011-1.405-0.16389-2.2026-0.0134-0.77254-0.0418-1.6397-0.29127-2.4778-0.34247-1.1394-1.0788-2.1484-2.0473-2.8368-0.8545-0.61044-1.3548-0.72722-1.8703-1.2624-0.31897-0.33424-0.5452-0.78932-0.73021-1.3222-0.0783-0.22553-0.42977-1.4241-0.54655-1.7505-0.18787-0.53248-0.33298-0.82651-0.46439-1.2632-0.11572-0.38485-0.15567-0.7155-0.10399-0.99385 0.0469-0.24721 0.17405-0.5118 0.37145-0.80988 0.39488-0.5965 0.24846-0.30587 0.70987-0.99163 0.51141-0.7764 0.90972-1.7055 0.98766-2.7173 0.0475-0.56636-0.006-1.1701-0.21319-1.7481-0.20698-0.57769-0.57139-1.1306-1.0937-1.5382-0.40276-0.31656-0.85794-0.51236-1.1899-0.65568-0.36758-0.15873-0.60659-0.264-0.80068-0.40786-0.35249-0.25064-0.61905-0.69105-0.71462-1.2001-0.10713-0.56596-0.0274-1.1713 0.0782-1.984 0.0972-0.74878 0.21828-1.7389-0.0419-2.7176-0.1575-0.60613-0.45465-1.186-0.88147-1.6714-0.42668-0.48524-0.98031-0.87154-1.6093-1.0939-0.72522-0.2547-1.4742-0.26359-2.0119-0.27121-0.59778-0.009-0.98657-0.0192-1.3268-0.12676-0.42885-0.13252-0.84282-0.43664-1.4039-0.90666-0.50346-0.42166-1.2134-1.0516-2.0916-1.4146-0.87974-0.36393-1.7998-0.42135-2.5955-0.38083-0.74895 0.0381-1.5765 0.17926-2.1634 0.2487-1.0903 0.13516-2.0626 0.13407-2.8986-0.14124-0.53877-0.18515-0.63864-0.28611-1.3806-0.57411-0.55398-0.21491-1.3067-0.44011-2.1376-0.35911-0.77354 0.0751-1.453 0.40666-1.8692 0.60067-0.48972 0.22808-0.73868 0.32438-0.94863 0.33708-0.33628 0.025-0.60893-0.0883-1.4578-0.31935-1.5925-0.42273-3.2846-0.50737-4.9253-0.21408-1.4977 0.26691-2.9388 0.84612-4.2072 1.6927z"/>
   <path style="color-rendering:auto;color:#000000;isolation:auto;mix-blend-mode:normal;shape-rendering:auto;solid-color:#000000;image-rendering:auto" d="m-186.15 565.16c-0.46541 0.34705-0.93688 0.67763-1.4135 0.99159-0.0571 1.2451-0.19569 2.4869-0.41497 3.7148-0.1787 1.0201-0.40778 2.0001-0.73738 2.9264-0.34932 0.97695-1.0841 2.4776-1.2028 3.9793-0.12502 1.5836 0.38435 3.0698 0.97294 4.2861 0.24819 0.49973 0.55392 1.05 0.96784 1.5567 0.41567 0.5089 0.96102 0.99433 1.6442 1.3045 0.81899 0.37493 1.8096 0.44143 2.3052 0.51864 0.30024 0.0417 0.53421 0.0914 0.7296 0.16499 0.19246 0.0722 0.32413 0.16232 0.40334 0.24499 0.094 0.0994 0.18299 0.27136 0.29542 0.59333 0.0928 0.26603 0.23482 0.75149 0.45819 1.1689 0.3652 0.69355 0.93733 1.2162 1.5457 1.568 0.60818 0.35163 1.2635 0.5451 1.8815 0.65212 1.0513 0.19047 2.5636 0.16349 3.3518 0.24487 0.64455 0.0631 1.2565 0.19781 1.8071 0.43277 0.55031 0.23477 1.035 0.57147 1.3908 0.99337 0.40992 0.48777 0.67043 1.0969 1.0071 1.8615 0.31635 0.71859 0.7161 1.5946 1.4 2.285 0.55379 0.55625 1.2526 0.94777 1.995 1.1445 0.74257 0.19679 1.5235 0.19878 2.256 0.0279 0.76918-0.17847 1.5086-0.56308 2.0692-0.80736 0.61229-0.26688 1.1512-0.4323 1.649-0.39243 0.46448 0.0366 0.94346 0.26061 1.4344 0.60255 0.70522 0.49131 0.7436 0.62022 1.5381 1.1906 0.39084 0.2768 0.84698 0.55116 1.3696 0.70913 0.52407 0.15851 1.1351 0.19819 1.7096-0.008 0.41776-0.15279 0.77494-0.42331 1.0401-0.75218 0.26529-0.32909 0.43876-0.71468 0.52585-1.1073 0.18381-0.78351 0.0232-1.5858-0.29316-2.2501-0.27353-0.57649-0.95383-1.4797-1.176-1.8825-0.16264-0.28468-0.28129-0.57017-0.32838-0.85525-0.0471-0.28449-0.0182-0.56703 0.092-0.79545 0.0886-0.18775 0.24063-0.35576 0.43249-0.47688 0.19172-0.12096 0.42196-0.19512 0.66495-0.217 0.48655-0.0339 0.9964 0.1425 1.4459 0.44575 0.0774 0.0524 1.3292 1.0916 1.5076 1.2081 0.29645 0.1878 0.6356 0.34422 1.0058 0.40286 0.37045 0.0588 0.77462 0.0141 1.1172-0.18083 0.4201-0.23653 0.67958-0.65871 0.80609-1.0726 0.12608-0.41286 0.13873-0.84301 0.13909-1.2372 0.00036-0.40266-0.0107-0.78002 0.0533-1.149 0.0633-0.36527 0.20686-0.71577 0.46073-0.95806 0.15699-0.15493 0.35937-0.26851 0.58056-0.33666 0.22111-0.0681 0.45831-0.091 0.69753-0.0802 0.47951 0.0316 0.94151 0.19406 1.4088 0.36248 1.5168 0.57052 3.0399 1.1681 4.6384 1.4598 1.1451 0.20611 2.3176 0.25182 3.4726 0.13614-1.1568 0.0961-2.3255 0.0303-3.4616-0.19406-1.5871-0.30953-3.0966-0.92278-4.6072-1.512-0.455-0.18476-0.93128-0.37509-1.4357-0.42857-0.25275-0.0317-0.51598-0.0288-0.77254 0.0283-0.25649 0.0571-0.50864 0.16998-0.71826 0.34593-0.3317 0.28608-0.51815 0.69921-0.61003 1.1073-0.0911 0.40443-0.0994 0.82217-0.11902 1.2081-0.02 0.39459-0.0529 0.76348-0.1744 1.0998-0.1213 0.33533-0.33362 0.6164-0.60913 0.75302-0.22381 0.10894-0.49733 0.1273-0.75896 0.0687-0.26198-0.0585-0.51425-0.18977-0.75107-0.36112-0.88005-0.61432-0.49638-0.5503-1.4634-1.2492-0.52508-0.38036-1.1874-0.65695-1.8899-0.63212-0.35147 0.008-0.71179 0.0914-1.0368 0.26594-0.32477 0.17442-0.61306 0.44047-0.80373 0.77842-0.23199 0.41567-0.29379 0.89344-0.24641 1.3322 0.0472 0.43831 0.19882 0.84465 0.37891 1.204 0.45823 0.88732 0.76534 1.1043 1.0967 1.8553 0.22538 0.51377 0.29769 1.0623 0.1699 1.5375-0.0688 0.23667-0.18583 0.44931-0.33909 0.61535-0.15345 0.16615-0.34322 0.28518-0.53919 0.34153-0.26683 0.0806-0.59066 0.0594-0.91269-0.0548-0.32365-0.11459-0.63701-0.31303-0.96109-0.56494-0.25698-0.19658-1.161-0.98373-1.516-1.2475-0.56606-0.42044-1.2829-0.82846-2.1154-0.92175-0.8833-0.0983-1.7188 0.17574-2.387 0.44469-0.72089 0.29005-1.2321 0.54871-1.8195 0.6669-0.49363 0.0983-1.0048 0.077-1.4715-0.0633-0.46684-0.14038-0.89102-0.40106-1.2117-0.74548-0.41953-0.44653-0.69543-1.0474-0.99931-1.7869-0.28496-0.69329-0.62569-1.5802-1.2164-2.3217-0.5522-0.69453-1.2759-1.2113-2.0398-1.563-0.76358-0.35151-1.5714-0.54421-2.3568-0.64309-1.3887-0.16886-2.0969-0.0608-3.1983-0.28125-0.45904-0.097-0.86364-0.2441-1.1967-0.45442-0.33284-0.21038-0.57984-0.47873-0.71321-0.76168-0.1023-0.22636-0.14593-0.43586-0.26781-0.85907-0.10449-0.36253-0.27236-0.88125-0.62956-1.3411-0.34842-0.44923-0.80184-0.75309-1.2361-0.95162-0.43163-0.19746-0.86861-0.30454-1.2417-0.37878-0.84885-0.15779-1.2631-0.17393-1.6787-0.38255-0.25374-0.13016-0.50449-0.35205-0.73159-0.65476-0.22902-0.30505-0.42279-0.6711-0.61879-1.1068-0.48959-1.0538-0.76641-2.0576-0.67806-2.9783 0.0995-1.0393 0.57693-1.868 1.1086-3.2851 0.41657-1.1061 0.69853-2.2386 0.91362-3.3474 0.25604-1.3416 0.4241-2.7003 0.50285-4.0647-0.43976-0.39438-0.88694-0.77279-1.3407-1.1349z"/>
   <path style="color-rendering:auto;color:#000000;isolation:auto;mix-blend-mode:normal;shape-rendering:auto;solid-color:#000000;image-rendering:auto" d="m-295.91 565.12c-1.5034 0.51538-2.7954 1.5871-3.5792 2.9654-0.54618 0.96339-0.81165 2.0027-0.9761 2.9308-0.12031 0.68505-0.25243 1.6619 0.0529 2.6421 0.46638 1.487 0.25861 0.27647 0.4735 1.1722 0.0306 0.13147 0.008 0.38669-0.18326 0.78689-0.59565 1.2444-0.0856-0.0115-0.82423 1.4848-0.66012 1.3252-0.8463 2.7842-0.78822 4.1256 0.13786 3.1762 0.24219 0.59395 0.34444 3.4549 0.0139 0.32052 0.006 0.95776 0.0682 1.471 0.0689 0.57339 0.24483 1.2841 0.71233 1.902 0.50166 0.66061 0.48544 0.44804 0.54479 0.60666-0.0117-0.0337 0.01-0.0285 0.009 0.0619-0.00091 0.09-0.0233 0.21533-0.0814 0.41713-0.0902 0.29936-0.40003 1.0852-0.33666 1.8669 0.0442 0.52144 0.23313 0.98123 0.46077 1.3506 0.22699 0.36817 0.50254 0.66595 0.75411 0.90425 0.53025 0.51293 2.6468 1.9886 2.8577 2.1737 0.69213 0.60549 0.96358 1.0561 1.8061 1.8931 0.6991 0.69463 1.6754 1.4576 2.9164 1.6624 1.0604 0.17422 2.0778-0.10091 2.8917-0.48002 0.79705-0.37135 1.5143-0.89058 2.1031-1.2925 0.62549-0.42701 1.1647-0.76361 1.7277-0.9542 0.55526-0.18812 1.0798-0.19718 1.4697-0.041 0.30982 0.12145 0.49891 0.2902 1.0235 0.61658 0.43748 0.27233 1.1156 0.63052 1.918 0.59257 0.41237-0.0219 0.78664-0.14633 1.1001-0.30898 0.313-0.16246 0.57554-0.36726 0.79241-0.56738 0.31609-0.28692 0.85049-0.90873 0.99578-1.0554 0.2745-0.27723 0.49065-0.40507 0.65449-0.44101 0.078-0.02 0.13414-0.0147 0.16192-0.0101 0.0267 0.002 0.0331 0.0155 0.0238-0.0101 0.031 0.10402 0.0225-0.016 0.0812 0.45905 0.0219 0.15879 0.0563 0.38515 0.13739 0.61957 0.0824 0.23832 0.22464 0.51671 0.4702 0.75028 0.25044 0.23832 0.55562 0.37759 0.85269 0.43574 0.29741 0.0582 0.5865 0.0365 0.84024-0.0282 0.50322-0.12345 0.88754-0.41702 1.1519-0.66316 0.0287-0.0267 0.70205-0.71385 0.62352-0.63862 0.16867-0.16174 0.28881-0.23205 0.37164-0.25833 0.0902-0.028 0.2456-0.0249 0.44525 0.0582 0.20348 0.0851 0.40802 0.22834 0.66908 0.43672 0.23568 0.18815 0.55733 0.46413 0.9072 0.67895 0.36363 0.22334 0.83348 0.42832 1.368 0.44408 0.43308 0.0118 0.8338-0.10386 1.1676-0.26319 0.3327-0.15887 0.61564-0.36742 0.85261-0.56498 0.53942-0.44263 0.77618-0.72991 1.1841-0.96007 0.36401-0.20508 0.81768-0.29795 1.2968-0.28035 0.47953 0.0177 0.97279 0.14118 1.4764 0.33046 0.67899 0.25875 2.3354 1.1422 3.2304 1.4465 1.441 0.49092 2.9646 0.54372 4.3916 0.45014 1.3261-0.087 2.9156-0.33765 4.153-0.44259 1.3206-0.11216 2.5714-0.0873 3.6107 0.4145 1.1191 0.53934 1.4401 1.137 2.7577 1.9376 0.48763 0.29363 1.1133 0.57002 1.5268 0.78957 0.46792 0.24843 0.85823 0.51444 1.1276 0.85169-0.49279-0.62098 1.4512 2.308 1.181 1.9892 0.41318 0.48498 0.95726 0.81292 1.5083 1.0144 0.55042 0.20122 1.12 0.28486 1.6576 0.32003 1.165 0.0815 2.0004-0.0342 2.9742 0.15176 1.3511 0.26022 2.3682 1.0016 3.8621 1.6057 1.5922 0.64459 3.3152 0.88615 4.9001 1.1734 1.3469 0.24334 2.7583 0.5489 4.1856 0.65319 1.0778 0.0775 2.1533 0.0403 3.2012-0.0137 0.5072-0.0286 1.0783-0.0635 1.6331-0.22313 0.55938-0.16087 1.1389-0.46708 1.5325-0.98425 0.28567-0.37755 0.43591-0.81984 0.50727-1.2386 0.071-0.4168 0.0697-0.83197 0.0597-1.2098-0.009-0.2743-0.0194-0.49235 0.008-0.70541 0.0267-0.20661 0.0903-0.3766 0.1864-0.49297 0.10647-0.12817 0.284-0.22386 0.49842-0.26246 0.21478-0.0385 0.45234-0.0215 0.71188 0.0293 0.45735 0.0939 1.1511 0.35879 1.7855 0.33293 0.47706-0.0209 0.91948-0.18927 1.299-0.39622 0.37511-0.20455 0.71971-0.46237 1.0346-0.68597 0.45739-0.32228 0.90731-0.61287 1.3932-0.80179 0.48416-0.18829 0.99944-0.26605 1.472-0.16368 0.52874 0.11507 1.0012 0.44774 1.4862 0.83862 0.4685 0.37766 0.9843 0.83297 1.6056 1.097 0.92118 0.39404 2.0157 0.31898 2.8772-0.17519 0.86184-0.49438 1.4685-1.3891 1.6273-2.3615 0.13554-0.833-0.0555-1.7562-0.0733-2.4965-0.0119-0.39273 0.0187-0.77643 0.13726-1.1271 0.11846-0.35028 0.3302-0.66445 0.62077-0.85838 0.30279-0.20188 0.68911-0.27662 1.0981-0.29614 0.37547-0.0179 0.86229 0.0104 1.2748-0.0287 0.88698-0.0792 1.7159-0.4611 2.4973-0.76547 0.79453-0.30949 1.6154-0.55632 2.4118-0.42132 0.32686 0.0523 0.61876 0.16077 0.96887 0.24895 0.3362 0.0847 0.70951 0.14028 1.0703 0.0509 0.36409-0.0902 0.67471-0.32039 0.90428-0.59605 0.22951-0.27562 0.38669-0.59932 0.50985-0.92243 0.25534-0.656 0.38523-1.3184 0.77326-1.8603 0.27338-0.38416 0.66252-0.67971 1.0866-0.91007 0.42459-0.23066 0.88044-0.39762 1.3391-0.57257 0.64673-0.24452 1.2997-0.50659 1.872-0.90495 0.5728-0.39867 1.0651-0.94926 1.2724-1.6177 0.12178-0.39922 0.13717-0.82886 0.0455-1.2334-0.0917-0.40456-0.29022-0.78297-0.56874-1.0869 0.27127 0.31046 0.459 0.69145 0.54006 1.093 0.0811 0.40163 0.0553 0.82297-0.0727 1.2095-0.21125 0.6484-0.69949 1.1802-1.2663 1.5629-0.56725 0.383-1.2138 0.63249-1.863 0.86748-0.45833 0.16439-0.92783 0.32565-1.3671 0.55303-0.43985 0.22767-0.8584 0.52952-1.1602 0.93612-0.41346 0.56023-0.57398 1.2775-0.82176 1.888-0.12852 0.31013-0.28366 0.60362-0.4973 0.84566-0.21361 0.24197-0.48666 0.42658-0.78613 0.49159-0.29789 0.0646-0.61716 0.0126-0.93456-0.0772-0.30366-0.0859-0.64906-0.21886-0.98864-0.28333-0.89047-0.16147-1.7886 0.10736-2.5936 0.41038-0.81825 0.30801-1.5834 0.65042-2.4033 0.71421-0.42904 0.0307-0.78904-0.0131-1.2575-0.002-0.43502 0.0107-0.91642 0.08-1.3226 0.33717-0.39628 0.25072-0.6703 0.65019-0.82421 1.0715-0.1538 0.42093-0.19599 0.86678-0.1933 1.2922 0.0108 0.89605 0.18797 1.619 0.0512 2.3999-0.1427 0.81793-0.66414 1.5631-1.3816 1.9644-0.71777 0.40142-1.6243 0.44987-2.3689 0.12173-0.52185-0.23167-0.95331-0.62312-1.4485-1.0353-0.47911-0.39876-1.047-0.83044-1.7336-0.99142-0.6292-0.14798-1.2809-0.0494-1.8536 0.1619-0.57105 0.21067-1.0831 0.53338-1.555 0.85383-0.343 0.23114-0.64662 0.44699-0.97805 0.61727-0.327 0.16798-0.65847 0.27579-0.98087 0.28172-0.51778 0.012-0.9236-0.19548-1.5933-0.34498-0.3042-0.0704-0.6502-0.11701-1.0051-0.0665-0.35534 0.0506-0.7346 0.20678-1.0096 0.51124-0.2476 0.27334-0.36614 0.61485-0.41821 0.92192-0.0511 0.30088-0.0463 0.60587-0.0476 0.8515 0.00008 0.37103-0.0106 0.70924-0.0739 1.0292-0.063 0.31803-0.17724 0.59983-0.34969 0.81489-0.2336 0.29422-0.60569 0.50125-1.0343 0.61551-0.43319 0.11554-0.89607 0.13907-1.4135 0.15832-1.0425 0.0439-2.0639 0.0684-3.0726-0.0137-1.3528-0.10839-2.6743-0.40546-4.0694-0.66761-1.6507-0.30929-3.2216-0.53925-4.6756-1.138-1.1629-0.47951-2.5981-1.4037-4.0626-1.6962-1.0213-0.20535-2.2451-0.13064-3.1077-0.19933-0.47608-0.0404-0.92108-0.12024-1.3225-0.27603-0.40084-0.1556-0.74655-0.38613-0.98672-0.68007-1.2435-1.5084 0.29339-0.12837-1.1304-1.9732-0.4213-0.54802-0.98728-0.9229-1.5062-1.2102-0.5728-0.31711-0.98361-0.48681-1.4529-0.78078-0.63918-0.39597-1.9122-1.5599-2.8556-2.0247-1.3826-0.68033-2.9485-0.68209-4.3141-0.57609-1.5291 0.11882-2.6847 0.32698-4.1288 0.41146-1.3432 0.0786-2.6529 0.009-3.8364-0.40391-1.3205-0.46145-1.663-0.86683-3.1697-1.4556-0.58969-0.23302-1.2434-0.41924-1.9346-0.45667-0.69168-0.0374-1.4363 0.0788-2.1002 0.43705-0.56369 0.3039-1.1053 0.83302-1.4278 1.0882-0.19437 0.15057-0.36891 0.263-0.5396 0.33629-0.16974 0.0728-0.32064 0.0989-0.44166 0.0893-0.15076-0.0108-0.33829-0.0796-0.55488-0.22198-0.2306-0.15148-0.42586-0.331-0.71972-0.57968-0.26887-0.22751-0.61591-0.50606-1.0394-0.7-0.4277-0.19575-0.98511-0.3225-1.5609-0.18232-0.49029 0.11867-0.87102 0.4009-1.1379 0.63924-0.51748 0.46199-0.22402 0.25291-0.63639 0.61065-0.17408 0.15085-0.29347 0.20645-0.36636 0.21809-0.029 0.002-0.0529-0.005-0.0397-0.009 0.01-0.002 0.0359-0.003 0.0767 0.0303 0.0383 0.0307 0.0364 0.0404 0.0301 0.002-0.009-0.0481-0.0168-0.10336-0.0262-0.23971-0.0166-0.18623-0.0315-0.75389-0.30569-1.2358-0.24178-0.42668-0.62979-0.72303-1.0401-0.87787-0.41076-0.15511-0.83828-0.17196-1.2192-0.10537-0.75347 0.13649-1.3298 0.58835-1.7207 0.96608-0.5214 0.50376-0.56198 0.6353-0.94329 0.96599-0.13163 0.11085-0.24785 0.18631-0.35241 0.23319-0.10417 0.0466-0.18697 0.0601-0.2414 0.0572-0.12055-0.00041-0.32409-0.062-0.66637-0.28565-0.25516-0.16658-0.80157-0.58684-1.3451-0.8166-1.0184-0.42702-2.1157-0.33275-3.0084-0.0439-0.88516 0.28629-1.6525 0.77345-2.2918 1.1979-0.67637 0.44911-1.2083 0.82238-1.797 1.0872-0.57206 0.25722-1.1072 0.35416-1.5506 0.27423-0.52747-0.0942-1.0736-0.45811-1.6406-1.0342-0.42513-0.43181-1.2404-1.4314-1.8918-2.0143-1.5481-1.3823-1.6022-0.98353-2.7557-2.1189-0.16338-0.16612-0.27431-0.30701-0.34572-0.43557-0.0706-0.12747-0.0913-0.22482-0.0904-0.28138-0.005-0.18318 0.0561-0.31008 0.25825-0.93412 0.0854-0.25605 0.18746-0.60052 0.21935-0.98933 0.0321-0.39262-0.005-0.8737-0.22615-1.344-0.14239-0.30076-0.95951-1.3161-0.77599-1.0443-0.0777-0.11253-0.15419-0.31523-0.18619-0.64791-0.0381-0.39456-0.0112-0.66964-0.0239-1.2622 0.0146 0.53662-0.34565-4.3319-0.31596-3.4793-0.0361-1.0351 0.12518-2.0084 0.53258-2.8086-0.24821 0.48048 0.97224-1.7146 0.85945-1.4897 0.3121-0.6226 0.62905-1.524 0.44444-2.5124-0.0383-0.20626-0.6317-1.8788-0.5171-1.4693-0.0849-0.29492-0.0668-0.69333 0.0529-1.3202 0.14965-0.79242 0.35175-1.4679 0.6749-2.0222 0.44762-0.77159 1.1913-1.3766 2.0341-1.6574z"/>
   <path style="color-rendering:auto;color:#000000;isolation:auto;mix-blend-mode:normal;shape-rendering:auto;solid-color:#000000;image-rendering:auto" d="m-310.91 567.26c0.24289 0.73068 0.46291 1.4693 0.65958 2.2143 0.18159 0.68504 0.34452 1.38 0.50996 2.0955 0.19827 0.86274 0.28989 1.3924 0.19461 1.8433 7.1512-33.641-7.8316 35.297-0.97029 2.5043-0.19282 0.92879-0.0261 2.0407-0.005 2.4865 0.0193 0.31949 0.008 0.56405-0.0344 0.76258-0.0418 0.19587-0.11336 0.32032-0.16843 0.38542-0.0724 0.0857-0.2145 0.17321-0.5719 0.35961-0.29781 0.15516-0.8263 0.42052-1.2468 0.87197-0.39699 0.42739-0.62957 0.94128-0.74047 1.4336-0.11081 0.49237-0.10491 0.97301-0.0471 1.3994 0.11458 0.94466 0.96302 2.962 1.0411 3.2744 0.0716 0.25378 0.0959 0.42288 0.1835 0.78931 0.1794 0.80168 0.32252 1.109 0.33098 1.5688 0.009 0.48442-0.13557 0.76497-0.2852 1.6171 0.0104-0.061-0.20154 1.5123-0.16495 1.2864-0.0574 0.35495-0.14202 0.598-0.2524 0.76111-0.088 0.13499-0.22565 0.26229-0.48489 0.49205-0.22618 0.20039-0.57173 0.5031-0.82813 0.90792-0.24442 0.38665-0.36429 0.80161-0.44277 1.0831-0.0902 0.32386-0.13552 0.49884-0.21342 0.66119-0.1547 0.29957-0.49181 0.54859-0.88897 0.62289-0.39542 0.0737-0.85251-0.019-1.2475-0.26279-0.556-0.34724-0.9594-0.93443-1.4687-1.7101-0.47122-0.71778-1.0878-1.6563-2.0496-2.2231-0.89815-0.52853-1.9443-0.64317-2.8784-0.51935-0.93284 0.12375-1.7893 0.47579-2.5448 0.86522-0.96159 0.49367-1.6254 0.94154-2.432 1.1109-1.3595 0.28213-1.7368-0.15413-3.5459 0.0139-1.1437 0.10748-2.237 0.57217-3.1398 0.887-1.0893 0.37878-2.1162 0.63946-3.2767 1.0096-1.1339 0.36178-2.1113 0.73292-3.1463 0.82187-1.2664 0.10727-2.3732-0.19726-3.8599-0.30433-1.3667-0.0983-2.8639 0.04-4.1492 0.76228-0.19065 0.11048-0.90762 0.59001-1.0106 0.65158-0.30632 0.18317-0.58781 0.29705-0.85011 0.31311-2.2798 0.1282 1.2082-0.23688-1.3875-0.13681-0.30772 0.016-0.66824 0.10368-0.96291 0.3458-0.14482 0.12449-0.26878 0.28578-0.34541 0.47608-0.0767 0.19025-0.10354 0.40766-0.0598 0.62076 0.0568 0.29249 0.23347 0.51312 0.40433 0.65767 0.16861 0.14239 0.35796 0.2357 0.49948 0.30376 0.15559 0.0748 0.26386 0.1248 0.35926 0.19185 0.09 0.0628 0.14383 0.12944 0.1671 0.18412 0.0254 0.0613 0.0248 0.15665-0.0205 0.26469-0.0457 0.10799-0.12766 0.2134-0.24145 0.32588-0.14306 0.14133-0.21672 0.19049-0.38843 0.35396-0.13845 0.13177-0.28331 0.2917-0.38186 0.48982-0.17528 0.33845-0.17916 0.73515-0.0631 1.0707 0.11633 0.33605 0.34672 0.61391 0.61499 0.8131 0.52805 0.40261 1.2028 0.51206 1.8026 0.56712 1.6156 0.1629 3.3787 0.0317 4.9607 0.13978 0.30419 0.0137 0.59852 0.0361 0.87511 0.11833 0.27551 0.0819 0.53341 0.22837 0.70343 0.44793 0.12069 0.15152 0.19926 0.33928 0.23987 0.53883 0.0406 0.19952 0.0436 0.40762 0.0264 0.61705-0.0246 0.23899-0.18322 1.0079-0.20817 1.2566-0.11559 1.0298 0.27403 2.099 1.0163 2.8098-0.73058-0.72345-1.0956-1.7924-0.96488-2.8036 0.0841-0.59427 0.17255-0.64643 0.25956-1.2501 0.035-0.21255 0.0506-0.43386 0.0242-0.65424-0.0264-0.22034-0.0965-0.44351-0.22564-0.6361-0.18984-0.27625-0.48365-0.46192-0.78987-0.57217-0.3052-0.10991-0.62669-0.15116-0.93357-0.18237-1.7141-0.13507-3.2743-0.004-4.9453-0.19042-0.5971-0.0721-1.1656-0.19314-1.5852-0.5328-0.20548-0.17198-0.35965-0.39123-0.42633-0.62858-0.0667-0.2379-0.0402-0.49058 0.0735-0.68028 0.0703-0.11049 0.17421-0.2094 0.30134-0.30842 0.0903-0.0704 0.30923-0.22358 0.42627-0.31823 0.14983-0.12122 0.31278-0.27762 0.42826-0.48304 0.11546-0.20575 0.18809-0.47799 0.12325-0.75796-0.0584-0.25548-0.2151-0.4563-0.3726-0.59775-0.15313-0.13773-0.32976-0.2416-0.45724-0.3207-0.14017-0.087-0.23545-0.15241-0.30403-0.22743-0.0661-0.0732-0.0829-0.13228-0.0775-0.1583 0.006-0.0165 0.0165-0.042 0.0365-0.0636 0.0195-0.0221 0.0492-0.0473 0.0881-0.0665 0.0722-0.0457 0.19142-0.0785 0.35012-0.0734-1.7337-0.005 2.8104 0.16841 1.3925 0.18849 0.5345-0.006 1.0167-0.20565 1.4044-0.41488 0.59411-0.32054 0.51784-0.33557 1.0274-0.60162 0.99457-0.54137 2.2133-0.66364 3.4454-0.55853 1.1605 0.0988 2.6839 0.45475 4.0648 0.35607 1.2326-0.0869 2.4198-0.51525 3.4577-0.82911 1.0341-0.31279 2.24-0.61176 3.3272-0.97157 1.0503-0.34662 1.8929-0.69411 2.8037-0.76398 0.60745-0.0475 2.6987 0.20977 3.7185 0.0139 1.0854-0.20679 2.0895-0.82663 2.8512-1.2005 0.68645-0.33536 1.3574-0.58097 2.0264-0.65473 0.66789-0.0735 1.3099 0.0386 1.7961 0.3402 0.55594 0.34379 0.96167 0.93761 1.447 1.7093 0.44884 0.7135 1.0354 1.6712 1.9689 2.2822 0.71504 0.47055 1.6236 0.7188 2.5309 0.57877 0.90529-0.13984 1.7853-0.68202 2.2668-1.5394 0.20777-0.36068 0.33059-0.75786 0.41493-1.0042 0.0977-0.28502 0.16667-0.44507 0.24968-0.55354 0.0889-0.11698 0.21843-0.23007 0.47259-0.43128 0.21674-0.17167 0.57329-0.44461 0.85597-0.81036 0.40489-0.52924 0.58659-1.1355 0.68765-1.6292 0.21811-1.0645 0.0237-0.37673 0.21578-1.2763 0.0735-0.35737 0.36359-1.2689 0.3752-2.0151 0.0121-0.77553-0.25054-1.6563-0.32942-2.0634-0.031-0.17929-0.0852-0.573-0.14668-0.86167-0.42355-1.8231-0.81217-1.7627-0.94007-2.9994-0.0162-0.21787 0.002-0.39537 0.0446-0.5332 0.0428-0.13759 0.10652-0.22489 0.15834-0.26594 0.0857-0.0712 0.19898-0.13776 0.55588-0.30248 0.28343-0.13094 0.81588-0.36483 1.2576-0.77732 0.50084-0.46857 0.79282-1.06 0.94552-1.61 0.15218-0.54773 0.17878-1.083 0.17248-1.5345-0.0222-0.98567-0.11864-1.335-0.005-1.8061 8.7946-37.175-8.1016 35.569 1.0109-2.4486 0.28207-1.1745 0.0242-2.3422-0.13559-3.1097-0.14852-0.71903-0.30328-1.4581-0.48064-2.1971-0.19504-0.80923-0.41557-1.6126-0.6612-2.4085z"/>
   <path style="color-rendering:auto;color:#000000;isolation:auto;mix-blend-mode:normal;shape-rendering:auto;solid-color:#000000;image-rendering:auto" d="m-408.24 470.9c-0.67901-0.70606-1.3682-1.4018-2.0672-2.0871-1.7834-1.7993-3.4981-3.3983-5.1568-5.173-0.69905-0.72948-1.5318-1.6556-2.5276-2.384-1.0169-0.74425-2.3444-1.3685-3.8142-1.3376-1.3468 0.0299-2.5316 0.61288-3.4238 1.1013-0.96823 0.5303-1.6572 0.96176-2.4433 1.1709-0.74713 0.19873-1.5726 0.16062-2.3227-0.11124-0.74978-0.27177-1.4287-0.77857-1.9199-1.4364-0.89-1.2177-0.97597-2.3452-1.8389-4.1306-0.43356-0.87376-1.0269-1.7401-1.8508-2.401-0.82423-0.66146-1.8977-1.1069-3.0232-1.0586-1.1754 0.0488-2.2149 0.63345-3.0088 1.066-0.85048 0.46363-1.5812 0.8235-2.3218 0.825-0.41182 0.0111-0.84806-0.0949-1.2886-0.28519-0.4424-0.19119-0.86375-0.4532-1.3121-0.74853-0.85404-0.58998-1.8546-1.3393-3.0466-1.5497-1.2282-0.21728-2.4596 0.17808-3.4402 0.78963-0.97864 0.61051-1.7762 1.4483-2.5103 2.2509-0.54408 0.60394-1.0622 1.1968-1.6554 1.7074-0.59014 0.50804-1.2579 0.93013-1.9937 1.1318-0.83034 0.22463-1.7321 0.16397-2.5909-0.0705-0.85879-0.23447-1.6679-0.6325-2.4612-1.0702-1.3606-0.77018-2.662-1.6486-3.8878-2.6248 1.1963 1.0122 2.4738 1.9313 3.8172 2.7454 0.76905 0.47751 1.5763 0.92925 2.4512 1.2172 0.87485 0.28794 1.8402 0.41112 2.77 0.21038 0.83045-0.17666 1.5852-0.59878 2.247-1.105 0.6588-0.50383 1.2406-1.0974 1.8089-1.6594 0.77376-0.7767 1.5373-1.5056 2.4343-2.0132 0.89537-0.50646 1.9076-0.75322 2.8225-0.54991 0.9174 0.20412 1.6924 0.82402 2.5796 1.4955 0.4233 0.33472 0.88953 0.68867 1.4126 0.9715 0.52519 0.28386 1.1376 0.5101 1.8013 0.55325 1.1593 0.0578 2.2254-0.44829 3.0656-0.8543 0.90002-0.43462 1.616-0.76523 2.3441-0.75702 0.63674 0.009 1.2926 0.30177 1.8186 0.77393 0.52678 0.47239 0.93371 1.1132 1.2459 1.8371 0.47403 1.0607 0.97148 3.157 1.8969 4.5084 0.68238 1.0108 1.664 1.8301 2.8111 2.3094 1.1466 0.47904 2.4471 0.61159 3.6866 0.34567 1.1707-0.2507 2.2464-0.85337 3.0616-1.2518 0.89409-0.4368 1.613-0.69944 2.2787-0.67866 0.67856 0.0198 1.4163 0.35074 2.1095 0.90769 0.71488 0.57374 1.3029 1.285 2.0554 2.1418 1.6516 1.836 3.4836 3.6224 5.1165 5.3338 0.6446 0.69606 1.2787 1.4014 1.902 2.1156z"/>
   <path style="color-rendering:auto;color:#000000;isolation:auto;mix-blend-mode:normal;shape-rendering:auto;solid-color:#000000;image-rendering:auto" d="m-434.12 460.36c-0.0289 0.3998-0.12286 0.79615-0.27718 1.1678-0.10624 0.25607-0.45129 0.89771-0.59466 1.3546-0.2032 0.64483-0.20825 1.3198-0.22331 1.8405-0.0162 0.56004-0.0466 1.0045-0.19739 1.3862-0.11261 0.2885-0.3004 0.55732-0.54975 0.90642-0.23215 0.32499-0.52745 0.7348-0.71109 1.2148-0.17727 0.46364-0.23357 0.9574-0.28564 1.3245-0.0566 0.3992-0.11514 0.70447-0.24168 0.95671-0.12404 0.24713-0.33577 0.47477-0.61016 0.67055-0.2759 0.19681-0.59735 0.35237-0.96209 0.50602-0.6854 0.28372-1.6414 0.59418-2.3465 1.245-0.7829 0.72194-1.1708 1.789-1.5244 2.5238-0.41325 0.86041-0.67295 1.2138-1.1289 2.1389-0.37124 0.75327-0.69961 1.6014-0.76842 2.5128-0.0522 0.70374 0.0597 1.4375 0.10714 2.0245 0.0507 0.6262 0.0385 1.1894-0.15528 1.6668-0.16466 0.40785-0.45853 0.75797-0.81586 1.1956-0.33707 0.41278-0.73916 0.92257-0.92541 1.5476-0.13726 0.46514-0.14049 0.94457-0.0749 1.3848 0.0654 0.43926 0.1997 0.8536 0.34341 1.2343 0.29572 0.79758 0.60781 1.4256 0.68949 2.1326 0.0746 0.64305-0.0809 1.3006-0.4648 1.7599-0.27388 0.33005-0.65702 0.56647-1.1123 0.8432-0.43313 0.26326-0.94939 0.57842-1.3244 1.0522-0.27716 0.35227-0.45506 0.76489-0.54874 1.1823-0.0937 0.4174-0.10526 0.84208-0.0664 1.249 0.0723 0.80617 0.34406 1.5719 0.58548 2.2728 0.35439 1.0356 0.69135 2.0645 0.93794 3.1129 0.17108 0.72054 0.28193 1.4132 0.13176 2.0546-0.1836 0.77959-0.74542 1.4454-1.4069 2.0488-0.63803 0.58192-1.4306 1.1726-2.0087 1.9229-0.68228 0.88434-1.0606 1.9795-1.1247 3.081-0.0642 1.1016 0.17964 2.2064 0.64687 3.1923 0.25973 0.54569 0.85993 1.5107 1.1003 1.9996 0.32431 0.6597 0.53171 1.3655 0.42269 2.0361-0.0897 0.55724-0.38858 1.0649-0.71448 1.6066-0.31737 0.52756-0.67059 1.1174-0.7748 1.7853-0.11476 0.73258 0.0848 1.4621 0.30615 2.1091 0.22629 0.66141 0.47629 1.2688 0.53783 1.9153 0.0569 0.5935-0.0497 1.1959-0.17586 1.8143-0.12444 0.61019-0.26932 1.2517-0.26285 1.9042 0.006 0.40319 0.0703 0.81046 0.21512 1.1925 0.14486 0.38204 0.37168 0.73792 0.6776 1.015 0.53864 0.49285 1.2734 0.69664 1.9087 0.92577 0.32422 0.11435 0.6384 0.24117 0.91973 0.41973 0.2809 0.17828 0.52793 0.41085 0.68242 0.69641 0.23656 0.44275 0.24065 0.97722 0.2062 1.5097-0.034 0.52526-0.0988 1.0852 0.0473 1.614 0.10307 0.36766 0.30275 0.69778 0.52255 0.99794 0.23421 0.31984 0.45067 0.56006 0.67939 0.8763 0.38273 0.53574 0.67262 1.1327 0.94297 1.7377 0.60587 1.371 1.1201 2.8122 1.1795 4.3084 0.044 1.0741-0.15154 2.1586-0.5692 3.1515 0.42656-0.98912 0.63271-2.0738 0.59822-3.1526-0.0499-1.503-0.557-2.9527-1.1553-4.3306-0.26147-0.60892-0.54516-1.2162-0.92491-1.7646-0.197-0.28798-0.46085-0.61182-0.65605-0.89358-0.2091-0.30183-0.38944-0.62143-0.47685-0.96796-0.12839-0.50019-0.0583-1.027-0.0138-1.5638 0.044-0.52971 0.0565-1.1151-0.19974-1.6166-0.16651-0.32952-0.43589-0.59469-0.7353-0.79668-0.299-0.20171-0.6299-0.34504-0.95668-0.47064-0.66667-0.251-1.3227-0.44275-1.8017-0.8935-0.26107-0.24865-0.45435-0.56759-0.57504-0.91171-0.1207-0.34415-0.17054-0.71364-0.16664-1.0836 0.003-0.60638 0.14698-1.2037 0.28368-1.825 0.13491-0.61323 0.26457-1.2674 0.21155-1.928-0.0574-0.71037-0.32399-1.3876-0.52971-2.018-0.21045-0.64496-0.36557-1.2843-0.26071-1.8961 0.0965-0.56056 0.4046-1.0683 0.73728-1.6024 0.32398-0.52009 0.69004-1.1066 0.80876-1.7768 0.14541-0.82697-0.10437-1.6559-0.44125-2.3638-0.4186-0.87972-0.68855-1.175-1.0711-2.0059-0.42149-0.9111-0.63101-1.9186-0.56417-2.9078 0.0669-0.98931 0.41567-1.9579 1.0202-2.7267 0.53971-0.68523 1.2389-1.1828 1.952-1.8194 0.68943-0.61552 1.3927-1.3919 1.6369-2.3809 0.20119-0.81114 0.063-1.6458-0.10172-2.3816-0.24582-1.0882-0.5836-2.1492-0.92994-3.1912-0.23988-0.72656-0.46633-1.4019-0.51958-2.0969-0.0239-0.34366-0.003-0.68098 0.0763-0.9966 0.0796-0.31564 0.21866-0.6068 0.41363-0.84143 0.27237-0.3307 0.65931-0.56675 1.1137-0.83141 0.43219-0.25174 0.95803-0.55167 1.3528-1.009 0.58387-0.67973 0.78913-1.5999 0.70262-2.4428-0.0882-0.85727-0.46991-1.6794-0.71286-2.3603-0.12537-0.35864-0.22382-0.70116-0.26581-1.0414-0.0419-0.33928-0.0242-0.66526 0.0688-0.95257 0.1283-0.4024 0.40722-0.76325 0.75736-1.1766 0.32952-0.38905 0.75482-0.866 1.0036-1.4503 0.30477-0.71822 0.30804-1.4949 0.2642-2.1607-0.0464-0.70515-0.13145-1.2653-0.0789-1.853 0.0614-0.6998 0.3268-1.392 0.67852-2.0846 0.2649-0.52161 0.86618-1.5429 1.1599-2.1362 0.44869-0.90764 0.71056-1.6347 1.2774-2.1458 0.5033-0.45315 1.163-0.65601 1.9941-0.98855 0.39342-0.15486 0.82127-0.34292 1.2185-0.61187 0.39877-0.27002 0.78469-0.63672 1.0407-1.1147 0.247-0.46101 0.33842-0.96281 0.40443-1.3595 0.0713-0.42866 0.11782-0.74333 0.23569-1.029 0.11782-0.28589 0.31116-0.55176 0.56556-0.89075 0.23663-0.31533 0.543-0.71722 0.74194-1.1908 0.26773-0.64151 0.30615-1.3256 0.33145-1.8704 0.0272-0.58426 0.0449-1.033 0.18179-1.4405 0.14845-0.43892 0.30489-0.60477 0.57276-1.2137 0.22717-0.51674 0.37079-1.0704 0.42328-1.634z"/>
   <path style="color-rendering:auto;color:#000000;isolation:auto;mix-blend-mode:normal;shape-rendering:auto;solid-color:#000000;image-rendering:auto" d="m-412.17 554.59-0.3203-0.92393c-1.386 0.49005-2.766 0.9965-4.1398 1.5192-0.62201 0.24146-1.4804 0.56898-2.1318 1.2235-0.38182 0.38861-0.64799 0.85282-0.84405 1.1837-0.21625 0.36501-0.37676 0.61864-0.57361 0.80793-0.25708 0.24304-0.62567 0.41336-1.1282 0.58869-0.45466 0.15858-1.0994 0.34539-1.66 0.6675-0.6405 0.36682-1.1485 0.89062-1.5596 1.3102-0.43682 0.44587-0.79749 0.80562-1.2167 1.0465-0.0809 0.0463-1.4934 0.63881-1.8513 0.87829-0.53421 0.36001-0.93144 0.85224-1.2227 1.3497-0.28994 0.49523-0.49156 1.0199-0.66283 1.5023-0.25352 0.70178-0.51643 1.5171-0.51133 2.3817 0.005 0.95653 0.33753 1.8527 0.76418 2.6141 0.33069 0.584 0.60045 0.92812 0.82559 1.4217 0.1051 0.21942 0.18091 0.43536 0.21675 0.64707 0.0359 0.21137 0.0303 0.41723-0.0198 0.59884-0.066 0.23043-0.21611 0.4582-0.42951 0.67161-0.21559 0.21547-0.47336 0.39869-0.77038 0.6018-0.28603 0.19559-0.61467 0.41379-0.90847 0.67887-0.29761 0.26847-0.5804 0.60547-0.74694 1.0182-0.14222 0.35588-0.18462 0.73812-0.14798 1.1012 0.0367 0.3632 0.15137 0.70841 0.31385 1.0169 0.31616 0.61955 0.8224 1.0993 1.3449 1.4737 0.4246 0.30208 0.91088 0.57307 1.4549 0.69334 0.47792 0.10489 0.99528 0.0847 1.4078 0.10357 0.43824 0.02 0.84237 0.0879 1.1522 0.29627 0.29453 0.19753 0.50657 0.52732 0.64486 0.90574 0.13977 0.38265 0.20228 0.78501 0.28878 1.2218 0.145 0.76939 0.36614 1.5886 0.89128 2.2276 0.54033 0.65801 1.3303 1.0347 2.0632 1.3506 1.5922 0.69764 3.2627 1.2842 5.0039 1.4719 0.75765 0.0764 1.4873 0.0757 2.2106 0.22232 0.71547 0.145 1.4205 0.45362 1.8678 1.0136 0.36453 0.45354 0.53525 1.0392 0.62801 1.6319 0.0917 0.58564 0.11571 1.2021 0.2351 1.7902 0.17941 0.90771 0.5909 1.766 1.1824 2.4715-0.57755-0.71702-0.96909-1.5795-1.129-2.4815-0.10226-0.59492-0.10464-1.1892-0.18091-1.7953-0.0754-0.59914-0.23217-1.2206-0.60698-1.7168-0.4674-0.61525-1.2103-0.957-1.9506-1.1259-0.73249-0.16713-1.5037-0.18916-2.2259-0.27982-1.698-0.20105-3.3314-0.792-4.902-1.4999-0.73215-0.33537-1.4352-0.69908-1.8992-1.291-0.44557-0.56893-0.63535-1.3083-0.75973-2.065-0.0637-0.41199-0.11594-0.87009-0.25382-1.3035-0.13933-0.43783-0.38463-0.89078-0.79372-1.1917-0.42948-0.31537-0.96063-0.40929-1.4266-0.44927-0.4919-0.0423-0.89268-0.0355-1.2965-0.14149-0.42002-0.10935-0.81381-0.34105-1.1866-0.62746-0.4639-0.35364-0.85551-0.76258-1.0824-1.2423-0.10898-0.24112-0.17344-0.49372-0.18318-0.74177-0.01-0.24816 0.0361-0.49008 0.13475-0.69792 0.11369-0.24298 0.30809-0.4632 0.55071-0.66031 0.24668-0.20049 0.52332-0.36567 0.83648-0.55725 0.30186-0.18466 0.64255-0.39738 0.94648-0.67101 0.30625-0.2758 0.59806-0.63668 0.75459-1.0845 0.1265-0.35625 0.15446-0.73024 0.11937-1.0806-0.035-0.35003-0.13188-0.67999-0.25218-0.97998-0.22738-0.54493-0.61121-1.1365-0.82579-1.5456-0.35055-0.66005-0.56868-1.3451-0.55662-2.0087 0.0119-0.61158 0.21439-1.2304 0.47927-1.9109 0.18329-0.46293 0.36476-0.87842 0.59871-1.2464 0.23266-0.36583 0.50655-0.66205 0.81771-0.85456 0.76725-0.48123 0.68391-0.18598 1.7809-0.77271 0.64627-0.34479 1.1666-0.8503 1.5932-1.2606 0.45334-0.43592 0.8214-0.78106 1.2438-1.0055 0.39275-0.20757 0.81175-0.31024 1.3936-0.49168 0.53352-0.16643 1.2066-0.40813 1.7618-0.89372 0.41914-0.36379 0.71411-0.81636 0.93504-1.1546 0.24247-0.37115 0.41051-0.62432 0.61908-0.81618 0.33853-0.32029 0.82017-0.51384 1.5004-0.75769 1.366-0.50047 2.7379-0.98471 4.1152-1.4526l-0.3203-0.92393z"/>
   <path style="color-rendering:auto;color:#000000;isolation:auto;mix-blend-mode:normal;shape-rendering:auto;solid-color:#000000;image-rendering:auto" d="m-361.47 327.51 0.46726-0.73604c-0.63335-0.39652-1.2579-0.80727-1.8731-1.2318-0.56331-0.38843-1.199-0.84727-1.8932-1.2046-0.8713-0.44971-1.8912-0.76344-2.9557-0.71351-1.0165 0.0477-1.9912 0.43561-2.7467 0.68572-1.0107 0.33282-2.3912 0.67523-3.4966 1.0751-1.1433 0.41409-1.9703 0.81734-2.8825 0.81065-0.77888-0.005-1.522-0.31812-2.4775-0.67397-0.49993-0.18398-1.0525-0.37164-1.6397-0.47265-0.59008-0.10152-1.2406-0.11774-1.8786 0.0532-0.59366 0.1594-1.1069 0.46315-1.536 0.75628-0.48093 0.32856-0.76493 0.56767-1.1814 0.82961-0.68399 0.42549-1.4658 0.71089-2.284 0.86879-0.79632 0.15379-1.6202 0.18688-2.4384 0.11082-0.31068-0.0263-0.74852-0.0853-1.1644-0.0709-0.43517 0.0151-0.9494 0.1133-1.3891 0.42485-0.4389 0.3109-0.69649 0.76311-0.87031 1.0948-0.1945 0.37132-0.30393 0.61111-0.48072 0.80893-0.14854 0.16673-0.35544 0.29888-0.59339 0.37819-0.23781 0.0792-0.50481 0.1062-0.78066 0.0835-0.90174-0.0844-1.4712-0.53657-2.616-0.90803-0.92685-0.30032-1.8996-0.36779-2.7726-0.43527-0.7929-0.0609-1.6861-0.13677-2.5678 0.0203-0.84632 0.15099-1.7222 0.53851-2.3245 1.2527-0.32187 0.38471-0.5454 0.84943-0.73179 1.1923-0.20151 0.37074-0.39243 0.663-0.64057 0.85681-0.21475 0.16849-0.48431 0.2624-0.74494 0.25759-0.26089-0.005-0.51798-0.11141-0.69369-0.28828-0.14263-0.14007-0.18832-0.24613-0.39074-0.49771-0.0862-0.10348-0.19183-0.2166-0.32216-0.3154-0.13077-0.0992-0.29197-0.18743-0.47848-0.23102-0.2315-0.0553-0.45695-0.03-0.64425 0.0238-0.18631 0.0536-0.34891 0.13869-0.48205 0.21646-0.30103 0.16991-0.44746 0.2804-0.64082 0.32107-0.11323 0.0254-0.24824 0.0192-0.39854-0.018-0.15175-0.0375-0.30432-0.10155-0.47861-0.18191-0.32178-0.15329-0.76702-0.39282-1.2573-0.39691-0.26628-0.00001-0.51817 0.0686-0.73848 0.1668-0.21996 0.0981-0.41526 0.22789-0.58878 0.35962-0.38003 0.28217-0.60949 0.52063-0.94665 0.71716-0.35384 0.20552-0.76526 0.31239-1.2197 0.41955-0.44072 0.10391-0.93611 0.21265-1.3872 0.44054-0.4549 0.22977-0.83579 0.56595-1.1779 0.87784-0.35054 0.31957-0.66994 0.6203-1.0403 0.84317-0.23367 0.1426-0.47836 0.24581-0.72648 0.27759-0.24791 0.0318-0.49865-0.0129-0.68925-0.13857-0.21469-0.14228-0.36525-0.3926-0.45974-0.68496-0.0982-0.30394-0.13043-0.59899-0.20714-0.95225-0.0729-0.33549-0.1797-0.67298-0.34827-0.98506-0.16864-0.31224-0.40157-0.59983-0.70077-0.80827-0.52926-0.37317-1.1951-0.4504-1.7942-0.44176-1.0635 0.0118-2.1494 0.27609-3.0374 0.88405-0.65932 0.45273-1.2203 1.1134-1.7956 1.6015-0.53899 0.45792-1.1567 0.82827-1.832 1.0042-0.67515 0.17589-1.4123 0.14636-2.0339-0.15403-0.49779-0.2395-0.90683-0.63942-1.2799-1.0735-0.36869-0.4289-0.71813-0.90635-1.135-1.3103-0.25984-0.25002-0.65319-0.56075-0.90609-0.80058-0.28847-0.27355-0.5467-0.58446-0.68133-0.95016-0.11959-0.32324-0.13849-0.67599-0.14589-1.0313-0.007-0.35331-0.005-0.71603-0.0906-1.0646-0.14816-0.6189-0.5824-1.1601-1.1497-1.4385-0.56754-0.27853-1.2569-0.28887-1.8293-0.031 0.57635-0.24943 1.2611-0.22696 1.8167 0.0561 0.55585 0.28317 0.97232 0.82157 1.1075 1.426 0.0745 0.34225 0.063 0.69676 0.061 1.0525-0.002 0.35372 0.007 0.72321 0.12424 1.0683 0.1345 0.3934 0.40001 0.72595 0.68939 1.0134 0.32412 0.32203 0.57237 0.50413 0.88567 0.81994 0.40331 0.40368 0.72869 0.86694 1.1031 1.3171 0.3701 0.445 0.79578 0.87991 1.331 1.1483 0.67456 0.33687 1.4703 0.37634 2.1953 0.19749 0.72491-0.17883 1.3825-0.56405 1.9504-1.034 0.64724-0.53622 1.1278-1.1186 1.7886-1.561 0.83054-0.55773 1.853-0.80051 2.8659-0.80259 0.57972 0.00086 1.1498 0.0884 1.5791 0.40156 0.23793 0.17611 0.42714 0.42041 0.56473 0.69352 0.13767 0.27326 0.22518 0.57452 0.28371 0.88645 0.0559 0.29785 0.0936 0.66865 0.19029 1 0.1002 0.34316 0.28601 0.71191 0.61865 0.9469 0.29933 0.21204 0.67181 0.281 1.0155 0.24819 0.34351-0.0327 0.66249-0.16131 0.94207-0.31999 0.43174-0.24801 0.80162-0.58432 1.1446-0.88456 0.3516-0.30779 0.68538-0.58577 1.0646-0.76773 0.37863-0.18163 0.79954-0.26738 1.2616-0.36648 0.44832-0.0962 0.95053-0.21002 1.4022-0.46009 0.37344-0.20615 0.74435-0.53565 1.0249-0.73405 0.15703-0.10817 0.30982-0.19729 0.46607-0.25823 0.15595-0.0608 0.30962-0.0905 0.45178-0.0833 0.28783 0.01 0.55857 0.15659 0.93517 0.34725 0.17517 0.0913 0.37796 0.1914 0.60118 0.25874 0.22478 0.0678 0.48662 0.10646 0.75664 0.0622 0.36444-0.0617 0.70206-0.28012 0.89882-0.38267 0.11598-0.0577 0.21145-0.0959 0.29954-0.11402 0.0872-0.0178 0.15375-0.0123 0.19698 0.004 0.0338 0.0137 0.0765 0.0396 0.12311 0.0833 0.0472 0.0441 0.095 0.10199 0.14845 0.17859 0.0779 0.10569 0.26146 0.40488 0.43454 0.5915 0.35637 0.37941 0.8596 0.59651 1.3681 0.61976 0.50865 0.0233 1.0109-0.14345 1.4099-0.43963 0.43977-0.32703 0.72668-0.78269 0.94568-1.1655 0.23483-0.41042 0.39532-0.73004 0.6336-1.002 0.39613-0.4577 1.0104-0.74442 1.6813-0.85556 0.71558-0.11886 1.4587-0.0524 2.2813 0.0203 0.90461 0.0795 1.7307 0.15034 2.4981 0.40805 0.69845 0.23418 1.8362 0.88267 2.8656 0.98945 0.41178 0.0457 0.84783 0.0212 1.2696-0.10568 0.42163-0.12686 0.82935-0.35819 1.1513-0.69768 0.32433-0.34239 0.53783-0.77883 0.69249-1.0566 0.17642-0.31672 0.31992-0.51397 0.48644-0.62373 0.15339-0.10093 0.37968-0.15834 0.66684-0.16039 0.30696-0.002 0.58754 0.0473 0.99636 0.0927 0.93757 0.0973 1.8946 0.0707 2.8324-0.10002 0.96233-0.17533 1.9162-0.50632 2.7759-1.0287 0.41943-0.2526 0.91121-0.61824 1.2451-0.83706 0.38634-0.25318 0.74117-0.44082 1.0974-0.52867 0.37398-0.0925 0.79476-0.0849 1.2338-0.001 0.442 0.0844 0.88368 0.2391 1.362 0.42493 0.82488 0.31652 1.88 0.78292 3.0042 0.80185 1.2829 0.0209 2.5186-0.55034 3.4424-0.87601 1.177-0.41548 2.1661-0.61792 3.4608-1.0332 0.90397-0.28849 1.5864-0.55335 2.3132-0.57928 0.69245-0.0247 1.4167 0.18714 2.1042 0.55149 0.56804 0.30202 1.0874 0.68658 1.6909 1.1146 0.63075 0.44691 1.2716 0.87976 1.9219 1.2981l0.46726-0.73604z"/>
   <path style="color-rendering:auto;color:#000000;isolation:auto;mix-blend-mode:normal;shape-rendering:auto;solid-color:#000000;image-rendering:auto" d="m-370.7 349.57c0.57529-0.5126 1.2082-0.88805 1.8465-1.1255 0.14807-0.40408 0.34344-0.79039 0.58133-1.1471-0.13203 0.20109 1.4027-1.8894 1.474-2.0029 0.52414-0.83529 0.93401-1.8759 0.93061-3.013-0.004-0.9508-0.33806-1.9483-0.46672-2.4694-0.086-0.31273-0.13908-0.56724-0.15531-0.7959-0.0163-0.22505 0.008-0.4043 0.0511-0.53404 0.0863-0.22232 0.31269-0.47173 0.75106-0.78106 0.3463-0.24401 1.0575-0.66304 1.5651-1.1315 0.91068-0.82686 1.4104-1.9238 1.7543-2.8474 0.30786-0.83262 0.5527-1.6833 0.74188-2.5409 0.27024-1.1985 0.3938-2.0815 0.86002-2.8296 0.38579-0.62305 1.0281-1.0924 1.7356-1.254 0.61823-0.14389 1.2942-0.0764 2.1403 0.0282 0.7935 0.0982 1.7778 0.22934 2.7509 0.0243 0.99238-0.20887 1.8425-0.74075 2.5379-1.2024 0.73212-0.48619 1.3327-0.91192 2.0114-1.1574 0.92454-0.32742 1.9868-0.29989 3.0855-0.10329 1.5358 0.27491 1.7583 0.46609 3.4046 0.77451 0.66033 0.11652 1.4828 0.21392 2.2613-0.0696 0.69943-0.25648 1.2229-0.77324 1.6162-1.2494 0.43542-0.52741 0.67737-0.92778 1.0764-1.3489 0.39222-0.41256 0.85842-0.73992 1.3736-1.1302 0.49917-0.37814 1.0313-0.80993 1.4281-1.3722 0.28299-0.40668 0.52238-0.94845 0.72561-1.3009 0.22831-0.3962 0.5038-0.73224 0.85657-0.89658 0.18631-0.0954 0.40489-0.14454 0.63374-0.14749 0.22874-0.003 0.46328 0.0397 0.69488 0.11606 0.4605 0.16962 0.87131 0.45874 1.2966 0.76693 1.1432 0.86485 2.2956 1.7795 3.6291 2.3579 1.1407 0.49214 2.3853 0.72157 3.6189 0.70401 1.1232-0.0175 2.2397-0.2383 3.2797-0.64645-1.0518 0.37688-2.1687 0.56213-3.2798 0.54619-1.221-0.0159-2.4371-0.2763-3.5369-0.78679-1.2899-0.59556-2.3982-1.5168-3.5267-2.4126-0.39726-0.32878-0.82636-0.67744-1.3293-0.90052-0.2501-0.12002-0.52542-0.21075-0.81596-0.24511-0.29045-0.0343-0.6003-0.0118-0.89458 0.0922-0.54377 0.20739-0.93405 0.65299-1.2208 1.0796-0.31522 0.46858-0.47622 0.82428-0.77491 1.1954-0.34157 0.43178-0.80229 0.7739-1.3098 1.1169-0.49102 0.33188-1.0661 0.69162-1.5535 1.1512-0.43348 0.40771-0.8684 0.97628-1.2025 1.3368-0.37943 0.4093-0.76045 0.71222-1.1736 0.8354-0.45787 0.13855-0.99419 0.073-1.6148-0.0696-0.64148-0.13936-2.639-0.71695-3.394-0.87461-1.1911-0.24866-2.5438-0.35866-3.8313 0.055-0.90897 0.28723-1.7144 0.81629-2.3949 1.23-0.71873 0.43692-1.3477 0.77358-2.0006 0.88251-0.64544 0.1074-1.3309 0.001-2.169-0.1371-0.78649-0.1298-1.7809-0.29551-2.779-0.10857-1.2333 0.23463-2.3394 0.98881-3.0349 2.0258-0.73964 1.1056-0.98175 2.4791-1.2271 3.4318-0.20093 0.7635-0.44921 1.5096-0.74892 2.2297-0.34717 0.83983-0.71805 1.496-1.2273 1.9232-0.38085 0.30945-0.71453 0.44764-1.3587 0.84797-0.54592 0.33954-1.271 0.86886-1.692 1.7119-0.27261 0.53192-0.37785 1.0964-0.39627 1.6048-0.0185 0.50547 0.046 0.9813 0.11785 1.3857 0.18072 0.91141 0.33024 1.3411 0.30381 1.8568-0.0221 0.45437-0.21529 0.96098-0.56019 1.4594-0.86561 1.254-0.39807 0.33199-1.5076 1.8732-0.38894 0.54567-0.71122 1.137-0.96063 1.7573 0.22027 0.84115 0.56695 1.5954 1.0032 2.2314z"/>
   <path style="color-rendering:auto;color:#000000;isolation:auto;mix-blend-mode:normal;shape-rendering:auto;solid-color:#000000;image-rendering:auto" d="m-223.7 345.55c-0.4304-0.3665-0.78924-0.77525-1.0733-1.2036-0.58681-0.11647-1.1553-0.32482-1.6758-0.61653-1.1245-0.63305-1.9066-1.522-3.1398-2.5512-1.0863-0.90367-1.6834-1.2418-2.6301-2.064-0.78879-0.68501-1.4212-1.426-1.7414-2.2569-0.21774-0.55308-0.28209-1.052-0.48289-1.8246-0.1798-0.6921-0.47277-1.5343-1.104-2.193-0.48832-0.50697-1.1236-0.82878-1.535-1.0588-0.46477-0.25974-0.76853-0.46877-0.94745-0.72303-0.18378-0.25979-0.25489-0.57405-0.41849-1.1352-0.0781-0.25158-0.1776-0.54584-0.32789-0.83411-0.15144-0.29062-0.36481-0.59314-0.66502-0.83559-0.39933-0.32654-0.88069-0.48311-1.3295-0.52308-0.44878-0.0399-0.87719 0.0317-1.2523 0.142-0.61021 0.17157-1.4909 0.61983-1.8857 0.76532-1.1032 0.39641-2.2953 0.37391-3.67 0.43639-1.169 0.0545-2.2079 0.16675-3.2621 0.0702-1.0344-0.0947-2.0133-0.41103-2.7006-1.0407-0.42013-0.37909-0.71135-0.83593-1.1432-1.3939-1.0692-1.4066-2.4764-2.5903-4.1248-3.2919-1.9718-0.84131-4.1525-0.94298-6.1521-1.0604-1.8259-0.10638-3.704-0.24002-5.5792-0.12122-1.6267 0.10427-3.2449 0.39956-4.8074 0.62817-2.1147 0.30611-4.3288 0.51946-6.457 1.0814-0.92177 0.24915-1.7188 0.51948-2.5363 0.46231-0.98513-0.071-1.9032-0.62668-2.7713-1.3106-0.84009-0.66189-1.7181-1.4964-2.7609-2.023-1.0454-0.5278-2.2082-0.72882-3.2988-0.89421-1.1065-0.16778-2.1758-0.30966-3.1607-0.70659-0.65042-0.25981-1.5181-0.7716-2.2613-1.0231-1.1767-0.40251-2.446-0.37697-3.6171-0.3902-1.1888-0.0134-2.3702-0.0799-3.3798-0.58816-0.52605-0.26091-1.1972-0.77998-1.8169-1.0256-0.65192-0.25789-1.3683-0.30143-2.0438-0.19724-0.67557 0.1042-1.3173 0.35222-1.9107 0.66358-1.1665 0.60181-2.2352 1.4978-3.333 2.1529-1.7628 1.0458-3.7688 1.6087-5.777 2.1021-1.6753 0.41323-3.4054 0.78235-5.09 0.47794-1.2496-0.22335-2.4092-0.80768-3.4968-1.4805-0.78993-0.48562-1.5506-1.0199-2.2763-1.599 0.71383 0.59361 1.4645 1.1439 2.2464 1.6466 1.078 0.68881 2.241 1.2981 3.5062 1.5433 1.7102 0.32824 3.4681-0.029 5.15-0.42456 2.0107-0.47478 4.0492-1.025 5.8512-2.0722 1.1793-0.68129 2.1577-1.5042 3.3463-2.0962 0.58415-0.28572 1.1986-0.50116 1.8305-0.58033 0.63191-0.0792 1.2784-0.017 1.8475 0.22714 0.65809 0.28171 1.0583 0.68891 1.761 1.0616 1.1062 0.57899 2.3858 0.66175 3.5755 0.6939 1.2074 0.0326 2.3726 0.0304 3.4411 0.41486 0.80968 0.29472 1.3408 0.69314 2.2111 1.064 1.0609 0.4486 2.2108 0.61871 3.2901 0.8011 1.0952 0.18508 2.1485 0.3921 3.0713 0.87786 0.94599 0.49785 1.6983 1.2493 2.6033 1.9873 0.8776 0.71552 1.9495 1.4257 3.1945 1.5368 0.99952 0.0909 1.9878-0.22284 2.8306-0.43217 2.0657-0.52638 4.1879-0.7099 6.3639-1.0057 1.6126-0.21674 3.1596-0.48204 4.7337-0.56447 1.7998-0.0957 3.6049 0.0504 5.4528 0.17694 2.0498 0.13939 4.021 0.25934 5.7743 1.0267 1.4356 0.63009 2.678 1.6911 3.6274 2.9695 0.33504 0.46028 0.73017 1.0969 1.2421 1.5877 0.94695 0.89799 2.2233 1.294 3.4149 1.4233 1.1719 0.12724 2.3764 0.0233 3.4433-0.009 1.2357-0.0384 2.7197 0.009 4.0821-0.45809 0.85206-0.28635 1.1346-0.51399 1.8003-0.68021 0.26298-0.0607 0.50059-0.0773 0.70854-0.045 0.20794 0.0326 0.37312 0.11374 0.47769 0.21496 0.0773 0.078 0.1527 0.19308 0.21735 0.34809 0.0659 0.15772 0.11548 0.33897 0.1674 0.56573 0.0988 0.39405 0.22672 1.0809 0.58913 1.6482 0.40975 0.64006 1.0357 1.0398 1.4966 1.319 0.51306 0.31095 0.84554 0.50015 1.0897 0.77528 0.2818 0.31403 0.46234 0.77731 0.60103 1.381 0.12016 0.52259 0.24461 1.3589 0.49547 2.0554 0.46447 1.2708 1.3515 2.2825 2.2433 3.0837 0.73665 0.66181 1.9982 1.5944 2.6282 2.1366 0.92937 0.79685 2.0879 2.0419 3.4197 2.8156 0.71245 0.41515 1.4899 0.71461 2.2943 0.88833 0.56746-0.25101 1.0767-0.56304 1.5161-0.91946z"/>
   <path style="color-rendering:auto;color:#000000;isolation:auto;mix-blend-mode:normal;shape-rendering:auto;solid-color:#000000;image-rendering:auto" d="m-333.47 317.74c-0.0772-0.0512-0.14852-0.10784-0.21347-0.16874-0.24246 0.0908-0.51346 0.10887-0.76608 0.0489-0.34183-0.0818-0.64991-0.29889-0.95431-0.56089-0.2926-0.25187-0.60809-0.56672-0.97521-0.79167-0.57359-0.35379-1.2604-0.48251-1.8481-0.64553-0.68663-0.19101-1.352-0.45509-1.9617-0.81384-0.38781-0.22678-0.82225-0.53778-1.3224-0.64362-0.45172-0.0952-0.9131-0.0163-1.3257 0.11201-0.39002 0.12129-0.82211 0.31605-1.1844 0.44066-0.77949 0.26408-1.7445 0.38763-2.5403 0.75366-0.9629 0.44222-1.7128 1.2259-2.4014 1.9856-0.69406 0.76567-1.3693 1.5408-2.238 2.0453-1.1006 0.63794-2.4556 0.78609-3.7127 0.52434-0.74845-0.15435-1.4722-0.45107-2.0701-0.9191-0.97518-0.76623-1.54-1.904-2.3102-2.927-0.42918-0.56737-0.9478-1.1147-1.6219-1.3887-0.5452-0.2208-1.1481-0.24337-1.7212-0.18249-0.57094 0.0606-1.1343 0.20238-1.6906 0.30476-1.253 0.22604-2.5204 0.26633-3.791 0.43206-1.3034 0.16991-2.5885 0.46891-3.8939 0.43221-2.01-0.0569-2.197-0.45657-4.2169-0.5162-1.4707-0.0435-2.918 0.33554-4.3258 0.74922-1.6318 0.47891-3.2483 1.0098-4.8461 1.5917 1.6002-0.57502 3.2187-1.099 4.8522-1.5708 1.4109-0.40703 2.8547-0.77717 4.3183-0.7266 0.81398 0.0282 3.3922 0.51039 4.2163 0.53796 1.3125 0.0442 2.6122-0.24964 3.9069-0.41111 1.2552-0.15645 2.5449-0.19241 3.799-0.41128 0.5685-0.0972 1.1188-0.22913 1.6846-0.28196 0.56354-0.0526 1.1392-0.0211 1.6502 0.19341 0.6316 0.26425 1.1235 0.78885 1.5406 1.3521 0.73527 0.98835 1.3323 2.1846 2.3281 2.9763 0.62202 0.49635 1.3735 0.81143 2.1466 0.97839 1.2986 0.27795 2.7142 0.13573 3.8772-0.52982 0.91225-0.52114 1.6199-1.3245 2.3115-2.0766 0.69709-0.75819 1.418-1.495 2.3257-1.9041 0.80547-0.36245 1.6305-0.42909 2.5196-0.72216 0.43384-0.14088 0.76863-0.29633 1.1822-0.41712 0.39093-0.11417 0.78867-0.16869 1.1568-0.0844 0.42546 0.0969 0.78125 0.36321 1.2076 0.62136 0.63874 0.3845 1.3329 0.66732 2.0441 0.87282 0.63594 0.18425 1.2307 0.29966 1.736 0.61945 0.325 0.20723 0.58634 0.48189 0.90716 0.76814 0.30928 0.27594 0.68043 0.5606 1.1303 0.67698 0.34039 0.0885 0.7063 0.072 1.0386-0.0446 0.0252-0.0934 0.0425-0.18675 0.052-0.27898z"/>
   <path style="color-rendering:auto;color:#000000;isolation:auto;mix-blend-mode:normal;shape-rendering:auto;solid-color:#000000;image-rendering:auto" d="m-263.76 322.51c-0.32678-0.14666-0.63959-0.32786-0.93135-0.5401-0.56266-0.42373-1.0304-0.94972-1.573-1.5119-0.59151-0.61457-1.1529-1.1478-1.5553-1.8007-0.28045-0.44705-0.47186-0.92804-0.7213-1.4634-0.24121-0.51778-0.53227-1.0668-0.97008-1.51-0.43638-0.44165-0.98867-0.74404-1.5629-0.9142-0.57433-0.17016-1.1737-0.21215-1.7531-0.16985-1.1443 0.0722-1.9879 0.40338-3.0299 0.3539-0.66372-0.0276-1.3229-0.23062-1.903-0.57417-0.58005-0.3435-1.0806-0.82553-1.4632-1.391-0.54488-0.81503-0.84036-1.7863-0.96271-2.7767-0.1089-0.87001-0.0947-1.8208-0.46464-2.6526-0.2818-0.62586-0.77571-1.1482-1.3759-1.463-0.60038-0.31495-1.3028-0.42022-1.9611-0.29941 0.66263-0.0961 1.3516 0.0366 1.925 0.36533 0.57359 0.32885 1.0284 0.85173 1.2738 1.4563 0.33385 0.81113 0.29094 1.7116 0.37868 2.6182 0.0999 1.0158 0.37935 2.0386 0.93477 2.9158 0.3841 0.61373 0.90117 1.1513 1.5178 1.5469 0.61656 0.39549 1.3331 0.64732 2.0733 0.7046 1.0066 0.0725 2.1788-0.24364 3.0842-0.27858 0.53156-0.0148 1.0578 0.0491 1.5432 0.21724 0.4855 0.16816 0.92561 0.44172 1.255 0.80701 0.33374 0.36997 0.56288 0.83829 0.77265 1.3468 0.20245 0.49072 0.40583 1.0663 0.69843 1.583 0.44033 0.76581 1.0719 1.4032 1.6072 1.9943 0.48567 0.5379 1.0063 1.1624 1.6302 1.6659 0.32943 0.27351 0.68818 0.51359 1.0691 0.71478z"/>
  </g>
 </g>
 <g transform="translate(474.43 -299.38)">
  <g>
   <path stroke-linejoin="round" style="color-rendering:auto;color:#000000;isolation:auto;mix-blend-mode:normal;shape-rendering:auto;solid-color:#000000;image-rendering:auto" d="m-239.68 558.41v-92.248h-17.885v7.2951h-4.9418l4.0005 21.885 2.7524 0.73751v17.03h-6.1646l-15.767-46.83h-13.296v92.248h20.944v-10.354l-4.1182-12.002h-5.8831v-21.179h7.4128v12.237h7.0598l9.6484 31.416z" stroke="#25156a" stroke-linecap="square" stroke-miterlimit="10" stroke-width="4" fill="none"/>
   <path style="color-rendering:auto;color:#000000;isolation:auto;mix-blend-mode:normal;shape-rendering:auto;solid-color:#000000;image-rendering:auto" d="m-239.68 558.41v-92.248h-17.885v7.2951h-4.9418l4.0005 21.885 2.7524 0.73751v17.03h-6.1646l-15.767-46.83h-13.296v92.248h20.944v-10.354l-4.1182-12.002h-5.8831v-21.179h7.4128v12.237h7.0598l9.6484 31.416z" fill="#bc0000"/>
   <path stroke-linejoin="round" style="color-rendering:auto;color:#000000;isolation:auto;mix-blend-mode:normal;shape-rendering:auto;solid-color:#000000;image-rendering:auto" d="m-204.26 466.4h-4.9418v2.8239h-9.8837v-2.8239h-8.9424v87.306h6.9421v4.9418h16.826z" stroke="#25156a" stroke-linecap="square" stroke-miterlimit="10" stroke-width="4" fill="none"/>
   <path style="color-rendering:auto;color:#000000;isolation:auto;mix-blend-mode:normal;shape-rendering:auto;solid-color:#000000;image-rendering:auto" d="m-204.26 466.4h-4.9418v2.8239h-9.8837v-2.8239h-8.9424v87.306h6.9421v4.9418h16.826z" fill="#bc0000"/>
   <g stroke-linejoin="round" stroke="#25156a" stroke-linecap="square" stroke-miterlimit="10" stroke-width="4" fill="none">
    <path style="color-rendering:auto;color:#000000;isolation:auto;mix-blend-mode:normal;shape-rendering:auto;solid-color:#000000;image-rendering:auto" d="m-304.65 472.98v-6.149h-32.042v6.2745h-8.366v60.456h4.2003v25.082h36.085v-8.7551h4.3776v-9.465h-23.189v-25.555h19.285v-13.488h-26.975v-11.003h7.3354v-8.0452h23.426v-9.3467z"/>
    <path style="color-rendering:auto;color:#000000;isolation:auto;mix-blend-mode:normal;shape-rendering:auto;solid-color:#000000;image-rendering:auto" d="m-322.96 355.74v5.082h-5.082l-16.861 83.684v2.9746h22.936v-9.918h-4.4629v-10.166h16.488l5.084 20.084h19.588v-10.166h-5.4551v-9.6699h4.5078l-0.0254-2.4297-14.029-61.045h-7.3144v-8.4297h-15.373zm4.4805 32.67h9.0352v24.82h-9.0352v-24.82z"/>
    <path style="color-rendering:auto;color:#000000;isolation:auto;mix-blend-mode:normal;shape-rendering:auto;solid-color:#000000;image-rendering:auto" d="m-276.98 355.61h16.218v4.308h6.462l7.3489 37.885h2.154l7.3489-37.378h6.0819v-4.5614h18.626v15.205h-4.6881v10.39h4.6881v38.138h-4.0546v9.3762h4.0546v18.372h-20.78v-33.45c0-1.215-2.1342-1.2832-2.4074 0l-7.0955 33.324h-5.4483l-6.9688-33.45c-0.19467-0.93444-2.2807-1.1341-2.2807 0v33.83h-13.684v-8.616h-5.9552z"/>
    <path style="color-rendering:auto;color:#000000;isolation:auto;mix-blend-mode:normal;shape-rendering:auto;solid-color:#000000;image-rendering:auto" d="m-371.5 368.78v7.0332h7.453v8.0829h14.381v-21.309h-7.9779v-6.9282h-28.133v7.0332h-8.0434v7.9052h-7.9117v61.007h7.9064v7.6927h7.6927v8.12h21.369v-7.9064h7.6927v-7.5858h7.2653l2.7779-37.715h-24.04v13.142h7.0516v10.791h-7.0516v15.599h-9.2953l0.0226-64.961z"/>
    <path style="color-rendering:auto;color:#000000;isolation:auto;mix-blend-mode:normal;shape-rendering:auto;solid-color:#000000;image-rendering:auto" d="m-378.34 479.91v7.0332h7.453v8.0829h14.381v-21.309h-7.9779v-6.9282h-28.133v7.0332h-8.0434v7.9052h-7.9117v61.007h7.9064v7.6927h7.6927v8.12h21.369v-7.9064h7.6927v-7.5858h7.2653l2.7779-37.715h-24.04v13.142h7.0516v10.791h-7.0516v15.599h-9.2953l0.0226-64.961z"/>
    <path style="color-rendering:auto;color:#000000;isolation:auto;mix-blend-mode:normal;shape-rendering:auto;solid-color:#000000;image-rendering:auto" d="m-152.5 472.98v-6.149h-32.042v6.2745h-8.366v60.456h4.2003v25.082h36.085v-8.7551h4.3776v-9.465h-23.189v-25.555h19.285v-13.488h-26.975v-11.003h7.3354v-8.0452h23.426v-9.3467z"/>
    <path style="color-rendering:auto;color:#000000;isolation:auto;mix-blend-mode:normal;shape-rendering:auto;solid-color:#000000;image-rendering:auto" d="m-162.68 362v-6.149h-32.042v6.2745h-8.366v60.456h4.2003v25.082h36.085v-8.7551h4.3776v-9.465h-23.189v-25.555h19.285v-13.488h-26.975v-11.003h7.3354v-8.0452h23.426v-9.3467z"/>
   </g>
   <g fill="#bc0000">
    <path id="b" style="color-rendering:auto;color:#000000;isolation:auto;mix-blend-mode:normal;shape-rendering:auto;solid-color:#000000;image-rendering:auto" d="m-162.68 362v-6.149h-32.042v6.2745h-8.366v60.456h4.2003v25.082h36.085v-8.7551h4.3776v-9.465h-23.189v-25.555h19.285v-13.488h-26.975v-11.003h7.3354v-8.0452h23.426v-9.3467z" fill="#bc0000"/>
    <path style="color-rendering:auto;color:#000000;isolation:auto;mix-blend-mode:normal;shape-rendering:auto;solid-color:#000000;image-rendering:auto" d="m-371.5 368.78v7.0332h7.453v8.0829h14.381v-21.309h-7.9779v-6.9282h-28.133v7.0332h-8.0434v7.9052h-7.9117v61.007h7.9064v7.6927h7.6927v8.12h21.369v-7.9064h7.6927v-7.5858h7.2653l2.7779-37.715h-24.04v13.142h7.0516v10.791h-7.0516v15.599h-9.2953l0.0226-64.961z"/>
    <path style="color-rendering:auto;color:#000000;isolation:auto;mix-blend-mode:normal;shape-rendering:auto;solid-color:#000000;image-rendering:auto" d="m-322.96 355.74v5.082h-5.082l-16.861 83.684v2.9746h22.936v-9.918h-4.4629v-10.166h16.488l5.084 20.084h19.588v-10.166h-5.4551v-9.6699h4.5078l-0.0254-2.4297-14.029-61.045h-7.3144v-8.4297h-15.373zm4.4805 32.67h9.0352v24.82h-9.0352v-24.82z"/>
    <path style="color-rendering:auto;color:#000000;isolation:auto;mix-blend-mode:normal;shape-rendering:auto;solid-color:#000000;image-rendering:auto" d="m-276.98 355.61h16.218v4.308h6.462l7.3489 37.885h2.154l7.3489-37.378h6.0819v-4.5614h18.626v15.205h-4.6881v10.39h4.6881v38.138h-4.0546v9.3762h4.0546v18.372h-20.78v-33.45c0-1.215-2.1342-1.2832-2.4074 0l-7.0955 33.324h-5.4483l-6.9688-33.45c-0.19467-0.93444-2.2807-1.1341-2.2807 0v33.83h-13.684v-8.616h-5.9552z"/>
   </g>
  </g>
  <use id="a" xlink:href="#b" transform="translate(10.175 110.98)" height="100%" width="100%" y="0" x="0"/>
  <use xlink:href="#a" transform="translate(-152.14)" height="100%" width="100%" y="0" x="0"/>
  <g>
   <path style="color-rendering:auto;color:#000000;isolation:auto;mix-blend-mode:normal;shape-rendering:auto;solid-color:#000000;image-rendering:auto" d="m-378.34 479.91v7.0332h7.453v8.0829h14.381v-21.309h-7.9779v-6.9282h-28.133v7.0332h-8.0434v7.9052h-7.9117v61.007h7.9064v7.6927h7.6927v8.12h21.369v-7.9064h7.6927v-7.5858h7.2653l2.7779-37.715h-24.04v13.142h7.0516v10.791h-7.0516v15.599h-9.2953l0.0226-64.961z" fill="#bc0000"/>
   <g fill="#fff">
    <path style="color-rendering:auto;color:#000000;isolation:auto;mix-blend-mode:normal;shape-rendering:auto;solid-color:#000000;image-rendering:auto" d="m-198.43 411.6c0.009 0.40591 0.48268 0.36159 0.48887-0.0485l0.66893-44.347c0.0334-2.2114-2.1706-2.2052-2.1226 0z"/>
    <path style="color-rendering:auto;color:#000000;isolation:auto;mix-blend-mode:normal;shape-rendering:auto;solid-color:#000000;image-rendering:auto" d="m-272.72 405.82c0.009 0.40591 0.48268 0.36159 0.48887-0.0485l0.66893-44.347c0.0334-2.2114-2.1706-2.2052-2.1226 0z"/>
    <path style="color-rendering:auto;color:#000000;isolation:auto;mix-blend-mode:normal;shape-rendering:auto;solid-color:#000000;image-rendering:auto" d="m-240.39 398.4c-0.0722 0.38931 0.3834 0.44334 0.47604 0.0539l7.3487-30.888c0.49923-2.0983-1.6312-2.5513-2.0236-0.43622z"/>
    <path style="color-rendering:auto;color:#000000;isolation:auto;mix-blend-mode:normal;shape-rendering:auto;solid-color:#000000;image-rendering:auto" d="m-396.04 420.95c0.009 0.40591 0.48268 0.36159 0.48887-0.0485l0.66893-44.347c0.0334-2.2114-2.1706-2.2052-2.1226 0z"/>
    <path style="color-rendering:auto;color:#000000;isolation:auto;mix-blend-mode:normal;shape-rendering:auto;solid-color:#000000;image-rendering:auto" d="m-332.97 411.97c-0.0605 0.40147 0.41371 0.43878 0.48996 0.0357l8.2417-43.58c0.411-2.1731-1.7616-2.5438-2.0914-0.36294z"/>
    <path style="color-rendering:auto;color:#000000;isolation:auto;mix-blend-mode:normal;shape-rendering:auto;solid-color:#000000;image-rendering:auto" d="m-188.41 524.79c0.009 0.40591 0.48268 0.36159 0.48887-0.0485l0.66893-44.347c0.0334-2.2114-2.1706-2.2052-2.1226 0z"/>
    <path style="color-rendering:auto;color:#000000;isolation:auto;mix-blend-mode:normal;shape-rendering:auto;solid-color:#000000;image-rendering:auto" d="m-339.99 523.86c0.009 0.40591 0.48268 0.36159 0.48887-0.0485l0.66893-44.347c0.0334-2.2114-2.1706-2.2052-2.1226 0z"/>
    <path style="color-rendering:auto;color:#000000;isolation:auto;mix-blend-mode:normal;shape-rendering:auto;solid-color:#000000;image-rendering:auto" d="m-403.15 531.86c0.009 0.40591 0.48268 0.36159 0.48887-0.0485l0.66893-44.347c0.0334-2.2114-2.1706-2.2052-2.1226 0z"/>
    <path style="color-rendering:auto;color:#000000;isolation:auto;mix-blend-mode:normal;shape-rendering:auto;solid-color:#000000;image-rendering:auto" d="m-285.67 517.86c0.009 0.40591 0.48268 0.36159 0.48887-0.0485l0.66893-44.347c0.0334-2.2114-2.1706-2.2052-2.1226 0z"/>
    <path style="color-rendering:auto;color:#000000;isolation:auto;mix-blend-mode:normal;shape-rendering:auto;solid-color:#000000;image-rendering:auto" d="m-223.81 517.43c0.009 0.40591 0.48268 0.36159 0.48887-0.0485l0.66893-44.347c0.0334-2.2114-2.1706-2.2052-2.1226 0z"/>
   </g>
  </g>
 </g>
 <g transform="translate(474.43 -299.38)" display="none">
  <rect style="color-rendering:auto;color:#000000;isolation:auto;mix-blend-mode:normal;shape-rendering:auto;solid-color:#000000;image-rendering:auto" height="12.807" width="20.785" display="inline" y="326.37" x="-377.06" fill="#bc0000"/>
  <rect stroke-linejoin="round" style="color-rendering:auto;color:#000000;isolation:auto;mix-blend-mode:normal;shape-rendering:auto;solid-color:#000000;image-rendering:auto" display="inline" height="12.807" width="20.785" stroke="#25156a" stroke-linecap="square" stroke-miterlimit="10" y="326.37" x="-417.06" stroke-width="4" fill="none"/>
 </g>
</svg>
