<?xml version="1.0" encoding="UTF-8" standalone="no"?>
<svg
   xmlns:dc="http://purl.org/dc/elements/1.1/"
   xmlns:cc="http://creativecommons.org/ns#"
   xmlns:rdf="http://www.w3.org/1999/02/22-rdf-syntax-ns#"
   xmlns:svg="http://www.w3.org/2000/svg"
   xmlns="http://www.w3.org/2000/svg"
   version="1.1"
   id="svg2"
   height="225.79463"
   width="264.48026">
  <defs
     id="defs4" />
  <metadata
     id="metadata7">
    <rdf:RDF>
      <cc:Work
         rdf:about="">
        <dc:format>image/svg+xml</dc:format>
        <dc:type
           rdf:resource="http://purl.org/dc/dcmitype/StillImage" />
        <dc:title></dc:title>
      </cc:Work>
    </rdf:RDF>
  </metadata>
  <g
     transform="translate(-846.2062,-241.71145)"
     id="layer1">
    <text
       xml:space="preserve"
       style="font-style:normal;font-variant:normal;font-weight:normal;font-stretch:normal;font-size:41.94928741px;line-height:100%;font-family:Arial;-inkscape-font-specification:Arial;text-align:center;letter-spacing:0px;word-spacing:0px;text-anchor:middle;fill:#000000;fill-opacity:1;stroke:none"
       x="937.82697"
       y="357.10541"
       id="text3348"
       transform="matrix(1.0186985,-0.06948483,0.06664734,0.97709874,0,0)"><tspan
         id="tspan3350"
         x="937.82697"
         y="357.10541"
         style="font-style:normal;font-variant:normal;font-weight:normal;font-stretch:condensed;line-height:100%;font-family:Impact;-inkscape-font-specification:'Impact Condensed';fill:#000000">HOME TAPING IS</tspan><tspan
         x="937.82697"
         y="399.05469"
         id="tspan3352"
         style="font-style:normal;font-variant:normal;font-weight:normal;font-stretch:condensed;line-height:100%;font-family:Impact;-inkscape-font-specification:'Impact Condensed';fill:#000000">KILLING MUSIC</tspan></text>
    <path
       style="color:#000000;display:inline;overflow:visible;visibility:visible;fill:#000000;fill-opacity:1;fill-rule:nonzero;stroke:none;stroke-width:1;marker:none;enable-background:accumulate"
       d="m 917.44354,337.45852 c -5.64898,0.38531 -9.88497,5.24148 -9.49966,10.89046 l 2.62423,38.47311 c 0.0293,0.43014 0.10113,0.85957 0.18067,1.2719 -0.57382,0.40783 -0.928,1.08961 -0.87646,1.84517 l 1.41419,20.73308 c 0.36069,5.28797 4.9031,9.25028 10.19107,8.88959 l 109.90092,-7.49628 c 5.288,-0.36069 9.2502,-4.9031 8.8896,-10.19107 l -1.4142,-20.73308 c -0.065,-0.95902 -0.7692,-1.74164 -1.6659,-1.92234 0.01,-0.33607 0.015,-0.69036 -0.01,-1.03308 l -2.6243,-38.4731 c -0.3853,-5.64898 -5.2415,-9.88497 -10.8905,-9.49966 l -106.22191,7.24534 z m 25.63729,28.69687 c 5.58712,-0.38109 10.44058,3.82324 10.82168,9.41039 0.38109,5.58716 -3.85439,10.44275 -9.44151,10.82385 -5.58716,0.38109 -10.41158,-3.85653 -10.79268,-9.44369 -0.38109,-5.58715 3.82535,-10.40945 9.41251,-10.79055 z m 59.86087,-4.08307 c 5.5872,-0.3811 10.4406,3.82323 10.8217,9.41038 0.3811,5.58716 -3.8544,10.44276 -9.4415,10.82385 -5.58711,0.38109 -10.41157,-3.85653 -10.79267,-9.44369 -0.38109,-5.58714 3.82539,-10.40945 9.41247,-10.79054 z m -42.49425,3.36835 25.87737,-1.76508 0.78897,11.56687 -25.87737,1.76508 -0.78897,-11.56687 z m -0.99169,39.18958 c 2.366,-0.16138 4.40346,1.64524 4.56484,4.01115 0.16138,2.36593 -1.61403,4.40129 -3.98003,4.56268 -2.3659,0.16137 -4.43247,-1.61193 -4.59385,-3.97786 -0.16137,-2.36591 1.64313,-4.43459 4.00904,-4.59597 z m 32.45588,-2.2138 c 2.3659,-0.16137 4.4346,1.64312 4.59598,4.00903 0.16137,2.36593 -1.64526,4.40342 -4.01116,4.5648 -2.3659,0.16138 -4.40134,-1.61405 -4.56272,-3.97998 -0.16138,-2.36591 1.612,-4.43247 3.9779,-4.59385 z m -45.41436,5.10234 c 2.36601,-0.16139 4.4346,1.64312 4.59598,4.00903 0.16138,2.36592 -1.64516,4.40341 -4.01116,4.56479 -2.3659,0.16138 -4.40124,-1.61406 -4.56262,-3.97998 -0.16138,-2.36591 1.6119,-4.43247 3.9778,-4.59384 z m 58.64502,-4.00015 c 2.3659,-0.16137 4.4034,1.64525 4.5648,4.01116 0.1613,2.36593 -1.6141,4.40129 -3.98,4.56267 -2.3659,0.16138 -4.4324,-1.61193 -4.5938,-3.97785 -0.1614,-2.36592 1.6431,-4.4346 4.009,-4.59598 z"
       id="path3354" />
    <path
       style="color:#000000;display:inline;overflow:visible;visibility:visible;fill:#000000;fill-opacity:1;fill-rule:nonzero;stroke:none;stroke-width:1;marker:none;enable-background:accumulate"
       d="m 1044.0832,404.99709 c -1.8562,9.39687 -10.4487,9.49361 -21.4209,12.45534 l -83.07275,22.42395 c -7.93031,2.14063 -11.43152,2.93429 -14.39051,3.01753 -2.95905,0.0832 -3.84493,-0.7064 -4.03543,-1.76071 -0.1905,-1.0543 -1.60029,-6.26713 -4.40332,-7.15443 -2.68892,-0.85119 -10.77169,3.45922 -10.55689,10.08554 0.21481,6.62632 4.72788,5.12269 4.9802,10.56057 0.25233,5.43787 -1.04889,2.99096 -0.8154,6.41411 0.23349,3.42315 3.1857,6.44851 6.67431,6.46704 2.83949,0.0151 8.16523,-3.75374 8.37169,-7.68126 0.20646,-3.9275 0.48537,-5.2065 2.91778,-5.89973 l 100.99412,-28.78326 c 7.0168,-1.9998 11.0286,-2.83868 14.7682,-3.45049 3.7396,-0.61181 7.254,7.13574 11.8909,7.17619 2.94,0.0256 5.3397,-3.2772 5.346,-8.41456 0.01,-5.13736 -5.2394,-6.55447 -5.3847,-8.68494 -0.1454,-2.13047 1.9705,-2.87165 1.9463,-6.36596 -0.024,-3.4943 -4.3523,-6.3355 -7.6387,-6.36994 -3.9882,-0.0418 -5.7493,3.83099 -6.1709,5.96501 z"
       id="path3356" />
    <text
       xml:space="preserve"
       style="font-style:normal;font-variant:normal;font-weight:normal;font-stretch:normal;font-size:11.69944477px;line-height:125%;font-family:Arial;-inkscape-font-specification:Arial;text-align:start;letter-spacing:0px;word-spacing:0px;text-anchor:start;fill:#000000;fill-opacity:1;stroke:none"
       x="1092.4783"
       y="436.61633"
       id="text3358"
       transform="matrix(0.82646396,-0.05637263,0.08214943,1.2043708,0,0)"><tspan
         id="tspan3360"
         x="1092.4783"
         y="436.61633"
         style="font-weight:bold;fill:#000000">AND IT´S ILLEGAL</tspan></text>
    <path
       id="path3362"
       d="m 911.41759,418.39506 c -0.45538,5.84979 8.42063,5.74171 19.74995,6.64032 l 85.77666,6.80341 c 8.1884,0.6495 11.7758,0.78736 14.6999,0.32634 2.9241,-0.46102 3.6501,-1.39976 3.644,-2.47114 -0.01,-1.07127 2.6708,-5.12979 7.6069,-5.02277 2.2504,0.0488 5.5128,0.77023 6.5173,7.32349 1.0045,6.55326 -5.4271,3.07484 -4.1642,12.1973 0.6917,4.99606 -1.8514,9.83411 -8.7495,10.6731 -2.8188,0.34283 -6.534,-2.42773 -6.2842,-6.0202 0.4188,-6.02748 -8.7514,-6.32465 -11.2702,-6.55436 l -92.91668,-8.47386 c -7.26612,-0.66265 -11.36214,-0.76728 -15.15053,-0.68264 -3.7884,0.0846 -6.17296,9.07526 -9.64362,9.63708 -2.9023,0.46983 -8.1777,-1.16635 -8.40873,-5.17667 -0.2877,-4.99379 4.75631,-9.51418 4.80081,-11.75534 0.0424,-2.13499 -0.3,-2.58949 -0.43744,-6.08118 -0.17205,-4.37095 4.44077,-8.38681 7.87388,-8.35761 3.86445,0.0328 6.41614,3.23566 6.3557,6.99473 z"
       style="color:#000000;display:inline;overflow:visible;visibility:visible;fill:#000000;fill-opacity:1;fill-rule:nonzero;stroke:none;stroke-width:1;marker:none;enable-background:accumulate" />
  </g>
</svg>
