<?xml version="1.0" encoding="UTF-8" standalone="no"?>
<svg xmlns:rdf="http://www.w3.org/1999/02/22-rdf-syntax-ns#" xmlns="http://www.w3.org/2000/svg" height="173.41mm" width="293.88mm" version="1.1" xmlns:cc="http://creativecommons.org/ns#" xmlns:dc="http://purl.org/dc/elements/1.1/" viewBox="0 0 1041.3052 614.45967">
 <g transform="translate(94.433 -1055.7)">
  <path fill="#2b506c" d="m49.284 1240c-6.097-6.097-4.4165-11.955 11.85-41.311 13.834-24.965 13.945-29.095 0.55351-20.602-11.985 7.6007-19.149 16.576-32.346 40.526-6.805 12.35-12.51 22.628-12.677 22.84-0.1676 0.2121-2.2581-0.4305-4.6456-1.428-4.9625-2.0735-6.6488-6.2777-4.6387-11.565 0.71214-1.8731 6.9006-13.618 13.752-26.099 15.678-28.561 16.098-32.026 2.9685-24.495-11.197 6.4222-21.122 18.788-34.109 42.494-10.471 19.115-12.006 21.313-14.375 20.593-4.4829-1.3627-7.0275-4.4615-7.0275-8.5583 0-2.6566 5.0557-13.113 15.771-32.619 8.6739-15.79 15.926-28.882 16.115-29.094 0.18925-0.2122 2.3736 0.4623 4.8542 1.4987 4.2569 1.7787 4.5101 2.2085 4.5101 7.6562v5.7717l7.1875-5.5725c12.906-10.006 21.41-12.767 26.536-8.616 2.5595 2.0726 2.9512 3.413 2.7897 9.5487l-0.18779 7.1376 6.5247-5.891c6.8834-6.2148 19.602-13.02 24.337-13.022 4.3975 0 7.8125 4.2877 7.8125 9.8125 0 7.0309-1.683 11.008-14.785 34.937-9.106 16.631-11.499 21.966-10.363 23.102 2.1164 2.1164 11.375-3.0586 20.372-11.387 5.1114-4.7313 8.4789-9.3295 11.629-15.88 13.692-28.467 41.667-48.429 52.578-37.517 1.6875 1.6875 3.0682 4.5 3.0682 6.25 0 3.9991 0.8669 4.006 3.993 0.032 1.3628-1.7325 3.975-3.916 5.8049-4.8522 3.7972-1.9427 13.952-3.8773 13.952-2.6579 0 0.4453-7.5938 14.534-16.875 31.308-16.026 28.964-18.889 35.617-15.312 35.59 3.2602-0.024 14.941-7.7957 21.349-14.204 4.9962-4.9961 10.224-13.068 20.832-32.165 29.473-53.057 45.517-75.815 69.352-98.377 18.562-17.571 35.445-27.383 57.411-33.367 26.765-7.2915 44.745-4.9864 60.45 7.7499 8.7207 7.072 11.496 15.267 6.6548 19.649-2.3077 2.0884-2.5008 1.9107-5.7213-5.2656-4.0042-8.9225-11.52-16.615-20.015-20.487-5.1532-2.3484-8.334-2.8366-18.125-2.7817-34.977 0.1961-62.56 19.16-91.929 63.203-8.3391 12.506-43.093 72.613-42.412 73.352 0.21247 0.2304 4.5103-2.6818 9.5507-6.4717 12.189-9.1646 22.516-15.282 29.994-17.765 5.6484-1.8761 6.3764-1.8776 9.2141-0.018 3.9361 2.579 3.9096 6.2564-0.0867 12.023-3.2248 4.6534-14.565 14.372-23.839 20.429l-5.1319 3.3521 1.6711 10.436c2.0109 12.557 3.5582 16.971 5.9496 16.971 1.948 0 12.244-7.8462 16.594-12.645 1.4854-1.6388 3.3651-5.511 4.177-8.6047 2.5006-9.5279 8.667-19.527 16.944-27.474 8.9757-8.6189 18.233-13.388 29.848-15.378 6.7722-1.16 8.7399-1.0332 13.768 0.887 6.8106 2.601 8.8808 6.0028 7.6489 12.569-2.3054 12.289-19.61 22.2-50.31 28.812-2.1271 0.4582-3.0515 2.0538-4.2234 7.2901-2.784 12.44 2.3403 18.952 14.855 18.876 14.182-0.086 31.535-11.45 44.704-29.274 4.0282-5.4521 7.5725-9.6645 7.8762-9.3607 1.2039 1.2039-9.6457 15.423-18.23 23.892-15.139 14.936-30.836 21.061-45.938 17.926-8.7861-1.824-13.805-6.0018-16.573-13.794l-2.1617-6.0863-7.0396 6.7146c-8.9696 8.5556-18.178 14.402-22.684 14.402-6.1659 0-7.8645-4.4925-13.01-34.408-0.63214-3.6755-0.23695-4.0295 13.864-12.42 17.096-10.172 29.609-20.842 27.273-23.256-2.026-2.0939-14.154 3.8633-27.582 13.548-18.669 13.465-21.807 16.952-32.876 36.536-5.6346 9.9687-10.359 18.268-10.498 18.443-0.13932 0.175-2.0722-0.3159-4.2953-1.0909-4.7873-1.6688-6.8406-5.9345-5.0825-10.559 0.67048-1.7635 1.2191-3.4819 1.2191-3.8187 0-0.3367-3.1942 1.9897-7.0982 5.1698-17.754 14.462-30.743 15.341-30.743 2.0807 0-2.874-0.111-5.2254-0.24655-5.2254-0.13562 0-2.6399 2.2095-5.5651 4.91-10.772 9.9447-22.127 12.379-28.414 6.0917-2.7357-2.7357-3.3908-4.5664-3.4659-9.6866-0.051-3.4724-0.31956-6.3138-0.59688-6.3142-0.27732-0.0005-3.3711 2.7075-6.875 6.0178-7.6648 7.2413-15.974 12.244-22.239 13.389-3.9161 0.7159-5.1038 0.3586-7.8125-2.3501zm63.376-5.4955c9.6254-7.3275 24.442-29.475 29.666-44.344 10.836-30.843-17.358-12.739-34.974 22.459-4.9089 9.8077-7.3268 19.493-5.8361 23.378 1.1456 2.9854 6.1409 2.3162 11.145-1.4931zm161.83-28.471c12.857-5.75 26.828-23.294 24.844-31.199-1.767-7.0402-11.543-1.6529-23.017 12.685-5.7588 7.1955-13.974 20.259-13.974 22.221 0 1.1418 4.11-0.1124 12.148-3.707zm70.352-15.592h602v17.5h-602z" fill-opacity=".99885"/>
  <text style="word-spacing:0px;letter-spacing:-4.1839px" font-family="&apos;CMU Serif&apos;" xml:space="preserve" transform="scale(.91209 1.0964)" font-size="260.61px" y="1328.6473" x="-120.20423" font-weight="bold" line-height="150%" fill="#952733"><tspan y="1328.6473" x="-120.20423">CYBER</tspan></text>
  <path fill="#2b506c" d="m752.8 1285.5 8.3071 17.73 19.394 2.6903-14.295 13.38 3.4339 19.276-17.142-9.4611-17.271 9.2229 3.7007-19.227-14.108-13.576 19.429-2.4216z" fill-opacity=".99885"/>
  <path d="m81.628 1668.6c-11.59-3.2722-19.142-8.1704-25.6-16.604-4.2052-5.4918-4.4686-10.68-0.677-13.336 2.685-1.8807 2.8235-1.7647 5.0631 4.2391 3.1753 8.5121 11.844 17.798 19.952 21.372 9.1232 4.022 26.203 4.0629 40.293 0.096 33.077-9.3113 54.634-31.948 92.107-96.72 6.7782-11.716 12.324-21.529 12.324-21.806 0-0.2772-2.6157 1.4932-5.8127 3.9342-7.8005 5.9562-13.741 7.6798-19.696 5.7145-6.6881-2.2072-8.6376-5.9407-8.0172-15.353 0.8485-12.874 9.5924-29.013 23.093-42.621 9.3069-9.3814 16.113-13.307 24.591-14.182 5.7967-0.5983 7.1595-0.3153 9.434 1.9592 1.5297 1.5298 2.6585 4.2507 2.6585 6.4085 0 4.5717 0.777 4.6885 3.9929 0.6001 3.1494-4.0038 7.6704-6.3114 14.633-7.4689 5.0314-0.8365 5.425-0.7158 4.6143 1.4147-2.3458 6.1645-44.705 81.547-52.839 94.032-25.584 39.271-51.305 65.185-77.046 77.624-20.679 9.9928-48.716 14.748-63.067 10.696zm139.55-124.09c12.894-12.988 26.058-36.351 27.308-48.464 1.0786-10.45-3.7028-10.822-14.486-1.1265-12.13 10.906-28.856 40.218-28.891 50.632-0.019 5.4225 0.6045 6.1458 5.2931 6.1458 2.7727 0 5.3442-1.715 10.777-7.1875zm335.33 124.59c-14.177-2.7861-31.415-16.76-31.415-25.466 0-1.0654 0.8525-3.5583 2.6332-4.5703l2.6333-2.6333 4.2661 8.8195c10.919 22.574 34.304 28.23 67.342 16.288 22.178-8.0167 42.958-27.917 64.86-62.116 8.0356-12.547 31.965-53.975 31.176-53.975-0.3518 0-2.9491 1.9769-5.7719 4.3931-13.006 11.133-27.742 7.426-27.758-6.9826 0-3.384-0.2092-6.1545-0.4566-6.1566-0.2473 0-3.6223 2.8977-7.5 6.4441-7.2786 6.6567-19.925 13.549-24.863 13.551-4.5211 0-9.9378-4.6756-7.8125-10.158v-5.1592l-5.4821 5.0532c-7.4617 6.878-12.779 9.4224-19.937 9.5405-5.1943 0.086-6.4865-0.4144-9.1911-3.5571-2.8277-3.2857-3.0987-4.513-2.6703-12.095 0.7493-13.26 8.4071-27.279 22.877-41.88 8.8537-8.9341 12.604-11.824 17.439-13.438 12.027-4.014 19.465-1.456 19.465 6.694 0 4.5601 1.528 4.7946 4.243 0.651 1.1168-1.7044 3.5721-3.8879 5.4562-4.8522 4.4398-2.2721 14.051-3.8819 14.051-2.3533 0 0.6409-7.5866 14.893-16.859 31.672s-16.866 31.177-16.875 31.996c-0.033 3.0758 2.6879 2.9316 8.9681-0.4752 10.7-5.8048 18.958-14.28 23.821-24.449 8.1211-16.983 21.745-32.166 34.07-37.972 11.24-5.2942 19.765-3.1974 21.35 5.2509l0.825 4.3974 4.335-4.335c4.0706-4.0707 14.336-7.9996 17.845-6.83 1.3958 0.4653-37.916 72.592-50.306 92.298-17.447 27.749-40.315 54.516-58.019 67.912-24.778 18.748-59.565 29.045-82.74 24.491zm57.573-122.32c11.87-10.448 28.544-39.18 29.514-50.856 0.338-4.0711-0.0009-6.7303-0.931-7.3052-10.531-6.5083-46.702 45.596-41.98 60.473 1.3691 4.3138 6.9678 3.3478 13.397-2.3117zm78.722-1.0172c11.867-11.091 25.688-33.953 28.721-47.509 1.2793-5.7166 1.2145-6.9434-0.4553-8.6132-2.4051-2.4051-5.5073-1.5328-11.508 3.2359-15.326 12.18-35.051 48.228-30.768 56.231 2.3206 4.336 6.9824 3.223 14.01-3.3448zm-403.39 7.8693c-5.274-5.274-3.69-11.96 7.5266-31.77 8.5981-15.186 7.0993-17.704 2.3738-25.131l-4.5314-3.9787-6.5234 11.156c-6.5716 11.238-19.47 29.402-20.294 28.578-0.2443-0.2442 3.0884-5.7871 7.4058-12.318 4.3174-6.5304 9.8173-15.601 12.222-20.157 3.7519-7.1081 4.1509-8.6374 2.8125-10.781-0.8578-1.3735-1.5596-4.5477-1.5596-7.0538 0-3.7132 1.0105-5.5669 5.4605-10.017 5.063-5.0631 9.5395-7.0695 9.5395-4.2759 0 0.6516-1.7719 6.0814-3.9375 12.066l-3.9374 10.882 3.6249 2.5934c1.9937 1.4264 6.0884 4.8948 9.0992 7.7075 4.7234 4.4125 5.5555 5.9597 6.0667 11.28 0.5229 5.4418-0.01 7.2662-4.5221 15.539-9.6813 17.742-11.878 22.43-10.946 23.363 3.2397 3.2397 27.052-17.606 27.052-23.682 0-9.1554 15.138-29.287 27.708-36.849 18.624-11.203 41.042-9.3344 41.042 3.4216 0 13.843-17.287 24.697-50.811 31.902-3.2369 0.6956-6.1435 10.79-4.8295 16.773 1.6834 7.6645 11.066 11.517 21.599 8.8693 15.556-3.9104 29.288-14.488 35.195-27.11 13.603-29.069 42.142-49.757 53.278-38.621 1.7654 1.7654 3.0682 4.5233 3.0682 6.4952v3.427l4.0625-3.8452c2.2343-2.1148 5.1875-4.4099 6.5625-5.1 3.1623-1.5873 13.125-3.2772 13.125-2.2263 0 0.4337-7.5938 14.491-16.875 31.238-19.595 35.358-20.655 39.016-9.6377 33.278 13.299-6.926 23.246-21.658 37.974-43.515l9.5859-17.195-5.554-0.625c-7.7226-0.869-6.9284-3.1501 1.2823-3.4973l6.8038-0.3723 4.0189-7.1277c11.646-20.655 27.889-42.552 41.432-61.465 15.478-21.616 31.614-39.333 45.21-46.842 10.728-5.9248 24.948-10.853 36.228-12.556 16.215-2.4476 29.384 1.4553 39.896 11.824 8.4664 8.351 10.514 16.444 4.9963 19.753-1.8677 1.12-2.3858 0.873-3.2008-1.5265-3.1392-9.2419-4.8272-12.51-8.7065-16.857-11.352-12.72-28.34-14.647-51.927-5.8877-19.189 7.1253-38.858 27.159-56.342 57.382-10.403 17.983-33.937 61.292-33.937 62.909 0 0.2822 4.2187 0.5131 9.375 0.5131 5.2952 0 9.375 0.5336 9.375 1.2262 0 1.6334-3.9379 2.3168-13.746 2.8291l-8.1205 0.3197-12.93 23.75c-15.178 27.881-17.597 33.529-15.672 36.599 2.1992 3.5086 6.4994 3.2268 15.059-0.987 9.5167-4.6851 22.151-16.1 30.011-27.115 3.0894-4.3293 5.885-7.8716 6.2124-7.8716 1.3484 0-5.1795 10.024-10.872 16.695-18.503 21.683-41.136 32.108-50.596 23.305-3.1659-2.9463-3.326-3.6342-2.8002-12.033l0.5578-8.908-8.3019 8.283c-18.218 18.177-35.621 21.373-35.621 6.5414 0-2.8234-0.083-5.1335-0.1838-5.1335-0.1011 0-2.3639 2.0348-5.0284 4.5217-5.068 4.7301-15.756 10.445-19.572 10.466-1.2252 0.01-4.1167-0.7771-6.4256-1.7418-4.7202-1.9722-7.6164-8.2872-6.6913-14.59 0.2951-2.0107 0.3448-3.6558 0.1104-3.6558s-3.6341 2.6129-7.5549 5.8064c-13.893 11.316-27.71 15.694-40.89 12.958-10.07-2.0906-13.915-5.7654-17.454-16.681-0.6331-1.9528-1.8982-1.2363-8.5547 4.8449-7.6494 6.9882-18.094 13.035-22.556 13.06-1.2343 0.01-3.625-1.3685-5.3125-3.056zm133.76-10.994c14.554-15.002 28.69-42.453 26.453-51.37-3.9966-15.923-43.285 33.109-43.285 54.02 0 5.6004 0.6143 6.412 4.8533 6.412 2.314 0 5.5944-2.4817 11.979-9.0625zm-67.185-22.846c8.4993-3.801 18.191-12.961 22.178-20.962 8.0058-16.066-0.8157-18.092-14.824-3.4054-6.3179 6.6237-19.5 25.499-19.501 27.922-0.0002 1.2879 3.816 0.1711 12.147-3.5549zm389.55 35.725c-7.0315-2.9863-8.7848-14.391-4.1264-26.842 3.8181-10.205 13.454-24.116 22.629-32.668 9.2927-8.6616 15.468-11.991 23.718-12.788 6.971-0.6734 11.083 2.4729 11.083 8.4806 0 4.2536 1.7891 4.9138 3.6902 1.3617 1.963-3.668 8.7436-7.5383 15.594-8.3021l6.159-0.9098-3.1831 5.4876c-15.227 26.251-32.385 58.984-31.765 60.598 0.9973 2.5992 4.5766 1.3851 13.257-4.4969 10.968-7.4323 16.182-14.183 29.163-37.761 6.7063-12.181 12.715-22.47 13.353-22.864 2.1037-1.3002 8.4234 2.9824 9.2477 6.2669 1.0172 4.0525-1.1825 9.0657-14.231 32.433-12.948 23.187-14.488 26.744-11.998 27.7 3.0538 1.1718 13.64-5.49 21.741-13.681 5.9242-5.9904 10.402-12.721 20.096-30.208 10.886-19.638 12.832-22.457 15.296-22.159 5.0575 0.6115 7.6517 4.0982 6.9487 9.3392-0.3463 2.5819-0.3622 4.6944-0.035 4.6944 0.3267 0 3.2263-2.2143 6.4435-4.9208 6.478-5.4497 18.06-11.298 22.412-11.317 1.5469-0.01 4.0019 1.1772 5.4554 2.6308 2.2029 2.2028 2.5517 3.7436 2.0949 9.2526-0.598 7.2113-1.8733 10.04-16.507 36.609-7.5579 13.722-9.505 18.222-8.3747 19.352 3.851 3.851 26.82-14.883 36.733-29.96 2.8552-4.3428 5.6682-7.896 6.251-7.896 1.9501 0-11.396 18.058-19.144 25.902-17.126 17.34-31.843 22.278-36.425 12.221-2.4773-5.4372 0.6982-14.288 13.331-37.158 6.5435-11.846 11.897-22.271 11.897-23.166 0-7.2993-18.496 4.0333-28.571 17.506-2.7023 3.6134-9.2611 14.445-14.576 24.07-13.84 25.067-12.415 23.235-16.868 21.682-4.7518-1.6564-6.646-5.0899-5.5533-10.065l0.8482-3.8614-3.9878 2.9972c-11.39 8.5609-15.715 11.207-20.362 12.458-9.477 2.5519-15.134-3.1386-12.591-12.666 0.7224-2.7061 1.0522-4.9203 0.7331-4.9203s-3.4754 2.6141-7.0139 5.8092c-6.8057 6.1451-19.534 12.938-24.246 12.94-4.521 0-7.8125-4.2781-7.8125-10.158v-5.1592l-5.482 5.0532c-3.0151 2.7793-7.1749 5.9285-9.2439 6.9985-4.8687 2.5177-12.38 2.0839-16.078 2.0839zm23.139-11.005c13.03-13.126 26.448-36.902 27.416-48.584 0.3379-4.0746 0-6.7352-0.9313-7.3101-10.531-6.5083-46.702 45.596-41.98 60.473 0.598 1.8844 1.8735 2.6086 4.5937 2.6086 2.9238 0 5.3611-1.607 10.901-7.1875zm-862.34-16.562h250v17.5h-250zm949.75-57.9c-3.9609-3.1136-3.9341-6.9358 0.076-10.946 4.4682-4.4682 10.196-4.9783 13.933-1.241 3.5255 3.5256 3.111 6.7636-1.3459 10.514-4.1399 3.4834-9.4662 4.1873-12.664 1.6736z" fill-opacity=".99885" fill="#2b506c"/>
 </g>
</svg>
