<?xml version="1.0" encoding="UTF-8"?>
<!-- Created with Inkscape (http://www.inkscape.org/) -->
<svg width="60.199mm" height="54.551mm" version="1.1" viewBox="0 0 60.199 54.551" xml:space="preserve" xmlns="http://www.w3.org/2000/svg" xmlns:cc="http://creativecommons.org/ns#" xmlns:dc="http://purl.org/dc/elements/1.1/" xmlns:rdf="http://www.w3.org/1999/02/22-rdf-syntax-ns#"><metadata><rdf:RDF><cc:Work rdf:about=""><dc:format>image/svg+xml</dc:format><dc:type rdf:resource="http://purl.org/dc/dcmitype/StillImage"/></cc:Work></rdf:RDF></metadata><g transform="translate(3.6481 4.6392)"><path d="m-3.3981-4.3892h59.699v53.811h-59.699z" fill="#0590f5" stroke-linecap="round" stroke-linejoin="round" stroke-width=".5" style="paint-order:fill markers stroke"/><path d="m2.0412 25.273c-0.45361 0.0567-0.73714 1.2471-0.62373 3.345 0.1134 2.098 1.2474 10.83 3.9124 15.083 2.665 4.2526 5.1598 5.6138 5.7268 5.8973h43.03c-0.64048-3.4826-5.3569-7.4384-7.6864-8.7297 0.38686-0.69396 0.3773-1.3573 0.02842-1.8516-0.48113-0.6816-0.64182-0.92191-0.64182-0.92191l-16.699 4.1884c-2.0413-0.17011-11.17-2.835-11.907-3.0618l-1.928-1.2475c-1.0206-2.8351-1.9848-6.5205-2.1549-8.5618-0.17011-2.0413-0.22675-2.4385-1.4175-2.6086s-9.6392-1.5307-9.6392-1.5307z" fill="#f7a978" style="paint-order:fill markers stroke"/><path d="m46.389 40.862c2.3255 1.283 7.0566 5.2483 7.6981 8.7365m-43.03 0c-0.56702-0.28351-3.0619-1.6444-5.7269-5.897-2.665-4.2526-3.799-12.985-3.9124-15.083-0.1134-2.098 0.17011-3.2887 0.62372-3.3454 0 0 8.4486 1.3608 9.6393 1.5309s1.2474 0.56702 1.4175 2.6083c0.1701 2.0413 1.134 5.7269 2.1547 8.562l1.9279 1.2474c0.73712 0.22681 9.8661 2.8918 11.907 3.0619l16.7-4.1885s0.16037 0.24056 0.64151 0.92216c0.48113 0.6816 0.04445 1.4709-0.64151 2.6462-0.65212 1.1173-5.1092 5.1041-8.6203 6.1745-3.5868 1.0935-2.5464-2.6145-2.5259-2.6863" fill="none" stroke="#000" stroke-linecap="round" stroke-linejoin="round" stroke-width=".5" style="paint-order:fill markers stroke"/><path d="m12.815 38.825c1.4175-0.45362 2.9485-1.0773 3.6289-0.45362 0.68042 0.62372-0.0567 1.0206-2.0413 1.5309" fill="#f7a978" stroke="#000" stroke-linecap="round" stroke-linejoin="round" stroke-width=".5" style="paint-order:fill markers stroke"/><g fill="none" stroke="#000" stroke-linecap="round" stroke-linejoin="round" stroke-width=".5"><path d="m29.372 42.17c-1.1222 0.51959-2.4651 1.6955-2.5516 2.8351-0.06004 0.79155 0.39691 0.96393 1.5876 0.68042 1.1907-0.28351 1.3608-0.39691 1.3608-0.39691" style="paint-order:fill markers stroke"/><path d="m28.834 45.612c-0.45361 0.28351-1.3336 2.002-1.6738 2.4557" style="paint-order:fill markers stroke"/><path d="m30.335 47.16s-1.2474 0.79382-1.2474 1.134" style="paint-order:fill markers stroke"/><path d="m31.753 47.33c0.0567 0.39691-0.1134 0.73712-0.1701 1.2474" style="paint-order:fill markers stroke"/></g><g><path d="m46.128 5.3697c-0.47523 0.056387-0.8474 1.3523-0.85266 1.9916-0.0099 1.2012-0.77673 1.7253-1.1875 2.3807-0.51027 0.81412-0.82948 1.0394-1.9937 1.0061 0.07839-4e-3 0.04239-0.01032-0.46922-0.02222-1.8969 0.03579-4.2234 1.6103-5.0824 2.004-1.2906-0.16546-2.5435 0.0025-3.317 0.82159-0.88601-0.068-1.9279 0.29792-2.5658 1.2062-1.1447-0.10566-2.3876 0.19031-2.5642 1.9813l5.2355 13.476 4.0716 3.4861 0.60699 8.5565c-0.14317 0.93057 0.25086 1.4318 1.2888 0.78755 0.59736-0.37077 0.92872-0.75664 1.1136-1.233l0.13901 0.05167c0.32212 0.21475 1.2882 0.21468 1.8609-0.39377 0.4259-0.45252 0.91042-1.1824 1.0723-1.9684h0.10904c0.60845 0.03579 1.3959-0.67988 1.6464-1.002 0.25054-0.32212 1.0021-1.253 0.96635-2.3983-0.03301-1.0564-0.75874-3.054-1.803-3.8638 0.02114-0.09389 0.03874-0.18946 0.04909-0.28784 0.07158-0.68003 0.75158-1.5748 1.1095-2.0758 0.35792-0.50108 1.1095-1.8609 1.1095-2.5409 0-0.25717-0.14873-0.58079-0.35656-0.89555-0.0086-1.0066 0.22165-1.9071 0.85783-3.1492 0.75161-1.4674 1.7177-3.794 1.7177-4.2235s0.25092-1.825 0.03617-3.2566c1.8969-1.5748 2.4335-2.3984 4.7599-2.7921-0.68004-0.68003-1.6462-0.96635-2.2546-0.96635 0.53687-0.85899 0.96642-1.861 1.3601-2.5053 0.3937-0.64424 0.28598-1.0734-1.1457-0.50074-1.4316 0.57266-1.2523 0.42952-1.6102 0.68006 0-1.2885 0.1072-1.3605 0.32194-2.5058 0.21475-1.1453 0.14309-1.9685-1.217-0.68006-1.3601 1.2885-1.4673 1.5393-1.8252 1.8614-0.3579 0.32212-0.15264-0.9938-0.39377-1.8252-0.26773-0.92314-0.54482-1.2341-0.79375-1.2046z" fill="#f3a208" style="paint-order:fill markers stroke"/><path d="m29.758 16.255c-0.50793 0.0083-0.78998 0.37596-1.9487 1.1276-1.3243 0.85899-1.2883 1.8252-1.1451 2.5053l0.06976 0.17156c-1.0154 0.3343-1.3595 1.4112-1.1436 1.9048l10.988 4.1155s-0.39583 0.17115 1.217 0.2868c1.6106 0.1155 2.276-1.2169 2.9347-2.5058 0.38373-0.75089 0.37122-2.7024 0.30746-3.6435l1.0883 0.60134c-1.6464-1.3601-4.6884-1.0023-5.44-1.0739-0.75162-0.071583-1.6465-0.96633-2.1833-1.1095-0.53687-0.14316-1.3602-0.28634-2.434-0.8232-1.0737-0.53687-1.3958-1.4316-2.0758-1.5389-0.08501-0.01342-0.16205-0.01928-0.23461-0.01809z" fill="#d6d5da" style="paint-order:fill markers stroke"/><path d="m30.285 31.781 5.0559-0.45053 2.2026 4.5053-0.45052 2.7532-3.7043 2.2526-2.5029-1.6519z" style="paint-order:fill markers stroke"/></g><g stroke="#000" stroke-linecap="round" stroke-linejoin="round" stroke-width=".5"><path d="m36.865 37.963c-1.0737 0-3.2212-0.50108-3.1496 2.3622" fill="none" style="paint-order:fill markers stroke"/><path d="m30.494 38.679c0.32212-0.68003 0.25054-2.0401 0.25054-3.078 0-1.0379-0.57266-2.4696-1.4674-3.078-0.11258-1.0925 0.85554-0.48082 1.718-0.03579 0.85899 1.2527 1.1453 2.6843 1.0737 3.7223-0.07158 1.0379 0.03579 2.0401-0.3937 2.9349-0.80707 0.55108-1.3045 0.57313-1.1811-0.46529z" fill="#a19076" style="paint-order:fill markers stroke"/><path d="m24.424 7.4333c-4.023-0.75461-2.5386-1.8898-4.0803-2.4189-1.5023-0.51551-2.645-0.41285-2.645-0.41285 0.26907-1.3861-1.8371-3.297-4.5828-3.6412-3.0425-0.38134-4.3383 2.9125-3.6293 3.2164-0.93334 0.021147-1.692 1.0732-2.1451 1.0926-0.80171 0.034295-1.1631-0.35962-1.6777-0.24308-0.89614 0.20293-2.6651 0.14285-2.6901 0.14159-3.2007-0.16156-1.2558 1.3615 0.63714 1.2743 1.0375-0.047804 2.5117 0.23194 3.9644 0.49555 0.3836 1.2475 2.2546 0.93576 3.752 0.84952 1.8671-0.10753 3.8186 0.00506 5.7036 0.11089 1.1839 0.066468 2.2793 0.43976 3.4996 0.31387 1.2496-0.12891 3.752 0.35397 3.752 0.35397 1.7096 0.16128 2.417-0.70588 0.14159-1.1327z" fill="#c7d4dc" style="paint-order:fill markers stroke"/></g><g><path d="m8.2853 14.998c-1.1477-0.03376-2.2965 1.1052-3.1378 2.3466-0.19385-0.03572-0.37912-0.04252-0.56121-0.03306-2.9022 0.15071-2.5688 5.5988-2.3203 8.0254 0.74355 0.81436 1.8411 1.4874 3.5052 1.7353 1.6641 0.24785 3.4985 0.38393 4.6684 0.29662 1.2026-0.08974 1.5953-0.53551 2.2087-1.2604 0.61335-0.72487 3.0761-2.5035 3.1254-4.8431 0.01978-0.93976 0.10028-1.6487-1.1586-1.8092 0.28294-0.65017 0.46666-1.5077 0.43305-2.1565-0.07329-1.4144-0.9518-1.7868-1.7886-1.8235-0.9507 0.0068-1.6238 0.21076-2.2432 0.59-0.93054-0.74875-2.1077-1.0498-2.7311-1.0682z" fill="#f3a208" style="paint-order:fill markers stroke"/><g fill="none" stroke="#000" stroke-linecap="round" stroke-linejoin="round" stroke-width=".5"><path d="m5.9838 20.734c-0.60192-0.03541-1.746 0.2522-1.7225 1.2644 0.02476 1.068 1.5028 1.4386 2.8202 1.0371 1.2637-0.38522 2.0254-0.76769 2.5854-1.3448 0.55558-0.57254 0.53582-1.0659-0.057217-1.8252-0.49591-0.63494-1.7965-1.7659-4.0153-2.4243-3.966-1.1769-3.6025 5.2181-3.3283 7.8958 0.74355 0.81436 1.8412 1.4871 3.5053 1.7349s3.4985 0.38438 4.6685 0.29707c1.2026-0.08974 1.5949-0.53596 2.2082-1.2608s3.0765-2.5034 3.1257-4.843c0.02164-1.0279 0.1646-1.8397-1.5018-1.8992-0.48791-0.01743-0.72647 0.2003-1.194 0.19547-0.6993-0.0072-2.1497 0.19851-2.5975 0.71238-0.59517 0.68303-0.07803 1.5201 0.4344 1.8861 0.51243 0.36603 0.99056 0.60622 1.8317 0.59241" style="paint-order:fill markers stroke"/><path d="m5.134 17.229c0.84977-1.3101 1.9474-2.266 3.1512-2.2306 1.2038 0.03541 4.4821 1.1087 4.0351 4.471" style="paint-order:fill markers stroke"/><path d="m11.118 15.99c0.88518-0.5311 1.4517-0.56651 2.0536-0.5311 0.92509 0.05442 1.8033 0.42678 1.8766 1.8412 0.04318 0.83331-0.04749 1.4223-0.47237 2.0596" style="paint-order:fill markers stroke"/><path d="m10.091 23.496c-0.24785 0.81436-0.46029 2.266-3.1158 2.868" style="paint-order:fill markers stroke"/></g></g><path d="m30.902 43.815c-0.22681 0-1.1907 1.4175-1.1907 1.8712 0 0.45361 0 1.3608 1.0206 1.5876 1.0206 0.22681 2.665 0.85053 3.9691-2.2681l-2.1615-1.5823z" fill="#d0cb7e" style="paint-order:fill markers stroke"/><path d="m30.902 43.815c-0.22681 0-1.1907 1.4175-1.1907 1.8712 0 0.45361 0 1.3608 1.0206 1.5876 1.0206 0.22681 2.665 0.85053 3.9691-2.2681" fill="none" stroke="#000" stroke-linecap="round" stroke-linejoin="round" stroke-width=".5" style="paint-order:fill markers stroke"/><path d="m36.589 40.058 0.2756-1.8724c-1.0737 0-2.9743-0.57516-2.9027 2.2881 0.68462 0.87724 2.4546 0.75591 2.6271-0.41576z" fill="#de4801" style="paint-order:fill markers stroke"/><g><g><path d="m32.384 32.607c0.45351 0.24737 2.0408 0.94824 2.5355-0.49473 0.49473-1.443-3.3601-1.0307-2.5355 0.49473z" fill="#cfcee0" stroke="#000" stroke-linecap="round" stroke-linejoin="round" stroke-width=".5" style="paint-order:fill markers stroke"/><path d="m23.909 30.59c0.25054 0.85899 0.68003 1.4316 1.7896 1.4316s1.6822 0.4295 2.6128 0.46528c0.93057 0.03579 1.8254-0.03579 2.1475-0.03579 0.32212 0 0.93057 0.42949 1.3601 0.32212 0.42949-0.10737 1.2169-0.17896 1.2885-1.2885" fill="#cfcee0" stroke="#000" stroke-linecap="round" stroke-linejoin="round" stroke-width=".5" style="paint-order:fill markers stroke"/><path d="m23.992 25.968c-0.96171 0.75924-1.3164 1.0629-2.7337 0.91106-1.4173-0.15185-2.8341-0.91122-3.2391 0.75913-0.40493 1.6703 2.1763 1.9239 2.48 1.8226l0.14211-0.14211c0.47637 0.75119 1.0733 1.2831 1.5487 1.3426 0.51807 0.06476 1.4221 0.04825 2.1048-0.11432 1.454 0.69597 2.242 0.59573 3.3365 0.21333 1.2108 0.44419 2.4216 0.61873 3.6325 0.48044l1.8429 0.24375v-0.06511c0.81379 0.1647 1.6202 0.53009 2.219 1.2821 1.539 1.9327 1.6818 4.2949 1.6102 4.9749-0.0716 0.68003 0.10774 3.2924-1.6102 3.2566-1.718-0.03579-2.4695-1.2885-4.1517-1.9327-1.6822-0.64424-2.9352-0.2861-3.6153 0.21497-0.68003 0.50108-0.10721 1.3601 0.6444 1.6464 0.75162 0.28633 0.9662 0.39349 1.1452 1.4314 0.17895 1.0379 1.9329 1.6822 2.2908 1.6464 0.35791-0.03579 0.96649-0.32199 0.93069-0.03566-0.03579 0.28633 1.2886 1.1098 2.0402 1.0382 0.75162-0.07158 3.0777-0.89502 3.2566-1.8614 0.17896-0.96636 0.68002-2.1835 0.96635-2.9709 0.28633-0.78741 0.35832-3.5791-0.10697-4.6886-0.46528-1.1095-1.3603-2.9345-2.0045-3.5429-0.64424-0.60845-1.7896-2.2193-2.4696-4.6173l-0.91436-1.2174z" fill="#be8c35" style="paint-order:fill markers stroke"/></g><path d="m23.157 29.23c0.64424 0.93057 1.9327 2.0043 2.577 2.0043 0.64424 0 1.2169-0.03579 1.718-0.46529m-0.71583-0.53687c1.1095 0.64424 2.398 1.2169 3.257 1.1811s3.7939-0.64424 5.3329 1.2885c1.539 1.9327 1.6822 4.2949 1.6106 4.975-0.07158 0.68003 0.10737 3.2928-1.6106 3.257-1.718-0.03579-2.4696-1.2885-4.1518-1.9327-1.6822-0.64424-2.9349-0.28633-3.6149 0.21475-0.68003 0.50108-0.10737 1.3601 0.64424 1.6464 0.75162 0.28633 0.96636 0.3937 1.1453 1.4316 0.17895 1.0379 1.9327 1.6822 2.2906 1.6464 0.35791-0.03579 0.96636-0.32212 0.93057-0.03579-0.03579 0.28633 1.2885 1.1095 2.0401 1.0379 0.75162-0.07158 3.078-0.89478 3.257-1.8611 0.17896-0.96636 0.68003-2.1833 0.96636-2.9707 0.28633-0.7874 0.35791-3.5791-0.10737-4.6886-0.46528-1.1095-1.3601-2.9349-2.0043-3.5433-0.64424-0.60845-1.7896-2.2191-2.4696-4.6171m-13.887 1.5748c0.50108 1.0022 1.2527 1.7538 1.8254 1.8254 0.57266 0.07158 1.1811 0.21475 1.9685-0.03579m-0.16689-4.6573c-0.96171 0.75924-1.316 1.0629-2.7333 0.9111-1.3258-0.10496-2.6959-0.78235-3.0957 0.71817-0.38649 1.4505 2.0372 2.1266 2.3364 1.8633" fill="none" stroke="#000" stroke-linecap="round" stroke-linejoin="round" stroke-width=".5" style="paint-order:fill markers stroke"/></g><path d="m33.071 23.468c-1.6464-1.3243-3.31-1.891-5.0466-1.8969-1.7809-0.0061-3.2323 0.63867-4.0069 1.1031-0.89748 0.53811-1.0721 1.2935-0.71758 2.1181 0.28458 0.66186 0.51862 0.9564 1.123 1.2591 0.60438 0.30275 2.4861 0.28347 3.673 0.27987 2.6244-8e-3 2.0449-0.42128 4.1876-0.32212" fill="#f3a208" stroke="#000" stroke-linecap="round" stroke-linejoin="round" stroke-width=".5" style="paint-order:fill markers stroke"/><g stroke="#000" stroke-linecap="round" stroke-linejoin="round" stroke-width=".5"><path d="m34.431 23.145c0.96636 0 2.3622 0.96636 2.398 2.0401 0.03579 1.0737-0.68003 2.0759-2.577 2.0401-1.8969-0.03579-2.0043-1.0737-1.9327-1.9685 0.07158-0.89478 0.35791-2.1475 2.1117-2.1117z" fill="#d6d5db" style="paint-order:fill markers stroke"/><path d="m33.286 24.792c0.25054 0.17896 1.6822 0.85899 2.2191 1.1095" fill="none" style="paint-order:fill markers stroke"/></g><g fill="none" stroke="#000" stroke-linecap="round" stroke-linejoin="round" stroke-width=".5"><path d="m38.01 42.258c-0.14317 0.93057 0.25054 1.4316 1.2885 0.7874 1.0379-0.64424 1.2885-1.3243 1.3243-2.4696" style="paint-order:fill markers stroke"/><path d="m40.551 41.864c0.32212 0.21475 1.2885 0.21475 1.8611-0.3937 0.57266-0.60845 1.2527-1.718 1.1095-2.7917-0.14317-1.0737-0.53687-1.6106-0.71582-1.9685" style="paint-order:fill markers stroke"/><path d="m43.594 39.502c0.60845 0.03579 1.3959-0.68003 1.6464-1.0022 0.25054-0.32212 1.0022-1.2527 0.96636-2.398-0.03579-1.1453-0.8232-3.1854-1.6106-3.8297" style="paint-order:fill markers stroke"/><path d="m41.911 33.632c0.7874 0.50108 1.6106 0.50108 1.8611 0.03579 0.25054-0.46529 0.60845-1.0379 0.68003-1.718 0.07158-0.68003 0.75162-1.5748 1.1095-2.0759 0.35791-0.50108 1.1095-1.8611 1.1095-2.5412s-1.0379-1.8254-1.4674-2.0401c-0.42949-0.21475-1.6822-0.53687-3.0423 0.78741" style="paint-order:fill markers stroke"/><path d="m45.168 27.691c-0.60845-0.21475-1.5032-0.35791-1.9685 0.25054-0.46529 0.60845-0.53687 0.89478 0.03579 1.2169 0.57266 0.32212 0.85899 0.93057 0.07158 2.0401" style="paint-order:fill markers stroke"/><path d="m46.278 26.259c-0.10738-1.2527 0.14316-1.5032 0.89478-2.9707 0.75162-1.4674 1.718-3.7939 1.718-4.2234s0.25054-1.8254 0.03579-3.257c1.5781-1.504 2.3604-2.2248 4.9956-2.6871-0.55947-0.52933-1.7244-0.87425-2.4902-1.071 0.53687-0.85899 0.96636-1.8611 1.3601-2.5054 0.3937-0.64424 0.33551-1.0878-1.1453-0.658-0.51423 0.14924-1.2523 0.58621-1.6106 0.83695 0.0091-1.3158 0.08533-1.6946 0.32212-2.6623 0.14399-0.58843 0.25679-1.7789-1.1384-0.75849-1.1469 0.83881-1.5459 1.7744-1.9038 2.0965-0.35791 0.32212-0.20488-0.83702-0.44601-1.6684-0.77886-2.6855-1.3592-0.77958-1.4895 0.18587-0.15565 1.1534-0.5157 1.4138-1.2925 2.825-0.52079 0.94621-0.89871 1.0882-2.4629 0.98394-0.71582 0.03579 1.539 0.03579 0 0-1.8969 0.03579-4.2234 1.6106-5.0823 2.0043-1.3959-0.17896-2.577-0.14316-3.3286 0.8232" style="paint-order:fill markers stroke"/><path d="m34.145 13.876c-1.2885-0.25054-2.2906-0.71582-3.4717 0.78741" style="paint-order:fill markers stroke"/><path d="m31.962 15.021c-1.2169-0.35791-3.8231-0.58525-3.8654 2.0154" style="paint-order:fill markers stroke"/><path d="m42.556 14.806c0.60845 0.25054 0.53687 0.14316 0.85899 0.53687" style="paint-order:fill markers stroke"/><path d="m39.549 15.558c2.1117 0.17896 2.1475 0.89478 2.8633 0.93057" style="paint-order:fill markers stroke"/><path d="m41.052 17.311c-0.78741 0-0.85899-0.60845-3.2928-0.53687" style="paint-order:fill markers stroke"/><path d="m36.901 25.436c1.0737 0 4.6529 0.07158 5.6192 0.21475" style="paint-order:fill markers stroke"/><path d="m29.349 21.427c-0.03579-0.60845-0.64424-1.539-2.0759-1.4674-1.4316 0.07158-1.9327 1.4316-1.6822 2.0043" style="paint-order:fill markers stroke"/><path d="m26.664 19.888c-0.14316-0.68003-0.17896-1.6464 1.1453-2.5054 1.3243-0.85899 1.5032-1.2169 2.1833-1.1095s1.0022 1.0022 2.0759 1.539c1.0737 0.53687 1.8969 0.68003 2.4338 0.8232 0.53687 0.14316 1.4316 1.0379 2.1833 1.1095 0.75162 0.07158 3.7939-0.28633 5.4403 1.0737" style="paint-order:fill markers stroke"/><path d="m41.017 20.246c0.10737 0.85899 0.18517 2.6923-0.28633 3.6149-0.65868 1.2889-1.3243 2.6209-2.9349 2.5054-1.6128-0.11566-1.2169-0.28633-1.2169-0.28633" style="paint-order:fill markers stroke"/><path d="m34.467 17.168c0 0.35791-0.07158 1.3243 0 1.6106" style="paint-order:fill markers stroke"/><path d="m34.825 18.743c-0.85899 0.3937-2.9707 1.8611-2.577 4.0086" style="paint-order:fill markers stroke"/></g><path d="m33.976 20.863c-0.05517 0.20589-0.34794 0.3511-0.72882 0.3511-0.79847 0-0.47426-0.20537-0.62326-0.37902 0.13511-0.1526 0.37009-0.56923 0.58028-0.68303 0.56949 0.21492 0.82697 0.50505 0.7718 0.71094z" style="paint-order:fill markers stroke"/><path d="m27.538 17.639c0.32901 0.15185 0.83206 0.48397 0.6549 0.81298-0.17716 0.32901-0.4441 0.34287-0.69718 0.1404-0.25308-0.20247-0.69788-0.05062-0.82442-0.02531-0.12654 0.02531 0.86671-0.92806 0.86671-0.92806z" style="paint-order:fill markers stroke"/><g fill="none" stroke="#000" stroke-linecap="round" stroke-linejoin="round" stroke-width=".5"><path d="m46.099 17.276c-0.57266 0.85899-0.96636 1.6822-1.1453 2.398-0.17896 0.71582-0.85899 2.9349-1.1811 3.436" style="paint-order:fill markers stroke"/><path d="m47.352 17.777c0.03579 0.35791 0.14316 0.71582-0.32212 0.96636" style="paint-order:fill markers stroke"/><path d="m45.24 22.394c0.71582 0.21475 0.3937 0.96636-0.10738 1.539" style="paint-order:fill markers stroke"/></g></g><g transform="translate(-8.1292 -4.5313)"><path d="m8.3792 4.7813h59.699v54.051h-59.699z" fill="none" stroke="#000" stroke-linecap="round" stroke-linejoin="round" stroke-width=".5" style="paint-order:fill markers stroke"/></g></svg>
