<?xml version="1.0" encoding="UTF-8" standalone="no"?>
<svg xmlns:rdf="http://www.w3.org/1999/02/22-rdf-syntax-ns#" xmlns="http://www.w3.org/2000/svg" height="55.663mm" width="142mm" version="1.1" xmlns:cc="http://creativecommons.org/ns#" xmlns:dc="http://purl.org/dc/elements/1.1/" viewBox="0 0 503.14155 197.23004">
 <g transform="translate(-155.24 -644.9)">
  <g stroke="#fff" stroke-width="5">
   <path d="m548.45 783.29c-0.60369-0.0749-1.02-0.25053-1.4702-0.62081-0.26051-0.21424-0.64481-0.76822-0.76519-1.1031l-0.0843-0.23498-0.54593 0.54948c-0.7988 0.8037-1.4445 1.1672-2.3908 1.3456-0.61948 0.11681-1.6325 0.0723-2.1997-0.0955-0.5768-0.17129-1.0116-0.41074-1.3632-0.75081-1.2077-1.1683-0.95903-3.4231 0.49854-4.5189 1.0768-0.8095 2.5588-1.1431 4.8782-1.0981l1.0513 0.0201-0.0211-1.2499c-0.0223-1.3036-0.049-1.5015-0.25845-1.9106-0.11649-0.22782-0.44648-0.54216-0.71071-0.67693-0.30189-0.15402-0.74231-0.23694-1.2624-0.23769-0.50913-0.00078-0.8898 0.0593-1.0297 0.16115-0.0805 0.0593-0.0758 0.0813 0.0902 0.40888 0.20685 0.40914 0.25512 0.72235 0.1745 1.1322-0.10877 0.55292-0.37743 0.895-0.89263 1.1367-0.26165 0.12273-0.37752 0.1477-0.75594 0.16294-0.36709 0.0145-0.50096-0.00038-0.74891-0.0837-0.7703-0.2602-1.1706-0.84568-1.123-1.6423 0.0711-1.1805 1.1559-1.8524 3.3539-2.0763 0.67151-0.0683 2.4218-0.0691 2.964-0.00078 2.0474 0.25685 3.1197 0.98411 3.5177 2.3859 0.10139 0.35714 0.10371 0.41721 0.0825 2.1084-0.0125 0.95743-0.0227 2.4818-0.0233 3.3874-0.00073 1.6088 0.002 1.6511 0.10294 1.8407 0.2207 0.41262 0.56265 0.56917 1.1195 0.51257 0.59188-0.0603 0.55373-0.0696 0.67041 0.16198 0.11581 0.22965 0.14069 0.57364 0.0475 0.6496-0.29883 0.24229-2.0391 0.44433-2.9042 0.33715zm-4.447-1.6903c0.86403-0.14132 1.666-0.92285 1.9047-1.8561 0.0755-0.29428 0.0946-0.52278 0.0946-1.1103v-0.73973l-0.12937-0.0307c-0.0715-0.0165-0.45754-0.043-0.85864-0.0591-0.5746-0.0222-0.80679-0.0125-1.0951 0.048-1.0715 0.22222-1.5715 0.79467-1.7032 1.9499-0.0429 0.37528 0.0545 0.98033 0.20247 1.2548 0.25249 0.46936 0.82792 0.66653 1.5843 0.54283zm25.265 1.6629c-1.3353-0.15478-2.2864-0.46537-3.0861-1.0078-1.3291-0.90156-2.0172-2.3516-2.097-4.4192-0.10886-2.8205 1.1301-4.7781 3.5283-5.5745 0.90003-0.2989 1.6598-0.40704 2.8592-0.40699 1.4924 0.00005 2.5547 0.23011 3.4432 0.74573 1.1658 0.67651 1.5904 1.8683 1.0365 2.9093-0.30694 0.57696-0.92836 0.91399-1.6851 0.91399-0.72 0-1.2564-0.26128-1.6004-0.77956-0.25026-0.37708-0.32016-0.66206-0.29446-1.2007 0.0187-0.3834 0.0433-0.49794 0.16733-0.75274 0.0802-0.16532 0.18386-0.359 0.23039-0.43045 0.10657-0.16361 0.0599-0.25087-0.21983-0.40688-0.16366-0.0914-0.2901-0.1174-0.65434-0.13416-1.6607-0.0769-2.6937 1.0364-3.0683 3.3056-0.082 0.49413-0.0829 2.3178-0.002 2.8229 0.10719 0.66855 0.28616 1.2592 0.53254 1.7576 0.29978 0.60645 0.72843 1.0665 1.2446 1.3359 1.0681 0.55738 2.6069 0.39327 3.782-0.40334 0.33536-0.22734 0.87443-0.77183 1.0867-1.0976 0.12762-0.19589 0.22579-0.2988 0.28511-0.2988 0.13438 0 0.4213 0.16038 0.57339 0.32053l0.13388 0.14094-0.24838 0.36912c-0.81535 1.2119-2.1488 2.0051-3.7832 2.2504-0.42476 0.064-1.7503 0.0887-2.1642 0.0409zm34.584-0.0212c-1.128-0.16453-1.9541-0.6678-2.3217-1.4145-0.31414-0.63821-0.30351-0.5016-0.34811-4.4614-0.022-1.9796-0.0534-3.7559-0.068-3.9474l-0.0272-0.34823-0.81419 0.0292c-0.70212 0.0257-0.82245 0.0197-0.87472-0.0434-0.0856-0.10327-0.11314-0.60029-0.043-0.77088l0.0588-0.14102h0.86989 0.86989l-0.0168-1.8836c-0.0148-1.6357-0.01-1.8895 0.054-1.9282 0.11024-0.07 3.2607-0.0601 3.3309 0.01 0.0426 0.0426 0.0562 0.53528 0.0562 1.9289v1.8725h1.4762c1.3169 0 1.4832 0.01 1.5409 0.0775 0.0851 0.1029 0.088 0.7264 0.005 0.82803-0.0543 0.0655-0.23503 0.0709-1.5409 0.0474l-1.4798-0.0259-0.005 0.44244c0 0.24331-0.0112 0.48299-0.0202 0.53264-0.01 0.049-0.0281 1.1294-0.0427 2.3994-0.0258 2.3339 0.02 4.3206 0.11137 4.813 0.11515 0.62279 0.44124 0.94366 1.0052 0.98892 0.55138 0.0438 1.4502-0.17722 1.9936-0.49122 0.15611-0.09 0.21699-0.10363 0.29078-0.0644 0.12255 0.0658 0.28409 0.29569 0.3369 0.47986 0.0372 0.12978 0.0258 0.16249-0.0985 0.27844-0.1723 0.16095-0.91207 0.52487-1.2782 0.62878-0.69443 0.1971-2.2226 0.27988-3.0201 0.1636zm10.448 0.006c-1.0935-0.13567-2.1845-0.51296-2.8967-1.0018-0.3182-0.21849-0.88601-0.77634-1.1108-1.0914-0.81747-1.1456-1.1677-2.8617-0.93942-4.6032 0.28323-2.1604 1.4687-3.6454 3.4345-4.3021 0.4646-0.15524 1.2306-0.31626 1.7347-0.36463 0.49057-0.0474 1.6557-0.0337 2.0527 0.0234 2.3584 0.33921 3.8011 1.7912 4.1386 4.1652 0.0657 0.46173 0.0611 1.074-0.01 1.1432-0.0431 0.0433-0.97602 0.0562-3.9123 0.0562h-3.8558l0.0306 0.64684c0.0743 1.588 0.49679 2.7792 1.2543 3.5368 0.5565 0.55659 1.2118 0.81263 2.0705 0.80923 0.82959-0.005 1.5942-0.24416 2.3053-0.72648 0.3355-0.22761 0.87448-0.77201 1.0867-1.0977 0.12761-0.19589 0.22579-0.29883 0.28508-0.29883 0.13573 0 0.42185 0.16093 0.57755 0.3248l0.13803 0.14535-0.26915 0.39623c-0.3392 0.4993-1.0294 1.1593-1.516 1.4497-0.46352 0.27669-1.2137 0.56216-1.8312 0.69678-0.38113 0.083-0.65819 0.10539-1.4585 0.11735-0.54343 0.01-1.1332-0.005-1.3105-0.0256zm1.8515-7.0361c0.0384-0.01 0.25582-0.0147 0.48226-0.0173l0.41165-0.005v-0.31754c0-0.17466-0.0215-0.51872-0.0484-0.76452-0.12367-1.1755-0.46811-1.8547-1.0976-2.1646-0.25955-0.12778-0.34376-0.14547-0.69198-0.14535-0.42494 0-0.67187 0.0654-0.96745 0.25403-0.64018 0.40943-1.0558 1.4108-1.2213 2.9428l-0.0319 0.29882 1.5475-0.0346c0.85106-0.0196 1.5792-0.0409 1.618-0.0485zm11.221 7.0528c-1.3354-0.15476-2.2864-0.46531-3.0861-1.0078-1.3291-0.9016-2.0171-2.3516-2.097-4.4192-0.10886-2.8205 1.1302-4.7781 3.5283-5.5745 0.90002-0.29888 1.6598-0.40701 2.8592-0.40697 1.4924 0.00002 2.5547 0.23012 3.4432 0.74571 1.1658 0.67649 1.5904 1.8683 1.0365 2.9092-0.30693 0.57704-0.92835 0.914-1.6851 0.914-0.71997 0-1.2564-0.26125-1.6004-0.77952-0.25029-0.37708-0.32019-0.66204-0.29448-1.2007 0.0189-0.38334 0.0433-0.49788 0.16737-0.75271 0.0802-0.16536 0.18387-0.35902 0.23039-0.43048 0.10655-0.16357 0.06-0.25089-0.21984-0.40683-0.16369-0.0915-0.29016-0.11738-0.65438-0.13419-1.6606-0.077-2.6936 1.0364-3.0683 3.3056-0.0819 0.49412-0.0831 2.3178-0.005 2.8228 0.10717 0.66851 0.28612 1.2592 0.5325 1.7576 0.29981 0.60647 0.72841 1.0666 1.2446 1.336 1.0681 0.5573 2.6069 0.39324 3.782-0.40338 0.33531-0.22733 0.87441-0.7718 1.0866-1.0976 0.12763-0.19586 0.22584-0.29886 0.28512-0.29886 0.1344 0 0.42132 0.16038 0.57341 0.32061l0.13388 0.14091-0.24838 0.36912c-0.81535 1.212-2.1488 2.0052-3.7832 2.2504-0.42477 0.064-1.7503 0.0887-2.1642 0.0409zm11.06-0.0212c-1.128-0.16453-1.9541-0.6678-2.3217-1.4145-0.31417-0.63824-0.30352-0.50162-0.34812-4.4615-0.022-1.9795-0.0534-3.7559-0.068-3.9474l-0.0272-0.34824-0.81421 0.0292c-0.70215 0.0257-0.82243 0.0196-0.8747-0.0434-0.0857-0.1033-0.11317-0.60031-0.0428-0.7709l0.0588-0.14102h0.86989 0.8699l-0.0169-1.8836c-0.0145-1.6357-0.01-1.8895 0.0541-1.9282 0.11025-0.07 3.2607-0.0602 3.3309 0.01 0.0425 0.0425 0.0562 0.53531 0.0562 1.9289v1.8725h1.4762c1.3169 0 1.4832 0.01 1.5408 0.0775 0.0851 0.10288 0.088 0.72643 0.005 0.82801-0.0545 0.0654-0.23501 0.0709-1.5408 0.0475l-1.4798-0.026-0.005 0.44242c0 0.24333-0.0112 0.48301-0.0199 0.53264-0.01 0.0491-0.0282 1.1294-0.0429 2.3994-0.0257 2.3339 0.0204 4.3206 0.11145 4.813 0.11515 0.6228 0.44115 0.94363 1.0052 0.98887 0.55142 0.0438 1.4502-0.17717 1.9936-0.49118 0.15616-0.0901 0.21696-0.10362 0.2908-0.0644 0.12256 0.0657 0.28406 0.29565 0.33691 0.47984 0.0374 0.12976 0.0257 0.16248-0.0985 0.27843-0.17229 0.16095-0.91203 0.52485-1.2783 0.62881-0.69435 0.19706-2.2227 0.27986-3.02 0.16356zm8.1824 0.004c-1.0371-0.10227-2.4997-0.43022-2.6675-0.59817-0.0874-0.0874-0.0881-0.13131-0.022-1.6792 0.0527-1.2382 0.082-1.5986 0.1318-1.6304 0.11698-0.074 0.58772-0.0493 0.65722 0.0338 0.0347 0.0425 0.25778 0.55039 0.49553 1.13 0.27607 0.67292 0.47212 1.087 0.54239 1.1458 0.19259 0.16097 0.84893 0.46273 1.2685 0.58318 1.0839 0.3112 2.4562 0.22014 3.0385-0.20163 0.36432-0.26394 0.51149-0.57955 0.46727-1.0024-0.0788-0.75671-0.64991-1.1745-2.594-1.8986-1.6332-0.60831-2.3128-0.96773-2.9331-1.5513-0.64356-0.60545-0.92601-1.23-0.97923-2.1654-0.023-0.40515-0.0117-0.60302 0.052-0.89391 0.26583-1.218 1.1688-2.0727 2.5818-2.4434 0.64243-0.16856 1.1381-0.22084 2.0784-0.21922 1.1437 0.003 1.9441 0.083 3.1521 0.32053 0.6083 0.11942 0.76842 0.17123 0.83441 0.2701 0.0196 0.0285 0.0352 0.70051 0.0357 1.4934 0 1.6266 0.0347 1.4988-0.39572 1.4988-0.17664 0-0.2685-0.0239-0.32049-0.0828-0.0401-0.0451-0.28528-0.50778-0.54483-1.0278l-0.47207-0.9454-0.34457-0.16707c-0.72064-0.34952-1.3864-0.5066-2.1421-0.50539-1.3225 0.003-2.0625 0.47824-1.9697 1.2673 0.077 0.65349 0.58443 1.0562 2.0502 1.6264 2.1029 0.81812 2.3938 0.94872 3.0368 1.3635 0.77476 0.4998 1.342 1.1606 1.5733 1.833 0.14936 0.43417 0.21136 1.0942 0.1466 1.5579-0.18609 1.33-0.92264 2.1416-2.3573 2.5971-0.79696 0.25307-1.2078 0.30226-2.6582 0.31814-0.72448 0.01-1.5079-0.006-1.7408-0.0268zm-94.501-0.31113c-0.091-0.10972-0.0877-0.72699 0.006-0.83824 0.0641-0.0771 0.13833-0.0811 0.92479-0.0496l0.85538 0.0333 0.037-0.36883c0.0658-0.66244 0.0514-7.9182-0.0163-8.4565l-0.0233-0.18361-0.86039 0.0285c-0.75597 0.0257-0.86799 0.0199-0.92321-0.0474-0.086-0.1037-0.0845-0.72609 0.002-0.8303 0.059-0.0712 0.30044-0.0775 2.6213-0.0775 2.3877 0 2.5594 0.007 2.5983 0.0828 0.0369 0.0718 0.021 0.63375-0.0527 1.976-0.01 0.18761-0.007 0.3411 0.0112 0.3411 0.0163 0 0.10732-0.14302 0.20174-0.31783 0.69323-1.2835 1.6309-2.06 2.7758-2.2987 0.48139-0.10038 1.2597-0.0898 1.6192 0.0212 0.67614 0.20989 1.1472 0.69846 1.3324 1.3819 0.0975 0.35974 0.0471 1.039-0.10158 1.3611-0.29835 0.64801-0.92063 0.98044-1.7218 0.91988-0.69526-0.0529-1.2635-0.48351-1.4552-1.1035-0.0604-0.19697-0.0819-0.4075-0.0769-0.77606 0.01-0.58844-0.006-0.60022-0.38613-0.35839-0.66917 0.4238-1.4257 1.5322-1.7778 2.6049-0.28172 0.85803-0.32319 1.1971-0.33388 2.7288-0.007 0.77631-0.003 1.8533 0.01 2.3934l0.0171 0.98188 0.90581-0.0338 0.9058-0.0338 0.0566 0.12461c0.0718 0.15846 0.0732 0.59665 0.003 0.75312l-0.0545 0.11983h-3.5153c-3.2125 0-3.5208-0.009-3.5798-0.0775zm23.955-0.0138c-0.065-0.12047-0.0624-0.68923 0.004-0.81126 0.0497-0.0938 0.0757-0.0953 0.93331-0.0622l0.88179 0.0338 0.0315-1.1932c0.0317-1.2093 0.0285-11.832-0.006-13.884l-0.0182-1.1174h-0.88137c-0.62278 0-0.89793-0.0163-0.93782-0.0562-0.0701-0.0701-0.076-0.6667-0.01-0.79351 0.0476-0.0885 0.1264-0.0909 2.6573-0.0909h2.6086l0.0312 0.12249c0.0169 0.0669 0.0179 0.61253 0 1.2115-0.0158 0.59894-0.0404 2.1476-0.0541 3.4414s-0.0369 2.8658-0.0516 3.4933c-0.0161 0.68213-0.01 1.1409 0.0155 1.1409 0.0241 0 0.11449-0.10057 0.20159-0.22348 0.21686-0.30597 0.76317-0.86864 1.1044-1.1374 0.97236-0.76601 2.1217-1.1351 3.5443-1.1383 0.77636-0.003 1.1897 0.0793 1.7387 0.34155 0.82102 0.39194 1.3485 1.1549 1.508 2.1812 0.0314 0.2018 0.0635 1.7571 0.0828 4.016l0.0317 3.6866 0.78911-0.0336c0.92192-0.0394 0.8921-0.0548 0.8921 0.47057 0 0.55044 0.38396 0.49398-3.3598 0.49398-2.9501 0-3.2684-0.01-3.3257-0.0768-0.0887-0.10662-0.0853-0.73261 0.005-0.84046 0.0603-0.0729 0.13904-0.0775 0.8046-0.0481l0.73719 0.0332 0.0352-2.7686c0.0401-3.1552 0.0179-4.3254-0.0906-4.759-0.12955-0.5181-0.32055-0.79047-0.6859-0.97791-0.2129-0.1093-0.89095-0.1457-1.2836-0.0688-1.0914 0.21357-2.0263 1.1652-2.4306 2.4742-0.21545 0.69754-0.23746 1.0263-0.23761 3.5573-0.00011 1.311 0.0137 2.4187 0.0301 2.4615 0.0261 0.0688 0.0947 0.0738 0.60104 0.045 0.51383-0.0294 0.57823-0.0245 0.64064 0.0509 0.0923 0.1112 0.0958 0.72852 0.006 0.8381-0.0594 0.0716-0.34641 0.0775-3.28 0.0775-3.1308 0-3.2166-0.003-3.264-0.0909zm15.942 0.0138c-0.091-0.10972-0.0877-0.72699 0.006-0.83824 0.0641-0.0771 0.13832-0.0811 0.92499-0.0496l0.85556 0.0333 0.0383-0.32181c0.0507-0.423 0.0519-8.1578 0-8.4565l-0.039-0.23073-0.86238 0.0286c-0.75785 0.0254-0.86998 0.0197-0.92521-0.0473-0.0861-0.1037-0.0845-0.7261 0-0.83031 0.059-0.0712 0.30035-0.0775 2.6202-0.0775 1.9928 0 2.564 0.0134 2.5936 0.0593 0.0205 0.0317 0.0362 1.9854 0.0322 4.3401-0.005 2.3548 0.005 4.564 0.0142 4.9095l0.0197 0.62815 0.7636-0.0331c0.69118-0.0307 0.76998-0.0257 0.83112 0.0484 0.0894 0.10811 0.093 0.73393 0.006 0.84071-0.0573 0.069-0.38445 0.0768-3.4392 0.0768-3.0829 0-3.3815-0.009-3.4405-0.0775zm2.9465-12.619c-0.40067-0.13899-0.58265-0.24503-0.80163-0.46718-0.67604-0.68571-0.69174-1.8733-0.0337-2.5585 0.18879-0.19667 0.59656-0.42713 0.89711-0.50708 0.27773-0.0737 0.97364-0.0646 1.2378 0.0171 0.54028 0.16649 0.94865 0.50573 1.1666 0.9691 0.10785 0.22928 0.12166 0.3177 0.12166 0.77628 0 0.47094-0.0127 0.54393-0.13545 0.81084-0.21391 0.46307-0.63873 0.81028-1.1998 0.98057-0.30116 0.0914-0.95976 0.0803-1.2523-0.0207z"/>
   <path d="m261.94 789.19c-1.8266-0.10427-2.9756-0.56061-3.4515-1.3701-0.14927-0.25389-0.16576-0.33782-0.1623-0.82522 0.003-0.44837 0.032-0.60051 0.15687-0.87447 0.19485-0.42217 0.5726-0.8979 0.95072-1.1969l0.29588-0.2338-0.31094-0.14363c-0.47525-0.21985-1.0802-0.8479-1.3365-1.3874-0.30649-0.64531-0.3844-1.2455-0.26028-2.0045 0.16596-1.0155 0.62255-1.7633 1.3786-2.2571l0.36102-0.23608-0.24523-0.29495c-0.5834-0.70155-0.813-1.4976-0.76305-2.6464 0.0496-1.1321 0.29622-1.7311 1.0104-2.4507 0.75771-0.76375 1.7606-1.1757 3.2361-1.3295 0.76367-0.0797 1.9911-0.003 2.6072 0.16255 0.25592 0.0677 0.72696 0.0902 2.0628 0.0907l1.7311 0.00043 0.0634 0.23715c0.056 0.20759 0.0113 0.6764-0.07 0.75959-0.0113 0.0112-0.42179 0.004-0.90979-0.0181-0.48801-0.0217-0.88732-0.0422-0.88732-0.0407 0.00003 0.001 0.13731 0.15083 0.30499 0.33167 0.97105 1.0472 1.1803 2.8446 0.49755 4.2733-0.71005 1.4856-2.6704 2.3425-5.0533 2.2089-0.83878-0.0476-1.6166-0.2014-2.154-0.42768-0.53825-0.22661-0.60475-0.23391-0.8745-0.0966-0.59186 0.30189-0.85688 0.69666-0.85915 1.2806-0.002 0.59774 0.37224 0.9498 1.1444 1.0748 0.23595 0.0393 1.5619 0.0633 3.3337 0.0636 3.2827 0.00079 3.5175 0.0208 4.3104 0.39367 0.75083 0.35166 1.277 1.0043 1.4637 1.8145 0.0917 0.39472 0.0898 1.2647-0.004 1.6616-0.10845 0.46478-0.42852 1.114-0.74013 1.5021-0.87422 1.0881-2.7321 1.8508-4.7636 1.9559-0.33866 0.0165-0.765 0.041-0.94738 0.0502-0.1824 0.01-0.68435-0.002-1.1154-0.0258zm2.9544-1.0479c1.3461-0.21849 2.2738-0.77759 2.5279-1.5232 0.11273-0.33105 0.11918-0.52885 0.0257-0.80615-0.13297-0.39586-0.43931-0.60311-1.0499-0.71051-0.20674-0.0373-1.52-0.0672-3.1019-0.0737l-2.7434-0.0111-0.13302 0.2733c-0.18414 0.3787-0.26518 0.93573-0.19699 1.3553 0.17271 1.0604 1.2423 1.5663 3.3447 1.5813 0.43117 0.003 1.0281-0.0354 1.3265-0.084zm-0.83893-9.1046c0.54095-0.16048 0.95104-0.7467 1.1191-1.5994 0.11678-0.59268 0.10028-2.4586-0.0268-2.9696-0.197-0.7947-0.59575-1.3776-1.0805-1.5797-0.51524-0.215-1.2459-0.0181-1.5835 0.42286-0.53232 0.69789-0.7684 1.9664-0.63471 3.4103 0.13155 1.4208 0.48145 2.0852 1.2197 2.3155 0.34327 0.10746 0.62575 0.10746 0.9867 0zm-97.441 4.1267c-1.2552-0.19204-2.1669-0.84042-2.5187-1.7906-0.18901-0.51029-0.18541-1.4605 0.008-2.0221 0.3019-0.87972 0.88789-1.4963 1.8477-1.9451 1.0414-0.48708 1.9053-0.63086 3.7918-0.63135l1.3193-0.00021-0.0341-1.221c-0.0366-1.3433-0.0971-1.6589-0.40271-2.0814-0.38867-0.53619-1.2647-0.81382-2.2029-0.69759-0.31228 0.0397-0.5605 0.1023-0.6152 0.15683-0.0834 0.0837-0.0722 0.12236 0.081 0.38489 0.15292 0.26003 0.17218 0.3502 0.17218 0.80528 0 0.43477-0.0217 0.5533-0.15075 0.78108-0.31032 0.55248-1.0052 0.88916-1.7177 0.8319-0.97843-0.077-1.5972-0.70343-1.5972-1.613 0-1.1162 0.85379-1.766 2.7435-2.0874 0.85851-0.14589 3.1557-0.14764 3.9323-0.003 1.4507 0.27069 2.3507 0.81629 2.7783 1.6847 0.3321 0.67506 0.34465 0.79214 0.31213 2.9377-0.0154 1.0778-0.0312 2.5702-0.0312 3.3164 0 1.3362 0.002 1.3605 0.15069 1.622 0.2328 0.40955 0.45992 0.50485 1.1039 0.46307l0.53127-0.0358 0.12091 0.27316c0.16214 0.36699 0.13159 0.51619-0.13245 0.64529-0.47925 0.23455-2.2093 0.36684-2.9525 0.22577-0.7983-0.15134-1.4527-0.65614-1.8401-1.4196l-0.22947-0.45185-0.46906 0.47946c-0.69856 0.71367-1.3145 1.0894-2.1318 1.3005-0.45505 0.11743-1.3951 0.16299-1.869 0.0913zm2.9667-1.8168c0.15896-0.0761 0.44185-0.29159 0.6283-0.47557 0.59441-0.58604 0.77633-1.1165 0.77633-2.2665v-0.73674l-0.34683-0.0453c-0.58531-0.0759-1.4658-0.0481-1.8822 0.0595-1.0604 0.2742-1.556 1.0258-1.4963 2.268 0.0339 0.67098 0.17418 1.004 0.51818 1.2165 0.40262 0.24887 1.2706 0.23875 1.8025-0.0194zm27.723 1.816c-1.4374-0.2236-2.6026-0.95178-3.3528-2.0952-0.62052-0.94631-0.91166-2.0918-0.9071-3.5701 0.004-1.067 0.11468-1.722 0.42589-2.4991 0.92719-2.3149 3.4297-3.5227 6.125-2.956 0.7034 0.14791 1.3652 0.50572 1.8718 1.0124 0.42958 0.42972 0.44019 0.43592 0.4716 0.27866 0.0482-0.23825 0.0486-3.7633 0.00047-5.6489l-0.0425-1.6431h-0.85297c-0.58277 0-0.87543-0.0214-0.9251-0.0711-0.0896-0.0896-0.0963-0.61607-0.01-0.7758 0.0596-0.11233 0.1527-0.1166 2.5907-0.1166h2.528l0.069 0.13088c0.0484 0.0903 0.0578 0.3416 0.0351 0.79879-0.0637 1.1805-0.0641 15.512-0.001 15.832l0.0303 0.15068 0.75726-0.0198c0.58966-0.0158 0.76851-0.004 0.80892 0.0597 0.0768 0.1232 0.0635 0.74086-0.0177 0.82332-0.0538 0.0538-0.6776 0.0711-2.4345 0.0711-2.0202 0-2.373-0.0118-2.4368-0.0908-0.0555-0.0656-0.0632-0.26777-0.0335-0.78386 0.0315-0.48781 0.0215-0.69402-0.0216-0.69402-0.0372 0-0.0647 0.0192-0.0647 0.0468 0 0.0251-0.12591 0.19021-0.2798 0.36606-0.776 0.88711-1.9139 1.378-3.3077 1.4269-0.36475 0.0117-0.82601-0.002-1.025-0.0346zm2.2127-1.21c0.76961-0.16084 1.4946-0.76916 1.8816-1.5784 0.74776-1.5634 0.7504-4.2314 0.006-5.7105-0.52763-1.0476-1.5519-1.6557-2.6082-1.5484-1.4443 0.14681-2.1414 1.56-2.1462 4.3517-0.002 1.1553 0.0656 1.8681 0.24444 2.5324 0.41167 1.5396 1.3301 2.2234 2.6227 1.9531zm18.86 1.2317c-1.5099-0.15493-2.5408-0.96241-2.7696-2.1692-0.0331-0.16642-0.0755-2.0095-0.10057-4.0956l-0.0432-3.7934-0.81697 0.0185c-0.93529 0.0217-0.97343 0.005-0.97343-0.4577 0-0.4915 0.0102-0.49699 0.96604-0.49699h0.8411l0.015-1.8843 0.0149-1.884h1.6582 1.6581l0.0149 1.883 0.0149 1.8832 1.4915 0.0152 1.4915 0.0152 0.0559 0.22609c0.0355 0.13881 0.0355 0.31349 0 0.45226l-0.0559 0.22609h-1.4833-1.4831l-0.0404 1.2608c-0.0539 1.7344-0.0451 5.146 0.0156 6.0952 0.0733 1.1577 0.27474 1.5326 0.8849 1.6593 0.45045 0.0946 1.2661-0.0536 1.8976-0.3422 0.47334-0.21641 0.48088-0.2177 0.60752-0.10482 0.15699 0.13986 0.30287 0.46906 0.25874 0.58406-0.0479 0.12338-1.0217 0.61289-1.4436 0.72523-0.70069 0.18658-1.864 0.26501-2.6831 0.18091zm25.653-0.0255c-1.1462-0.12068-2.3616-0.57083-3.1494-1.1667-0.47622-0.36006-0.97687-0.99615-1.2794-1.6254-0.73867-1.5367-0.76516-3.8508-0.0623-5.4869 0.49796-1.1604 1.5975-2.1205 2.9371-2.5647 2.2411-0.74294 4.7975-0.47261 6.1996 0.6557 1.0031 0.80736 1.6091 2.1495 1.622 3.5925l0.006 0.66342-3.8495 0.0145-3.8496 0.0145 0.0421 0.64783c0.13136 2.0724 0.80497 3.4398 1.9739 4.0067 1.4912 0.72331 3.6058 0.0241 4.6886-1.5492 0.1051-0.1528 0.235-0.27232 0.29595-0.27232 0.15428 0 0.60912 0.34347 0.60912 0.46012 0 0.16733-0.51532 0.82887-0.9937 1.2758-1.1569 1.0803-3.0252 1.5601-5.1888 1.3325zm2.384-6.961c0.0499-0.01 0.12443-0.0178 0.16587-0.0202 0.1088-0.007 0.0984-0.89744-0.0175-1.5115-0.23751-1.252-0.77437-1.8074-1.7483-1.8086-0.94456-0.00089-1.5655 0.62503-1.8886 1.905-0.10219 0.4041-0.24862 1.2772-0.24862 1.4799 0 0.0529 3.4414 0.0122 3.7383-0.0434zm40.485 6.961c-1.1462-0.12068-2.3616-0.57083-3.1494-1.1667-0.4762-0.36006-0.97689-0.99615-1.2794-1.6254-0.73867-1.5367-0.76515-3.8508-0.0624-5.4869 0.49799-1.1604 1.5975-2.1205 2.9371-2.5647 2.2411-0.74294 4.7975-0.47261 6.1996 0.6557 1.0031 0.80736 1.6091 2.1495 1.622 3.5925l0.006 0.66342-3.8495 0.0145-3.8495 0.0145 0.0422 0.64783c0.13132 2.0724 0.80496 3.4398 1.9739 4.0067 1.4911 0.72331 3.6058 0.0241 4.6886-1.5492 0.10507-0.1528 0.23503-0.27232 0.29594-0.27232 0.15426 0 0.60911 0.34347 0.60911 0.46012 0 0.16733-0.5153 0.82887-0.99369 1.2758-1.1569 1.0803-3.0251 1.5601-5.1888 1.3325zm2.3839-6.961c0.05-0.01 0.12439-0.0178 0.16584-0.0202 0.10884-0.007 0.0984-0.89744-0.0175-1.5115-0.23748-1.252-0.77431-1.8074-1.7483-1.8086-0.94455-0.00089-1.5656 0.62503-1.8886 1.905-0.10218 0.4041-0.24863 1.2772-0.24863 1.4799 0 0.0529 3.4414 0.0122 3.7383-0.0434zm7.6876 6.966c-1.2551-0.19204-2.1669-0.84041-2.5186-1.7906-0.18893-0.51026-0.1855-1.4605 0.008-2.0221 0.30195-0.87972 0.88788-1.4962 1.848-1.9451 1.0414-0.48718 1.9051-0.63089 3.7916-0.63135l1.3196-0.00022-0.0341-1.221c-0.0366-1.3433-0.0971-1.6589-0.40278-2.0814-0.38851-0.5362-1.2647-0.81384-2.2029-0.69759-0.31224 0.0397-0.56045 0.1023-0.61523 0.15682-0.0832 0.083-0.0722 0.12234 0.0804 0.38485 0.15287 0.26005 0.17214 0.35023 0.17214 0.80531 0 0.43476-0.0216 0.55329-0.15073 0.78108-0.31026 0.55245-1.0052 0.88915-1.7177 0.8319-0.97845-0.0793-1.5972-0.70345-1.5972-1.613 0-1.1162 0.85392-1.766 2.7435-2.0874 0.85868-0.14581 3.1558-0.14769 3.9323-0.003 1.4508 0.27062 2.3506 0.8162 2.7782 1.6846 0.33225 0.67504 0.34476 0.79213 0.31221 2.9376-0.0154 1.0778-0.0305 2.5703-0.0305 3.3164 0 1.3362 0.002 1.3605 0.1507 1.622 0.23284 0.40953 0.45992 0.50485 1.1039 0.46304l0.53118-0.0357 0.12093 0.27306c0.16225 0.36701 0.13164 0.5162-0.13242 0.64527-0.47923 0.23459-2.2093 0.36687-2.9525 0.22579-0.79833-0.15126-1.4527-0.65613-1.8401-1.4195l-0.22939-0.45194-0.46907 0.47947c-0.69858 0.71367-1.3146 1.0894-2.1318 1.3005-0.45509 0.11741-1.3951 0.16302-1.869 0.0913zm2.9668-1.8167c0.15901-0.0761 0.44171-0.29161 0.62823-0.47558 0.59461-0.58601 0.77628-1.1166 0.77628-2.2664v-0.73683l-0.34666-0.0453c-0.58526-0.0756-1.466-0.0481-1.8822 0.0595-1.0603 0.27422-1.5562 1.0258-1.4964 2.268 0.0339 0.67099 0.17414 1.004 0.51827 1.2166 0.40274 0.24884 1.2708 0.23871 1.8025-0.0194zm11.655 1.8378c-1.51-0.15495-2.5408-0.96244-2.7696-2.1692-0.0331-0.16645-0.076-2.0096-0.10057-4.0956l-0.0432-3.7934-0.81687 0.0185c-0.93531 0.0217-0.97346 0.005-0.97346-0.45776 0-0.49152 0.0103-0.49699 0.96599-0.49699h0.84114l0.0149-1.8844 0.0149-1.884h1.6582 1.6581l0.0149 1.883 0.0149 1.8831 1.4916 0.0152 1.4914 0.0152 0.0559 0.2261c0.0355 0.1388 0.0355 0.31351 0 0.4523l-0.0559 0.22607h-1.4833-1.4831l-0.0403 1.2608c-0.0539 1.7344-0.0452 5.1461 0.0156 6.0952 0.0731 1.1577 0.27468 1.5326 0.88508 1.6593 0.45032 0.0945 1.2659-0.0536 1.8975-0.34219 0.47324-0.2164 0.48093-0.21776 0.60754-0.10481 0.15683 0.13982 0.3028 0.46906 0.25839 0.58398-0.0479 0.12347-1.0215 0.61289-1.4434 0.72528-0.70051 0.18658-1.8639 0.26501-2.6829 0.18093zm-148.67-0.75c0-0.43959 0.0102-0.48263 0.11832-0.48263 0.15566 0 0.24332 0.17428 0.24332 0.48263 0 0.30801-0.0891 0.48226-0.24332 0.48226-0.10772 0-0.11832-0.0435-0.11832-0.48226zm14.111 0.36567c-0.0893-0.16462-0.0777-0.62348 0.0164-0.75344 0.0709-0.0988 0.16318-0.1067 0.92643-0.0874l0.84631 0.0217 0.0394-0.66429c0.05-0.86309 0.05-6.4708 0-7.4474l-0.0396-0.75358-0.84732 0.0195c-0.97357 0.0231-1.005 0.01-1.005-0.47333 0-0.51735-0.17987-0.48598 2.6832-0.46807l2.5323 0.0148-0.0208 1.0702c-0.0115 0.58862 0.00086 1.0684 0.0316 1.0662 0.0285-0.003 0.20833-0.20529 0.39891-0.45128 0.62001-0.80028 1.655-1.4897 2.6672-1.7764 0.5437-0.15404 1.6403-0.26323 2.1458-0.21373 1.5953 0.15626 2.5202 1.0044 2.77 2.5402 0.0332 0.19468 0.0624 1.7386 0.0684 3.4308 0.007 1.6922 0.0208 3.3086 0.0361 3.5919l0.0218 0.5151 0.75434-0.0249c0.44753-0.0137 0.77811-0.002 0.81327 0.0354 0.0664 0.0664 0.085 0.6062 0.0223 0.79472-0.0409 0.12549-0.0478 0.12581-3.2851 0.12581-3.6555 0-3.3196 0.0507-3.3178-0.50238 0.00085-0.47695-0.00091-0.47574 0.82855-0.45242l0.72534 0.0186 0.043-1.6882c0.0218-0.92855 0.0328-2.5565 0.0167-3.6177-0.0263-2.1446-0.0612-2.3688-0.42549-2.7834-0.26687-0.30374-0.51682-0.39293-1.0942-0.39022-1.584 0.008-2.7768 1.2701-3.0831 3.264-0.0857 0.54811-0.1066 3.0885-0.0425 4.6754l0.0208 0.54525 0.57359-0.0245c0.32966-0.0132 0.59849 0 0.63253 0.0353 0.0661 0.0663 0.0851 0.60626 0.0226 0.79473-0.0409 0.12542-0.0487 0.12573-3.2293 0.12573-3.0916 0-3.1914-0.004-3.2519-0.1166zm46.03-0.0207c-0.0179-0.0763-0.0252-0.28689-0.0152-0.46749l0.0176-0.32836h0.88793 0.8879l0.041-0.1808c0.0526-0.23843 0.0496-15.469-0.004-15.636-0.0398-0.12208-0.0845-0.12891-0.92643-0.14479l-0.8858-0.0156-0.0175-0.32833c-0.01-0.18071-0.003-0.39092 0.0152-0.46751l0.0362-0.13879h2.5592c2.5355 0 2.5599 0.00092 2.6268 0.12627 0.0381 0.0684 0.0537 0.18473 0.0377 0.2561-0.0159 0.0705-0.0477 1.9616-0.0661 4.2-0.0185 2.2385-0.051 4.2123-0.0681 4.3864-0.0181 0.19012-0.009 0.31657 0.0251 0.31657 0.0343 0 0.15789-0.13396 0.27804-0.29771 0.72526-0.98789 1.9512-1.7667 3.1774-2.018 2.0129-0.41278 3.5723 0.0864 4.2073 1.3428 0.38126 0.75531 0.38106 0.75283 0.40988 4.8643l0.0258 3.7408 0.75898-0.0258c0.8759-0.0277 0.91923-0.007 0.91923 0.47251 0 0.52271 0.2665 0.48575-3.3765 0.46782l-3.2258-0.0147-0.0559-0.22611c-0.0355-0.13875-0.0355-0.31351 0-0.45221l0.0559-0.22617h0.74132c0.693 0 0.74282-0.008 0.76559-0.1205 0.048-0.23548 0.0713-6.1942 0.0281-6.6805-0.10447-1.1445-0.38199-1.5414-1.1672-1.6693-1.1434-0.18619-2.3883 0.5741-2.9824 1.8214-0.44907 0.94272-0.45138 0.96135-0.47571 3.9688l-0.0201 2.6861 0.58644-0.0253c0.67981-0.0299 0.74672 0.0104 0.74672 0.45732 0 0.54145 0.29652 0.49699-3.3172 0.49699h-3.1924l-0.0359-0.13883zm47.064 0.0207c-0.0892-0.16462-0.0775-0.62348 0.0164-0.75344 0.0709-0.0988 0.16311-0.1067 0.92617-0.0874l0.84634 0.0217 0.0393-0.66429c0.0501-0.86309 0.0499-6.4708-0.00008-7.4474l-0.0395-0.75358-0.84708 0.0195c-0.97367 0.0231-1.0051 0.01-1.0051-0.47333 0-0.51735-0.17983-0.48598 2.6831-0.46807l2.5324 0.0148-0.0163 1.2059-0.0163 1.2059 0.2283-0.40848c0.81359-1.4559 1.8326-2.184 3.2314-2.309 1.3882-0.12405 2.3665 0.61786 2.4405 1.8508 0.0658 1.1158-0.60419 1.8615-1.6753 1.8615-1.068 0-1.7316-0.74403-1.679-1.8827 0.0122-0.29025-0.003-0.43657-0.0508-0.45253-0.21191-0.0696-0.90935 0.54402-1.3405 1.1814-0.40889 0.6044-0.75939 1.4345-0.94553 2.2392-0.11427 0.49409-0.17684 2.7678-0.1163 4.2232l0.0442 1.0526 0.87635-0.0193c0.68699-0.0155 0.88746-0.004 0.92785 0.0597 0.0772 0.12269 0.063 0.74035-0.0178 0.8229-0.0546 0.0546-0.92 0.0713-3.5251 0.0713-3.3519 0-3.4545-0.003-3.5152-0.11662z"/>
  </g>
  <g stroke-linejoin="round" transform="translate(0,80)" stroke="#fff" stroke-linecap="round" stroke-width="5" fill="#fff">
   <path d="m530.58 603.69-0.18339 0.38858c-0.28586 0.6057-0.23559 2.6754 0.0753 3.1041l0.25901 0.3568 3.5222-0.11042 3.522-0.11039 0.0631 1.2751 0.0485 52.787c0.00089 0.96784-1.0179 3.0639-3.7032 3.0679l-2.9532 0.005 0.009 3.774 26.954-0.252-0.004-3.5435-3.1131 0.0171c-1.4162 0.008-3.2131-1.344-3.2107-2.7758l0.0851-49.563c0.0769-6.1039 0.055-8.0304-0.0895-8.1993-0.16225-0.18851-1.7267-0.22076-10.736-0.22076h-10.546z"/>
   <path d="m647.21 625.23c-6.3418-0.014-11.023 3.0582-14.17 9.1738-0.48262 0.93779-0.52318 0.97915-0.57088 0.58256-0.0276-0.23463 0.0192-1.7106 0.10437-3.2797 0.20318-3.7233 0.19912-5.0585-0.0159-5.2751-0.13021-0.13101-2.437-0.17325-9.5056-0.17325-10.967 0-9.8799-0.20556-9.8799 1.8676 0 1.8763-0.22177 1.7141 3.6668 1.7141 2.0364 0 3.3743 1.8662 3.3743 3.7712 0 4.7786-0.0101 22.946-0.0101 27.5 0 0-0.0125 3.4066-3.3623 3.332-2.9152-0.0649-3.2665-0.0474-3.4452 0.16891-0.30886 0.37455-0.37802 2.2118-0.10772 2.8628l0.22416 0.53972h12.952 14.952l0.27281-0.30322c0.22246-0.24724 0.27194-0.52051 0.26781-1.4776-0.005-0.69705-0.0823-1.3147-0.19512-1.5196l-0.19027-0.34527-5.6988 0.1531c-1.4635 0.039-1.7658-1.3442-1.7637-2.6144l0.0339-20.378c0.006-3.8244 1.6515-6.8672 5.2433-9.4301 1.3104-0.93503 2.3327-1.312 2.7032-1.1894 0.16605 0.0548 0.21437 0.36331 0.13138 1.7331-0.16169 2.6728 0.46914 4.6935 1.9292 6.1794 1.2725 1.295 3.1503 1.9285 5.0159 1.9049 1.8385-0.0232 3.6651-0.68438 4.8891-1.9791 1.2874-1.3621 1.8219-2.8751 1.8307-5.183 0.011-2.5129-0.66796-4.3157-2.2241-5.9158-1.6672-1.7142-3.5306-2.4128-6.4531-2.4195z"/>
   <path d="m577.65 625.69c-4.5093 0.72636-10.321 1.6533-11.994 6.3994-0.45418 1.2882-0.53269 2.8926-0.20496 4.0329 0.67037 2.3323 1.9613 3.7629 3.9804 4.4134 0.73222 0.23588 1.34 0.34639 2.1731 0.35666 3.4425 0.0424 6.1518-0.13106 7.3685-3.955 0.7061-2.2191 0.48734-2.9285-0.43279-5.0096-0.73717-1.6673-0.37948-2.5815 1.0931-3.0984 1.2661-0.44439 1.9363-0.67544 3.2344-0.63897 1.5051 0.0423 3.0525 0.74868 3.85 1.4579 2.1064 1.873 2.241 4.5405 2.2091 7.3942-0.0177 1.5877-0.13098 3.7435-0.0778 5.5697-6.2669-0.0749-13.606 1.8371-18.374 4.6276-3.0615 1.7918-5.1884 3.2062-6.2092 6.5091-1.5484 5.0097-0.91562 8.682 1.5896 11.727 1.8854 2.2916 4.6521 3.7876 7.9142 4.0651 2.5792 0.21941 5.5036-0.10678 7.6208-0.85108 2.2199-0.7804 4.0226-1.9686 6.1719-4.0679 1.2682-1.2386 1.5254-1.4358 1.6049-1.2326 1.1136 2.8438 3.6253 4.3533 6.7656 5.4408 1.9334 0.66955 5.6478 0.84302 9.2559 0.43359 3.1998-0.36311 5.241-1.7274 5.4512-2.3667 0.13267-0.40352-0.32459-2.1166-0.69336-2.5977-0.2375-0.30978-0.40633-0.37507-0.90429-0.34179-0.33712 0.0225-1.3605 0.0568-2.2734 0.0762-1.5459 0.0329-1.7078 0.009-2.3711-0.36914-0.89462-0.51058-1.7461-0.98776-1.75-2.2871l-0.0684-22.742c-0.0258-8.5668-4.6325-12.343-12-13.102-5.4078-0.5571-6.9223-0.81178-12.929 0.15585zm6.7012 21.696c1.6128-0.41954 3.321-0.98086 4.8103-1.0139-0.0329 3.0546 0.0531 13.153 0.0531 13.153 0.30342 0.30342-3.3718 3.6521-6.1315 3.4384-3.5829-0.27749-5.2173-2.9926-5.4744-5.7113-0.32672-3.4544 0.52691-5.1236 1.9392-6.8142 1.5387-1.8418 2.8029-2.5317 4.8033-3.052z"/>
   <path d="m227.87 602.71c-1.7085 0-3.0281 0.29326-4.3379 0.96484-2.3516 1.2058-3.7227 3.4922-3.7227 6.2051 0 3.7084 2.4906 6.4814 6.4434 7.1738 0.98045 0.17183 3.2361 0.0479 4.1934-0.23047 3.3862-0.98545 5.373-3.5524 5.373-6.9434 0-2.1688-0.72435-3.876-2.1914-5.1699-1.6021-1.413-3.29-2-5.7578-2zm-9.5273 22.326 0.002 0.004c-6.2045 0.0101-5.4121 0.19804-5.4121 1.9805 0 1.9853-0.24113 1.9769 4.0469 1.8144 3.4732-0.13159 3.5725 3.6031 3.7226 6.9219 0.13881 3.0678 0.13851 22.777 0 23.321-0.0433 0.1678-0.083 1.1035-0.0898 2.0781l-0.0117 1.7715-3.5977-0.0762c-3.2323-0.0689-3.6211-0.0514-3.8184 0.17774-0.34066 0.39629-0.41729 2.3404-0.11914 3.0293l0.24805 0.57227h13.846 13.848l0.24609-0.56641c0.30671-0.70862 0.24104-2.619-0.10351-3.0195-0.21331-0.24809-0.49721-0.26477-3.3398-0.19336l-3.1074 0.0781-0.125-3.4512c-0.16149-4.4291-0.16305-23.186-0.004-29.26 0.11225-4.2448 0.0982-4.6892-0.14063-4.9199-0.23967-0.23124-1.1719-0.25195-10.58-0.25195-2.273 0-4.0779-0.0115-5.5098-0.01z"/>
   <path d="m192.93 623.69v0.002c-2.3482-0.0106-4.6846 0.29871-6.659 0.91837-2.991 0.9387-5.6112 2.6412-7.3452 4.7718-0.34257 0.42104-0.68291 0.8852-0.75751 0.8852-0.0837 0-0.0969-1.1526-0.0339-2.9982 0.0996-2.934 0.0955-3.0022-0.19785-3.1705-0.21149-0.12131-3.1432-0.17229-9.9528-0.17229-9.0111 0-9.6662 0.0162-9.8744 0.26932-0.29927 0.36319-0.44707 1.4221-0.32797 2.3506 0.17096 1.3326 0.0261 1.2822 3.6165 1.2555 1.7402-0.0122 3.3764-0.0591 3.6343-0.10297 0.37951-0.0635 0.47169-0.0265 0.48658 0.20002 0.0107 0.15402 0.0372 0.45471 0.0589 0.66736l-0.0267 53.438c-0.0481 0.0833-1.3948 0.1322-3.2047 0.11486-1.7164-0.0159-3.1914-0.0234-3.2778-0.0139-0.66785 0.0688-0.66836 3.2866-0.002 3.7646 0.0872 0.0629 5.9518 0.11562 13.033 0.11683 15.058 0.004 13.452 0.23752 13.452-1.9803 0-2.0627 0.22176-1.9444-3.6182-1.8991-1.7735 0.0212-3.2682 0.0666-3.3224 0.10297-0.16378 0.10845-0.26586-3.0733-0.30301-9.5234-0.0526-9.0458 0.0153-10.867 0.14973-10.867 0.065 0 0.45814 0.45629 0.87514 1.0139 1.8693 2.5012 5.12 4.4718 8.5412 5.1786 1.4912 0.30793 4.402 0.451 6.0762 0.29903 8.033-0.72919 14.022-5.5207 16.621-13.296 1.7446-5.2209 1.8387-12.625 0.23171-18.175-2.0371-7.0367-6.7241-11.288-12.997-12.638-1.4036-0.30212-2.9031-0.4692-4.406-0.50374-0.15653-0.006-0.31214-0.009-0.46877-0.009zm-4.8996 6.2912v0.003c2.89 0.0175 4.937 1.6107 6.1894 4.8148 1.1149 2.8523 1.6742 6.4073 1.5163 12.301-0.27665 10.328-2.1671 15.611-6.0607 16.93-0.87963 0.29804-2.5875 0.29357-3.656-0.0126-1.3676-0.38611-2.8117-1.414-3.8451-2.7398-2.5-3.2071-3.6458-7.6287-3.794-14.638-0.0722-3.4127 0.0381-4.5612 0.41863-6.5926 1.139-6.0842 4.3096-9.7711 8.6422-10.05 0.20022-0.0127 0.39645-0.0179 0.58917-0.0172z"/>
   <path d="m325.61 624.35c-2.665 0.0324-5.0551 0.76483-6.7478 1.8603-2.1364 1.3827-4.0698 2.9314-6.6094 4.898l0.16194-5.8655-21.081 0.17843 0.0642 3.8854c0.31464-0.0156 3.2918-0.0349 3.6756-0.0566 4.0673-0.23093 3.725 6.6914 3.7226 10.445l-0.0111 17.628c-0.002 3.8459-0.10756 5.6025-3.7094 5.5256-3.2161-0.0687-3.6035-0.0504-3.8008 0.17874-0.34076 0.39632-0.41703 2.3403-0.11881 3.0291l0.24726 0.57108h14.289 14.289l0.30101-0.32084c0.24544-0.26157 0.30001-0.5508 0.29543-1.5635-0.005-0.73756-0.0908-1.3912-0.21517-1.608l-0.20994-0.36531-3.6899 0.0811c-3.3706 0.0741-3.7136-1.5021-3.7398-4.6855-0.0586-7.111 0.0439-19.488 0.0439-22.888 3.4644-2.948 4.8783-4.4058 7.3663-4.9787-0.2407 1.087-0.59427 2.4354-0.51346 4.2302 0.19908 4.4214 3.3792 6.2364 6.4708 6.3178 4.8132 0.12661 7.9657-3.4355 7.5521-8.1586-0.20913-2.3885-0.71611-4.4217-2.176-5.8366-1.7555-1.7014-4.031-2.5237-5.8564-2.5015z"/>
   <path d="m267.03 624.16c-4.9743 0.0906-9.6624 1.1853-13.691 4.0314-4.6853 3.3101-8.0724 8.2698-8.756 14.901-0.95537 9.2674 2.3114 17.902 9.6562 21.684 3.28 1.6889 7.055 2.6536 11.317 2.8926 0.99602 0.0565 2.1107 0.12084 2.4777 0.14453 1.1178 0.0718 4.8309-0.25812 6.5218-0.58008 4.2518-0.80962 7.9611-2.634 10.807-5.3164 1.2258-1.1554 2.8576-3.1617 3.4252-4.209l0.298-0.54883-0.60174-0.60742c-0.64085-0.64741-1.6622-1.2129-2.1892-1.2129-0.22488 0-0.51922 0.30467-0.99336 1.0293-1.3394 2.047-4.374 3.7891-6.5504 4.881-2.0897 1.0484-4.9193 1.6364-7.3271 1.5236-2.7724-0.12987-4.8143-0.95099-6.6852-2.6878-3.2394-3.0071-5.0545-7.8122-5.0646-14.395l-0.006-1.6406h14.409c11.012 0 14.497-0.0443 14.622-0.1836 0.22163-0.24813 0.20606-2.2026-0.0337-4.1485-0.58644-4.7601-2.5412-7.5094-5.2695-10.231-4.1167-4.1064-13.273-5.3832-16.365-5.3269zm6.8266 16.742-14.202 0.11106c0.45665-5.6373 1.4632-13.632 7.159-13.632 6.1784 0 7.0435 8.3856 7.0435 13.521z"/>
  </g>
  <circle style="color-rendering:auto;color:#000000;isolation:auto;mix-blend-mode:normal;shape-rendering:auto;solid-color:#000000;image-rendering:auto" cy="743.52" cx="430.2" r="98.615" fill="#fff"/>
  <g>
   <path d="m530.58 683.69-0.18339 0.38858c-0.28586 0.6057-0.23559 2.6754 0.0753 3.1041l0.25901 0.3568 3.5222-0.11042 3.522-0.11039 0.0631 1.2751 0.0485 52.787c0.00089 0.96784-1.0179 3.0639-3.7032 3.0679l-2.9532 0.005 0.009 3.774 26.954-0.252-0.004-3.5435-3.1131 0.0171c-1.4162 0.008-3.2131-1.344-3.2107-2.7758l0.0851-49.563c0.0769-6.1039 0.055-8.0304-0.0895-8.1993-0.16225-0.18851-1.7267-0.22076-10.736-0.22076h-10.546z"/>
   <path d="m647.21 705.23c-6.3418-0.014-11.023 3.0582-14.17 9.1738-0.48262 0.93779-0.52318 0.97915-0.57088 0.58256-0.0276-0.23463 0.0192-1.7106 0.10437-3.2797 0.20318-3.7233 0.19912-5.0585-0.0159-5.2751-0.13021-0.13101-2.437-0.17325-9.5056-0.17325-10.967 0-9.8799-0.20556-9.8799 1.8676 0 1.8763-0.22177 1.7141 3.6668 1.7141 2.0364 0 3.3743 1.8662 3.3743 3.7712 0 4.7786-0.0101 22.946-0.0101 27.5 0 0-0.0125 3.4066-3.3623 3.332-2.9152-0.0649-3.2665-0.0474-3.4452 0.16891-0.30886 0.37455-0.37802 2.2118-0.10772 2.8628l0.22416 0.53972h12.952 14.952l0.27281-0.30322c0.22246-0.24724 0.27194-0.52051 0.26781-1.4776-0.005-0.69705-0.0823-1.3147-0.19512-1.5196l-0.19027-0.34527-5.6988 0.1531c-1.4635 0.039-1.7658-1.3442-1.7637-2.6144l0.0339-20.378c0.006-3.8244 1.6515-6.8672 5.2433-9.4301 1.3104-0.93503 2.3327-1.312 2.7032-1.1894 0.16605 0.0548 0.21437 0.36331 0.13138 1.7331-0.16169 2.6728 0.46914 4.6935 1.9292 6.1794 1.2725 1.295 3.1503 1.9285 5.0159 1.9049 1.8385-0.0232 3.6651-0.68438 4.8891-1.9791 1.2874-1.3621 1.8219-2.8751 1.8307-5.183 0.011-2.5129-0.66796-4.3157-2.2241-5.9158-1.6672-1.7142-3.5306-2.4128-6.4531-2.4195z"/>
   <path d="m577.65 705.69c-4.5093 0.72636-10.321 1.6533-11.994 6.3994-0.45418 1.2882-0.53269 2.8926-0.20496 4.0329 0.67037 2.3323 1.9613 3.7629 3.9804 4.4134 0.73222 0.23588 1.34 0.34639 2.1731 0.35666 3.4425 0.0424 6.1518-0.13106 7.3685-3.955 0.7061-2.2191 0.48734-2.9285-0.43279-5.0096-0.73717-1.6673-0.37948-2.5815 1.0931-3.0984 1.2661-0.44439 1.9363-0.67544 3.2344-0.63897 1.5051 0.0423 3.0525 0.74868 3.85 1.4579 2.1064 1.873 2.241 4.5405 2.2091 7.3942-0.0177 1.5877-0.13098 3.7435-0.0778 5.5697-6.2669-0.0749-13.606 1.8371-18.374 4.6276-3.0615 1.7918-5.1884 3.2062-6.2092 6.5091-1.5484 5.0097-0.91562 8.682 1.5896 11.727 1.8854 2.2916 4.6521 3.7876 7.9142 4.0651 2.5792 0.21941 5.5036-0.10678 7.6208-0.85108 2.2199-0.7804 4.0226-1.9686 6.1719-4.0679 1.2682-1.2386 1.5254-1.4358 1.6049-1.2326 1.1136 2.8438 3.6253 4.3533 6.7656 5.4408 1.9334 0.66955 5.6478 0.84302 9.2559 0.43359 3.1998-0.36311 5.241-1.7274 5.4512-2.3667 0.13267-0.40352-0.32459-2.1166-0.69336-2.5977-0.2375-0.30978-0.40633-0.37507-0.90429-0.34179-0.33712 0.0225-1.3605 0.0568-2.2734 0.0762-1.5459 0.0329-1.7078 0.009-2.3711-0.36914-0.89462-0.51058-1.7461-0.98776-1.75-2.2871l-0.0684-22.742c-0.0258-8.5668-4.6325-12.343-12-13.102-5.4078-0.5571-6.9223-0.81178-12.929 0.15585zm6.7012 21.696c1.6128-0.41954 3.321-0.98086 4.8103-1.0139-0.0329 3.0546 0.0531 13.153 0.0531 13.153 0.30342 0.30342-3.3718 3.6521-6.1315 3.4384-3.5829-0.27749-5.2173-2.9926-5.4744-5.7113-0.32672-3.4544 0.52691-5.1236 1.9392-6.8142 1.5387-1.8418 2.8029-2.5317 4.8033-3.052z"/>
   <path d="m227.87 682.71c-1.7085 0-3.0281 0.29326-4.3379 0.96484-2.3516 1.2058-3.7227 3.4922-3.7227 6.2051 0 3.7084 2.4906 6.4814 6.4434 7.1738 0.98045 0.17183 3.2361 0.0479 4.1934-0.23047 3.3862-0.98545 5.373-3.5524 5.373-6.9434 0-2.1688-0.72435-3.876-2.1914-5.1699-1.6021-1.413-3.29-2-5.7578-2zm-9.5273 22.326 0.002 0.004c-6.2045 0.0101-5.4121 0.19804-5.4121 1.9805 0 1.9853-0.24113 1.9769 4.0469 1.8144 3.4732-0.13159 3.5725 3.6031 3.7226 6.9219 0.13881 3.0678 0.13851 22.777 0 23.321-0.0433 0.1678-0.083 1.1035-0.0898 2.0781l-0.0117 1.7715-3.5977-0.0762c-3.2323-0.0689-3.6211-0.0514-3.8184 0.17774-0.34066 0.39629-0.41729 2.3404-0.11914 3.0293l0.24805 0.57227h13.846 13.848l0.24609-0.56641c0.30671-0.70862 0.24104-2.619-0.10351-3.0195-0.21331-0.24809-0.49721-0.26477-3.3398-0.19336l-3.1074 0.0781-0.125-3.4512c-0.16149-4.4291-0.16305-23.186-0.004-29.26 0.11225-4.2448 0.0982-4.6892-0.14063-4.9199-0.23967-0.23124-1.1719-0.25195-10.58-0.25195-2.273 0-4.0779-0.0115-5.5098-0.01z"/>
   <path d="m192.93 703.69v0.002c-2.3482-0.0106-4.6846 0.29871-6.659 0.91837-2.991 0.9387-5.6112 2.6412-7.3452 4.7718-0.34257 0.42104-0.68291 0.8852-0.75751 0.8852-0.0837 0-0.0969-1.1526-0.0339-2.9982 0.0996-2.934 0.0955-3.0022-0.19785-3.1705-0.21149-0.12131-3.1432-0.17229-9.9528-0.17229-9.0111 0-9.6662 0.0162-9.8744 0.26932-0.29927 0.36319-0.44707 1.4221-0.32797 2.3506 0.17096 1.3326 0.0261 1.2822 3.6165 1.2555 1.7402-0.0122 3.3764-0.0591 3.6343-0.10297 0.37951-0.0635 0.47169-0.0265 0.48658 0.20002 0.0107 0.15402 0.0372 0.45471 0.0589 0.66736l-0.0267 53.438c-0.0481 0.0833-1.3948 0.1322-3.2047 0.11486-1.7164-0.0159-3.1914-0.0234-3.2778-0.0139-0.66785 0.0688-0.66836 3.2866-0.002 3.7646 0.0872 0.0629 5.9518 0.11562 13.033 0.11683 15.058 0.004 13.452 0.23752 13.452-1.9803 0-2.0627 0.22176-1.9444-3.6182-1.8991-1.7735 0.0212-3.2682 0.0666-3.3224 0.10297-0.16378 0.10845-0.26586-3.0733-0.30301-9.5234-0.0526-9.0458 0.0153-10.867 0.14973-10.867 0.065 0 0.45814 0.45629 0.87514 1.0139 1.8693 2.5012 5.12 4.4718 8.5412 5.1786 1.4912 0.30793 4.402 0.451 6.0762 0.29903 8.033-0.72919 14.022-5.5207 16.621-13.296 1.7446-5.2209 1.8387-12.625 0.23171-18.175-2.0371-7.0367-6.7241-11.288-12.997-12.638-1.4036-0.30212-2.9031-0.4692-4.406-0.50374-0.15653-0.006-0.31214-0.009-0.46877-0.009zm-4.8996 6.2912v0.003c2.89 0.0175 4.937 1.6107 6.1894 4.8148 1.1149 2.8523 1.6742 6.4073 1.5163 12.301-0.27665 10.328-2.1671 15.611-6.0607 16.93-0.87963 0.29804-2.5875 0.29357-3.656-0.0126-1.3676-0.38611-2.8117-1.414-3.8451-2.7398-2.5-3.2071-3.6458-7.6287-3.794-14.638-0.0722-3.4127 0.0381-4.5612 0.41863-6.5926 1.139-6.0842 4.3096-9.7711 8.6422-10.05 0.20022-0.0127 0.39645-0.0179 0.58917-0.0172z"/>
   <path d="m325.61 704.35c-2.665 0.0324-5.0551 0.76483-6.7478 1.8603-2.1364 1.3827-4.0698 2.9314-6.6094 4.898l0.16194-5.8655-21.081 0.17843 0.0642 3.8854c0.31464-0.0156 3.2918-0.0349 3.6756-0.0566 4.0673-0.23093 3.725 6.6914 3.7226 10.445l-0.0111 17.628c-0.002 3.8459-0.10756 5.6025-3.7094 5.5256-3.2161-0.0687-3.6035-0.0504-3.8008 0.17874-0.34076 0.39632-0.41703 2.3403-0.11881 3.0291l0.24726 0.57108h14.289 14.289l0.30101-0.32084c0.24544-0.26157 0.30001-0.5508 0.29543-1.5635-0.005-0.73756-0.0908-1.3912-0.21517-1.608l-0.20994-0.36531-3.6899 0.0811c-3.3706 0.0741-3.7136-1.5021-3.7398-4.6855-0.0586-7.111 0.0439-19.488 0.0439-22.888 3.4644-2.948 4.8783-4.4058 7.3663-4.9787-0.2407 1.087-0.59427 2.4354-0.51346 4.2302 0.19908 4.4214 3.3792 6.2364 6.4708 6.3178 4.8132 0.12661 7.9657-3.4355 7.5521-8.1586-0.20913-2.3885-0.71611-4.4217-2.176-5.8366-1.7555-1.7014-4.031-2.5237-5.8564-2.5015z"/>
   <path d="m267.03 704.16c-4.9743 0.0906-9.6624 1.1853-13.691 4.0314-4.6853 3.3101-8.0724 8.2698-8.756 14.901-0.95537 9.2674 2.3114 17.902 9.6562 21.684 3.28 1.6889 7.055 2.6536 11.317 2.8926 0.99602 0.0565 2.1107 0.12084 2.4777 0.14453 1.1178 0.0718 4.8309-0.25812 6.5218-0.58008 4.2518-0.80962 7.9611-2.634 10.807-5.3164 1.2258-1.1554 2.8576-3.1617 3.4252-4.209l0.298-0.54883-0.60174-0.60742c-0.64085-0.64741-1.6622-1.2129-2.1892-1.2129-0.22488 0-0.51922 0.30467-0.99336 1.0293-1.3394 2.047-4.374 3.7891-6.5504 4.881-2.0897 1.0484-4.9193 1.6364-7.3271 1.5236-2.7724-0.12987-4.8143-0.95099-6.6852-2.6878-3.2394-3.0071-5.0545-7.8122-5.0646-14.395l-0.006-1.6406h14.409c11.012 0 14.497-0.0443 14.622-0.1836 0.22163-0.24813 0.20606-2.2026-0.0337-4.1485-0.58644-4.7601-2.5412-7.5094-5.2695-10.231-4.1167-4.1064-13.273-5.3832-16.365-5.3269zm6.8266 16.742-14.202 0.11106c0.45665-5.6373 1.4632-13.632 7.159-13.632 6.1784 0 7.0435 8.3856 7.0435 13.521z"/>
  </g>
  <g>
   <circle style="color-rendering:auto;color:#000000;isolation:auto;mix-blend-mode:normal;shape-rendering:auto;solid-color:#000000;image-rendering:auto" cx="485.8" cy="727.48" r="24.856"/>
   <circle style="color-rendering:auto;color:#000000;isolation:auto;mix-blend-mode:normal;shape-rendering:auto;solid-color:#000000;image-rendering:auto" cx="430.2" stroke="#000" cy="743.52" r="94.615" fill="none"/>
   <path style="color-rendering:auto;color:#000000;isolation:auto;mix-blend-mode:normal;shape-rendering:auto;solid-color:#000000;image-rendering:auto" d="m411.78 651.15-8.8086 1.8398a94.615 94.615 0 0 0 -67.381 90.527 94.615 94.615 0 0 0 94.615 94.615 94.615 94.615 0 0 0 83.525 -50.271l-0.0312-0.80859c-2.3208 3.6498-5.3317 6.8595-8.8262 9.4082-2.7659 2.0173-5.9464 3.6549-9.3633 3.8672-0.93264 0.058-1.8826 0.006-2.7754-0.26953-0.89276-0.27599-1.7281-0.78977-2.2891-1.5371-0.58234-0.77583-0.83777-1.7543-0.92187-2.7207-0.0843-0.96641-0.0109-1.9382-0.004-2.9082 0.0138-1.9745-0.24899-3.945-0.66601-5.875-0.57386-2.6558-1.4396-5.2442-2.5312-7.7324-1.9361-4.4132-4.595-8.5164-7.9004-12.023-5.029-5.3357-11.457-9.2024-18.225-12.023-6.6967-2.7914-13.761-4.609-20.869-6.0625-9.1942-1.88-18.623-3.2009-27.207-6.9922-6.52-2.8795-12.469-7.2098-16.764-12.898-4.7776-6.329-7.3715-14.215-7.625-22.141-0.22252-6.9563 1.4387-14.188 5.8398-19.58 2.411-2.9536 5.5507-5.253 8.9141-7.0488 3.7689-2.0124 7.9579-3.4442 12.229-3.3184 4.9266 0.14515 9.6041 2.3589 13.553 5.3086 1.9304 1.442 3.7385 3.0835 5.127 5.0527 1.3884 1.9692 2.3435 4.2866 2.457 6.6934 0.14011 2.9711-1.0093 5.8952-2.7148 8.332-1.6817 2.4028-3.9101 4.4287-5.2734 7.0254-1.3623 2.5945-1.7625 5.7059-0.9707 8.5273 0.61682 2.1979 1.9469 4.1926 3.7461 5.5977s4.0593 2.2126 6.3418 2.252c1.8756 0.0324 3.7473-0.44544 5.4238-1.2871 1.6765-0.84167 3.1611-2.0418 4.4102-3.4414 1.691-1.8948 2.954-4.1556 3.7812-6.5566 1.9798-5.746 1.4194-12.162-0.68554-17.863-2.6102-7.0699-7.4977-13.175-13.398-17.863-8.9769-7.1321-20.491-11.101-31.947-10.648-12.687 0.5017-25.055 6.51-33.322 16.146-6.4261 7.4901-10.406 17.278-9.9609 27.137 0.47087 10.433 5.8438 20.27 13.396 27.482 7.416 7.0823 16.869 11.854 26.795 14.428 6.9694 1.8071 14.35 2.629 20.611 6.1836 4.2555 2.4159 7.8064 6.0405 10.189 10.314 2.3831 4.2739 3.5981 9.183 3.5508 14.076-0.0373 3.8609-0.8576 7.7284-2.5371 11.205-1.6795 3.4767-4.2284 6.5515-7.4238 8.7188-3.6769 2.4938-8.1099 3.7312-12.543 4.0254-4.4331 0.29419-8.8848-0.31687-13.223-1.2773-9.8843-2.1886-19.415-6.2488-27.48-12.367-13.889-10.536-22.816-26.851-26.107-43.971-3.8106-19.82-0.28152-41.007 9.9609-58.398 9.0247-15.324 23.047-27.518 39.162-35.039 5.1931-2.4236 10.605-4.3806 16.146-5.8398z"/>
  </g>
  <g>
   <path d="m548.45 783.29c-0.60369-0.0749-1.02-0.25053-1.4702-0.62081-0.26051-0.21424-0.64481-0.76822-0.76519-1.1031l-0.0843-0.23498-0.54593 0.54948c-0.7988 0.8037-1.4445 1.1672-2.3908 1.3456-0.61948 0.11681-1.6325 0.0723-2.1997-0.0955-0.5768-0.17129-1.0116-0.41074-1.3632-0.75081-1.2077-1.1683-0.95903-3.4231 0.49854-4.5189 1.0768-0.8095 2.5588-1.1431 4.8782-1.0981l1.0513 0.0201-0.0211-1.2499c-0.0223-1.3036-0.049-1.5015-0.25845-1.9106-0.11649-0.22782-0.44648-0.54216-0.71071-0.67693-0.30189-0.15402-0.74231-0.23694-1.2624-0.23769-0.50913-0.00078-0.8898 0.0593-1.0297 0.16115-0.0805 0.0593-0.0758 0.0813 0.0902 0.40888 0.20685 0.40914 0.25512 0.72235 0.1745 1.1322-0.10877 0.55292-0.37743 0.895-0.89263 1.1367-0.26165 0.12273-0.37752 0.1477-0.75594 0.16294-0.36709 0.0145-0.50096-0.00038-0.74891-0.0837-0.7703-0.2602-1.1706-0.84568-1.123-1.6423 0.0711-1.1805 1.1559-1.8524 3.3539-2.0763 0.67151-0.0683 2.4218-0.0691 2.964-0.00078 2.0474 0.25685 3.1197 0.98411 3.5177 2.3859 0.10139 0.35714 0.10371 0.41721 0.0825 2.1084-0.0125 0.95743-0.0227 2.4818-0.0233 3.3874-0.00073 1.6088 0.002 1.6511 0.10294 1.8407 0.2207 0.41262 0.56265 0.56917 1.1195 0.51257 0.59188-0.0603 0.55373-0.0696 0.67041 0.16198 0.11581 0.22965 0.14069 0.57364 0.0475 0.6496-0.29883 0.24229-2.0391 0.44433-2.9042 0.33715zm-4.447-1.6903c0.86403-0.14132 1.666-0.92285 1.9047-1.8561 0.0755-0.29428 0.0946-0.52278 0.0946-1.1103v-0.73973l-0.12937-0.0307c-0.0715-0.0165-0.45754-0.043-0.85864-0.0591-0.5746-0.0222-0.80679-0.0125-1.0951 0.048-1.0715 0.22222-1.5715 0.79467-1.7032 1.9499-0.0429 0.37528 0.0545 0.98033 0.20247 1.2548 0.25249 0.46936 0.82792 0.66653 1.5843 0.54283zm25.265 1.6629c-1.3353-0.15478-2.2864-0.46537-3.0861-1.0078-1.3291-0.90156-2.0172-2.3516-2.097-4.4192-0.10886-2.8205 1.1301-4.7781 3.5283-5.5745 0.90003-0.2989 1.6598-0.40704 2.8592-0.40699 1.4924 0.00005 2.5547 0.23011 3.4432 0.74573 1.1658 0.67651 1.5904 1.8683 1.0365 2.9093-0.30694 0.57696-0.92836 0.91399-1.6851 0.91399-0.72 0-1.2564-0.26128-1.6004-0.77956-0.25026-0.37708-0.32016-0.66206-0.29446-1.2007 0.0187-0.3834 0.0433-0.49794 0.16733-0.75274 0.0802-0.16532 0.18386-0.359 0.23039-0.43045 0.10657-0.16361 0.0599-0.25087-0.21983-0.40688-0.16366-0.0914-0.2901-0.1174-0.65434-0.13416-1.6607-0.0769-2.6937 1.0364-3.0683 3.3056-0.082 0.49413-0.0829 2.3178-0.002 2.8229 0.10719 0.66855 0.28616 1.2592 0.53254 1.7576 0.29978 0.60645 0.72843 1.0665 1.2446 1.3359 1.0681 0.55738 2.6069 0.39327 3.782-0.40334 0.33536-0.22734 0.87443-0.77183 1.0867-1.0976 0.12762-0.19589 0.22579-0.2988 0.28511-0.2988 0.13438 0 0.4213 0.16038 0.57339 0.32053l0.13388 0.14094-0.24838 0.36912c-0.81535 1.2119-2.1488 2.0051-3.7832 2.2504-0.42476 0.064-1.7503 0.0887-2.1642 0.0409zm34.584-0.0212c-1.128-0.16453-1.9541-0.6678-2.3217-1.4145-0.31414-0.63821-0.30351-0.5016-0.34811-4.4614-0.022-1.9796-0.0534-3.7559-0.068-3.9474l-0.0272-0.34823-0.81419 0.0292c-0.70212 0.0257-0.82245 0.0197-0.87472-0.0434-0.0856-0.10327-0.11314-0.60029-0.043-0.77088l0.0588-0.14102h0.86989 0.86989l-0.0168-1.8836c-0.0148-1.6357-0.01-1.8895 0.054-1.9282 0.11024-0.07 3.2607-0.0601 3.3309 0.01 0.0426 0.0426 0.0562 0.53528 0.0562 1.9289v1.8725h1.4762c1.3169 0 1.4832 0.01 1.5409 0.0775 0.0851 0.1029 0.088 0.7264 0.005 0.82803-0.0543 0.0655-0.23503 0.0709-1.5409 0.0474l-1.4798-0.0259-0.005 0.44244c0 0.24331-0.0112 0.48299-0.0202 0.53264-0.01 0.049-0.0281 1.1294-0.0427 2.3994-0.0258 2.3339 0.02 4.3206 0.11137 4.813 0.11515 0.62279 0.44124 0.94366 1.0052 0.98892 0.55138 0.0438 1.4502-0.17722 1.9936-0.49122 0.15611-0.09 0.21699-0.10363 0.29078-0.0644 0.12255 0.0658 0.28409 0.29569 0.3369 0.47986 0.0372 0.12978 0.0258 0.16249-0.0985 0.27844-0.1723 0.16095-0.91207 0.52487-1.2782 0.62878-0.69443 0.1971-2.2226 0.27988-3.0201 0.1636zm10.448 0.006c-1.0935-0.13567-2.1845-0.51296-2.8967-1.0018-0.3182-0.21849-0.88601-0.77634-1.1108-1.0914-0.81747-1.1456-1.1677-2.8617-0.93942-4.6032 0.28323-2.1604 1.4687-3.6454 3.4345-4.3021 0.4646-0.15524 1.2306-0.31626 1.7347-0.36463 0.49057-0.0474 1.6557-0.0337 2.0527 0.0234 2.3584 0.33921 3.8011 1.7912 4.1386 4.1652 0.0657 0.46173 0.0611 1.074-0.01 1.1432-0.0431 0.0433-0.97602 0.0562-3.9123 0.0562h-3.8558l0.0306 0.64684c0.0743 1.588 0.49679 2.7792 1.2543 3.5368 0.5565 0.55659 1.2118 0.81263 2.0705 0.80923 0.82959-0.005 1.5942-0.24416 2.3053-0.72648 0.3355-0.22761 0.87448-0.77201 1.0867-1.0977 0.12761-0.19589 0.22579-0.29883 0.28508-0.29883 0.13573 0 0.42185 0.16093 0.57755 0.3248l0.13803 0.14535-0.26915 0.39623c-0.3392 0.4993-1.0294 1.1593-1.516 1.4497-0.46352 0.27669-1.2137 0.56216-1.8312 0.69678-0.38113 0.083-0.65819 0.10539-1.4585 0.11735-0.54343 0.01-1.1332-0.005-1.3105-0.0256zm1.8515-7.0361c0.0384-0.01 0.25582-0.0147 0.48226-0.0173l0.41165-0.005v-0.31754c0-0.17466-0.0215-0.51872-0.0484-0.76452-0.12367-1.1755-0.46811-1.8547-1.0976-2.1646-0.25955-0.12778-0.34376-0.14547-0.69198-0.14535-0.42494 0-0.67187 0.0654-0.96745 0.25403-0.64018 0.40943-1.0558 1.4108-1.2213 2.9428l-0.0319 0.29882 1.5475-0.0346c0.85106-0.0196 1.5792-0.0409 1.618-0.0485zm11.221 7.0528c-1.3354-0.15476-2.2864-0.46531-3.0861-1.0078-1.3291-0.9016-2.0171-2.3516-2.097-4.4192-0.10886-2.8205 1.1302-4.7781 3.5283-5.5745 0.90002-0.29888 1.6598-0.40701 2.8592-0.40697 1.4924 0.00002 2.5547 0.23012 3.4432 0.74571 1.1658 0.67649 1.5904 1.8683 1.0365 2.9092-0.30693 0.57704-0.92835 0.914-1.6851 0.914-0.71997 0-1.2564-0.26125-1.6004-0.77952-0.25029-0.37708-0.32019-0.66204-0.29448-1.2007 0.0189-0.38334 0.0433-0.49788 0.16737-0.75271 0.0802-0.16536 0.18387-0.35902 0.23039-0.43048 0.10655-0.16357 0.06-0.25089-0.21984-0.40683-0.16369-0.0915-0.29016-0.11738-0.65438-0.13419-1.6606-0.077-2.6936 1.0364-3.0683 3.3056-0.0819 0.49412-0.0831 2.3178-0.005 2.8228 0.10717 0.66851 0.28612 1.2592 0.5325 1.7576 0.29981 0.60647 0.72841 1.0666 1.2446 1.336 1.0681 0.5573 2.6069 0.39324 3.782-0.40338 0.33531-0.22733 0.87441-0.7718 1.0866-1.0976 0.12763-0.19586 0.22584-0.29886 0.28512-0.29886 0.1344 0 0.42132 0.16038 0.57341 0.32061l0.13388 0.14091-0.24838 0.36912c-0.81535 1.212-2.1488 2.0052-3.7832 2.2504-0.42477 0.064-1.7503 0.0887-2.1642 0.0409zm11.06-0.0212c-1.128-0.16453-1.9541-0.6678-2.3217-1.4145-0.31417-0.63824-0.30352-0.50162-0.34812-4.4615-0.022-1.9795-0.0534-3.7559-0.068-3.9474l-0.0272-0.34824-0.81421 0.0292c-0.70215 0.0257-0.82243 0.0196-0.8747-0.0434-0.0857-0.1033-0.11317-0.60031-0.0428-0.7709l0.0588-0.14102h0.86989 0.8699l-0.0169-1.8836c-0.0145-1.6357-0.01-1.8895 0.0541-1.9282 0.11025-0.07 3.2607-0.0602 3.3309 0.01 0.0425 0.0425 0.0562 0.53531 0.0562 1.9289v1.8725h1.4762c1.3169 0 1.4832 0.01 1.5408 0.0775 0.0851 0.10288 0.088 0.72643 0.005 0.82801-0.0545 0.0654-0.23501 0.0709-1.5408 0.0475l-1.4798-0.026-0.005 0.44242c0 0.24333-0.0112 0.48301-0.0199 0.53264-0.01 0.0491-0.0282 1.1294-0.0429 2.3994-0.0257 2.3339 0.0204 4.3206 0.11145 4.813 0.11515 0.6228 0.44115 0.94363 1.0052 0.98887 0.55142 0.0438 1.4502-0.17717 1.9936-0.49118 0.15616-0.0901 0.21696-0.10362 0.2908-0.0644 0.12256 0.0657 0.28406 0.29565 0.33691 0.47984 0.0374 0.12976 0.0257 0.16248-0.0985 0.27843-0.17229 0.16095-0.91203 0.52485-1.2783 0.62881-0.69435 0.19706-2.2227 0.27986-3.02 0.16356zm8.1824 0.004c-1.0371-0.10227-2.4997-0.43022-2.6675-0.59817-0.0874-0.0874-0.0881-0.13131-0.022-1.6792 0.0527-1.2382 0.082-1.5986 0.1318-1.6304 0.11698-0.074 0.58772-0.0493 0.65722 0.0338 0.0347 0.0425 0.25778 0.55039 0.49553 1.13 0.27607 0.67292 0.47212 1.087 0.54239 1.1458 0.19259 0.16097 0.84893 0.46273 1.2685 0.58318 1.0839 0.3112 2.4562 0.22014 3.0385-0.20163 0.36432-0.26394 0.51149-0.57955 0.46727-1.0024-0.0788-0.75671-0.64991-1.1745-2.594-1.8986-1.6332-0.60831-2.3128-0.96773-2.9331-1.5513-0.64356-0.60545-0.92601-1.23-0.97923-2.1654-0.023-0.40515-0.0117-0.60302 0.052-0.89391 0.26583-1.218 1.1688-2.0727 2.5818-2.4434 0.64243-0.16856 1.1381-0.22084 2.0784-0.21922 1.1437 0.003 1.9441 0.083 3.1521 0.32053 0.6083 0.11942 0.76842 0.17123 0.83441 0.2701 0.0196 0.0285 0.0352 0.70051 0.0357 1.4934 0 1.6266 0.0347 1.4988-0.39572 1.4988-0.17664 0-0.2685-0.0239-0.32049-0.0828-0.0401-0.0451-0.28528-0.50778-0.54483-1.0278l-0.47207-0.9454-0.34457-0.16707c-0.72064-0.34952-1.3864-0.5066-2.1421-0.50539-1.3225 0.003-2.0625 0.47824-1.9697 1.2673 0.077 0.65349 0.58443 1.0562 2.0502 1.6264 2.1029 0.81812 2.3938 0.94872 3.0368 1.3635 0.77476 0.4998 1.342 1.1606 1.5733 1.833 0.14936 0.43417 0.21136 1.0942 0.1466 1.5579-0.18609 1.33-0.92264 2.1416-2.3573 2.5971-0.79696 0.25307-1.2078 0.30226-2.6582 0.31814-0.72448 0.01-1.5079-0.006-1.7408-0.0268zm-94.501-0.31113c-0.091-0.10972-0.0877-0.72699 0.006-0.83824 0.0641-0.0771 0.13833-0.0811 0.92479-0.0496l0.85538 0.0333 0.037-0.36883c0.0658-0.66244 0.0514-7.9182-0.0163-8.4565l-0.0233-0.18361-0.86039 0.0285c-0.75597 0.0257-0.86799 0.0199-0.92321-0.0474-0.086-0.1037-0.0845-0.72609 0.002-0.8303 0.059-0.0712 0.30044-0.0775 2.6213-0.0775 2.3877 0 2.5594 0.007 2.5983 0.0828 0.0369 0.0718 0.021 0.63375-0.0527 1.976-0.01 0.18761-0.007 0.3411 0.0112 0.3411 0.0163 0 0.10732-0.14302 0.20174-0.31783 0.69323-1.2835 1.6309-2.06 2.7758-2.2987 0.48139-0.10038 1.2597-0.0898 1.6192 0.0212 0.67614 0.20989 1.1472 0.69846 1.3324 1.3819 0.0975 0.35974 0.0471 1.039-0.10158 1.3611-0.29835 0.64801-0.92063 0.98044-1.7218 0.91988-0.69526-0.0529-1.2635-0.48351-1.4552-1.1035-0.0604-0.19697-0.0819-0.4075-0.0769-0.77606 0.01-0.58844-0.006-0.60022-0.38613-0.35839-0.66917 0.4238-1.4257 1.5322-1.7778 2.6049-0.28172 0.85803-0.32319 1.1971-0.33388 2.7288-0.007 0.77631-0.003 1.8533 0.01 2.3934l0.0171 0.98188 0.90581-0.0338 0.9058-0.0338 0.0566 0.12461c0.0718 0.15846 0.0732 0.59665 0.003 0.75312l-0.0545 0.11983h-3.5153c-3.2125 0-3.5208-0.009-3.5798-0.0775zm23.955-0.0138c-0.065-0.12047-0.0624-0.68923 0.004-0.81126 0.0497-0.0938 0.0757-0.0953 0.93331-0.0622l0.88179 0.0338 0.0315-1.1932c0.0317-1.2093 0.0285-11.832-0.006-13.884l-0.0182-1.1174h-0.88137c-0.62278 0-0.89793-0.0163-0.93782-0.0562-0.0701-0.0701-0.076-0.6667-0.01-0.79351 0.0476-0.0885 0.1264-0.0909 2.6573-0.0909h2.6086l0.0312 0.12249c0.0169 0.0669 0.0179 0.61253 0 1.2115-0.0158 0.59894-0.0404 2.1476-0.0541 3.4414s-0.0369 2.8658-0.0516 3.4933c-0.0161 0.68213-0.01 1.1409 0.0155 1.1409 0.0241 0 0.11449-0.10057 0.20159-0.22348 0.21686-0.30597 0.76317-0.86864 1.1044-1.1374 0.97236-0.76601 2.1217-1.1351 3.5443-1.1383 0.77636-0.003 1.1897 0.0793 1.7387 0.34155 0.82102 0.39194 1.3485 1.1549 1.508 2.1812 0.0314 0.2018 0.0635 1.7571 0.0828 4.016l0.0317 3.6866 0.78911-0.0336c0.92192-0.0394 0.8921-0.0548 0.8921 0.47057 0 0.55044 0.38396 0.49398-3.3598 0.49398-2.9501 0-3.2684-0.01-3.3257-0.0768-0.0887-0.10662-0.0853-0.73261 0.005-0.84046 0.0603-0.0729 0.13904-0.0775 0.8046-0.0481l0.73719 0.0332 0.0352-2.7686c0.0401-3.1552 0.0179-4.3254-0.0906-4.759-0.12955-0.5181-0.32055-0.79047-0.6859-0.97791-0.2129-0.1093-0.89095-0.1457-1.2836-0.0688-1.0914 0.21357-2.0263 1.1652-2.4306 2.4742-0.21545 0.69754-0.23746 1.0263-0.23761 3.5573-0.00011 1.311 0.0137 2.4187 0.0301 2.4615 0.0261 0.0688 0.0947 0.0738 0.60104 0.045 0.51383-0.0294 0.57823-0.0245 0.64064 0.0509 0.0923 0.1112 0.0958 0.72852 0.006 0.8381-0.0594 0.0716-0.34641 0.0775-3.28 0.0775-3.1308 0-3.2166-0.003-3.264-0.0909zm15.942 0.0138c-0.091-0.10972-0.0877-0.72699 0.006-0.83824 0.0641-0.0771 0.13832-0.0811 0.92499-0.0496l0.85556 0.0333 0.0383-0.32181c0.0507-0.423 0.0519-8.1578 0-8.4565l-0.039-0.23073-0.86238 0.0286c-0.75785 0.0254-0.86998 0.0197-0.92521-0.0473-0.0861-0.1037-0.0845-0.7261 0-0.83031 0.059-0.0712 0.30035-0.0775 2.6202-0.0775 1.9928 0 2.564 0.0134 2.5936 0.0593 0.0205 0.0317 0.0362 1.9854 0.0322 4.3401-0.005 2.3548 0.005 4.564 0.0142 4.9095l0.0197 0.62815 0.7636-0.0331c0.69118-0.0307 0.76998-0.0257 0.83112 0.0484 0.0894 0.10811 0.093 0.73393 0.006 0.84071-0.0573 0.069-0.38445 0.0768-3.4392 0.0768-3.0829 0-3.3815-0.009-3.4405-0.0775zm2.9465-12.619c-0.40067-0.13899-0.58265-0.24503-0.80163-0.46718-0.67604-0.68571-0.69174-1.8733-0.0337-2.5585 0.18879-0.19667 0.59656-0.42713 0.89711-0.50708 0.27773-0.0737 0.97364-0.0646 1.2378 0.0171 0.54028 0.16649 0.94865 0.50573 1.1666 0.9691 0.10785 0.22928 0.12166 0.3177 0.12166 0.77628 0 0.47094-0.0127 0.54393-0.13545 0.81084-0.21391 0.46307-0.63873 0.81028-1.1998 0.98057-0.30116 0.0914-0.95976 0.0803-1.2523-0.0207z"/>
   <path d="m261.94 789.19c-1.8266-0.10427-2.9756-0.56061-3.4515-1.3701-0.14927-0.25389-0.16576-0.33782-0.1623-0.82522 0.003-0.44837 0.032-0.60051 0.15687-0.87447 0.19485-0.42217 0.5726-0.8979 0.95072-1.1969l0.29588-0.2338-0.31094-0.14363c-0.47525-0.21985-1.0802-0.8479-1.3365-1.3874-0.30649-0.64531-0.3844-1.2455-0.26028-2.0045 0.16596-1.0155 0.62255-1.7633 1.3786-2.2571l0.36102-0.23608-0.24523-0.29495c-0.5834-0.70155-0.813-1.4976-0.76305-2.6464 0.0496-1.1321 0.29622-1.7311 1.0104-2.4507 0.75771-0.76375 1.7606-1.1757 3.2361-1.3295 0.76367-0.0797 1.9911-0.003 2.6072 0.16255 0.25592 0.0677 0.72696 0.0902 2.0628 0.0907l1.7311 0.00043 0.0634 0.23715c0.056 0.20759 0.0113 0.6764-0.07 0.75959-0.0113 0.0112-0.42179 0.004-0.90979-0.0181-0.48801-0.0217-0.88732-0.0422-0.88732-0.0407 0.00003 0.001 0.13731 0.15083 0.30499 0.33167 0.97105 1.0472 1.1803 2.8446 0.49755 4.2733-0.71005 1.4856-2.6704 2.3425-5.0533 2.2089-0.83878-0.0476-1.6166-0.2014-2.154-0.42768-0.53825-0.22661-0.60475-0.23391-0.8745-0.0966-0.59186 0.30189-0.85688 0.69666-0.85915 1.2806-0.002 0.59774 0.37224 0.9498 1.1444 1.0748 0.23595 0.0393 1.5619 0.0633 3.3337 0.0636 3.2827 0.00079 3.5175 0.0208 4.3104 0.39367 0.75083 0.35166 1.277 1.0043 1.4637 1.8145 0.0917 0.39472 0.0898 1.2647-0.004 1.6616-0.10845 0.46478-0.42852 1.114-0.74013 1.5021-0.87422 1.0881-2.7321 1.8508-4.7636 1.9559-0.33866 0.0165-0.765 0.041-0.94738 0.0502-0.1824 0.01-0.68435-0.002-1.1154-0.0258zm2.9544-1.0479c1.3461-0.21849 2.2738-0.77759 2.5279-1.5232 0.11273-0.33105 0.11918-0.52885 0.0257-0.80615-0.13297-0.39586-0.43931-0.60311-1.0499-0.71051-0.20674-0.0373-1.52-0.0672-3.1019-0.0737l-2.7434-0.0111-0.13302 0.2733c-0.18414 0.3787-0.26518 0.93573-0.19699 1.3553 0.17271 1.0604 1.2423 1.5663 3.3447 1.5813 0.43117 0.003 1.0281-0.0354 1.3265-0.084zm-0.83893-9.1046c0.54095-0.16048 0.95104-0.7467 1.1191-1.5994 0.11678-0.59268 0.10028-2.4586-0.0268-2.9696-0.197-0.7947-0.59575-1.3776-1.0805-1.5797-0.51524-0.215-1.2459-0.0181-1.5835 0.42286-0.53232 0.69789-0.7684 1.9664-0.63471 3.4103 0.13155 1.4208 0.48145 2.0852 1.2197 2.3155 0.34327 0.10746 0.62575 0.10746 0.9867 0zm-97.441 4.1267c-1.2552-0.19204-2.1669-0.84042-2.5187-1.7906-0.18901-0.51029-0.18541-1.4605 0.008-2.0221 0.3019-0.87972 0.88789-1.4963 1.8477-1.9451 1.0414-0.48708 1.9053-0.63086 3.7918-0.63135l1.3193-0.00021-0.0341-1.221c-0.0366-1.3433-0.0971-1.6589-0.40271-2.0814-0.38867-0.53619-1.2647-0.81382-2.2029-0.69759-0.31228 0.0397-0.5605 0.1023-0.6152 0.15683-0.0834 0.0837-0.0722 0.12236 0.081 0.38489 0.15292 0.26003 0.17218 0.3502 0.17218 0.80528 0 0.43477-0.0217 0.5533-0.15075 0.78108-0.31032 0.55248-1.0052 0.88916-1.7177 0.8319-0.97843-0.077-1.5972-0.70343-1.5972-1.613 0-1.1162 0.85379-1.766 2.7435-2.0874 0.85851-0.14589 3.1557-0.14764 3.9323-0.003 1.4507 0.27069 2.3507 0.81629 2.7783 1.6847 0.3321 0.67506 0.34465 0.79214 0.31213 2.9377-0.0154 1.0778-0.0312 2.5702-0.0312 3.3164 0 1.3362 0.002 1.3605 0.15069 1.622 0.2328 0.40955 0.45992 0.50485 1.1039 0.46307l0.53127-0.0358 0.12091 0.27316c0.16214 0.36699 0.13159 0.51619-0.13245 0.64529-0.47925 0.23455-2.2093 0.36684-2.9525 0.22577-0.7983-0.15134-1.4527-0.65614-1.8401-1.4196l-0.22947-0.45185-0.46906 0.47946c-0.69856 0.71367-1.3145 1.0894-2.1318 1.3005-0.45505 0.11743-1.3951 0.16299-1.869 0.0913zm2.9667-1.8168c0.15896-0.0761 0.44185-0.29159 0.6283-0.47557 0.59441-0.58604 0.77633-1.1165 0.77633-2.2665v-0.73674l-0.34683-0.0453c-0.58531-0.0759-1.4658-0.0481-1.8822 0.0595-1.0604 0.2742-1.556 1.0258-1.4963 2.268 0.0339 0.67098 0.17418 1.004 0.51818 1.2165 0.40262 0.24887 1.2706 0.23875 1.8025-0.0194zm27.723 1.816c-1.4374-0.2236-2.6026-0.95178-3.3528-2.0952-0.62052-0.94631-0.91166-2.0918-0.9071-3.5701 0.004-1.067 0.11468-1.722 0.42589-2.4991 0.92719-2.3149 3.4297-3.5227 6.125-2.956 0.7034 0.14791 1.3652 0.50572 1.8718 1.0124 0.42958 0.42972 0.44019 0.43592 0.4716 0.27866 0.0482-0.23825 0.0486-3.7633 0.00047-5.6489l-0.0425-1.6431h-0.85297c-0.58277 0-0.87543-0.0214-0.9251-0.0711-0.0896-0.0896-0.0963-0.61607-0.01-0.7758 0.0596-0.11233 0.1527-0.1166 2.5907-0.1166h2.528l0.069 0.13088c0.0484 0.0903 0.0578 0.3416 0.0351 0.79879-0.0637 1.1805-0.0641 15.512-0.001 15.832l0.0303 0.15068 0.75726-0.0198c0.58966-0.0158 0.76851-0.004 0.80892 0.0597 0.0768 0.1232 0.0635 0.74086-0.0177 0.82332-0.0538 0.0538-0.6776 0.0711-2.4345 0.0711-2.0202 0-2.373-0.0118-2.4368-0.0908-0.0555-0.0656-0.0632-0.26777-0.0335-0.78386 0.0315-0.48781 0.0215-0.69402-0.0216-0.69402-0.0372 0-0.0647 0.0192-0.0647 0.0468 0 0.0251-0.12591 0.19021-0.2798 0.36606-0.776 0.88711-1.9139 1.378-3.3077 1.4269-0.36475 0.0117-0.82601-0.002-1.025-0.0346zm2.2127-1.21c0.76961-0.16084 1.4946-0.76916 1.8816-1.5784 0.74776-1.5634 0.7504-4.2314 0.006-5.7105-0.52763-1.0476-1.5519-1.6557-2.6082-1.5484-1.4443 0.14681-2.1414 1.56-2.1462 4.3517-0.002 1.1553 0.0656 1.8681 0.24444 2.5324 0.41167 1.5396 1.3301 2.2234 2.6227 1.9531zm18.86 1.2317c-1.5099-0.15493-2.5408-0.96241-2.7696-2.1692-0.0331-0.16642-0.0755-2.0095-0.10057-4.0956l-0.0432-3.7934-0.81697 0.0185c-0.93529 0.0217-0.97343 0.005-0.97343-0.4577 0-0.4915 0.0102-0.49699 0.96604-0.49699h0.8411l0.015-1.8843 0.0149-1.884h1.6582 1.6581l0.0149 1.883 0.0149 1.8832 1.4915 0.0152 1.4915 0.0152 0.0559 0.22609c0.0355 0.13881 0.0355 0.31349 0 0.45226l-0.0559 0.22609h-1.4833-1.4831l-0.0404 1.2608c-0.0539 1.7344-0.0451 5.146 0.0156 6.0952 0.0733 1.1577 0.27474 1.5326 0.8849 1.6593 0.45045 0.0946 1.2661-0.0536 1.8976-0.3422 0.47334-0.21641 0.48088-0.2177 0.60752-0.10482 0.15699 0.13986 0.30287 0.46906 0.25874 0.58406-0.0479 0.12338-1.0217 0.61289-1.4436 0.72523-0.70069 0.18658-1.864 0.26501-2.6831 0.18091zm25.653-0.0255c-1.1462-0.12068-2.3616-0.57083-3.1494-1.1667-0.47622-0.36006-0.97687-0.99615-1.2794-1.6254-0.73867-1.5367-0.76516-3.8508-0.0623-5.4869 0.49796-1.1604 1.5975-2.1205 2.9371-2.5647 2.2411-0.74294 4.7975-0.47261 6.1996 0.6557 1.0031 0.80736 1.6091 2.1495 1.622 3.5925l0.006 0.66342-3.8495 0.0145-3.8496 0.0145 0.0421 0.64783c0.13136 2.0724 0.80497 3.4398 1.9739 4.0067 1.4912 0.72331 3.6058 0.0241 4.6886-1.5492 0.1051-0.1528 0.235-0.27232 0.29595-0.27232 0.15428 0 0.60912 0.34347 0.60912 0.46012 0 0.16733-0.51532 0.82887-0.9937 1.2758-1.1569 1.0803-3.0252 1.5601-5.1888 1.3325zm2.384-6.961c0.0499-0.01 0.12443-0.0178 0.16587-0.0202 0.1088-0.007 0.0984-0.89744-0.0175-1.5115-0.23751-1.252-0.77437-1.8074-1.7483-1.8086-0.94456-0.00089-1.5655 0.62503-1.8886 1.905-0.10219 0.4041-0.24862 1.2772-0.24862 1.4799 0 0.0529 3.4414 0.0122 3.7383-0.0434zm40.485 6.961c-1.1462-0.12068-2.3616-0.57083-3.1494-1.1667-0.4762-0.36006-0.97689-0.99615-1.2794-1.6254-0.73867-1.5367-0.76515-3.8508-0.0624-5.4869 0.49799-1.1604 1.5975-2.1205 2.9371-2.5647 2.2411-0.74294 4.7975-0.47261 6.1996 0.6557 1.0031 0.80736 1.6091 2.1495 1.622 3.5925l0.006 0.66342-3.8495 0.0145-3.8495 0.0145 0.0422 0.64783c0.13132 2.0724 0.80496 3.4398 1.9739 4.0067 1.4911 0.72331 3.6058 0.0241 4.6886-1.5492 0.10507-0.1528 0.23503-0.27232 0.29594-0.27232 0.15426 0 0.60911 0.34347 0.60911 0.46012 0 0.16733-0.5153 0.82887-0.99369 1.2758-1.1569 1.0803-3.0251 1.5601-5.1888 1.3325zm2.3839-6.961c0.05-0.01 0.12439-0.0178 0.16584-0.0202 0.10884-0.007 0.0984-0.89744-0.0175-1.5115-0.23748-1.252-0.77431-1.8074-1.7483-1.8086-0.94455-0.00089-1.5656 0.62503-1.8886 1.905-0.10218 0.4041-0.24863 1.2772-0.24863 1.4799 0 0.0529 3.4414 0.0122 3.7383-0.0434zm7.6876 6.966c-1.2551-0.19204-2.1669-0.84041-2.5186-1.7906-0.18893-0.51026-0.1855-1.4605 0.008-2.0221 0.30195-0.87972 0.88788-1.4962 1.848-1.9451 1.0414-0.48718 1.9051-0.63089 3.7916-0.63135l1.3196-0.00022-0.0341-1.221c-0.0366-1.3433-0.0971-1.6589-0.40278-2.0814-0.38851-0.5362-1.2647-0.81384-2.2029-0.69759-0.31224 0.0397-0.56045 0.1023-0.61523 0.15682-0.0832 0.083-0.0722 0.12234 0.0804 0.38485 0.15287 0.26005 0.17214 0.35023 0.17214 0.80531 0 0.43476-0.0216 0.55329-0.15073 0.78108-0.31026 0.55245-1.0052 0.88915-1.7177 0.8319-0.97845-0.0793-1.5972-0.70345-1.5972-1.613 0-1.1162 0.85392-1.766 2.7435-2.0874 0.85868-0.14581 3.1558-0.14769 3.9323-0.003 1.4508 0.27062 2.3506 0.8162 2.7782 1.6846 0.33225 0.67504 0.34476 0.79213 0.31221 2.9376-0.0154 1.0778-0.0305 2.5703-0.0305 3.3164 0 1.3362 0.002 1.3605 0.1507 1.622 0.23284 0.40953 0.45992 0.50485 1.1039 0.46304l0.53118-0.0357 0.12093 0.27306c0.16225 0.36701 0.13164 0.5162-0.13242 0.64527-0.47923 0.23459-2.2093 0.36687-2.9525 0.22579-0.79833-0.15126-1.4527-0.65613-1.8401-1.4195l-0.22939-0.45194-0.46907 0.47947c-0.69858 0.71367-1.3146 1.0894-2.1318 1.3005-0.45509 0.11741-1.3951 0.16302-1.869 0.0913zm2.9668-1.8167c0.15901-0.0761 0.44171-0.29161 0.62823-0.47558 0.59461-0.58601 0.77628-1.1166 0.77628-2.2664v-0.73683l-0.34666-0.0453c-0.58526-0.0756-1.466-0.0481-1.8822 0.0595-1.0603 0.27422-1.5562 1.0258-1.4964 2.268 0.0339 0.67099 0.17414 1.004 0.51827 1.2166 0.40274 0.24884 1.2708 0.23871 1.8025-0.0194zm11.655 1.8378c-1.51-0.15495-2.5408-0.96244-2.7696-2.1692-0.0331-0.16645-0.076-2.0096-0.10057-4.0956l-0.0432-3.7934-0.81687 0.0185c-0.93531 0.0217-0.97346 0.005-0.97346-0.45776 0-0.49152 0.0103-0.49699 0.96599-0.49699h0.84114l0.0149-1.8844 0.0149-1.884h1.6582 1.6581l0.0149 1.883 0.0149 1.8831 1.4916 0.0152 1.4914 0.0152 0.0559 0.2261c0.0355 0.1388 0.0355 0.31351 0 0.4523l-0.0559 0.22607h-1.4833-1.4831l-0.0403 1.2608c-0.0539 1.7344-0.0452 5.1461 0.0156 6.0952 0.0731 1.1577 0.27468 1.5326 0.88508 1.6593 0.45032 0.0945 1.2659-0.0536 1.8975-0.34219 0.47324-0.2164 0.48093-0.21776 0.60754-0.10481 0.15683 0.13982 0.3028 0.46906 0.25839 0.58398-0.0479 0.12347-1.0215 0.61289-1.4434 0.72528-0.70051 0.18658-1.8639 0.26501-2.6829 0.18093zm-148.67-0.75c0-0.43959 0.0102-0.48263 0.11832-0.48263 0.15566 0 0.24332 0.17428 0.24332 0.48263 0 0.30801-0.0891 0.48226-0.24332 0.48226-0.10772 0-0.11832-0.0435-0.11832-0.48226zm14.111 0.36567c-0.0893-0.16462-0.0777-0.62348 0.0164-0.75344 0.0709-0.0988 0.16318-0.1067 0.92643-0.0874l0.84631 0.0217 0.0394-0.66429c0.05-0.86309 0.05-6.4708 0-7.4474l-0.0396-0.75358-0.84732 0.0195c-0.97357 0.0231-1.005 0.01-1.005-0.47333 0-0.51735-0.17987-0.48598 2.6832-0.46807l2.5323 0.0148-0.0208 1.0702c-0.0115 0.58862 0.00086 1.0684 0.0316 1.0662 0.0285-0.003 0.20833-0.20529 0.39891-0.45128 0.62001-0.80028 1.655-1.4897 2.6672-1.7764 0.5437-0.15404 1.6403-0.26323 2.1458-0.21373 1.5953 0.15626 2.5202 1.0044 2.77 2.5402 0.0332 0.19468 0.0624 1.7386 0.0684 3.4308 0.007 1.6922 0.0208 3.3086 0.0361 3.5919l0.0218 0.5151 0.75434-0.0249c0.44753-0.0137 0.77811-0.002 0.81327 0.0354 0.0664 0.0664 0.085 0.6062 0.0223 0.79472-0.0409 0.12549-0.0478 0.12581-3.2851 0.12581-3.6555 0-3.3196 0.0507-3.3178-0.50238 0.00085-0.47695-0.00091-0.47574 0.82855-0.45242l0.72534 0.0186 0.043-1.6882c0.0218-0.92855 0.0328-2.5565 0.0167-3.6177-0.0263-2.1446-0.0612-2.3688-0.42549-2.7834-0.26687-0.30374-0.51682-0.39293-1.0942-0.39022-1.584 0.008-2.7768 1.2701-3.0831 3.264-0.0857 0.54811-0.1066 3.0885-0.0425 4.6754l0.0208 0.54525 0.57359-0.0245c0.32966-0.0132 0.59849 0 0.63253 0.0353 0.0661 0.0663 0.0851 0.60626 0.0226 0.79473-0.0409 0.12542-0.0487 0.12573-3.2293 0.12573-3.0916 0-3.1914-0.004-3.2519-0.1166zm46.03-0.0207c-0.0179-0.0763-0.0252-0.28689-0.0152-0.46749l0.0176-0.32836h0.88793 0.8879l0.041-0.1808c0.0526-0.23843 0.0496-15.469-0.004-15.636-0.0398-0.12208-0.0845-0.12891-0.92643-0.14479l-0.8858-0.0156-0.0175-0.32833c-0.01-0.18071-0.003-0.39092 0.0152-0.46751l0.0362-0.13879h2.5592c2.5355 0 2.5599 0.00092 2.6268 0.12627 0.0381 0.0684 0.0537 0.18473 0.0377 0.2561-0.0159 0.0705-0.0477 1.9616-0.0661 4.2-0.0185 2.2385-0.051 4.2123-0.0681 4.3864-0.0181 0.19012-0.009 0.31657 0.0251 0.31657 0.0343 0 0.15789-0.13396 0.27804-0.29771 0.72526-0.98789 1.9512-1.7667 3.1774-2.018 2.0129-0.41278 3.5723 0.0864 4.2073 1.3428 0.38126 0.75531 0.38106 0.75283 0.40988 4.8643l0.0258 3.7408 0.75898-0.0258c0.8759-0.0277 0.91923-0.007 0.91923 0.47251 0 0.52271 0.2665 0.48575-3.3765 0.46782l-3.2258-0.0147-0.0559-0.22611c-0.0355-0.13875-0.0355-0.31351 0-0.45221l0.0559-0.22617h0.74132c0.693 0 0.74282-0.008 0.76559-0.1205 0.048-0.23548 0.0713-6.1942 0.0281-6.6805-0.10447-1.1445-0.38199-1.5414-1.1672-1.6693-1.1434-0.18619-2.3883 0.5741-2.9824 1.8214-0.44907 0.94272-0.45138 0.96135-0.47571 3.9688l-0.0201 2.6861 0.58644-0.0253c0.67981-0.0299 0.74672 0.0104 0.74672 0.45732 0 0.54145 0.29652 0.49699-3.3172 0.49699h-3.1924l-0.0359-0.13883zm47.064 0.0207c-0.0892-0.16462-0.0775-0.62348 0.0164-0.75344 0.0709-0.0988 0.16311-0.1067 0.92617-0.0874l0.84634 0.0217 0.0393-0.66429c0.0501-0.86309 0.0499-6.4708-0.00008-7.4474l-0.0395-0.75358-0.84708 0.0195c-0.97367 0.0231-1.0051 0.01-1.0051-0.47333 0-0.51735-0.17983-0.48598 2.6831-0.46807l2.5324 0.0148-0.0163 1.2059-0.0163 1.2059 0.2283-0.40848c0.81359-1.4559 1.8326-2.184 3.2314-2.309 1.3882-0.12405 2.3665 0.61786 2.4405 1.8508 0.0658 1.1158-0.60419 1.8615-1.6753 1.8615-1.068 0-1.7316-0.74403-1.679-1.8827 0.0122-0.29025-0.003-0.43657-0.0508-0.45253-0.21191-0.0696-0.90935 0.54402-1.3405 1.1814-0.40889 0.6044-0.75939 1.4345-0.94553 2.2392-0.11427 0.49409-0.17684 2.7678-0.1163 4.2232l0.0442 1.0526 0.87635-0.0193c0.68699-0.0155 0.88746-0.004 0.92785 0.0597 0.0772 0.12269 0.063 0.74035-0.0178 0.8229-0.0546 0.0546-0.92 0.0713-3.5251 0.0713-3.3519 0-3.4545-0.003-3.5152-0.11662z"/>
  </g>
 </g>
</svg>
