<?xml version="1.0" encoding="UTF-8" standalone="no"?>
<svg xmlns:rdf="http://www.w3.org/1999/02/22-rdf-syntax-ns#" xmlns="http://www.w3.org/2000/svg" height="20.038mm" viewBox="0 0 303.00001 70.999997" width="85.513mm" version="1.1" xmlns:cc="http://creativecommons.org/ns#" xmlns:dc="http://purl.org/dc/elements/1.1/" enable-background="new">
 <g>
  <path d="m212.8 29.211c-0.0521-0.000131-0.10073 0.01662-0.13477 0.05078-1.5365 1.406-2.7178 2.2424-4.5996 3.0723-0.32945 0.14528-0.13861 0.30662-0.0879 0.39648 0.38533 0.68228 1.6606 2.5488 2.0098 4.252 0.85241 4.1573 1.0738 8.6736 0.97494 12.916-0.0354 1.5187-0.25628 4.7488-0.37695 5.9648-0.0535 0.53918-0.17024 0.47408 0.31055 0.55273 0.71837 0.11752 2.1106 0.246 3.2594 0.04665 2.4501-0.42513 5.1064-0.88536 7.0508-2.4355 0.88456-0.70524 1.5862-1.5003 1.9453-2.4922 0.19492-0.53837 0.39677-0.51252-0.46289-0.24609-1.3368 0.4143-4.2605 1.2565-6.3613 1.4961-0.67172 0.07662-3.1193 0.0017-3.9668-0.01172-0.38893-0.0062-0.2948-0.61879-0.29882-0.75-0.0819-2.6714-0.034-6.4329-0.0156-7.9609 0.0505-4.1893 0.83131-11.807 1.0742-14.389 0.029-0.30816-0.16413-0.4625-0.32031-0.46289z" style="color-rendering:auto;color:#000000;isolation:auto;mix-blend-mode:normal;shape-rendering:auto;solid-color:#000000;image-rendering:auto;enable-background:accumulate"/>
  <path d="m189.24 9.3594c-0.48699-0.00212-0.96341 0.013527-1.377 0.037109-1.4436 0.082321-2.1331 1.5542-2.8991 2.7045-1.9374 2.9093-2.199 8.0205-2.0684 11.232l0.32294 7.938c0.0307 0.75347-0.079 0.64251-0.46289 0.9043-1.4185 0.96738-6.1114 3.3055-7.5508 4.1914-0.39151 0.24095-0.46359-0.23379-0.47266-0.47852-0.1079-2.9118 0.11249-14.212 0.11133-14.498-0.02-4.9369-0.0723-5.072-0.11854-8.4374-0.031-2.2575-0.76675-1.3471-1.273-0.79187-1.1093 1.2166-4.9944 5.0588-5.9666 5.8476-0.54565 0.44272 0.0156 0.33153 0.10539 0.33367 2.3191 0.05508 2.8525-0.38763 3.3945 2.8018 0.34468 2.0284 0.70376 5.2281 1.0522 8.9369 0.1957 2.0834 0.65932 4.574 0.8465 7.1298 0.0296 0.40458-0.0146 0.59418-0.125 0.66992-1.4727 1.0103-2.6165 1.5386-3.3306 1.6676-0.56138 0.10141-0.52743 0.66656-0.5495 0.86794-0.10944 0.99869-0.35225 3.3988-0.96252 4.823-0.33031 0.77088 0.3336 0.30925 0.35074 0.29372 0.90167-0.81714 2.707-2.5871 4.7649-3.7066 0.26894-0.1463 0.36285 0.1192 0.375 0.23828 0.10141 0.99416 0.4756 8.1598 0.53741 10.642 0.0698 2.8027-1.0919 3.4619-1.5289 4.6002-0.30489 0.79405-0.25874 0.82577 0.52007 0.70876 1.7792-0.2673 3.3888-0.28024 5.3433-0.81055 0.59791-0.16223 2.4126-1.1075 2.8317-1.3786 1.0439-0.67506 1.1726-0.94944 1.8026-1.6199 0.90517-0.96339 0.32641-1.4337-1.0489-0.73271-1.0923 0.55677-3.6499 0.88932-4.29 0.97538-1.1932 0.16041-1.4974-0.52131-1.7328-1.9717-0.14229-0.87647-0.40688-3.4203-0.48979-4.6416-0.0605-0.8907-0.29965-5.2794-0.35742-6.541-0.0129-0.28128 0.0289-0.5492 0.19141-0.64648 2.6185-1.5677 5.669-3.5213 7.7261-4.6544 0.41201-0.22694 0.63461 0.18771 0.61914 0.86133-0.0198 0.86186 0.0275 2.4461 0.0625 3.5098 0.16946 5.1486-0.29894 13.722 1.6236 15.891 0.59407 0.67024 2.9571-2.7969 3.6673-3.6889 0.53717-0.67465 1.0326-1.4587 1.0568-2.274 0.0134-0.45116-0.0868-0.80444-0.3393-0.92772-0.91969-0.44899-3.39 0.37624-3.4785-2.3477-0.11788-3.6261-0.236-7.3113-0.31005-12.12-0.009-0.56585 0.28229-0.70578 0.55078-0.90625 2.6714-1.9946 6.2334-4.2225 10.374-6.45 3.0501-1.6408 6.1391-2.8625 9.2404-4.4043 2.7633-1.3738 7.6711-2.3343 11.115-2.0547 10.528 0.85464 21.645 2.56 32.434 2.875 9.1265 0.26648 18.264-1.3651 27.197-3.2539 4.919-1.0401 13.486-4.007 16.74-5.0794 1.6799-0.55364 1.0832-0.45632-0.10658-0.45153-2.2913 0.0092-4.5825 0.03908-6.8738-0.71521-1.6628-0.5474-2.9247-1.6767-3.8721-3.4374-0.45465-0.84499-0.46489-0.06509-0.48168-0.01182-0.97932 3.1065-4.6812 4.8259-7.7751 6.0528-7.1031 2.8168-12.506 2.8267-20.141 3.1465-10.386 0.43502-27.217-1.5888-32.598-2.1016-7.1778-0.68396-13.836 0.32837-17.766 2.3379-4.8127 2.4608-5.9342 3.0827-10.659 5.6629-2.2436 1.2253-5.0031 2.9915-7.1848 4.2511-0.63359 0.36581-0.63667 0.13736-0.65039-0.23633-0.14325-3.9023-0.49908-7.8047-0.14844-11.707 0.53729-5.9795 6.3306-6.5401 7.2695-8.2852 0.30094-0.55928-1.7773-0.76316-3.2383-0.76953z" style="color-rendering:auto;color:#000000;isolation:auto;mix-blend-mode:normal;shape-rendering:auto;solid-color:#000000;image-rendering:auto;enable-background:accumulate"/>
  <path d="m246.2 29.219c-1.9125 0.03686-3.5026 0.3727-4.2532 1.1265-1.7457 1.7532-2.922 4.2709-3.0163 8.4951-0.0684 3.0645-0.083 5.7665 0.84106 9.9871 0.86716 3.9605 4.0832 8.0703 8.3953 7.4108 4.312-0.65949 8.6249-5.734 8.5234-13.09-0.1-7.356-5.99-14.017-10.49-13.93zm-1.6137 2.5607c5.4034-0.25428 10.748 5.306 10.283 13.855-0.17246 3.1742-2.8931 5.186-6.291 5.125-5.5386-0.09946-7.914-6.6167-7.6358-11.928 0.27921-5.3311 2.1742-6.9831 3.6437-7.0523z" style="color-rendering:auto;color:#000000;isolation:auto;mix-blend-mode:normal;shape-rendering:auto;solid-color:#000000;image-rendering:auto;enable-background:accumulate"/>
  <path d="m20.26 13.828c-2.176-0.0064-5.4808 1.8484-7.3242 4.1172-0.14598 0.17966-0.09852 0.19778 0.09375 0.19336 0.47158-0.01085 1.6962-0.37103 2.2148-0.37695 0.15799-0.0018 0.24726 0.0323 0.24414 0.12695-0.31762 9.6235-0.43361 22.022-0.83594 31.822-0.15501 3.776-0.61273 5.8717-1.6797 9.0645-0.08818 0.26388 0.03902 0.23237 0.13281 0.22266 3.7489-0.3881 6.9476-0.32461 10.691 0.10352 2.2125 0.25301 2.6828-1.1554 3.957-1.7969 0.14031-0.07063 0.11282 0.01733 0.11914 0.12109 0.0641 1.0516-0.19222 2.2941 1.4688 2.3711 0.84442 0.03914 1.6292 0.03486 2.3906 0.0332 2.0227-0.0044 6.019-3.7811 6.6953-5.2012 0.25565-0.53677-0.17932-0.49563-0.30469-0.48242-1.001 0.10549-3.8692 0.57506-5.1328-0.29297-0.74531-0.51198-1.0391-2.2429-1.1992-3.1328-0.17063-0.9481 0.07338-2.6482 0.17773-3.4023 0.05899-0.42627 0.11198-0.38216 0.40625-0.41797 2.6385-0.3211 3.7054-0.34725 5.4922-0.50977 0.28257-0.0257 0.2516 0.12964 0.26367 0.25391 0.30308 3.1193 0.87175 5.944 1.4902 8.5859 0.4907 2.0961 1.0648 3.4505 2.9199 3.6426 1.4576 0.1509 1.704-0.45915 1.9004-0.90175 0.10495-0.2365 0.34657-0.86977 0.59125-0.80317 1.4406 0.39208 3.0489 0.38838 4.6444 0.3932 0.37402 0.0011 1.1227 0.02036 1.3958-0.52079 0.32039-0.63495 0.74718-1.8037 1.8776-2.9206 0.82289-0.81309 0.60752-1.0965-0.63203-0.96758-1.0763 0.11194-2.8729 0.3423-3.6967 0.27953-0.64573-0.0492-0.59237-0.38371-0.60547-0.96875-0.09787-4.3711 0.10698-10.254-0.04742-15.635-0.0022-0.1106 0.029-0.20511 0.0918-0.19922 2.6547 0.24912 3.812-3.2048 4.5273-5.2188 0.08625-0.24283-0.06546-0.25869-0.52539-0.24609-1.4546 0.03983-5.2458 0.95321-8.082 0.76758-0.2327-0.01523-0.22914 0.08057-0.25 0.17383-0.31578 1.4117-0.92633 3.0137-1.6445 4.1797-0.09962 0.16174-0.0044 0.16564 0.05273 0.17969 1.54 0.37865 3.1167 0.29606 4.1543 0.31836 0.12571 0.0027 0.10857 0.06891 0.11328 0.13477 0.04865 0.6802 0.13615 3.8405 0.12695 5.5352-0.01317 2.4266 0.248 7.3611-0.10661 10.175-0.09539 0.75698-0.16936 1.3647-0.57137 1.7896-0.47906 0.5064-0.77974 0.82001-1.4275 1.3557-0.44631 0.36909-0.47845 0.58721-0.95898 0.35937-1.1288-0.53519-1.8086-3.3329-2.373-7.1191-0.37479-2.5141-0.07858-6.3445-0.21094-9.582-0.11471-2.8058-0.47202-5.851-2.3164-8.4609-0.25908-0.36662-0.35645-0.16725-0.45703-0.09375-1.27 0.92799-2.8888 1.6165-3.5352 1.6816-0.47828 0.0482-0.57858 0.25838 0.07617 0.57812 0.52052 0.25419 0.91884 0.62702 1.0664 1.5918 0.04188 0.27382-0.30565 1.0456-0.34766 1.2012-0.2025 0.74904-0.73261 1.9243-1.6348 3.9629-1.0445 2.3603-2.7848 8.2235-2.8652 8.002-1.1795-3.2464-2.022-4.992-3.2148-7.4551-1.1528-2.3804-3.9533-6.3659-4.6738-7.0859-0.26338-0.26317-0.04348-0.32494 0.05469-0.41016 2.4936-2.1646 8.1325-6.245 8.0469-10.553-0.10766-5.4182-7.69-8.5533-10.824-8.5625zm0.47266 3.5625c1.336 0.02902 2.679 0.17918 3.6797 0.56055 3.3745 1.286 4.1517 3.18 4.2207 4.5488 0.12931 2.5649-3.1909 6.4798-5.4512 8.5996-2.4276 2.2767-4.5321 2.8333-6.3477 3.6523-0.41378 0.18667-0.34362-0.01077-0.34766-0.26172-0.08488-5.2838-0.06224-11.409 0.09375-16.312 0.01803-0.56667 0.54743-0.63409 1.2109-0.6875 0.4957-0.0399 1.0464-0.07458 1.6211-0.0918 0.43098-0.01291 0.87499-0.01749 1.3203-0.0078zm-0.73633 17.514c0.4109 0.04053 0.65341 0.35258 0.80469 0.65039 0.22902 0.45086 0.7204 1.1411 1.041 1.5938 1.2226 1.7261 4.6863 9.1347 5.7148 17.344 0.0663 0.52919 0.06441 0.44229-0.24609 0.48242-1.7471 0.22582-4.8413-0.0478-6.873-0.81445-0.96015-0.36229-1.7874-2.4353-2.1445-3.5449-0.95716-2.9735-1.483-10.021-1.5273-14.152-0.0062-0.57491 0.25-0.77734 0.64258-0.87891 0.9256-0.23946 1.7357-0.49428 2.1191-0.61914 0.1775-0.05781 0.33178-0.07406 0.46875-0.06055zm16.188 1.9375c0.21973-0.04579 0.34435 0.20408 0.49414 0.41797 0.20614 0.29435 0.56589 1.6284 0.70312 2.6348 0.20959 1.537 0.46363 3.9214 0.48828 5.0898 0.0038 0.17958-0.11096 0.18232-0.24024 0.20703-1.486 0.28403-2.1301 0.12764-5.0215 0.46484-0.24217 0.02824-0.14594-0.09993-0.10352-0.21094 0.38514-1.0078 1.4961-4.1916 1.8379-5.0117 0.10031-0.24072 1.1454-2.8028 1.5547-3.4023 0.0962-0.14092 0.21387-0.17419 0.28711-0.18945z" style="color-rendering:auto;color:#000000;isolation:auto;mix-blend-mode:normal;shape-rendering:auto;solid-color:#000000;image-rendering:auto;enable-background:accumulate"/>
  <path d="m84.5 48.85c-3.596-10.406-5.377-20.541-7.904-29.53-0.888-3.159-1.776-6.317-2.664-9.4762-0.038-0.1335-0.092-0.1891-0.145-0.2012s-0.105 0.0194-0.141 0.0625c-0.99583 1.2173-1.0798 1.389-5.7578 3.2988-0.31589 0.12897-0.15119 0.16197-0.04102 0.32031 0.62557 0.89911 2.7429 4.2558 3.1289 6.7363 0.01953 0.12548 0.04758 0.24817 0.04492 0.36914-0.12363 5.6175-2.6936 18.797-2.7148 19.002-0.03201 0.30795-0.2866-0.20428-0.38477-0.48242-1.7163-4.8626-3.3774-10.853-4.6836-14.725-0.96403-2.8574-1.3254-3.7095-2.6953-7.7109-0.31971-0.93385-1.0252-3.4633-0.76889-4.0804-0.06055-0.7751-0.22005-0.53773-0.42204-0.31056-1.0748 1.1897-3.9204 1.6795-6.0582 2.3276-1.206 0.36565 0.01088 0.53284 0.48995 0.56643 0.87922 0.06164 1.4248 0.000788 2.0292 0.87733 1.1976 1.7366 1.6422 2.891 2.56 5.6548 0.06736 0.20283 0.07101 0.30476 0.05664 0.56445-0.10122 1.8289-0.57063 10.743-1.0996 15.139-0.6439 5.3505-1.3386 9.5275-2.3442 14.607-0.3224 1.6286-1.386 4.2004-1.8017 5.1239-0.40361 0.79116 0.1639 0.48556 0.41525 0.4376 2.7902-0.52837 4.7711-0.08909 7.3166-0.11998 0.52485-0.0064 0.99948-0.25474 1.4721-0.62339 0.99711-0.77781 1.9852-2.0911 3.4166-2.7965 0.12427-0.06124 0.11963 0.20298 0.12523 0.24797l0.26392 2.1185c0.39602 3.1789 1.491 1.3823 2.1855 0.82818l3.9157-3.1244c0.60127-0.47976 0.20559-1.2525 0.18219-1.3542-0.48967-2.1277-2.0226-4.8716-2.7351-8.1809-0.29699-1.3794-0.21797-1.938-0.03906-3.0781 0.15907-1.0137 1.6681-10.459 2.4629-15.695 0.13226-0.87127 0.12474-0.78978 0.33594-0.10156 2.1579 7.0318 3.761 13.984 5.979 22.58 1.9475 7.5474 1.2085 6.1401 1.9858 9.1525 0.12483 0.48374 0.23161 0.39142 0.31055 0.30664 1.5457-1.6602 3.505-3.4471 4.611-4.036 0.08262-0.044 0.13932-0.2692 0.155-0.63863 0.03441-0.81051-0.38747-2.1574-1.0434-4.0558zm8.3283 7.1274c3.7689 0.09026 7.4653-2.2349 8.3749-8.223 0.0718-0.47302 0.0544-0.02234 0.0586 0.01367 0.10665 0.91332 0.28773 3.9525 0.0664 5.3828-0.16563 1.0704-1.1875 3.1958-1.8828 3.9434-0.53539 0.57558 0.06878 0.435 0.11914 0.43945 2.4059 0.21248 1.7012 1.0435 4.7637 1.1582 1.3726 0.0514 3.7575-2.6324 3.4609-3.8027-0.23503-0.92746-4.096 1.0199-4.7383-0.80664-0.53145-1.5114-0.2822-2.6092-0.29687-3.582-0.0134-0.88945-0.0529-2.6407-0.0742-3.207-0.008-0.21722 0.0668-0.22931 0.13281-0.27148 1.3047-0.83368 3.5489-1.7482 4.9316-3.2891 0.34964-0.38962 0.20177 0.0533 0.2168 0.1582 0.14619 1.0201 0.32655 3.9765 1.0117 5.5625 1.0056 2.3275 2.1434 4.2349 4.3691 5.4492 1.5682 0.85556 2.4342 1.3776 4.7871 1.0723 1.1903-0.15447 2.5101-2.5327 2.4136-3.5884-0.0204-0.22291-0.10392-0.38685-0.26516-0.45845-0.44201-0.19627-2.703 0.87688-4 0.30859-1.5291-0.67-2.6675-2.0662-3.6914-3.3848-1.1363-1.4632-2.8342-6.3824-1.7852-7.2734 1.4829-1.2596 2.9106-4.2945 3.0156-5.5645 0.0261-0.31572 0.15965-0.18883 0.24804-0.17969 0.99396 0.10277 5.0102 0.78919 6.7285 0.57227 0.31264-0.03947 0.5053 0.14053 0.63672 0.45703 0.40475 0.97477 0.22328 3.1306 0.23502 4.8201 0.0242 3.4878 0.28784 10.326 0.36459 11.295 0.0848 1.0713-0.54837 1.6151-1.4062 2.3516-0.35392 0.30383-0.0117 0.29055 0.0488 0.31641 0.6206 0.26538 2.36 0.72333 3.7051 0.5625 1.3038-0.15591 1.9302-0.90652 2.793-1.8965 0.615-0.70569 1.0868-1.7088 1.1808-2.1454 0.045-0.20868 0.004-0.28799-0.14955-0.14365-0.61737 0.58176-2.016 1.636-4.123 1.3203-0.6765-0.10135-0.63511 0.01194-0.73046-0.9668-0.0984-1.0101-0.13666-3.2884-0.25-4.6641-0.0539-0.6541-0.21656-4.7803 0.0572-7.9494 0.10316-1.194 0.26899-2.2967 0.29626-2.9373 0.0171-0.40181 0.31899-0.4901 0.49414-0.56641 0.54322-0.23666 1.6991-0.25247 2.6797-0.36914 1.3577-0.16154 1.7914-0.1057 3.6504-0.54492 0.46937-0.1109 1.5336-2.2048 2.0801-3.0918 0.38161-0.61932-2.9685 0.28646-6.209 0.33203-3.1933 0.04491-4.0224 0.50196-8.6113-0.4375-1.1942-0.24448-1.4187-0.04642-2.2402 1.1289-0.26042 0.37256-0.85682 0.82096-1.2734 1.2266-0.232 0.22586-0.2535 0.01045-0.27343-0.04102-1.1158-2.8814-2.7011-3.5923-4.7969-4.25-3.4541-1.0839-5.5208-0.63081-6.9453-0.67578-1.2412-0.03918-2.0528 3.7923-3.1328 5.2949-0.11398 0.15859 0.13067 0.223 0.22557 0.23902 0.48191 0.08133 1.045-0.2411 1.5889-0.27808 0.1159-0.0079 0.085 0.02766 0.0879 0.09375l0.42773 9.752c0.0107 0.24302 0.0385 0.48292-0.0352 0.02148-1.0465-6.5504-3.8925-12.617-10.201-12.423-4.7124 0.14484-5.9108 5.6268-5.724 10.252 0.22816 5.6482 2.7129 13.371 7.5855 13.487zm-33.349-30.225c0.03304 0.0071 0.06491 0.06935 0.08008 0.11524 0.88252 2.6686 5.2481 23.262 6.0823 26.1 0.15329 0.52148-0.42957 0.58185-0.5234 0.59157-0.82681 0.08568-3.0554 0.12216-4.5283 0.04786-4.5176-0.2279-4.0491-0.06879-3.64-3.8913 0.20786-1.942 1.1015-7.705 1.2617-9.6504 0.18234-2.2144 0.87519-9.813 1.1836-13.094 0.01671-0.17778 0.05094-0.22584 0.08398-0.21875zm46.07 8.5254c1.8935-0.05331 3.7047 0.54936 3.8164 2.6895 0.18258 3.4982-4.2919 8.0617-6.8379 8.6367-0.14477 0.0327-0.11764-0.03835-0.12695-0.12109-0.43481-3.8656-0.18615-8.8388-0.0156-10.822 0.0132-0.1538 0.0819-0.14379 0.14062-0.15039 0.80677-0.14572 1.4997-0.18953 3.0234-0.23242zm-15.207 0.54688c6.4095-0.4878 9.1066 7.2489 9.3243 11.985 0.25997 5.6581-5.1741 5.7404-6.1055 5.7236-3.3405-0.06022-6.3717-5.7374-6.3066-10.812 0.061-4.7579 0.32442-6.6862 3.0879-6.8965z" style="color-rendering:auto;color:#000000;isolation:auto;mix-blend-mode:normal;shape-rendering:auto;solid-color:#000000;image-rendering:auto;enable-background:accumulate"/>
  <path d="m148.74 23.896c-0.13437-0.02729-0.2581 0.01919-0.35937 0.17383-1.2752 1.9472-2.3583 2.9477-3.1914 5.0938-1.0568 2.7223-1.779 8.1594-1.748 9.6895 0.006 0.30898-0.0512 0.40926-0.3164 0.60742-2.3381 1.7472-4.7909 2.3568-7.2695 2.9258-0.30222 0.06938-0.2874-0.15113-0.29102-0.26758-0.041-1.3191 0.27208-6.6075 0.39648-8.6484 0.0759-1.2451 0.75152-2.475 0.61524-3.6328-0.0276-0.23449-0.18502-0.1875-0.42383 0.01172-0.42125 0.35141-1.0968 1.1771-1.7676 1.7715-0.64246 0.56934-1.2751 1.0101-1.6348 1.4062-0.3149 0.34684-0.42068 0.65932-0.13868 0.99609 0.54069 0.6457 1.4357 1.814 1.2383 4.0586l-0.36329 4.1309c-0.0261 0.29647-0.0988 0.53502-0.21875 0.55664-1.0475 0.18878-1.1294 0.08795-1.6582 0.38672-0.81227 0.45894-0.64957 2.3673 0.0801 2.2598l1.4844-0.21875c0.30677-0.04521 0.38672 0.11469 0.39649 0.26172 0.14408 2.1688-0.0812 4.0862-0.13291 6.3418-0.0104 0.4542-0.24328 1.356-0.4335 1.8281-0.15037 0.37325-0.40629 0.80564-0.82812 1.3828-0.462 0.63213-0.14798 0.59445 0.10156 0.77734 1.3404 0.98236 2.4973 0.91315 3.623 0.81055 0.52779-0.0481 3.5283-1.9669 3.7012-4.0469 0.057-0.68561-2.0136 1.3045-4.0137 0.83398-0.47517-0.1118-0.40891-0.52416-0.42424-0.71516-0.0767-0.95548-0.004-3.0629-0.007-4.0309-0.004-1.0761 0.0415-2.3407 0.0957-3.0039 0.0493-0.60274 0.45084-0.88025 0.55273-0.91016 2.4132-0.70837 5.0178-1.2993 7.0821-2.6146 0.23279-0.14832 0.29477 0.057 0.29297 0.24609l-0.0586 6.1641c-0.0193 2.0338 0.0172 6.1756 0.70508 7.293 0.18408 0.29901 0.75997 0.06464 0.95329-0.25184 1.1488-1.8806 2.1227-3.9278 3.1717-4.9605 0.57256-0.5636-0.30661-1.0087-0.53881-1.1515-0.49932-0.307-1.1614-0.47423-1.255-1.2168-0.3552-2.8185-0.14183-4.7483-0.23753-7.3752-0.1048-2.8765 0.47119-7.6518 0.82159-9.6982 0.3911-2.2841 2.0176-3.0733 3.1055-4.2617 0.67889-0.74166 0.21777-1.3657-0.10156-2.1211-0.21593-0.51081-0.60205-0.79998-1.0052-0.88186z" style="color-rendering:auto;color:#000000;isolation:auto;mix-blend-mode:normal;shape-rendering:auto;solid-color:#000000;image-rendering:auto;enable-background:accumulate"/>
  <path d="m167.89 26.142c-1.424 1.1102-2.324 2.2813-2.9194 3.3394-1.1714 2.0821-1.1629 3.7266-1.6446 3.6078-1.1301-0.27878-2.1563-2.3994-4.1807-2.3994s-3.4046 0.5521-3.2206 2.5765c0.18404 2.0244 1.6962 3.6876 4.8248 6.0801 3.1286 2.3924 4.4168 4.6008 4.5088 8.0975 0.092 3.4966-2.4845 7.0853-5.153 8.4656s-8.141 1.3588-10.286 3.7297c-0.93455 1.033-1.822 1.2113-2.0718 0.93178-0.17873-0.20004 0.81993-1.2081 1.7351-2.7509 1.0627-1.7915 1.0827-2.2109 0.95353-3.2569-0.15787-1.2785 0.64412-1.1962 2.3004-1.2882 1.6563-0.09202 5.9536-1.31 7.702-2.5062 1.7483-1.1962 3.2397-2.7379-0.0729-5.8665s-6.7892-7.7003-6.8943-10.736c-0.11989-3.4603 2.2049-6.9446 4.7168-6.652 3.711 0.43228 4.3028 0.24626 6.5645-0.40241 1.178-0.33785 2.422-0.85633 2.9271-1.0149 0.27963-0.08781 0.34939-0.0629 0.21018 0.04563z" style="color-rendering:auto;color:#000000;isolation:auto;mix-blend-mode:normal;shape-rendering:auto;solid-color:#000000;image-rendering:auto;enable-background:accumulate"/>
  <path d="m150.96 15.285c-0.0337 0.01312-0.0503 0.07583-0.0879 0.13086-0.48566 0.71034-2.27 3.4189-3.3516 3.9121-0.21273 0.097-0.12841 0.24218-0.0644 0.31445 2.9771 3.3641 4.5228 3.7964 4.9043 8.6289 0.39038 4.945 1.0003 3.0377 1.5859-0.3457 0.58559-3.3834 0.16043-5.3999-0.49023-7.9375-0.53089-2.0705-1.8432-3.9228-2.3047-4.5371-0.10732-0.14287-0.15773-0.17914-0.19141-0.16602z" style="color-rendering:auto;color:#000000;isolation:auto;mix-blend-mode:normal;shape-rendering:auto;solid-color:#000000;image-rendering:auto;enable-background:accumulate"/>
  <path d="m198.46 30.588c-1.6256 0.02317-3.4992 0.26139-4.5721 1.642-2.4169 3.11-2.4192 6.7075-2.3057 10.645 0.0935 3.2427 0.66573 7.2598 2.5467 9.6616 1.2304 1.571 3.1515 2.7888 5.2215 2.9609 1.8396 0.15296 4.2491-0.62114 5.2366-1.7686 1.6653-1.9351 3.0125-3.861 3.4922-9.8008 0.25167-3.1164 0.13714-6.9181-1.8379-9.3418-2.1732-2.6669-4.8984-4.0391-7.7812-3.998zm-1.825 2.681c2.7565-0.71062 10.591 4.8857 9.7021 11.824-0.80814 6.3107-4.4792 5.9536-5.2637 5.9688-4.5759 0.08864-6.662-4.8855-7.0985-10.075-0.32359-3.8473 0.0292-7.0392 2.66-7.7175z" style="color-rendering:auto;color:#000000;isolation:auto;mix-blend-mode:normal;shape-rendering:auto;solid-color:#000000;image-rendering:auto;enable-background:accumulate"/>
  <path d="m228.46 29.237c-0.31249 2.8007-1.0946 10.024-1.3414 14.065-0.12309 2.0153-0.0579 5.5857-0.19497 7.1429-0.0827 0.94004 0.00008 0.91182 0.42925 1.1719 0.53335 0.32322 1.6437 0.24401 2.2515 0.25855 2.8247 0.06757 8.3197-1.6234 8.3197-1.6234s-1.2852 2.7197-2.435 3.6018c-1.973 1.5136-3.9637 1.6621-6.4138 2.0872-1.0241 0.1777-2.4512-0.07319-3.3918-0.03939-0.92605 0.03328-0.67987-0.21727-0.5578-0.85582 0.3154-1.6499 0.97027-5.3487 1.0363-7.6352 0.089-3.0819-0.50923-7.066-1.0871-10.095-0.39688-2.0801-1.7664-4.2621-1.9241-4.4284-0.0659-0.06946-0.64784-0.80771-0.1364-0.97234 1.9614-0.63138 3.3522-1.8415 4.71-3.0849 0.99405-0.91035 0.84657-0.58739 0.73564 0.40683z" style="color-rendering:auto;color:#000000;isolation:auto;mix-blend-mode:normal;shape-rendering:auto;solid-color:#000000;image-rendering:auto;enable-background:accumulate"/>
  <path d="m252.84 28.742c1.7899 0.24465 4.7367-0.4232 6.4789-1.2965 0.98354-0.493 0.95658-0.50756 1.0805 0.42923 0.36978 2.7959 1.8981 7.595 2.6624 9.1236 0.68803 1.3761 2.3931 6.0413 3.0954 7.1508 0.178 0.2812 0.23414 0.38014 0.25653 0.20966 0.15562-1.185 2.1751-7.5036 2.3061-9.3444 0.0142-0.19944 0.008-0.35239-0.0279-0.44801-0.31725-0.84615-0.92603-2.5503-2.0595-3.2724-0.74592-0.47518-0.32744-0.66126-0.26806-0.69774 1.6709-1.0266 3.1308-1.3892 4.416-2.7619 0.64652-0.69055 0.63891-0.7954 0.96365 0.01633 2.0046 4.0733 3.697 8.6247 5.9223 12.667 0.41769 0.70541 0.98276 2.3109 1.415 1.371 1.2151-2.6424 2.9206-10.074 2.0686-14.22-0.19889-0.96772 0.0403-0.77558 0.79162-0.72537 3.4469 0.23031 5.8672 0.24549 7.1457-0.10417 2.1514-0.58841 2.5264 0.32825-0.64692 1.6118-2.9201 1.1812-3.9166 3.1523-5.1439 6.1663-1.4614 3.589-2.0514 9.4135-2.0375 13.141 0.002 0.56179 0.19065 1.7559 0.64091 2.4982 0.28502 0.46989 0.68563 0.4574 1.1107 0.43911 0.5173-0.02226 0.0155-0.01333 0.75466-0.02463 0.45218-0.0069 0.60168 0.13362 0.60467 0.28959 0.003 0.13693-0.0485 0.28933-0.91234 0.31547-1.2352 0.03739-1.8972 0.22546-4.8467 3.4147-0.55847 0.60386-0.96275 1.4552-1.2989 0.38726-1.0418-3.3098-1.9395-5.895-3.4524-9.2686-1.4339-3.1974-2.6731-6.0209-3.9158-8.6895-0.29431-0.63202-0.36716-0.28716-0.44392-0.08982-1.1105 2.855-1.8488 5.393-2.2444 8.0574-0.0942 0.63424-0.21083 0.75958-0.071 1.3527 0.40115 1.7016 0.80416 2.9213 1.6569 4.4734 0.55175 1.0043 1.0251 1.2224 0.29606 2.052-1.2108 1.3777-2.1039 1.9306-2.9859 2.4416-0.911 0.52783-0.81761-0.18523-1.096-0.89643-2.0888-5.3362-2.6041-7.1416-3.8833-9.8903-1.3593-2.9208-3.9308-9.4094-6.1121-12.047-2.1814-2.638-3.7414-4.0393-2.2201-3.8314z" style="color-rendering:auto;color:#000000;isolation:auto;mix-blend-mode:normal;shape-rendering:auto;solid-color:#000000;image-rendering:auto;enable-background:accumulate"/>
  <path d="m48.187 24.357c0.50759-0.32137 2.2376-1.4685 3.0609-2.8472 0.17962-0.3008 0.2299-0.10974 0.32004-0.000231 2.4817 3.0149 5.5026 6.566 3.796 11.609-0.10854 0.32076-0.13698 0.07679-0.1596-0.01947-0.63366-2.6965-1.5827-5.8381-7.029-8.5865-0.22915-0.11564-0.03706-0.1252 0.01163-0.15602z" style="color-rendering:auto;color:#000000;isolation:auto;mix-blend-mode:normal;shape-rendering:auto;solid-color:#000000;image-rendering:auto;enable-background:accumulate"/>
 </g>
</svg>
