<?xml version="1.0" encoding="UTF-8" standalone="no"?>
<svg xmlns:rdf="http://www.w3.org/1999/02/22-rdf-syntax-ns#" xmlns="http://www.w3.org/2000/svg" height="135.65mm" width="129.15mm" version="1.1" xmlns:cc="http://creativecommons.org/ns#" xmlns:dc="http://purl.org/dc/elements/1.1/" viewBox="0 0 457.63177 480.64315">
 <defs>
  <filter id="b" style="color-interpolation-filters:sRGB" height="1.0394" width="1.4189" y="-.019692" x="-.20945">
   <feGaussianBlur stdDeviation="0.64160242"/>
  </filter>
  <filter id="c" style="color-interpolation-filters:sRGB" height="1.03" width="1.02" y="-.015" x="-.01">
   <feGaussianBlur stdDeviation="0.67470345"/>
  </filter>
  <filter id="a" style="color-interpolation-filters:sRGB" height="1.0481" width="1.0479" y="-.024051" x="-.02395">
   <feGaussianBlur stdDeviation="1.2184529"/>
  </filter>
  <radialGradient id="w" gradientUnits="userSpaceOnUse" cy="472.32" cx="-560.96" gradientTransform="matrix(1.3073 .018835 -.020316 1.4101 200.08 -182.07)" r="63.975">
   <stop stop-color="#b3b3b3" offset="0"/>
   <stop stop-color="#a7a7a7" stop-opacity=".42857" offset="1"/>
  </radialGradient>
  <radialGradient id="x" gradientUnits="userSpaceOnUse" cy="453.72" cx="-475.1" gradientTransform="matrix(.64834 -.00021613 .00017462 .52382 -119.07 211.77)" r="63.975">
   <stop stop-color="#fff" offset="0"/>
   <stop stop-color="#a3a3a3" stop-opacity=".61569" offset="1"/>
  </radialGradient>
  <radialGradient id="y" gradientUnits="userSpaceOnUse" cy="473.51" cx="-621.39" gradientTransform="matrix(2.4602 -1.334e-7 7.4598e-8 1.78 1118.8 -378.26)" r="63.975">
   <stop stop-color="#b3b3b3" offset="0"/>
   <stop stop-color="#c1c1c1" stop-opacity=".42745" offset="1"/>
  </radialGradient>
  <clipPath id="o" clipPathUnits="userSpaceOnUse">
   <path filter="url(#a)" style="color-rendering:auto;color:#000000;isolation:auto;mix-blend-mode:normal;shape-rendering:auto;solid-color:#000000;image-rendering:auto" d="m-400.04 478.18c-6.9903-2.3698-15.004-6.0818-25.963-11.002-34.044-20.242-34.043-34.044-34.043-69.928s17.481-35.885 36.803-36.805c19.322-0.9201 50.146-1.3802 74.988 0 24.843 1.3802 29.443 18.402 32.203 29.443 2.7603 11.041 0.00054 38.183-2.7598 56.125s-14.262 31.745-24.383 33.125c-10.121 1.3802-21.621 0.4597-35.883 1.8398-0.7107 0.0688-1.4055 0.10952-2.0976 0.14648z" transform="matrix(1.1255 0 0 1.1486 -141.63 -46.854)"/>
  </clipPath>
  <filter id="s" style="color-interpolation-filters:sRGB" height="1.1124" width="1.053" y="-.056195" x="-.026483">
   <feGaussianBlur stdDeviation="0.32022307"/>
  </filter>
  <filter id="t" style="color-interpolation-filters:sRGB" height="1.029" width="1.0205" y="-.014484" x="-.010243">
   <feGaussianBlur stdDeviation="0.69494455"/>
  </filter>
  <filter id="u" style="color-interpolation-filters:sRGB" height="1.072" width="1.072" y="-.036009" x="-.03598">
   <feGaussianBlur stdDeviation="4.8027299"/>
  </filter>
  <filter id="v" style="color-interpolation-filters:sRGB" height="1.0864" width="1.0332" y="-.043213" x="-.016614">
   <feGaussianBlur stdDeviation="2.802663"/>
  </filter>
  <clipPath id="p" clipPathUnits="userSpaceOnUse">
   <path filter="url(#a)" style="color-rendering:auto;color:#000000;isolation:auto;mix-blend-mode:normal;shape-rendering:auto;solid-color:#000000;image-rendering:auto" d="m-535.27 366.93c6.9242-0.0687 15.6 1.9445 14.936 9.25-0.70841 7.7926-3.8958 74.954-4.25 94.436-0.35421 19.481-19.482 20.189-30.816 22.668-11.335 2.4794-65.173 3.8972-74.383 3.543-9.2094-0.35421-7.7933-4.96-10.627-18.42s-2.0287-69.734-1.2773-77.248c0.75139-7.5139-2.0048-15.528 13.273-20.537 15.278-5.0092 47.587-10.519 57.355-11.771 14.45-1.3086 27.348-1.5266 34.432-1.8809 0.44276-0.0221 0.8958-0.0345 1.3574-0.0391z" transform="matrix(1.4345 0 0 1.2687 248.64 -110.29)"/>
  </clipPath>
  <filter id="q" style="color-interpolation-filters:sRGB" height="1.1041" width="1.0312" y="-.052066" x="-.015593">
   <feGaussianBlur stdDeviation="1.9468362"/>
  </filter>
  <filter id="r" style="color-interpolation-filters:sRGB" height="1.0947" width="1.0581" y="-.047354" x="-.029037">
   <feGaussianBlur stdDeviation="1.6809433"/>
  </filter>
 </defs>
 <g fill="#050406" transform="translate(694.05 -293.42)" fill-rule="evenodd">
  <path d="m-640.69 382.31 44.768-14.311 74.491 0.7339-3.6695 101.28-15.045 15.045-102.75-2.9356z"/>
  <path style="color-rendering:auto;color:#000000;isolation:auto;mix-blend-mode:normal;shape-rendering:auto;solid-color:#000000;image-rendering:auto" d="m-441.81 457.9 27.521 15.045 17.614 3.3026 62.748-3.6695 5.5042-9.1738 3.3026-43.3-5.1373-41.832-49.905-2.5686-64.216 0.36695z"/>
 </g>
 <g stroke-linejoin="round" transform="translate(694.05 -293.42)" stroke="#000" stroke-linecap="round" stroke-width="2" display="none" fill="none">
  <path style="color-rendering:auto;color:#000000;isolation:auto;mix-blend-mode:normal;shape-rendering:auto;solid-color:#000000;image-rendering:auto" d="m-483.33 432.25c8.5243 0 22.038 12.047 32.602 30.009 3.9559 6.7261 6.8487 18.477 12.714 27.287 2.0386 3.0624 7.8365 8.6064 9.4035 10.736 13.612 18.499-11.741 24.746-15.152 24.746-3.4109 0-16.031 5.7986-26.605 5.4575s-18.76-2.7288-31.722-4.4342c-12.962-1.7055-20.125-8.8684-19.101-17.055 1.0233-8.1862-0.68219-14.326 6.4808-25.241s14.667-21.489 18.76-31.722c4.0931-10.233 5.7986-19.442 12.62-19.783z" display="inline"/>
  <path style="color-rendering:auto;color:#000000;isolation:auto;mix-blend-mode:normal;shape-rendering:auto;solid-color:#000000;image-rendering:auto" d="m-461.5 515.82c5.7986-5.4575 9.2095-8.5273 15.349-8.1862 6.1397 0.34109 12.962 4.7753 12.962 8.5273s-5.7986 1.7055-10.915 1.7055-18.078 3.4109-17.396-2.0466z" display="inline"/>
  <path style="color-rendering:auto;color:#000000;isolation:auto;mix-blend-mode:normal;shape-rendering:auto;solid-color:#000000;image-rendering:auto" d="m-510.96 518.55c3.752-5.1164 6.1397-8.1862 11.938-8.5273 5.7986-0.34109 14.667 6.1397 13.303 7.8452-1.3644 1.7055-6.4808 0.34109-10.574 0.34109-4.0931 0-14.326 4.4342-14.667 0.34109z" display="inline"/>
  <path d="m-462.92 576.06c6.0428-0.43164 13.38-5.6112 21.15-5.6112 7.7693 0 18.893 9.1969 31.151 15.688 3.9381 2.0854 9.0568 4.9094 10.235 8.6454-2.1793 3.171-6.197 4.8359-10.096 6.3786-6.8426 2.7076-13.383 5.2784-17.893 5.7794-8.074 0.89712-21.531 0.44856-30.502 2.2428-8.9712 1.7942-11.214 4.037-22.876 4.037s-48.444-3.5885-49.79-10.317c-1.3457-6.7284 21.402-12.932 27.234-16.969 5.8312-4.037 14.124-10.816 20.852-11.713 6.7284-0.89711 18.809 1.8384 20.535 1.8384z" display="inline"/>
  <path d="m-432.41 588.55c-4.037-0.89711-10.317-4.9341-14.802-4.037-4.4856 0.89712-12.111 2.6914-17.045 2.6914-4.9341 0-12.111-1.3457-17.494 0-5.3827 1.3457-15.251 7.1769-18.839 8.074 18.391 2.2428 60.555 0.89712 71.687-5.4279-1.4761-0.83093-2.6365-1.1073-3.5058-1.3005z" display="inline"/>
  <path d="m-426.92 510.62c-10.15-7.6123-18.396-19.665-26.643-19.665-8.2466 0-12.053 7.6123-12.053 23.471s-3.1718 14.59-3.1718 14.59" display="inline"/>
  <path d="m-518.9 512.53c7.6123-3.8061 21.568-20.299 32.352-20.299s14.59 13.956 14.59 20.934c0 6.9779-2.5374 16.493-2.5374 16.493" display="inline"/>
  <path d="m-484.01 433.23c8.881 12.053 19.031 34.89 17.128 58.995-1.9031 24.106-1.2687 6.9779-1.2687 6.9779" display="inline"/>
 </g>
 <g transform="translate(694.05 -293.42)">
  <rect style="color-rendering:auto;color:#000000;isolation:auto;mix-blend-mode:normal;shape-rendering:auto;solid-color:#000000;image-rendering:auto" height="480.64" width="453.98" y="293.42" x="-690.4"/>
  <g transform="translate(440 -320)">
   <path style="color-rendering:auto;color:#000000;isolation:auto;mix-blend-mode:normal;shape-rendering:auto;solid-color:#000000;image-rendering:auto" d="m-942.42 827.55c-1.8963-0.21689-3.6435 1.196-5.334 2.082-0.14954 0.0784-0.29647 0.16803-0.41992 0.2832-2.5424 2.3718-3.1564 7.018-6.418 8.2227-0.15642 0.0578-0.40468-0.24273-0.49023-0.0996-0.38709 0.6476 0.76091 1.427 1.4473 1.7402 0.80328 0.36665 1.7997 0.18883 2.6484-0.0547 1.3039-0.37412 2.4764-1.1892 3.4941-2.0859 1.4861-1.3094 2.0978-3.4655 3.6641-4.6777 1.6366-1.2666 5.4962-0.42021 5.6914-2.4805 0.16313-1.7221-2.5646-2.7331-4.2832-2.9297zm23.807-66.071c0.24687 12.241 5.2426 23.593 9.085 34.966 4.3355 12.832 2.5334 17.088-4.8608 20.347-5.3334 2.3504-16.452 5.041-15.049 14.798 0.49865 3.4662 3.137 12.847 4.5787 18.198 0.90661 3.365 6.4374 5.2591 7.5243 7.1616 2.2458 3.9311 1.492 5.0351 1.755 8.0963 0.68733 8.001-3.4142 6.3041-3.8566 9.9729-0.24916 2.0666 3.2504 7.5009 1.6466 10.889-3.0324 6.4064-14.37 12.009-19.936 18.668 8.4407-3.6816 13.838 1.0754 20.536 0.93265 6.1313-0.13071 12.17 1.9353 18.299 1.7088 5.0193-0.18553 11.038-2.1173 16.056-1.8912 5.3537 0.2412 9.0432 1.4008 14.082 3.2274 9.7376 3.5304 7.5177 2.8731 15.882 4.0074-1.0845 0.70662-1.9916 1.2593-3.5969 1.6766-3.3301 0.86546-6.9173 2.6816-10.06 4.0829-4.1489 1.8501-8.9229 2.8123-14.622 3.1698-1.7875 0.11213-9.4448 2.8754-14.11 4.71-4.2384 1.6667-13.863 3.5592-17.063 11.367-1.4731 3.5939-1.9307 8.917-9.4986 14.543 2.1985 1.2498 13.054 3.5049 17.912 3.1999 8.1618-0.51235 11.122 1.9151 21.36 1.4495 3.7599-0.17106 18.371 0.51158 17.441 12.404-0.28749 3.6788-3.515 9.4977-9.0138 12.039-3.0824 1.4244-10.388 3.3336-11.863 6.3307-1.7936 3.6434-1.0762 6.5359-3.3613 8.5959-7.2213 6.51-19.942 2.4949-28.117 7.7586-7.3053 4.704-8.5015 16.268-16.71 20.006-4.4928 1.289-14.949 1.0463-28.676 0.7418-5.4646-0.3041 1.4057 11.897 10.257 18.61 7.7921 5.9099 21.886 9.6892 31.58 10.98 20.477 2.7274 56.205 8.156 79.642 0.8918l54.347-35.419c3.4066-5.8257 1.7942-13.471 1.3164-20.203-0.85493-12.046-9.106-23.497-7.4379-35.457 1.7819-12.777 11.631-23.043 18.006-34.258 5.1138-8.9958 9.2242-18.389 16.223-26.467 3.0731-3.5466 9.8297-1.8141 13.085-5.194 4.4658-4.6361 1.8574-15.708 5.7245-19.143 9.7035-8.6194 10.032-26.364 15.757-38.154 4.9604-10.213 11.555-16.814 12.865-27.982 1.4151-12.072 4.2546-29.052-5.709-36.014-6.8486-4.7848-16.716 2.0488-24.594 4.8301-9.0898 3.2091-16.426 10.477-25.586 13.478-13.468 4.4124-28.024 4.2497-42.049 6.2857-13.569 1.9699-24.84 7.3727-40.732 5.7376-6.7112-0.69053-15.142-4.0232-17.779-3.6704-7.8333 1.0481-2.7094 7.4067-5.6371 7.6456-1.5113 0.12329-4.2704-4.7041-4.9719-7.2736-0.59091-2.1644-3.3799-12.546-6.178-17.041-2.2206-3.5671-8.2377-8.7799-11.144-13.321-2.9514-4.612-11.906-13.007-15.125-14.24-4.6371-1.7762-7.7152-2.3092-7.6238 2.221z" fill="#2b2b2b"/>
   <path style="color-rendering:auto;color:#000000;isolation:auto;mix-blend-mode:normal;shape-rendering:auto;solid-color:#000000;image-rendering:auto" d="m-892.84 897.22c2.3537-2.5348 5.0531-5.7629 8.9408-6.0603 1.2553-0.096 3.2412 0.56863 4.5858 1.0655-1.6189 0.55825-3.6397 2.3262-5.917 3.3976-2.608 1.227-5.4998 1.725-7.6095 1.5971zm177.65-118.98c-0.98676 0.034-2.4827-0.0366-3.3711 0.20312-3.1056 0.83786-8.5344 2.1113-11.264 5.0742-2.0472 2.2225-4.7344 7.7491 2.0039 6.5117 2.0276-0.37235 5.7456-2.3076 7.0527-2.7148 4.1475-1.292 6.3521 0.79551 6.8379 7.9766 0.41917 6.1963-0.1406 12.817-0.5918 16.516-1.0789 8.8431-12.538 31.671-18.084 44.709-3.1372 7.3747-7.8343 14.026-10.889 21.436-0.82203 1.9941 1.7046 4.294 1.2988 6.582-0.28929 1.6312-3.3673 4.2733-4.8066 4.8144-4.971 1.869-6.9955-3.8718-7.041-7.3125-0.10551-7.9741 2.1403-10.84 4.8984-13.59 4.1034-4.0909 7.7041-8.7118 10.275-13.904 3.9691-8.0152 5.1616-13.964 7.0566-22.705 1.2359-5.7004 4.4105-14.19 7.7148-17.855 2.2823-2.532 4.643-6.3323 2.9922-11.203-1.6508-4.8708-4.2197-5.3958-7.2969-4.6406-4.2681 1.0475-5.3389 7.6398-9.4492 9.1953-11.211 4.2425-23.959-2.5471-35.918-1.7344-4.7219 0.32092-9.5319 0.92407-13.959 2.5976-17.117 6.4708-37.921 8.9818-44.441 26.08-3.8047 9.9772 4.9544 22.165 6.8906 32.666 2.4499 13.287 2.697 20.958-0.73405 25.103-2.5505 3.081-7.303 4.5073-11.327 2.9657-5.5466-2.1248-10.529-5.3843-20.1-6.0475-5.7004-0.39504-9.9978-0.51829-19.429 2.8653 5.1408 1.3662 14.817 6.8438 19.933 12.26 2.0585 2.1792 7.083 1.379 10.047 1.8281 6.3689 0.96524 11.632 3.83 15.238 5.9023 6.2123 3.5694 9.8965 8.3501 11.285 13.779 1.1314 4.4236 0.0273 8.8303-2.5195 9.8086-2.0981 0.80595-8.2262-5.1675-11.842-9.248-5.5417-6.2543-14.404-2.6568-16.414-1.6797-5.9557 2.8945-12.297 3.184-14.818 9.3066-2.7226 6.6118 3.8367 15.107 9.7715 19.096 8.2261 5.5282 26.991-2.381 29.625 2.543 3.958 7.398-5.388 16.517-11.258 22.512-8.1573 8.3312-13.701 10.413-22.457 15.838-6.6367 4.1118-20.354 15.339-17.799 22.592 2.2019 6.2507 7.1264 6.9785 10.316 7.873 3.7823 1.0605 9.77-0.7993 15.504-1.3906l36.203-15.381c-0.32982 4.2387-4.8179 15.684-8.6543 22.879-4.8662 9.1258-9.8782 16.217-17.979 25.285 5.7617 0.3097 25.817-10.145 31.002-13.387 9.5634-5.9787 19.362-13.405 24.588-22.725 8.2057-14.634-3.1948-34.011 0.71094-50.328 4.562-19.058 18.724-34.544 25.877-52.789 1.729-4.4101 0.65748-10.341 4.084-13.611 3.0446-2.9062 7.313-1.523 10.979-3.5918 3.5743-2.0173 4.8625-6.7605 4.9395-10.426 0.0541-2.5797-1.2414-3.8237-0.72852-5.2715 0.41921-1.1833 2.365-2.4558 2.8535-3.6113 2.0213-4.7809 4.5126-9.373 6.457-14.189 3.2103-7.952 5.6865-16.186 8.8457-24.158 2.4673-6.2265 6.3855-11.552 9.2773-17.689 1.8477-3.9215 1.9129-6.2984 2.8809-10.467 0.42757-1.8412 4.0156-6.998 4.1973-9.1934 0.57282-6.9206 2.1091-19.856-5.543-25.314-0.74913-0.53434-1.9371-0.67265-2.9238-0.63867zm-180.22 33.568c-2.3716 0.0696-4.1226 1.2764-5.9277 3.1152-2.3962 2.441-3.3605 4.4123-3.9414 7.7832-0.58814 3.4129 0.34102 6.8329 1.5762 10.068 1.4774 3.8701-5.6689 13.042-5.3828 15.086 0.329 2.3504 5.9895 2.6083 8.5488 0.68945 3.7209-2.7897 11.033-4.5336 20.896-4.8906 6.487-0.23478 10.715-2.2016 13.656-9.2148 2.0707-4.9372 1.4935-7.4086-4.1953-9.3066-2.8004-0.9343-8.5514-3.0403-10.279-4.8008-3.5302-3.5968-7.763-7.8517-13.895-8.4883-0.36613-0.038-0.71784-0.051-1.0566-0.041zm142.92 13.848c1.7628-0.22222 0.36776 7.4688 2.2832 7.5606 3.1046 0.14871 2.7081 0.46668 5.0938 2.459 2.843 2.3742 3.0577 5.5014 3.0098 9.2051-0.0562 4.3428-0.35239 10.549-2.8106 12.045-1.4682 0.89339-3.661-1.9018-6.0234-0.83007-2.8415 1.289-0.51644 6.01-3.6172 5.6621-3.7422-0.41987-1.297-11.565-0.27148-19.25 0.42031-3.1498 1.1263-5.0227 1.2676-7.4941 0.12452-2.1788-0.58073-9.1495 1.0684-9.3574zm-136.59 2.8438c4.8876 0.1622 10.037 2.8287 10.561 4.9277 0.47382 1.8983-1.3921 2.5889-3.1387 3.4707-3.1244 1.5773-7.7745 1.0218-11.205 0.32812-1.4689-0.297-2.1405-0.84458-3.3672-1.084-0.73186-0.1429-3.4208 2.0201-4.2949 1.7441-0.88569-0.2797 0.0342-3.5141 0.16016-3.9121 0.53671-1.6961 4.3992-3.669 6.0312-4.377 1.1105-0.4818 3.6198-1.1519 5.2539-1.0977zm-24.697 6.5684c-1.333-0.10444-1.9418 1.149-2.7754 1.8887-0.75393 0.66897-1.4683 1.5204-1.6973 2.502-0.17459 0.74837-0.0101 1.5875 0.31641 2.2832 0.2902 0.61861 0.78373 1.1815 1.3809 1.5137 1.335 0.74257 2.2831 0.432 2.5938-0.11133 0.31065-0.54333 3.8104-6.9181 0.80078-7.9414-0.22271-0.0757-0.42872-0.11985-0.61914-0.13477zm9.875 102.9c-0.48703 0.0164-1.0965 0.056-1.8555 0.11523-4.6176 0.36046-5.6708 2.1902-6.7188 6.6328-0.47746 2.0241-0.88578 3.7514-0.12891 3.7871 0.50834 0.024 1.7004-1.6129 2.0918-2.6445 0.94204-2.4832 3.2333-5.4326 5.9356-5.6543 2.7023-0.22172 2.7419-0.81237 2.5898-1.668-0.0817-0.45964-0.453-0.61765-1.9141-0.56836z" fill="#555"/>
   <path style="color-rendering:auto;color:#000000;isolation:auto;mix-blend-mode:normal;shape-rendering:auto;solid-color:#000000;image-rendering:auto" d="m-840.39 916.03c-2.4743 2.003-17.791 9.1901-23.329 10.015-5.5376 0.82476-16.848 3.5347-21.208 3.6525-4.3594 0.11782-9.0723-1.4139-13.196-1.6495 5.302-0.35347 10.368 1.0604 11.782 0.94257 1.4139-0.11782 19.087-3.299 22.033-3.7703 2.9456-0.47129 20.501-7.0693 23.918-9.1901zm37.104-32.076c1.7906 8.3564 2.9844 18.504 2.9844 23.279 0.5969-12.535-1.7907-19.697-2.9844-23.279zm52.127-43.318c1.6686 0.006 2.1279 0.6029 3.0947 1.5852 1.1522 1.1706 1.2893 3.3383 1.2633 4.7696-0.031 1.6782 0.3362 2.8523-0.2356 4.4801-1.5227 4.3351-3.0573 2.0343-5.5228 2.2825-3.3359 0.3358-2.6968-3.4777-2.1441-5.8355 0.6365-2.7156 0.3938-7.2932 3.5445-7.2818zm-152.91 13.815c2.1978 0.0199 4.9841 1.4586 8.2129 5.4004 7.9481 9.7028 6.503 22.81 5.4707 26.113-1.0322 3.3031-5.9871 8.5678-9.7031 8.3613-3.7159-0.20644-7.5828-0.0685-8.1543-3.6133-0.6544-4.0595 2.9958-5.6518 2.7992-11.75-0.2476-7.6829-3.5817-12.142-4.0375-18.906-0.1779-2.6407 2.2001-5.6345 5.4121-5.6055zm22.322 37.831c5.0998 0.15985 7.2151 0.5897 11.738 2.0758 1.7118 0.56244 5.794 3.4873 8.196 5.395 3.6973 2.9364 7.8667 6.4441 5.8337 5.6146-1.6089-0.65642-3.2053-2.8839-6.3992-5.3174-1.1366-0.86592-6.243-4.6021-8.2661-5.5588-4.112-1.9446-9.8408-2.4781-12.737-1.2296-7.364 3.174-14.279 7.7619-17.153 7.5904-1.9228-0.11477-5.288-0.66115-5.9498-1.5511 1.8343 0.27841 3.5196 0.43457 6.2219 0.39959 4.5153-0.0585 12.757-7.599 18.516-7.4185zm-34.467 4.9751c-0.1246-0.0383-4.8395-0.96329-6.7626-0.72932-2.4495 0.298-4.9401 1.432-6.9932 2.3173-1.843 0.7947-4.6956 2.7224-4.6956 2.7224s1.4582-1.885 2.4813-2.5915c1.5028-1.0378 3.1364-1.7582 5.1351-2.7152 1.0054-0.48138 2.5792-0.64441 3.8397-0.72584 2.7689-0.17889 6.9522 1.4957 7.0807 1.5284 0.3434 0.0874 0.173 0.27305-0.085 0.19379zm54.548-79.985c6.1344 7.9946 14.804 16.621 22.482 29.357 6.4281 10.662 11.395 24.845 16.912 37.366-3.3789-12.92-9.6459-25.861-16.447-37.033-8.2709-13.587-17.331-24.557-22.947-29.69zm-68.976 210.24c6.0096 1.4026 29.106 5.9787 40.016 4.9438 8.825-0.8371 29.468-6.4751 46.93-13.316 9.3909-3.6791 27.02-13.317 32.807-17.06 6.0436-3.9088 25.082-30.91 24.733-31.143-9.5695 15.003-13.804 26.284-24.797 33.323-7.7824 4.983-24.898 15.196-32.841 17.994-14.806 5.217-30.558 9.8119-44.742 12.61-12.325 2.4312-67.133-9.2086-83.396-16.056 0.321-4.8964 23.85 3.7983 41.289 8.7049zm43.287-245.38c11.481 2.9402 32.064 30.386 22.664 54.096 11.239-25.081-10.792-50.093-22.664-54.096zm-11.64 51.977c0.45891-1.5405 3.975-3.3149 5.4496-3.9546 1.0034-0.43529 2.6927-1.0353 3.7292-0.9911 3.1002 0.13219 6.3662 2.3059 6.6985 4.0167 0.30053 1.5472-0.88294 2.1098-1.9908 2.8285-1.9818 1.2856-4.9313 0.83281-7.1073 0.26747-0.93172-0.24206-1.9184-0.81196-3.0424-0.92049-2.3862-0.23039-4.2449 0.4595-3.7367-1.2464z"/>
  </g>
 </g>
 <g transform="translate(694.05 -293.42)">
  <path style="color-rendering:auto;color:#000000;isolation:auto;mix-blend-mode:normal;shape-rendering:auto;solid-color:#000000;image-rendering:auto" d="m-289.62 363.59c-22.939-14.52-123.36-20.344-188.24-15.063-64.171 5.2234-132.6 13.441-194.82 31.149-3.9531 1.125-14.395 11.013-11.008 23.434 3.3874 12.42 16.372 70.571 19.195 78.475 2.8228 7.9039 12.985 22.583 29.357 20.324 16.372-2.2583 60.409-9.5976 68.877-10.162 8.4685-0.56457 40.649-3.952 48.553-15.243 7.9039-11.291 16.937-29.357 21.454-40.084 4.5165-10.727 10.162-23.712 31.616 1.6937 21.454 25.405 54.198 37.261 66.619 40.649 12.42 3.3874 55.912 4.536 67.203 3.9715 11.291-0.56457 21.636-1.3405 26.78-2.1306 7.3516-1.1291 9.8968-0.14715 15.542-17.084 5.6457-16.937 9.033-40.084 8.4685-54.763-0.56457-14.679 1.9305-37.868-9.5976-45.165z"/>
  <path filter="url(#s)" style="color-rendering:auto;color:#000000;isolation:auto;mix-blend-mode:normal;shape-rendering:auto;solid-color:#000000;image-rendering:auto" d="m-291.76 472.57s0.41444 8.7031-4.1443 11.19c-4.5588 2.4866-9.1175 2.4866-13.676 2.4866-4.5588 0-9.1175-1.2433-9.1175-1.2433l-2.0722-5.8021z"/>
  <path style="color-rendering:auto;color:#000000;isolation:auto;mix-blend-mode:normal;shape-rendering:auto;solid-color:#000000;image-rendering:auto" d="m-289.62 363.59c-22.939-14.52-123.36-20.344-188.24-15.063-64.171 5.2234-132.6 13.441-194.82 31.149-3.9531 1.125-14.395 11.013-11.008 23.434 3.3874 12.42 16.372 70.571 19.195 78.475 2.8228 7.9039 12.985 22.583 29.357 20.324 16.372-2.2583 60.409-9.5976 68.877-10.162 8.4685-0.56457 40.649-3.952 48.553-15.243 7.9039-11.291 16.937-29.357 21.454-40.084 4.5165-10.727 10.162-23.712 31.616 1.6937 21.454 25.405 54.198 37.261 66.619 40.649 12.42 3.3874 55.912 4.536 67.203 3.9715 11.291-0.56457 21.636-1.3405 26.78-2.1306 7.3516-1.1291 9.8968-0.14715 15.542-17.084 5.6457-16.937 9.033-40.084 8.4685-54.763-0.56457-14.679 1.9305-37.868-9.5976-45.165z"/>
 </g>
 <g transform="translate(694.05 -293.42)">
  <path style="color-rendering:auto;color:#000000;isolation:auto;mix-blend-mode:normal;shape-rendering:auto;solid-color:#000000;image-rendering:auto" d="m-289.62 363.59c-15.315-7.1886-126.46-18.631-185.74-16.937-59.279 1.6937-147.13 21.869-175.02 27.664-11.658 2.4225-18.35 4.2298-22.302 5.3589s-14.395 11.013-11.008 23.434c3.3874 12.42 16.372 70.571 19.195 78.475 2.8228 7.9039 12.985 22.583 29.357 20.324 16.372-2.2583 60.409-9.5976 68.877-10.162 8.4685-0.56457 40.649-3.952 48.553-15.243 7.9039-11.291 16.937-29.357 21.454-40.084 4.5165-10.727 10.162-23.712 31.616 1.6937 21.454 25.405 54.198 37.261 66.619 40.649 12.42 3.3874 55.912 4.536 67.203 3.9715 11.291-0.56457 21.118-0.78065 26.213-1.8468 12.176-2.5482 10.464-0.43096 16.11-17.368 5.6457-16.937 7.8296-40.087 8.4685-54.763 0.63892-14.676 2.7528-39.368-9.5976-45.165z" filter="url(#a)" stroke="url(#y)" stroke-width=".5" fill="none"/>
 </g>
 <g transform="translate(694.05 -293.42)">
  <g stroke="#677dd1" fill="#344cac">
   <text font-size="117.03px" stroke-width=".60152" font-family="Impact" xml:space="preserve" style="word-spacing:0px;letter-spacing:0px;text-rendering:auto;color-rendering:auto;color:#000000;isolation:auto;mix-blend-mode:normal;shape-rendering:auto;solid-color:#000000;image-rendering:auto" transform="matrix(-.25458 -.0072019 0 .41078 -366.82 108.58)" filter="url(#q)" font-stretch="condensed" y="758.27472" x="-159.54326" line-height="80.00000119%"><tspan font-stretch="condensed" y="758.27472" x="-159.54326" font-family="Impact">PASSPORT</tspan></text>
   <text font-size="117.03px" stroke-width=".72006" font-family="Plakette-Serial" xml:space="preserve" style="word-spacing:0px;letter-spacing:0px;text-rendering:auto;color-rendering:auto;color:#000000;isolation:auto;mix-blend-mode:normal;shape-rendering:auto;solid-color:#000000;image-rendering:auto" transform="matrix(-.24068 -.0018453 0 .31627 -316.54 -74.364)" filter="url(#r)" y="1677.429" x="264.55157" font-weight="bold" line-height="80.00000119%"><tspan font-weight="normal" font-stretch="condensed" y="1677.429" x="264.55157" font-family="Impact">4AM</tspan></text>
   <text font-size="7.1968px" stroke-width=".5" font-family="&apos;Print Char 21&apos;" xml:space="preserve" style="word-spacing:0px;letter-spacing:0px" transform="matrix(-.65002 .0080481 0 .65002 -675.71 48.785)" filter="url(#t)" y="522.25952" x="-227.5562" font-weight="500" line-height="100%"><tspan y="522.25952" x="-227.5562">Passport by 4am   20160612</tspan><tspan y="529.45636" x="-227.5562"/><tspan y="536.6532" x="-227.5562"> #######################</tspan><tspan y="543.85004" x="-227.5562"/><tspan y="551.04688" x="-227.5562">Reading from S6,D1</tspan><tspan y="558.24371" x="-227.5562">Using disk&apos;s own RWTS</tspan><tspan y="565.44055" x="-227.5562">Writing to S5,D2</tspan><tspan y="572.63739" x="-227.5562">Switching to built-in RWTS</tspan><tspan y="579.83423" x="-227.5562">T00,S02,$49: 03 -&gt; 04</tspan><tspan y="587.03107" x="-227.5562">T00,S02,$5F: BB -&gt; B8</tspan><tspan y="594.22791" x="-227.5562">T00,S03,$91: AB -&gt; DE</tspan><tspan y="601.42474" x="-227.5562">T00,S03,$35: AB -&gt; DE</tspan><tspan y="608.62158" x="-227.5562">T00,S02,$9E: AB -&gt; DE</tspan><tspan y="615.81842" x="-227.5562">Crack complete.</tspan><tspan y="623.01526" x="-227.5562"/><tspan y="630.2121" x="-227.5562">Press any key to continue</tspan></text>
   <path style="color-rendering:auto;text-decoration-color:#000000;color:#000000;isolation:auto;mix-blend-mode:normal;shape-rendering:auto;solid-color:#000000;block-progression:tb;text-decoration-line:none;image-rendering:auto;white-space:normal;text-indent:0;text-transform:none;text-decoration-style:solid" d="m-673.92 368.82v130.9h175.55v-130.9h-175.55zm2 2h171.55v126.9h-171.55v-126.9z" clip-path="url(#p)" transform="matrix(.69709 -.0072995 0 .75393 -173.33 89.193)" filter="url(#c)"/>
   <path style="color-rendering:auto;text-decoration-color:#000000;color:#000000;isolation:auto;mix-blend-mode:normal;shape-rendering:auto;solid-color:#000000;block-progression:tb;text-decoration-line:none;image-rendering:auto;white-space:normal;text-indent:0;text-transform:none;text-decoration-style:solid" d="m-673.92 368.82v130.9h175.55v-130.9h-175.55zm2 2h171.55v126.9h-171.55v-126.9z" clip-path="url(#o)" transform="matrix(.83933 .022550 0 .76086 97.433 103.21)" filter="url(#c)"/>
  </g>
  <path d="m-104.14 596.16c119.56-14.39 181.75-149.69 114.32-248.69-76.76-112.71-249.86-84.17-286.73 47.27-30.343 108.19 60.944 214.84 172.41 201.42zm-65.389-33.367c-2.9827-1.2942-7.1895-4.9134-9.6605-8.3108l-1.7197-2.3645-2.6383 3.3781-2.6384 3.3782-4.4458-2.509c-2.4452-1.3798-5.7114-3.3829-7.2583-4.4511l-2.8125-1.9422 1.875-0.176c6.3826-0.5992 12.769-3.074 16.094-6.2357l1.7187-1.6346 1.7188 1.6441c7.9632 7.6174 25.395 7.5065 35.222-0.224l2.253-1.7725 1.3905 1.4801c6.9518 7.3999 26.237 7.435 34.849 0.064l2.5209-2.1578 1.4082 1.499c6.9634 7.4122 24.662 7.6746 34.529 0.512l2.9534-2.1438 2.3592 1.8774c3.7061 2.9493 8.5158 4.5422 15.076 4.9926l5.8414 0.4008-5.8414 3.8349c-3.2127 2.1091-7.0107 4.4219-8.4399 5.1395l-2.5986 1.3047-2.0889-2.3326c-1.1489-1.283-2.55-3.0333-3.1137-3.8895l-1.0247-1.557-1.4654 1.875c-11.005 14.081-28.789 14.422-36.137 0.6912-1.183-2.2104-1.3698-2.1324-4.447 1.8562-9.4321 12.226-26.39 11.563-34.366-1.3425l-1.2861-2.0809-3.2916 3.8754c-7.2169 8.4969-15.872 11.08-24.534 7.3218zm-49.878-77.987c1.7306-1.185 1.4363-2.6782-1.0041-5.0942-3.0266-2.9966-3.0481-3.1912-0.3016-2.7456 6.657 1.0803 10.554-7.6792 5.0278-11.3-7.4251-4.8651-16.016 6.7424-10.998 14.861 2.0838 3.3715 5.5905 5.4339 7.2766 4.2794zm27.017-12.772c1.3474-1.3474 0.80016-3.2725-1.4375-5.0579-2.8522-2.2758-2.7593-2.6841 0.5512-2.4208 6.1722 0.4912 9.422-6.539 4.8934-10.585-7.3059-6.5278-16.809 5.3978-11.386 14.288 2.0254 3.3205 5.8678 5.2866 7.379 3.7755zm62.518 47.261c-3.3451-1.0928-7.8418-4.8082-10.506-8.6813l-1.8299-2.6598 1.0514-5.085c1.3088-6.3292 0.7328-6.4962 8.3477 2.4194 3.5254 4.1275 6.5882 7.2916 6.8063 7.0313 0.2184-0.26 1.3259-4.8326 2.4619-10.161 1.1361-5.3281 2.2394-10.146 2.4518-10.707 0.288-0.76 2.215 1.0946 7.5738 7.289 3.9531 4.5696 7.2451 8.2518 7.3157 8.1828 0.072-0.072 1.1701-4.8959 2.4436-10.726 1.2734-5.8305 2.4895-10.806 2.7024-11.057 0.3072-0.3616 10.097 10.403 13.626 14.984 1.113 1.4449 1.1738 1.2913 3.259-8.2494 1.0416-4.7655 1.9932-8.764 2.1146-8.8854 0.1928-0.1928 9.6084 10.368 11.392 12.778 0.5024 0.6792 1.2358-1.6726 2.9968-9.6122 1.2823-5.7812 2.3954-10.575 2.4737-10.653 0.08-0.08 3.0393 3.2156 6.5802 7.3197 7.8297 9.0749 6.9651 9.1675 9.1017-0.9756 0.97752-4.6406 1.8433-8.4375 1.9239-8.4375 0.0808 0 2.6901 2.9374 5.7989 6.5274l5.6523 6.5274 0.9356-4.1836c0.5144-2.301 1.443-6.6446 2.0631-9.6523 1.3799-6.6927 0.6736-6.8217 7.7218 1.411 3.2394 3.7839 6.0737 6.6667 6.2984 6.4062 0.2248-0.2608 1.1897-4.1298 2.1441-8.5985 0.95448-4.4687 1.9349-8.4978 2.1786-8.9535 0.3024-0.5656 2.3126 1.3581 6.3294 6.0567 3.2374 3.7869 6.0364 6.9019 6.22 6.9223 0.1832 0.024 1.5729-5.6184 3.0874-12.53 2.5769-11.761 2.8563-12.608 4.3538-13.192 3.1765-1.2394 3.4754-1.5606 3.4354-3.6918-0.048-2.5683-11.72-42.923-13.486-46.628-5.8739-12.322-26.255-11.256-32.088 1.6782l-1.0701 2.373-3.7915-1.9547c-12.304-6.3435-26.392 2.1599-26.396 15.932l-0.00096 5.3871-16.564 5.3425-16.564 5.3424 34.375-34.021c18.906-18.712 38.12-37.584 42.697-41.939l8.3218-7.9181 1.5219 1.8343c37.636 45.364 39.074 117.65 3.3059 166.15-1.2358 1.6759-8.857-3.879-12.725-9.2749l-1.2534-1.7486-3.1216 3.7273c-10.235 12.221-26.014 11.782-34.102-0.94768l-1.6991-2.6741-2.2698 3.0922c-9.9461 13.549-25.972 13.298-35.5-0.5568l-1.0745-1.5625-1.6389 1.875c-9.1102 10.423-15.185 12.654-25.381 9.3236zm-31.52 0.52c0.3608-1.1866 3.5018-15.694 3.5018-16.174 0-0.1608 2.25 2.3003 5 5.4695 5.7842 6.6658 5.6421 6.2447 2.8302 8.3895-3.9249 2.9937-12.042 4.6518-11.332 2.3148zm-9.406-0.86528c-5.5774-2.6184-9.1427-7.6961-6.8899-9.8125l1.4524-1.3644 5.4226 6.2403c6.7637 7.7836 6.7646 8.1053 0.016 4.9366zm-0.016-12.919c-2.0897-2.619-1.5147-3.2761 4.3954-5.0229l4.2806-1.2651-0.3624 1.3641c-0.1992 0.7504-0.85 3.6964-1.4457 6.5471l-1.083 5.183-2.0684-2.3706c-1.1377-1.3038-2.81-3.2998-3.7162-4.4357zm16.027-7.1251c-0.5312-0.9228-0.016-1.243 3.8478-2.394 2.4538-0.7304 4.8896-1.493 5.4128-1.6938 0.74-0.284 0.8728-0.032 0.5976 1.144-0.1944 0.82992-0.84024 3.747-1.4351 6.4823l-1.0815 4.9734-3.3641-3.7234c-1.8502-2.0478-3.6402-4.2027-3.9777-4.7886zm21.476-2.0078-3.8618-4.5414 5.4112-1.6225c6.4996-1.9488 5.9231-2.5706 4.373 4.7164-1.534 7.2116-1.1091 7.1077-5.9224 1.4475zm19.842-5.9905c-2.5309-2.8478-3.5995-4.473-3.0597-4.6534 2.4704-0.82568 9.4626-2.8456 9.8505-2.8456 0.2488 0-0.128 2.6719-0.83704 5.9375-1.5386 7.0877-1.1361 6.9821-5.9538 1.5614zm67.21-65.267c2.6047-1.1338 4.7232-4.2609 5.0897-7.5128 1.1159-9.9003-12.217-14.241-17.175-5.5913-4.5308 7.9029 3.6522 16.775 12.086 13.104zm-6.9682-5.6407c-0.84368-0.84376-1.5341-2.1222-1.5341-2.841 0-0.7184 0.6904-1.9971 1.5341-2.8409 0.84376-0.84376 2.1222-1.5341 2.841-1.5341 0.7184 0 1.9971 0.6904 2.8409 1.5341 0.84376 0.84376 1.5341 2.1222 1.5341 2.8409 0 0.7192-0.6904 1.9972-1.5341 2.841-0.84376 0.84376-2.1222 1.5341-2.8409 1.5341-0.7192 0-1.9972-0.6904-2.841-1.5341zm39.821-5.2256c7.9802-7.4438-1.3462-20.252-10.741-14.751-8.5827 5.0257-5.137 17.126 4.879 17.133 2.9678 0.002 3.5666-0.2408 5.8619-2.3823zm-9.1486-3.8446c-2.3688-2.6174-0.5752-6.8957 2.8906-6.8957 2.1958 0 4.2782 1.9773 4.2782 4.0625 0 3.4887-4.8433 5.4029-7.1688 2.8332zm-228.53 74.001c-26.471-70.547 10.502-150.89 81.324-176.72 9.8378-3.5875 8.75-3.9561 8.75 2.9644v5.9796h-21.25v18.125h7.5v5.625h-7.5v67.5l37.344 0.008 37.344 0.008-20.938 20.544-20.937 20.544-13.009 4.2004c-7.1547 2.3102-13.081 4.1011-13.17 3.9798-0.0888-0.1216-0.6776-1.6103-1.3075-3.309-5.7297-15.444-34.076-12.892-34.076 3.0676 0 1.2302-0.5728 1.2066-3.1852-0.1304-13.105-6.7084-29.237 9.2716-22.596 22.383l1.7187 3.3934-6.25 4.2175c-7.533 5.0833-6.9024 5.2373-9.7618-2.3833zm155.08-2.8249-1.1986-1.6157 5.2816-1.5837c6.0453-1.8126 5.7809-2.1008 4.3028 4.6916-1.5006 6.8958-1.2932 6.7429-4.4047 3.2484-1.5304-1.7187-3.3219-3.8521-3.9811-4.7406zm19.129-1.4491c-4.4204-5.035-4.4441-4.9098 1.2422-6.562 5.8406-1.697 5.629-1.9418 4.2446 4.9072-1.3623 6.7393-1.094 6.6584-5.4869 1.6548zm15.81-8.6566c-0.97936-1.3088-1.0902-1.7926-0.4624-2.0186 9.6514-3.4753 10.079-3.2652 8.4194 4.1377l-1.2686 5.6602-2.7002-3.029c-1.4851-1.6659-3.2798-3.8036-3.9882-4.7503zm18.315-1.0493c-4.3553-4.9479-4.2731-5.3183 1.5797-7.1222 5.8228-1.7946 5.2734-2.499 3.694 4.7365-1.5712 7.1982-1.1894 7.0255-5.2737 2.3857zm15.704-6.713-3.219-3.6674 5.6207-1.6484 5.6207-1.6484-0.3608 1.349c-0.1984 0.7416-0.83208 3.7014-1.4076 6.5766-0.99328 4.9619-1.097 5.1636-2.0405 3.967-0.5464-0.6936-2.4426-2.9111-4.2131-4.9282zm17.86-4.1077-3.9075-4.5288 5.2582-1.6371c6.3465-1.976 5.937-2.295 4.6602 3.6296-1.8366 8.5232-1.1099 8.2166-6.011 2.5363zm-116.94-60.47c6.7897-4.1396 4.937-20.809-2.4919-22.421-7.4358-1.6133-10.514 1.7742-10.514 11.569 0 10.887 5.4672 15.448 13.006 10.852zm-6.7975-4.381c-2.912-1.5585-1.4341-13.103 1.6775-13.103 3.1621 0 3.3636 0.3896 3.3636 6.5044 0 7.0331-1.2274 8.6397-5.0411 6.5986zm5.0452-21.152c16.006-5.2247 13.21-27.832-3.4416-27.832-14.863 0-19.598 19.792-6.3635 26.598 2.7098 1.3934 7.4782 1.9937 9.8051 1.2341zm-8.7286-6.7128c-6.7796-5.7046-3.525-15.863 5.0822-15.863 9.011 0 12.47 9.9913 5.4918 15.863-2.7772 2.3368-7.7969 2.3368-10.574 0zm44.031-50.238h-14.057v-16.25h1.4806c17.939 0 72.286 24.394 72.859 32.703 0.016 0.2832-10.3 10.723-22.933 23.199l-22.969 22.684-0.1616-31.168-0.1624-31.168zm-37.554 19.935c-1.1125-1.2286-1.1906-2.4894-1.1906-19.219v-17.904l2.9688-0.1904 2.9687-0.1904v18.159c0 17.326-0.056 18.217-1.25 19.409-1.5729 1.5729-2.0214 1.5646-3.4969-0.064zm11.345-6.9492c-0.81288-1.1606-0.97288-3.7815-0.97288-15.937v-14.548h2.7614c5.0347 0 4.7386-0.93272 4.7386 14.928 0 15.742-0.2664 16.947-3.75 16.947-1.1558 0-2.1538-0.4992-2.7771-1.3891zm-23.628-1.7378c-1.3953-2.7907-1.6717-26.735-0.3136-27.153 0.4296-0.132 1.996-0.4112 3.4806-0.62l2.6993-0.3792-0.1992 14.012c-0.2368 16.622-2.1006 21.273-5.6671 14.139zm-12.092-3.8124c-1.0639-1.1743-1.1906-2.3531-1.1906-11.077v-9.7625l3.2812-0.7312 3.2813-0.7312v10.419c0 12.727-1.5337 16.119-5.3719 11.883z" fill-rule="evenodd" transform="matrix(.096147 .0023674 0 .096147 -349.42 400)" filter="url(#u)" fill="#485eb2"/>
 </g>
 <g transform="translate(694.05 -293.42)">
  <path filter="url(#v)" style="color-rendering:auto;color:#000000;isolation:auto;mix-blend-mode:normal;shape-rendering:auto;solid-color:#000000;image-rendering:auto" d="m-463.68 346.49c-4.0741 0.007-7.9825 0.0621-11.688 0.16797-59.279 1.6937-147.13 21.87-175.01 27.664-11.658 2.4225-18.351 4.2302-22.303 5.3594-3.952 1.1291-14.395 11.013-11.008 23.434 3.3874 12.42 16.372 70.571 19.195 78.475 2.8228 7.9039 12.985 22.582 29.357 20.324 16.372-2.2583 60.408-9.5976 68.877-10.162 8.4685-0.56457 40.649-3.9509 48.553-15.242 7.9039-11.291 16.937-29.357 21.453-40.084 4.5165-10.727 10.164-23.712 31.617 1.6934 20.393 24.15 49.041 34.553 62.684 38.581-6.9903-2.3698-13.094-4.5961-24.053-9.5162-34.044-20.242-28.647-30.118-28.647-63.418s16.222-33.301 34.153-34.155c17.931-0.85385 46.535-1.2808 69.589 0s27.323 17.077 29.884 27.323c2.5615 10.246 0.0005 35.434-2.561 52.084-2.5616 16.65-9.4884 28.747-19.61 30.127-10.121 1.3802-21.621 0.4597-35.883 1.8398-0.7107 0.0688-1.4055 0.10952-2.0976 0.14648 17.862 1.5345 42.3 2.0105 50.361 1.6074 11.291-0.56458 21.118-0.77953 26.213-1.8457 12.176-2.5482 10.466-0.43217 16.111-17.369 5.6457-16.937 7.8279-40.086 8.4668-54.762 0.63892-14.676 2.7528-39.369-9.5977-45.166-14.358-6.7394-112.94-17.218-174.05-17.105zm-71.588 20.445c6.9242-0.0687 15.6 1.9445 14.936 9.25-0.70841 7.7926-3.8958 66.591-4.25 86.072-0.35421 19.481-19.482 20.189-30.816 22.668-11.335 2.4794-65.173 3.8972-74.383 3.543-9.2094-0.35421-7.7933-4.96-10.627-18.42s-2.0287-61.371-1.2773-68.885c0.75139-7.5139-2.0048-15.528 13.273-20.537 15.278-5.0092 47.587-10.519 57.355-11.771 14.45-1.3086 27.348-1.5266 34.432-1.8809 0.44276-0.0221 0.8958-0.0345 1.3574-0.0391z"/>
  <path opacity=".586" style="color-rendering:auto;color:#000000;isolation:auto;mix-blend-mode:normal;shape-rendering:auto;solid-color:#000000;image-rendering:auto" d="m-297.41 365.31 3.4682 1.7961s0.20763 38.44-5.4732 76.399c3.3417-50.125 1.6708-71.846 2.005-78.195z" filter="url(#b)" fill="#fff"/>
  <path opacity=".586" style="color-rendering:auto;color:#000000;isolation:auto;mix-blend-mode:normal;shape-rendering:auto;solid-color:#000000;image-rendering:auto" d="m-283.71 375.57c-0.65257-11.673 0.4784-15.346 1.7729-0.46441 0.88334 10.155-0.18347 22.52-4.0604 48.426 2.2806-34.208 2.6345-41.755 2.2876-47.961z" transform="matrix(.75392 0 0 .75392 -70.053 95.485)" filter="url(#b)" fill="#fff"/>
  <path opacity=".586" style="color-rendering:auto;color:#000000;isolation:auto;mix-blend-mode:normal;shape-rendering:auto;solid-color:#000000;image-rendering:auto" d="m-297.6 358.07s2.3766 0.42566 2.3037 1.9909c-0.31065 6.667 0.5171 23.42-1.5371 37.146 1.2084-18.125-1.1007-32.787-0.76653-39.136z" transform="matrix(.048018 .99885 -.99885 .048018 68.707 757.56)" filter="url(#b)" fill="#697cc5"/>
  <path style="color-rendering:auto;color:#000000;isolation:auto;mix-blend-mode:normal;shape-rendering:auto;solid-color:#000000;image-rendering:auto" d="m-571.05 368.85c-9.768 1.2523-42.078 6.7625-57.356 11.772-15.278 5.0092-12.523 13.024-13.274 20.538-0.75139 7.5139-1.5558 64.259 1.2778 77.718 2.8336 13.46 1.4168 18.065 10.626 18.419 9.2094 0.35421 63.049-1.0626 74.383-3.5421 11.335-2.4794 30.462-3.1879 30.816-22.669 0.35421-19.481 3.5421-87.113 4.2505-94.905 0.70842-7.7926-9.2094-9.5636-16.294-9.2094-7.0841 0.35421-19.98 0.5707-34.43 1.8793z" transform="matrix(1 0 0 .90569 0 34.604)" filter="url(#a)" stroke="url(#w)" stroke-width=".52539" fill="none"/>
  <path style="color-rendering:auto;color:#000000;isolation:auto;mix-blend-mode:normal;shape-rendering:auto;solid-color:#000000;image-rendering:auto" d="m-426.01 467.18c22.542 10.121 32.664 15.182 46.925 13.802 14.262-1.3802 25.763-0.46005 35.884-1.8402s21.622-15.182 24.383-33.124c2.7603-17.942 5.5206-42.905 2.7603-53.946s-7.3608-28.063-32.203-29.443c-24.843-1.3802-55.666-0.9201-74.988 0s-36.804 0.9201-36.804 36.804 0 47.506 34.044 67.748z" transform="matrix(.91750 0 0 .91750 -31.969 36.808)" filter="url(#a)" stroke="url(#x)" stroke-width=".54496" fill="none"/>
 </g>
</svg>
