<?xml version="1.0" encoding="UTF-8" standalone="no"?>
<svg xmlns:rdf="http://www.w3.org/1999/02/22-rdf-syntax-ns#" xmlns="http://www.w3.org/2000/svg" height="606.04" width="1344.6" version="1.1" xmlns:cc="http://creativecommons.org/ns#" xmlns:dc="http://purl.org/dc/elements/1.1/">
 <g transform="translate(25.119 179.71)">
  <path d="m224.64 325.08c-96.77-7.19-179.66-74.57-206.52-167.88-4.526-15.71-7.206-30.83-8.5719-48.32-0.605-7.75-1.2391-14.235-1.4092-14.412-0.17-0.178-5.1887-0.77-11.153-1.316-12.983-1.1882-21.538-2.9449-22.067-4.5312-0.21271-0.63815 0.48579-1.4372 1.5522-1.7757 3.2496-1.0314 18.268-2.5387 25.376-2.5467l6.7047-0.008 0.46175-3.25c0.25396-1.7875 0.96922-8.3995 1.5895-14.693 7.9165-80.329 61.409-153.52 136.68-187.01 25-11.124 52.975-18.074 79.153-19.664 10.447-1.0954 20.893-0.63927 31.343-0.005 62.088 3.771 123.23 34.774 162.95 82.625 32.314 38.927 50.337 83.823 54.454 135.65l0.64761 8.1514 9.1546 0.67246c15.808 1.1612 25.655 2.9057 25.655 4.5452 0 1.552-7.1093 2.94-21.106 4.1206l-13.606 1.1477-1.1724 13.993c-6.8669 81.959-54.828 153.44-127.62 190.2-25.192 12.722-52.525 20.734-80.746 23.665-13.842 1.8586-27.852 1.6788-41.75 0.646zm21.922-5.794h6.4877c3.5682 0 11.767-0.6921 18.22-1.538 62.341-8.1722 117.74-41.074 154.84-91.962 25.38-34.813 39.738-74.902 43.067-120.25l0.67908-9.25h-9.1062c-8.7765 0-9.1062 0.0815-9.107 2.25-0.002 5.8886-2.2658 25.03-4.0585 34.32-4.2014 21.771-15.142 49.791-26.914 68.93-5.4709 8.8947-16.343 23.527-22.291 30l-4.5943 5-7.5188-7.4233-7.5188-7.4233 4.198-4.9236c15.473-18.148 25.933-35.27 34.046-55.73 7.4447-18.776 12.633-42.826 12.646-58.617l0.006-7.1167-8.6796-1.1204c-4.7738-0.61623-8.9237-0.87625-9.2222-0.57781-0.29844 0.29844 0.21118 2.6388 1.1325 5.2008 0.9213 2.562 1.5016 4.8317 1.2897 5.0437-0.578 0.578-9.3045-4.3967-15.354-8.7527l-5.3332-3.8404 6.3332-4.4881c6.0183-4.265 14.833-9.2368 14.833-8.3663 0 0.22331-0.67223 1.695-1.4938 3.2703-0.82161 1.5754-1.4966 3.9293-1.5 5.2309-0.005 1.9697 0.37119 2.2641 2.2438 1.7554 1.2375-0.33621 5.2875-0.90331 9-1.2602l6.75-0.64896-0.0002-6.1064c-0.00023-7.4293-3.1968-27.378-6.026-37.606-7.0938-25.646-20.607-51.628-36.604-70.38-3.2283-3.7842-6.3168-7.4959-6.8634-8.2482-0.75006-1.0323 0.86279-3.2243 6.5769-8.9384l7.5707-7.5707 7.7675 9.3189c29.015 34.81 45.091 74.463 49.085 121.07l0.66411 7.75h8.9834 8.9834l-0.65419-8.25c-4.403-55.526-25.722-103.93-62.667-142.3-40.52-42.074-92.301-66.338-149.57-70.084-7.918-1.0015-15.848-0.36988-23.789-0.36988-7.6314 0-23.308 1.9789-36.461 4.6025-32.354 6.4538-66.567 22.076-92.875 42.409-41.414 32.007-70.796 77.341-82.629 127.49-2.8133 11.923-5.3037 28.506-5.6316 37.5l-0.23702 6.5 8.5604 0.28709c9.6132 0.3224 9.7699 0.19193 9.7994-8.1588 0.008-2.1294 0.72155-8.6391 1.5868-14.466 5.622-37.862 22.332-74.696 47.145-103.92l7.7819-9.1661 7.25 7.1883c3.9875 3.9536 7.25 7.5526 7.25 7.9979 0 0.44532-2.9236 4.2361-6.4969 8.424-17.509 20.508-31.237 47.344-38.095 74.449-2.718 10.741-5.375 27.943-5.403 34.977l-0.0183 4.6076 6.0254 0.62978c3.314 0.34637 7.1612 0.91484 8.5494 1.2632 2.3591 0.5921 2.4789 0.44596 1.8343-2.2373-0.37934-1.5789-1.3131-4.1083-2.075-5.6208-0.76194-1.5125-1.1309-2.75-0.81982-2.75 2.3733 0 20.486 11.399 20.486 12.892 0 1.0651-10.27 8.2223-15.859 11.052-2.831 1.4335-4.1681 1.7423-3.815 0.88121 1.4421-3.5169 2.9498-8.8758 2.5838-9.1838-0.22562-0.18986-4.1877 0.10958-8.8047 0.66543l-8.3945 1.0106 0.60365 11.264c2.0348 37.969 19.295 79.826 45.12 109.42l6.5453 7.5-7.5544 7.5-7.5544 7.5-4.0692-4.5c-25.199-27.866-43.024-63.019-50.202-99-2.16-10.828-4.5865-30.753-4.5971-37.75-0.003-2.1678-0.33499-2.25-9.0785-2.25h-9.0751l0.62909 9.25c2.2699 33.376 9.2004 59.972 23.037 88.402 22.675 46.593 60.783 84.175 107.87 106.39 25.478 12.018 59.73 20.537 83.86 20.857l7.75 0.1029z"/>
  <path d="m576.43 234.44c-28.04-5.3463-46.443-18.127-56.448-39.203-8.0892-17.039-9.3577-25.335-9.9779-65.251l-0.55064-35.441h31.164 31.164l0.42983 42.066c0.40425 39.561 0.59369 42.378 3.1823 47.313 1.8044 3.4398 4.7706 6.3243 8.6119 8.3746 5.1661 2.7575 7.2985 3.0772 18.021 2.7024 13.095-0.45781 16.512-1.9262 22.204-9.544 2.5608-3.4267 2.7565-5.7281 3.1283-36.783 0.33049-27.605 0.035-34.371-1.773-40.59-5.98-20.588-22.57-42.904-49.59-66.735-32.63-28.764-46.21-44.491-56.34-65.212-8.7996-18.006-10.462-28.483-9.5844-60.399 0.55887-20.323 1.31-28.177 3.4899-36.495 7.8553-29.974 24.931-47.067 55.106-55.161 15.219-4.0824 48.333-4.1058 63.331-0.0448 14.153 3.832 27.327 11.06 35.886 19.686 17.195 17.332 23.256 40.259 23.316 88.185l0.0209 16.892h-31.739-31.739l-0.39025-37.003c-0.37152-35.225-0.52422-37.183-3.1786-40.741-4.7957-6.4288-10.477-8.8216-22.271-9.3798-9.2226-0.43644-11.541-0.0792-16.664 2.5675-12.384 6.3978-13.801 12.577-13.045 56.88 0.4671 27.358 0.60509 28.599 3.9865 35.849 8.1701 17.518 23.825 35.098 65.599 73.666 29.559 27.29 45.167 50.745 48.254 72.513 1.9394 13.676 0.64274 56.484-2.1339 70.444-6.0311 30.323-25.336 51.16-54.559 58.886-13.395 3.5416-43.211 4.5648-56.91 1.9529zm211.51-185.6v-187.47h-31.798-31.798v-20.536-20.536h95.393 95.393v20.536 20.536h-31.798-31.798v187.47 187.47h-31.798-31.798zm156.34-20.536v-208.01h31.135 31.135v208.01 208.01h-31.135-31.135zm186.22 206.54c-35.489-5.1703-59.328-24.985-67.618-56.205-4.2493-16.001-4.8081-37.098-4.3029-162.4 0.4938-122.46 0.5289-123.84 3.4162-134.84 6.1492-23.423 18.875-40.241 37.507-49.568 28.905-14.469 74.487-15.117 104.24-1.4828 13.401 6.141 26.449 19.188 32.59 32.59 7.1697 15.646 5.9697 26.284 9.7134 57.728l0.7021 28.154h-29.917-29.917l-0.4103-35.441c-0.4685-40.459-0.8277-41.938-11.651-47.93-11.428-6.3267-36.55-5.074-45.263 2.2571-8.1619 6.8678-7.7539-1.6198-7.7539 161.28 0 143.83 0.09 149.32 2.5131 154.07 4.09 8.017 11.535 11.336 26.838 11.965 20.571 0.84486 30.684-4.0971 34.186-16.706 0.7993-2.8782 1.3715-21.318 1.3758-44.343l0.013-39.416h29.986 29.985l-0.7238 35.441c-0.6085 29.797-1.1613 37.183-3.4695 46.38-8.3993 33.466-28.719 51.698-64.586 57.953-12.263 2.1385-34.643 2.382-47.449 0.51641z" fill="#286aa6"/>
  <path d="m238.44-154.6c1.2508-14.206 2.7249-21.527 4.1564-20.642 1.2149 0.75083 2.8452 11.376 3.627 23.638 0.921 8.5694 0.42245 17.147 0.42245 25.742 0 6.6531 0.34113 9.1506 1.25 9.1512 11.599 0.008 39.248 4.462 52.791 8.5047 30.324 9.0519 61.25 26.489 82.221 46.359l3.7619 3.5644-7.1418 7.1898-7.1418 7.1898-7.8724-6.8028c-22.407-19.363-53.994-34.952-83.012-40.968-11.028-2.2865-24.442-4.0378-30.928-4.0378h-4.6247l-1.1666 8.25c-0.64166 4.5375-1.4373 9.2625-1.7682 10.5-0.52217 1.9532-0.22334 2.2469 2.2651 2.2263 1.5766-0.013 5.4541-1.0878 8.6166-2.3884 3.6801-1.5134 5.75-1.9461 5.75-1.202 0 3.5445-16.271 28.183-17.933 27.156-2.2328-1.38-17.067-24.806-17.067-26.953 0-0.27002 1.9125 0.37717 4.25 1.4382s5.9863 1.939 8.1084 1.9511c3.6202 0.0206 3.8197-0.13239 3.2308-2.4787-0.34519-1.3754-0.8682-4.6379-1.1622-7.25-0.29404-2.6121-0.76691-6.2712-1.0508-8.1312l-0.51621-3.3819-9.68 0.68439c-5.324 0.37642-15.305 1.8081-22.18 3.1815-32.571 6.5066-61.871 20.84-87.326 42.72l-5.8263 5.0079-7.1737-7.235-7.1737-7.235 5-4.5414c29.299-26.612 71.973-46.29 111-51.187 4.4-0.55204 11.488-1.296 15.75-1.6532l7.75-0.64943v-8.9147c-0.47135-9.6887-0.0561-19.145 0.79418-28.803zm-0.79416 480.43v-15.341-8.7981l-12.75-1.1594c-45.786-4.1634-88.831-22.559-121.07-51.74l-5.3202-4.8156 7.2868-7.3357 7.2868-7.3357c6.5192 11.286 72.539 51.016 125.59 51.016 0.0358-2.2599 2.0114-16.492 2.6159-18.429 0.53402-1.7112 0.19928-1.8332-3.4338-1.2523-2.214 0.35403-6.0894 1.5284-8.612 2.6097l-4.5865 1.966 1.4943-3.5764c1.9533-4.675 7.363-13.507 12.359-20.179l3.9903-5.3285 4.5148 5.7523c4.3812 5.5821 13.904 21.472 13.256 22.119-0.17652 0.17652-2.3004-0.57717-4.7198-1.6749s-6.1167-2.0057-8.2163-2.0178c-3.1685-0.0182-3.7306 0.27549-3.307 1.728 0.28074 0.9625 0.78086 4 1.1114 6.75 0.33052 2.75 0.83891 6.5284 1.1298 8.3966l0.52882 3.3965 10.177-0.59194c37.888-2.2037 81.996-20.753 109.39-46.003l4.4071-4.0623 7.1907 7.2528 7.1907 7.2528-6 5.5384c-7.1745 6.6226-22.152 17.395-32.457 23.345-25.984 15.002-55.295 24.223-86.543 27.226l-13 1.2494-0.28893 8.75-0.28894 15.168 8.0778-0.0494v26.347c0 24.091 0.17923 26.879 2.0927 32.56 3.5182 10.444 10.352 17.681 19.794 20.962 4.9258 1.7115 975.99 2.4169 986.27 0.7164 13.16-2.1784 22.484-8.5401 27.046-18.453l2.3013-5 0.2699-94.424 0.27-94.424-2.3978-2.5755c-3.6641-3.9358-4.8729-6.9312-4.8729-12.076 0-10.123 7.0588-17 17.449-17 6.5481 0 11.83 3.2147 14.779 8.9942 3.353 6.5724 2.1148 14.979-2.859 19.411l-2.138 1.905v93.161c0 62.134-0.3583 95.138-1.0757 99.095-1.6469 9.0843-6.9988 19.291-13.551 25.843-6.3292 6.3292-18.172 12.649-27.172 14.5-8.518 1.7522-992.11 1.3476-998.51-0.4107h0.00004c-16.448-4.5218-27.635-15.32-34.58-33.38-2.4646-6.4089-2.5625-7.5581-3.0785-36.12l-0.533-29.5z" fill="#286aa6"/>
  <g fill="#286aa6" transform="matrix(1.3277 0 0 1.3277 1244 -234.75)">
   <path d="m-805.62 333.34c-11.871 0-21.406 9.5661-21.406 21.438v140c0 11.871 9.5348 21.406 21.406 21.406h151.44c11.871 0 21.438-9.5348 21.438-21.406v-140c0-11.871-9.5661-21.438-21.438-21.438h-151.44zm12.156 12.188h125.72c9.9345 0 17.938 8.003 17.938 17.938v117.16c0 9.9345-8.003 17.938-17.938 17.938h-125.72c-9.9345 0-17.938-8.003-17.938-17.938v-117.16c0-9.9345 8.003-17.938 17.938-17.938z" fill-rule="evenodd" transform="translate(-25.119 -179.71)"/>
   <text style="word-spacing:0px;letter-spacing:0px" font-size="80px" line-height="125%" y="238.46689" x="-825.8158" font-family="Arial" xml:space="preserve"><tspan y="238.46689" x="-825.8158">F5</tspan></text>
  </g>
  <text style="word-spacing:0px;letter-spacing:0px" xml:space="preserve" font-size="46.764px" line-height="125%" y="299.47284" x="513.74341" font-family="Arial" fill="#000000"><tspan x="513.74341" y="299.47284">SUPPLICES ET TOURMENTS VIA</tspan><tspan x="513.74341" y="357.92804">INSCRIPTIONS ET CHALLENGES</tspan></text>
 </g>
</svg>
