<?xml version="1.0" encoding="UTF-8" standalone="no"?>
<svg xmlns:rdf="http://www.w3.org/1999/02/22-rdf-syntax-ns#" xmlns="http://www.w3.org/2000/svg" height="297mm" width="210mm" version="1.1" xmlns:cc="http://creativecommons.org/ns#" xmlns:dc="http://purl.org/dc/elements/1.1/" viewBox="0 0 744.09448819 1052.3622047">
 <text style="word-spacing:0px;letter-spacing:0px" xml:space="preserve" font-size="80px" line-height="100%" y="448.19244" x="674.37122" font-family="sans-serif" fill="#ffffff"><tspan y="448.19244" x="674.37122" font-family="&apos;SEGA LOGO FONT&apos;" fill="#ffffff">Memory MAP</tspan></text>
 <g fill="#000000">
  <g font-size="40px">
   <text style="word-spacing:0px;letter-spacing:0px;text-anchor:end;text-align:end" line-height="100%" y="366.64792" x="335.43527" font-family="&apos;F25 BlackletterTypewriter&apos;" xml:space="preserve"><tspan y="366.64792" x="335.43527">0X000000</tspan><tspan y="406.64792" x="335.43527"/><tspan y="446.64792" x="335.43527"/><tspan y="486.64792" x="335.43527">0X400000</tspan><tspan y="526.64795" x="335.43527"/><tspan y="566.64789" x="335.43527"/><tspan y="606.64789" x="335.43527">0Xa00000</tspan><tspan y="646.64789" x="335.43527"/><tspan y="686.64789" x="335.43527"/><tspan y="726.64789" x="335.43527">0Xa10000</tspan><tspan y="766.64789" x="335.43527"/><tspan y="806.64789" x="335.43527"/><tspan y="846.64789" x="335.43527">0Xc00000</tspan><tspan y="886.64789" x="335.43527"/><tspan y="926.64789" x="335.43527"/><tspan y="966.64789" x="335.43527">0Xff0000</tspan><tspan y="1006.6479" x="335.43527"/><tspan y="1046.6479" x="335.43527"/><tspan y="1086.6479" x="335.43527">0Xffffff</tspan></text>
   <text style="word-spacing:0px;letter-spacing:0px;text-anchor:middle;text-align:center" xml:space="preserve" line-height="100%" y="398.64792" x="483.09155" font-family="&apos;Pfeffer Mediæval&apos;"><tspan x="483.09155" y="398.64792">Cartridge</tspan><tspan x="483.09155" y="438.64792" dy="5.8724399">ROM/RAM</tspan><tspan x="483.09155" y="478.64792"/><tspan x="483.09155" y="518.64795">reserved</tspan><tspan x="483.09155" y="558.64795"/><tspan x="483.09155" y="598.64795"/><tspan x="483.09155" y="638.64795">z80 addressing</tspan><tspan x="483.09155" y="678.64795">space</tspan><tspan x="483.09155" y="718.64795"/><tspan x="483.09155" y="758.64795"/><tspan x="483.09155" y="798.64795">I/O</tspan><tspan x="483.09155" y="838.64795"/><tspan x="483.09155" y="878.64795">reserved</tspan><tspan x="483.09155" y="918.64795"/><tspan x="483.09155" y="958.64795"/><tspan x="483.09155" y="998.64795">68000 RAM</tspan></text>
   <text style="word-spacing:0px;letter-spacing:0px" xml:space="preserve" line-height="100%" y="546.64795" x="1179.0353" font-family="&apos;F25 BlackletterTypewriter&apos;"><tspan x="1179.0353" y="546.64795">0X0000</tspan><tspan x="1179.0353" y="586.64795"/><tspan x="1179.0353" y="626.64795"/><tspan x="1179.0353" y="666.64795">0X2000</tspan><tspan x="1179.0353" y="706.64795"/><tspan x="1179.0353" y="746.64795"/><tspan x="1179.0353" y="786.64795">0X4000</tspan><tspan x="1179.0353" y="826.64795"/><tspan x="1179.0353" y="866.64795"/><tspan x="1179.0353" y="906.64795">0X8000</tspan><tspan x="1179.0353" y="946.64795"/><tspan x="1179.0353" y="986.64795"/><tspan x="1179.0353" y="1026.6479">0X10000</tspan></text>
   <text style="word-spacing:0px;letter-spacing:0px;text-anchor:middle;text-align:center" line-height="100%" y="578.64795" x="1023.0916" font-family="&apos;Pfeffer Mediæval&apos;" xml:space="preserve"><tspan y="578.64795" x="1023.0916">sound RAM</tspan><tspan y="618.64795" x="1023.0916"/><tspan y="658.64795" x="1023.0916"/><tspan y="698.64795" x="1023.0916">reserved</tspan><tspan y="738.64795" x="1023.0916"/><tspan y="778.64795" x="1023.0916"/><tspan y="818.64795" x="1023.0916">reserved</tspan><tspan y="858.64795" x="1023.0916"/><tspan y="898.64795" x="1023.0916"/><tspan y="938.64795" x="1023.0916">68000</tspan><tspan y="978.64795" x="1023.0916" dy="4.8937001">memory bank</tspan><tspan y="1018.6479" x="1023.0916"/><tspan y="1058.6479" x="1023.0916"/><tspan y="1098.6479" x="1023.0916"/></text>
  </g>
  <text style="word-spacing:0px;letter-spacing:0px" xml:space="preserve" font-size="18.799px" y="727.36719" x="349.77121" line-height="120.00000477%"><tspan y="727.36719" x="349.77121" font-family="&apos;F25 BlackletterTypewriter&apos;">0Xa10002-0Xa10019</tspan><tspan font-size="23.932px" line-height="120.00000477%" y="752.65063" x="349.77121" font-family="&apos;Pfeffer Mediæval&apos;">Controllers</tspan></text>
 </g>
 <g>
  <path style="color-rendering:auto;text-decoration-color:#000000;color:#000000;isolation:auto;mix-blend-mode:normal;shape-rendering:auto;solid-color:#000000;block-progression:tb;text-decoration-line:none;text-decoration-style:solid;image-rendering:auto;white-space:normal;text-indent:0;text-transform:none" d="m895.79 524.92l0.55 3.15s-2.78-0.99-2.78-0.99l1.87 120.55-2.34 121.73-1.51 121.59s1.28 128.25 1.28 128.25c85.96-0.1 174.14 1.1 260.04 0.9l1.7-125.1-4-122.92 5.5-124.46-4.7-125.37c-86.3-1.89-172.27 3.1-258.48 5.43l3.54-0.97m249.84 2.16l4.7 122.73-5.3 121.59 3.8 123.59-3.2 115.02c-82.7 0.1-165.22 3.1-247.92 3.2l1.72-125.65-2.27-120.43 2.48-120.52-2.72-115.92c82.97-3.56 169.21-5.4 252.31-5.39 0 0 0.3 0.86 0.3 0.86"/>
  <g stroke="#000" stroke-width="3" fill="none">
   <path style="color-rendering:auto;color:#000000;isolation:auto;mix-blend-mode:normal;shape-rendering:auto;solid-color:#000000;image-rendering:auto" d="m625.27 469.19-141.17 1.709-141.17 1.709s56.848-0.66464 120.56-1.4242c63.717-0.75956 134.3-1.614 161.78-1.9938z"/>
   <path style="color-rendering:auto;color:#000000;isolation:auto;mix-blend-mode:normal;shape-rendering:auto;solid-color:#000000;image-rendering:auto" d="m342.14 591.31c20.9-0.94846 84.259 0.12358 146.22 1.3548 61.958 1.2312 122.52 2.6216 137.82 2.3099"/>
   <path style="color-rendering:auto;color:#000000;isolation:auto;mix-blend-mode:normal;shape-rendering:auto;solid-color:#000000;image-rendering:auto" d="m344.77 710.49c22.053 1.8045 84.817 0.2178 145.57-1.6608 60.75-1.8786 119.49-4.0489 133.49-3.4117"/>
   <path style="color-rendering:auto;color:#000000;isolation:auto;mix-blend-mode:normal;shape-rendering:auto;solid-color:#000000;image-rendering:auto" d="m340.94 833.03c23.965-0.20823 85.862 0.88287 146.5 1.6501 60.633 0.76719 120 1.2105 138.91-0.29335"/>
   <path style="color-rendering:auto;color:#000000;isolation:auto;mix-blend-mode:normal;shape-rendering:auto;solid-color:#000000;image-rendering:auto" d="m340.97 953.24c31.839 0.6782 82.665 1.122 132.84 1.3498 68.121 0.30925 135.05 0.22046 151.65-0.22017"/>
  </g>
  <g>
   <path style="color-rendering:auto;text-decoration-color:#000000;color:#000000;isolation:auto;mix-blend-mode:normal;shape-rendering:auto;solid-color:#000000;block-progression:tb;text-decoration-line:none;text-decoration-style:solid;image-rendering:auto;white-space:normal;text-indent:0;text-transform:none" d="m962.64 645.12c-20.87-0.14-41.86 3.42-64.01 4.07 0 0 2.95 0.95 2.95 0.95 88.4-2.58 160.12 5.22 251.02 2.74l0.8-2.77c-68 1.85-128.9-3.43-191.55-3.85l0.65-1.02"/>
   <path style="color-rendering:auto;text-decoration-color:#000000;color:#000000;isolation:auto;mix-blend-mode:normal;shape-rendering:auto;solid-color:#000000;block-progression:tb;text-decoration-line:none;text-decoration-style:solid;image-rendering:auto;white-space:normal;text-indent:0;text-transform:none" d="m888.27 768.95l2.98 2.41c90.82 2.51 166.95-0.23 260.25 1.3l0.4-1c-93.3-1.53-169.78-2.61-260.55-5.13l-3.44 2.02"/>
   <path style="color-rendering:auto;text-decoration-color:#000000;color:#000000;isolation:auto;mix-blend-mode:normal;shape-rendering:auto;solid-color:#000000;block-progression:tb;text-decoration-line:none;text-decoration-style:solid;image-rendering:auto;white-space:normal;text-indent:0;text-transform:none" d="m889.07 893.94l1.66 4.02c90.57-1.29 169.67 8.28 261.77 0.86l-0.6-5.11c-91.2 3.88-168.57 1.98-262.52 0.64l3.33-2.04"/>
   <path style="color-rendering:auto;text-decoration-color:#000000;color:#000000;isolation:auto;mix-blend-mode:normal;shape-rendering:auto;solid-color:#000000;block-progression:tb;text-decoration-line:none;text-decoration-style:solid;image-rendering:auto;white-space:normal;text-indent:0;text-transform:none" d="m633.08 708.25s91.214 106.55 138.91 161.92c40.675 47.218 118.78 143.78 118.78 143.78l4.5473-3.6005s-80.29-95.446-120.99-142.7c-47.706-55.379-141.46-162.08-141.46-162.08"/>
   <path style="color-rendering:auto;text-decoration-color:#000000;color:#000000;isolation:auto;mix-blend-mode:normal;shape-rendering:auto;solid-color:#000000;block-progression:tb;text-decoration-line:none;text-decoration-style:solid;image-rendering:auto;white-space:normal;text-indent:0;text-transform:none" d="m889.33 524.95c-7.12 1.83-59.79 19.59-120.24 33.38-60.72 13.86-126.67 28.55-139.22 32.02l4.56 2.06c12.47-3.44 72.8-15.9 133.46-29.74 60.52-13.81 119.65-29.4 126.63-31.19 0 0-5.31-5.71-5.31-5.71s1.61 1.74 1.61 1.74"/>
   <path style="color-rendering:auto;text-decoration-color:#000000;color:#000000;isolation:auto;mix-blend-mode:normal;shape-rendering:auto;solid-color:#000000;block-progression:tb;text-decoration-line:none;text-decoration-style:solid;image-rendering:auto;white-space:normal;text-indent:0;text-transform:none" d="m479.82 343.63c-45.935 0.67334-91.87 1.3467-137.8 2.02 26.13 10.151 54.346-0.36111 81.418 2.812 66.995-0.9816 133.99 0.50951 200.97 1.6055 0.4435 39.821 0.88699 79.641 1.3305 119.46-8.9595 32.175 0.0601 65.865-3.2585 98.696 1.0153 59.487-0.1016 119.08-0.20939 178.49 8.087 106.51 2.311 213.37 2.4633 320.03-16.896 27.727-59.064 0.9434-86.251 8.4417-60.167-2.6732-120.5-3.2467-180.63 0.6446-33.165-13.679-5.7446-58.663-16.271-85.709-2.0107-93.206 1.0921-186.45 6.6782-279.49-5.6532-37.539-0.49662-75.678-2.9282-113.48-0.75784-81.846 0.45443-163.74-3.0602-245.54-2.8874 80.421-2.0186 160.91-2.7298 241.36 5.5281 41.354 1.0382 83.274 2.5905 124.88-1.0315 48.715 1.7636 97.697-4.3414 146.04 0.15724 60.137 2.4266 120.22 3.8255 180.35-10.847 38.082 31.838 41.523 58.162 33.907 74.64 0.6526 149.43 0.7705 224.12 2.3732 13.361-34.547 0.57697-71.575 4.9961-107.25-1.3133-125.97-4.5828-252.03 0.74427-377.96-6.111-35.129 1.0343-70.864-1.2008-106.28 0.35341-45.757 0.27536-91.516 0.0121-137.27-24.511-10.879-51.916-2.8439-77.805-5.4222l-69.971-0.65607-0.80421 1.1661-0.21962 0.14468"/>
   <path style="color-rendering:auto;text-decoration-color:#000000;color:#000000;isolation:auto;mix-blend-mode:normal;shape-rendering:auto;solid-color:#000000;block-progression:tb;text-decoration-line:none;text-decoration-style:solid;image-rendering:auto;white-space:normal;text-indent:0;text-transform:none" d="m249.71 262.6c-36.253 0-71.537 16.997-95.271 40.73-23.734 23.734-38.149 58.374-38.149 94.627 0 109.87-3.0017 215.1-3.0017 324.97s-0.45239 220.82-0.45239 330.69c0 36.253 20.595 69.305 44.329 93.038 23.734 23.734 55.89 36.857 92.143 36.857 168.47 0 336.99 3.6897 505.46 3.6897s331.55-1.7487 500.02-1.7487c36.253 0 74.167-12.611 97.9-36.344 23.734-23.734 38.469-56.597 38.469-92.85 0-109.87-1.5228-218.86-1.5228-328.73s0.886-220.09 0.886-329.95c0-36.253-21.437-75.231-45.171-98.965s-48.514-33.705-84.767-33.705c-168.47 0-339.07 1.8359-507.54 1.8359m2.2734 16.482c168.47 0 334.09-2.4053 502.56-2.4053 30.886 0 58.635 13.617 78.711 33.693 20.075 20.075 30.426 51.876 30.426 82.762 0 109.87-0.3034 215.5-0.3034 325.36 0 109.87 3.3517 224.49 3.3517 334.36 0 30.886-10.559 56.723-30.634 76.799-20.076 20.075-49.378 28.925-80.264 28.925-168.47 0-336.89 0.025-505.36 0.025s-341.25 3.4678-509.72 3.4678c-30.886 0-53.297-11.524-73.373-31.6-20.075-20.076-32.299-48.089-32.299-78.975 0-109.87-3.7171-223.97-3.7171-333.83 0-109.87 3.2813-214.89 3.2813-324.76 0-30.886 4.6323-60.888 24.708-80.964 20.075-20.075 56.296-31.492 154.6-33.378 98.301-1.8863 269.57 0.51686 438.04 0.51686z"/>
  </g>
  <path style="color-rendering:auto;color:#000000;isolation:auto;mix-blend-mode:normal;shape-rendering:auto;solid-color:#000000;image-rendering:auto" stroke-dasharray="30, 30" d="m763.22 274.47c163.41-0.30603 326.77-1.6405 490.18-1.9466 31.416-0.0588 67.419 10.17 90.426 34.103 23.007 23.934 33.016 62.312 33.087 110.35 0.153 103.89 5.2002 209.72 5.3533 313.61 0.153 103.89-0.8286 208.36-0.6756 312.25 0.061 41.146-14.625 74.376-35.14 97.493s-44.899 32.008-76.315 32.008c-171.21 0-347.93 0.046-519.15 0.046-171.21 0-336.83 2.1458-508.04 2.1458-31.416 0-59.614-15.148-80.114-37.805s-33.515-52.344-33.515-87.067c0-108.02-3.3884-220.39-3.3884-328.41s3.5534-214.24 3.5534-322.26c0-34.722 5.1076-67.329 28.591-89.96s59.148-36.883 170.41-37.222c111.26-0.33942 271.32 2.9764 434.73 2.6704z" stroke="#fff" stroke-width="5" fill="none"/>
  <path style="color-rendering:auto;text-decoration-color:#000000;color:#000000;isolation:auto;mix-blend-mode:normal;shape-rendering:auto;solid-color:#000000;block-progression:tb;text-decoration-line:none;text-decoration-style:solid;image-rendering:auto;white-space:normal;text-indent:0;text-transform:none" d="m83.242 268.7c-5.0258 71.474-32.022 110.55-20.987 224.02 28.445 48.019 0.68602 104.47 6.0654 161.65-9.1047 61.044-2.9353 120.32 15.186 169.49-28.238 59.09-6.2299 123.44-9.9796 187.58 28.949 41.6-43.464 92.85-1.9988 134.74 11.854 57.581 87.743 41.752 106.95 76.746 43.874 22.971 110.6 15.096 137.18 27.771 24.135-40.118-86.658-39.108-31.964-41.316 1.3442 0.9955 53.358 28.122 47.641 20.347 26.771 5.8915 94.388 2.7268 137.13-1.0403 60.169 5.3479 123.91-49.19 179.61-12.511 51.357 1.4664 102.36-8.0496 151.33-23.161 49.427 6.6564 83.234 27.579 124.21 22.548 57.592-7.2475 116.02-7.9835 173.89-8.0544 34.801 19.613 86.237 37.918 132.73 20.836 42.184-17.112 94.173-3.6349 122.49-14.762 29.119-11.441 76.99-13.95 78.52-38.204 3.5009-55.47 9.6397-93.975 2.2473-153.35-5.9625-47.88 6.1889-61.441 13.536-107.28 4.5605-28.474 13.877-76.259 7.4576-89.788-26.894-56.674-15.407-124.91-9.8417-162.57 3.8622-26.156-7.7507-51.929-7.2742-56.713 4.9657-50.071 40.636-106.6 8.1991-154.71-29.979-44.466 7.709-102.42-6.4991-145.21-15.408-46.402-42.009-81.076-95.945-89.986-73.219-12.095-149.11-20.497-221.13-5.969-49.4 9.9648-96.314-21.295-147.35-13.432-79.166 12.197-150.79-2.4376-231.09 1.7528-92.599 4.8328-274.21 12.395-344.02 14.755-56.007 1.8929-115.73-20.042-163.65-26.852-42.82-6.0854-111.82-16.362-165.42-36.091 2.1602 31.942 15.032 86.609 12.771 118.76zm149.89-76.13c48.501 2.4872 91.928 33.843 143.69 29.007 55.525-5.187 201.59 0.65691 277.64-7.3653 93.027-9.8132 165.06-4.2224 258.69-5.2481 41.137-0.45081 93.674-12.907 116.83-1.5906 58.57 28.628 112.66 2.0483 174.7 0.88429 56.153-1.0537 128.64 2.1184 173.66 25.317 44.324 22.838 62.058 83.133 47.462 131.5-16.903 56.005 17.075 80.311 24.006 129.44 5.6707 40.194-33.365 97.421-21.454 132 21.385 62.071-16.539 74.292 0.6896 151.32 10.867 48.587 18.352 91.293 3.73 137.45-17.389 54.892 4.7403 107.56-12.152 159.21-9.2059 28.141 8.5559 91.278-8.9438 100.36-47.012 24.416-83.348 39.408-127.87 33.707-54.29 11.302-116.68 30.968-167.36-0.7063-26.271-18.233-89.466-2.045-133.54-4.9985-45.627 0.5321-87.393 17.417-103.65-1.8495-46.911-5.8615-87.728-23.218-133.88-2.6285-49.795 18.071-97.462 6.625-146.41 0.3141-59.799 6.7674-115.44 35.723-177.83 25.104-52.071 2.574-91.847-2.5561-107.31-8.9069-15.743-12.186-47.389-26.179-59.948-0.7071 34.336-3.9195 87.72 49.3 38.5 20.534-66.074 3.7835-117.57-33.214-171.79-49.738-65.752-23.3-57.3-96.8-31.32-147.2-10.588-55.32-0.951-115.76-16.968-170.1 24.691-46.53 15.065-74.32 1.538-108.35-8.344-68.64 2.906-138.78 10.298-207.34-10.102-48.34-27.675-103.34-11.6-159.99 0.99578-62.937 32.342-108.32 14.151-173.09-4.7401-16.878-1.8587-45.682 0.54147-57.168m208.35 1051.6c-4.5777-12.438 0.41791 2.6439 0.0882-0.069" fill-rule="evenodd"/>
 </g>
 <path d="m1285.2 410.3c10.664-0.576 23.153 3.2103 30.839-6.589 10.17-16.194-8.5255-27.095-23.146-23.457-6.412-2.226-20.819 4.0796-19.838-6.0352-1.8097-8.9173 13.754-2.8363 19.554-5.1847 17.676-3.8738 39.911 6.3859 36.597 27.582-0.1871 19.921-19.569 22.728-32.127 26.437l0.6981 24.29c-10.396 3.0082-14.793-0.399-12.284-11.191 0-8.9848-0.01-17.97-0.01-26.954m-12.659-13.822c10.398-0.2929 21.354 0.5474 31.416-0.4279-0.1127-4.819-14.845-1.4773-21.723-2.1296-9.6241 6.0798-13.635-11.663-5.3692-11.028 11.801 1.0875 24.665-2.0355 35.53 2.9563 13.054 16.702-7.2524 25.054-21.43 21.653-11.594-3.5063-6.306 10.528-7.9527 17.357-1.246 7.2588 1.0943 18.265-2.3045 23.275-11.627 3.5588-6.8485-10.342-8.567-17.328-1.0276-11.388-0.1985-22.824-0.2597-34.239m-42.757 43.375c10.896-0.6003 21.792-1.2006 32.687-1.8009-7.2312-19.295-15.124-38.456-21.917-57.84-10.019-0.6253-8.4476 12.416-11.881 19.664-4.2021 16.351-10.785 31.911-16.554 47.742-12.248 4.637-11.716-1.1704-6.6205-10.709 7.7291-18.926 13.3-38.577 19.095-58.153 5.459-15.828 27.958-7.5925 29.239 6.6185 6.1972 21.047 13.566 41.692 21.394 62.182-15.634 0.4528-31.268 0.9056-46.902 1.3584 0.057-3.0477 0.1141-6.0954 0.1711-9.1431m1.5478-4.1193c-5.3092-2.9001-0.8256 19.688-11.866 12.423-8.8144-0.7553 3.2128-13.442 3.276-19.28 6.8147-14.961 9.8557-31.688 17.514-46.098 6.2857 10.383 8.1581 24.078 13.209 35.592 0.2132 5.9611 12.216 20.725 1.447 18.486-8.3244-0.4828-16.649-0.9657-24.973-1.4485m9.6255-27.838c0.09 5.9335-11.531 20.046-0.6341 18.431 13.551 4.0301 4.0316-7.7067 1.8674-14.417l-1.8234-4.2312m-81.383 7.0021c-4.0001-10.688-8.6748-21.54-12.265-32.131-9.8895-4.3545-8.3157 12.644-12.194 18.634-4.607 15.958-11.317 31.164-17.289 46.633-12.836 5.6251-9.296-3.2503-5.817-12.072 6.1532-20.923 14.355-41.651 23.031-61.304 11.871-13.455 21.268 6.2919 25.642 6.9441 2.9416-13.039 25.006-16.664 26.89 0.095 9.1933 21.934 17.111 44.319 23.754 67.156-10.587 5.1077-11.556-4.9932-13.978-12.796-5.9274-17.71-11.855-35.421-17.782-53.132-11.197-7.0988-11.001 12.183-14.787 18.932-1.3446 4.0497-2.6891 8.0994-4.0337 12.149m-0.5937 34.114c-6.0714-12.874-10.686-26.289-14.676-39.937-5.2675 13.416-10.356 26.899-15.07 40.521-13.363 4.5736-5.6829-7.1618-3.6312-14.535 6.1312-16.346 10.184-33.944 17.635-49.494 5.922-0.6212 6.0482 13.325 9.576 18.564 2.7143 3.7643 5.7189 24.539 8.1668 12.692 3.7225-10.694 6.7121-21.782 10.888-32.232 5.9183 2.1421 5.9358 13.978 9.4486 20.276 5.1309 15.42 11.338 30.443 17.131 45.618-10.321 1.5649-14.616-4.3626-16.007-13.9-2.7953-8.8803-6.2674-17.523-9.449-26.268-3.414 13.929-8.7923 26.99-15.412 39.684m-89.13-0.9831c11.335 3.6306 12.601-3.1878 11.074-12.904-5.493-17.297 17.789-20.255 14.805-38.597-0.4845-8.6898-0.9691-17.38-1.4537-26.069-12.088-2.5332-8.6462 8.978-9.0656 16.998 0.7717 9.8143 0.064 27.239-14.107 22.715-5.5116 3.1809-1.0001 15.847-2.4984 22.826-0.012 5.1481-0.024 10.296-0.036 15.444m-1.3378-0.2389c-0.01-12.167-0.018-24.334-0.027-36.502-11.842 0.6433-20.044-6.3582-17.076-19.329-1.8244-6.5853 4.8622-20.405-3.4659-21.462-9.8153-2.9953-4.1101 13.14-6.5359 19.254-6.4228 17.614 13.881 26.224 16.278 38.472 2.187 6.2917-3.9715 20.449 4.4814 20.835l5.5468 0.4626m-0.3595-51.815c-6.696-5.231-1.6714-16.249-3.2343-23.974-1.5373-8.8796-14.53-0.7477-9.6787 7.9859-0.6445 10.164-2.421 28.206 12.869 26.613 13.561 3.1623 20.089-8.008 16.962-20.127-1.2428-7.4587 3.3858-20.617-8.5763-17.67-7.3433 0.3741-0.7816 14.879-2.3623 21.11 1.8502 5.7374-1.4183 5.7467-6.2232 6.2466m-87.914 50.251c10.494 1.9914 14.449-2.1243 11.714-12.49-0.38234-13.7-0.76469-27.4-1.147-41.1 6.7802 1.6746 20.05-5.1445 22.308 2.296-3.6209 5.5154-19.808-3.8141-18.519 5.5532 0.55246 15.649 0.17285 31.289-0.51685 46.927 11.317 1.3775 13.664-4.7736 11.305-14.875-0.89002-10.837-1.3468-19.499 4.8818-3.1901-1.2964 11.486 24.487 27.404 18.362 11.202-5.3546-12.111-12.778-23.058-19.803-34.229 17.213 4.0136 20.355-23.725 3.2074-24.871-10.623 0.113-21.247 0.2261-31.87 0.3391-0.25626 21.324 0.17764 42.62 1.4015 63.911m54.351 1.7099c12.892 0.9124 10.684-4.9807 3.8855-12.943-2.6162-6.5698-12.069-15.402-8.6769-21.21 15.363-15.966 3.231-49.463-21.733-44.812-9.726 0.0007-19.452 0-29.178 0-3.6387 11.781 5.9232 10.872 14.708 10.709 10.445 2.3406 25.17-4.3287 30.416 8.1118 8.5496 13.38-10.431 20.735-9.2931 25.566 6.9833 10.984 13.402 22.262 19.479 33.77m-89.37 0.4955c15.967 1.1147 34.785-4.5842 31.701-24.987-0.81884-14.339-0.20941-29.126-1.4286-43.067-9.8484-15.308-30.023-12.43-44.531-7.2368-13.929 13.475-7.459 34.29-9.1149 51.613-1.2165 13.104 9.8926 23.633 21.578 22.804m5.136-10.676c-14.999 4.7868-16.576-10.02-15.704-21.474 0.37531-10.382-2.2-21.49 0.50249-31.298 8.7194-3.8098 28.599-8.847 32.778 3.7978 2.144 12.496 0.76316 25.73 1.5278 38.513 0.0478 8.665-11.742 13.02-18.987 10.272m4.9938-2.3746c14.38 1.8938 10.547-16.064 10.186-25.62-1.9021-9.0041 3.4109-26.84-11.514-24.869-10.987-3.4418-20.01 2.9729-17.79 15.003 0.63195 11.343-1.1058 23.15 1.5645 34.064 6.4696 0.5513 12.952 0.9741 19.4 2.056m-9.1091-12.031c-0.99747-4.7266-0.0858-16.016-0.21317-23.414-4.3785-10.701 12.02-6.2053 8.0904 3.4701-1.3802 5.9962 2.6299 19.35-2.5824 20.653-1.3723-0.191-2.7446-0.3819-4.1169-0.5729m-74.48-9.4348c-3.8106-11.259-8.359-22.344-11.664-33.723-11.213 0.4716-9.895 13.8-13.861 21.574-5.2437 15.825-10.487 31.65-15.731 47.474-20.781 1.3195 3.0729-24.726 2.6639-35.939 8.6954-13.381 6.4037-47.774 28.27-41.973 9.8842-0.3941 10.957 22.233 14.365 3.4907 19.532-18.22 28.13 12.289 33.169 27.466 0.88561 12.682 22.727 42.948 8.2887 45.99-5.7864-3.3601-5.8839-14.87-9.4712-21.38-5.2614-15.023-10.523-30.046-15.784-45.069-10.266-6.4023-11.443 8.8565-14.973 16.24-1.8835 5.0695-3.7669 10.139-5.6504 15.209m1.6576 35.71c-4.892-13.49-9.9412-26.921-15.154-40.291-4.4689 13.547-9.0712 27.049-13.733 40.531-22.356 3.9678 2.3045-26.438 2.0093-38.136 4.2258-12.436 11.383-41.213 16.222-15.713 3.2533 8.8265 6.5066 17.653 9.76 26.479 5.0296-12.943 8.4948-26.636 14.509-39.106 9.6026 11.837 14.993 39.357 22.886 57.517 9.401 11.016-15.437 11.589-11.605-0.9968-1.802-11.074-6.9858-20.995-11.427-31.169-3.4473 13.959-8.0208 27.511-13.414 40.832m-102.88-54.502c2.1372-21.122 20.919-26.712 38.75-24.769 8.755-1.0823 17.07-1.6596 14.929 9.773-12.55 1.8902-26.406-0.6124-37.899 4.8947-9.3909 11.44-3.4017 27.106-4.6798 40.668 2.0083 15.093 17.382 11.618 28.623 12.312 8.5845-2.3969 17.453 2.5707 11.807 10.176-14.831-0.3642-32.442 6.4686-43.609-7.144-13.223-11.088-5.8044-30.483-7.0084-45.422m12.466 12.743c1.0448-11.894 1.6167-29.172 18.248-25.115 6.6304 2.1171 20.178-3.8641 21.541 4.4191 5.5504 11.476-9.7811 5.0347-16.101 6.3253-9.8735-4.2906-18.789 7.116-4.6816 4.1188 8.1924-0.7426 18.817-4.291 15.669 8.0493-1.3391 6.273-15.059 0.6643-21.189 2.3394-3.8299-0.066-7.6598-0.1317-11.49-0.1976m-1.9578 2.4418c11.604-0.06 23.207-0.1192 34.811-0.1788 3.3638 11.228-3.7854 12.402-13.251 11.361-14.331-1.1703-8.809 3.9201 2.246 2.8656 8.2483 0.3587 19.07-1.9559 16.192 9.9607-3.8346 3.7293-15.669-0.3219-22.521 0.4732-15.157 2.2058-17.102-10.272-17.031-21.792l-0.19657-1.3199-0.0698-0.4688m-60.829 3.1294c-4.6322-11.244-7.4797-23.373-13.354-34.001-8.8437-0.3715-8.0707 12.685-12.334 19.558-6.7989 15.848-10.71 32.668-15.679 49.132-12.975 2.5238-9.7217-6.045-6.2018-14.796 5.1805-19.884 13.99-38.483 21.086-57.687 8.5318-18.31 24.11 3.8913 26.881 4.1259 5.8725-13.814 25.125-14.59 28.442 1.5001l23.172 67.303c-10.298 2.1706-14.117-4.1317-15.695-13.365-6.4602-17.759-11.583-35.947-17-54.04-10.608-4.798-11.456 12.437-14.942 19.512-1.227 3.899-2.4541 7.798-3.6812 11.697m-0.11462 35.703c-6.4622-13.255-12.167-26.825-16.999-40.759-4.2288 13.518-7.9739 27.172-11.487 40.892-12.376 1.6868-10.804-5.1908-6.2433-13.903 6.9388-16.993 10.969-35.248 17.328-52.245 7.3634 1.5411 6.9777 12.612 10.472 19.144 2.9405 4.1296 5.8185 24.795 8.817 13.544 4.8883-10.482 6.7772-22.02 10.957-32.69 6.7852 0.1936 6.4784 14.107 9.8168 21.425 4.0366 15.403 10.24 30.101 15.471 45.115-10.878 3.5267-12.015-5.8715-13.998-14.146-2.5417-9.6582-6.6454-18.792-10.042-28.163-5.0339 14.074-10.23 28.083-15.701 41.993"/>
 <path style="color-rendering:auto;text-decoration-color:#000000;color:#000000;isolation:auto;mix-blend-mode:normal;shape-rendering:auto;solid-color:#000000;block-progression:tb;text-decoration-line:none;text-decoration-style:solid;image-rendering:auto;white-space:normal;text-indent:0;text-transform:none" d="m784.83 570.52c-25.713 0.10105-50.173 9.9068-74.34 17.615-28.241 10.404-58.201 24.531-68.873 54.734-0.43346 2.2298 2.8164 6.6494 3.1774 7.36 1.1051 2.1754-5.9322-3.7329-6.8529 2.6863-0.043 23.252 11.044 39.181 21.532 59.015 30.565 51.449 67.834 98.803 108.74 142.39 15.553 15.671 33.827 31.42 56.907 32.959 8.9799 3.5925 4.7449-3.455 2.6388-8.7903-19.27-50.093-38.266-100.3-55.23-151.23-8.922-11.108-18.598-21.76-30.463-29.805 9.4907-7.1971 27.624 0.0465 32.637-11.693 17.195-33.028 35.585-65.408 54.544-97.45-12.723-10.044-27.836-17.847-44.416-17.79zm-0.23901 9.419c9.6062 0.74753 33.911 4.4266 29.518 15.642-16.86 28.443-32.879 57.372-48.189 86.677-15.319 1.4896-29.709 7.0927-44.017 12.398 16.044 11.262 33.312 22.77 43.197 39.98 15.93 47.666 33.662 94.691 51.729 141.58-22.092-5.6413-37.427-24.385-52.784-39.972-41.998-47.767-82.107-98.261-110.47-155.5-2.9745-6.5808-9.1299-18.813 0.83819-8.328 14.089 5.2035 19.111 16.966 24.646 29.807 25.45 43.55 55.453 85.206 93.653 118.5 5.2345 3.8527 10.646 7.4576 15.962 11.196-14.848-35.375-30.902-70.322-42.085-107.1-18.493-15.517-36.711-31.501-52.23-50.075 19.545-2.1892 38.853-5.9774 58.237-9.226 12.466-17.618 22.911-36.558 30.737-56.683-10.909-2.5108-21.912-5.9979-33.155-2.9232-28.122 5.2477-59.133 15.639-74.235 41.926-5.1187 1.4233-22.035-2.7938-24.772-4.2757 14.925-29.913 48.665-42.185 78.422-51.938 17.974-5.054 36.076-11.935 54.994-11.681zm-24.045 34.203c19.566-1.4785-2.1411 21.683-5.8385 30.936-4.6608 15.539-20.963 13.532-33.994 16.366-14.973 2.6168-30.088 4.292-45.181 6.0389 19 22.84 39.804 44.129 62.951 62.795 7.6136 24.031 16.574 47.601 26.828 70.629-31.542-30.41-56.801-66.83-78.688-104.61-6.4738-8.2532-4.8204-22.228-16.775-25.2-5.4428-3.5842-24.442-15.785-21.309-18.846 9.6314-3.8554 25.207 11.83 31.847 6.8506 9.4967-22.567 32.725-34.142 55.119-40.249 8.1798-2.3183 16.557-4.0283 25.04-4.707zm104.75 39.893c-27.33 22.263-56.588 41.932-86.017 61.257-2.8416 2.4919-1.1142 7.7297 2.6521 8.0425 31.307 43.274 59.583 88.596 86.988 134.41 13.28-35.303 17.41-73.682 15.151-111.17-3.7539-18.239-6.9765-36.547-9.5649-54.997-2.0552-12.762-5.6105-25.153-9.2096-37.541zm-5.3227 16.078c7.2692 24.654 8.1019 50.579 14.386 75.455 2.6034 29.996-0.37591 60.641-8.032 89.768-23.718-39.764-48.87-78.656-75.885-116.26 23.726-15.551 47.396-31.167 69.531-48.959zm0.60306 42.057c-14.584 6.1777-29.154 12.598-44.925 14.994-5.3779 2.0921-2.3774 8.8518 0.84454 11.474 12.467 18.35 26.093 35.864 40.668 52.583 8.5745-15.294 14.434-32.985 10.132-50.601-1.8091-9.5801-4.6015-18.937-6.7191-28.45zm-6.5931 12.901c4.2475 15.828 8.5988 33.339 0.98733 48.934-10.761-12.411-20.289-25.796-29.662-39.265 10.121-1.5053 19.314-5.8009 28.674-9.6691z" stroke="#000" stroke-linecap="round" stroke-miterlimit="10" stroke-width="3" fill="none"/>
 <style>.st0{fill:#46c8e1}</style>
</svg>
